<svg width="647" height="504" viewBox="0 0 647 504" fill="none" xmlns="http://www.w3.org/2000/svg">
<g clip-path="url(#clip0)">
<g opacity="0.1">
<path opacity="0.1" d="M512.978 378.304C533.82 390.348 533.954 409.835 513.215 421.865C492.475 433.895 458.852 433.908 438.001 421.865C417.15 409.822 417.056 390.334 437.76 378.327C458.463 366.319 492.145 366.288 512.978 378.304Z" fill="black"/>
</g>
<g opacity="0.1">
<path opacity="0.1" d="M567.1 280.076C573.388 283.671 573.424 289.546 567.194 293.186L554.8 300.434L324.901 434.894L305.711 446.112C299.463 449.752 289.372 449.774 283.088 446.179L148.754 369.205C142.47 365.605 142.417 359.749 148.642 356.109L410.143 203.183C416.391 199.538 426.504 199.503 432.797 203.102L567.1 280.076Z" fill="black"/>
</g>
<path d="M571.956 237.698C571.947 238.259 571.852 238.815 571.675 239.348C571.675 239.401 571.639 239.464 571.626 239.522C571.432 240.051 571.174 240.554 570.858 241.021C570.795 241.105 570.751 241.186 570.693 241.27C570.314 241.78 569.885 242.251 569.412 242.675C569.051 242.975 568.674 243.255 568.283 243.514C567.948 243.75 567.667 244 567.292 244.219L554.872 251.436L554.814 272.311L567.239 265.103C567.301 265.058 567.367 265.018 567.435 264.982C567.734 264.795 567.944 264.598 568.211 264.411C568.61 264.148 568.993 263.862 569.358 263.555C569.395 263.531 569.429 263.504 569.461 263.474C569.826 263.149 570.161 262.79 570.461 262.404C570.524 262.325 570.582 262.241 570.635 262.154C570.702 262.06 570.751 261.985 570.809 261.895C570.867 261.806 571.028 261.597 571.112 261.449C571.28 261.162 571.43 260.864 571.559 260.557C571.577 260.51 571.591 260.461 571.599 260.41C571.599 260.357 571.626 260.308 571.648 260.25C571.716 260.056 571.772 259.858 571.813 259.656C571.876 259.354 571.912 259.046 571.92 258.737V258.617C571.938 252.554 571.954 246.486 571.969 240.414V237.88L571.956 237.698Z" fill="#747BE3"/>
<path d="M148.647 318.963C145.501 317.138 143.921 314.752 143.925 312.365L143.872 333.249C143.872 335.631 145.438 338.022 148.602 339.846L282.687 417.217L282.754 396.338L148.647 318.963Z" fill="#626BDC"/>
<path d="M305.38 396.338C304.375 396.902 303.316 397.366 302.221 397.725C301.828 397.863 301.422 397.984 301.002 398.095C300.489 398.238 299.967 398.381 299.422 398.492C298.775 398.622 298.124 398.751 297.459 398.831C297.303 398.831 297.155 398.88 297.012 398.894C296.12 398.987 295.227 399.037 294.308 399.045H293.92C293.025 399.041 292.131 398.992 291.242 398.898L290.872 398.854C289.999 398.756 289.133 398.607 288.279 398.408C288.14 398.381 287.993 398.341 287.832 398.301C287.068 398.117 286.316 397.889 285.578 397.618C285.462 397.574 285.329 397.547 285.208 397.493C284.367 397.169 283.553 396.782 282.771 396.334L282.704 417.213C283.449 417.637 284.223 418.007 285.021 418.319C285.056 418.319 285.11 418.35 285.154 418.368C285.271 418.417 285.4 418.448 285.534 418.493C286.002 418.663 286.476 418.837 286.971 418.984C287.234 419.055 287.502 419.109 287.779 419.175L288.225 419.287L288.649 419.39C289.167 419.497 289.702 419.59 290.233 419.662L290.787 419.724L291.233 419.773C291.425 419.773 291.617 419.827 291.804 419.84C292.326 419.88 292.849 419.911 293.375 419.916C293.54 419.916 293.705 419.916 293.866 419.916H295.013C295.607 419.916 296.196 419.853 296.798 419.8C296.865 419.8 296.937 419.773 297.004 419.769L297.45 419.706C297.896 419.648 298.378 419.599 298.82 419.514C299.025 419.483 299.204 419.407 299.4 419.367C299.949 419.251 300.476 419.122 301.007 418.975C301.279 418.894 301.578 418.845 301.85 418.761C301.98 418.721 302.082 418.64 302.216 418.6C303.309 418.238 304.366 417.774 305.372 417.213L324.562 406.062L324.62 385.182L305.38 396.338Z" fill="#747BE3"/>
<path d="M567.238 231.105C573.518 234.722 573.536 240.592 567.296 244.219L554.876 251.436L324.589 385.187L305.398 396.338C299.15 399.964 289.042 399.964 282.771 396.338L148.647 318.963C142.399 315.336 142.345 309.484 148.584 305.862L410.491 153.761C416.74 150.139 426.861 150.13 433.141 153.761L567.238 231.105Z" fill="#C0C0F6"/>
<path d="M554.872 251.431L324.585 385.182L167.793 294.715L398.076 160.955L554.872 251.431Z" fill="url(#paint0_linear)"/>
<path d="M515.134 212.402C516.812 213.37 516.852 215.351 514.389 216.631C512.684 217.523 510.524 218.219 508.841 217.251L460.084 189.569C458.406 188.601 460.575 186.318 462.244 185.345C463.179 184.873 464.213 184.627 465.261 184.627C466.309 184.627 467.342 184.873 468.278 185.345L515.134 212.402Z" fill="#FAFAFF"/>
<path d="M513.661 213.656C515.339 214.628 515.353 216.207 513.697 217.162C512.757 217.64 511.717 217.889 510.662 217.889C509.607 217.889 508.567 217.64 507.627 217.162L460.766 190.122C459.088 189.154 459.102 187.584 460.766 186.616C461.701 186.142 462.735 185.895 463.783 185.895C464.832 185.895 465.865 186.142 466.8 186.616L513.661 213.656Z" fill="#E0E0FA"/>
<path d="M554.872 251.431L554.814 272.306L324.527 406.062L324.585 385.182L554.872 251.431Z" fill="url(#paint1_linear)"/>
<path d="M455.451 260.067V265.812C454.905 265.99 454.379 266.224 453.88 266.508L453.777 266.57V260.816C453.813 260.799 453.847 260.78 453.88 260.758C454.378 260.475 454.905 260.245 455.451 260.071V260.067Z" fill="#B8387B"/>
<path d="M497.086 44.9435L474.294 58.1866C473.586 58.5963 472.784 58.812 471.966 58.812C471.149 58.812 470.346 58.5963 469.639 58.1866L446.646 44.9168C445.941 44.5092 445.357 43.9238 444.95 43.2192C444.544 42.5147 444.33 41.7157 444.33 40.9024C444.33 40.0891 444.544 39.2901 444.95 38.5855C445.357 37.8809 445.941 37.2955 446.646 36.888L469.433 23.6404C470.14 23.2316 470.942 23.0164 471.759 23.0164C472.575 23.0164 473.377 23.2316 474.084 23.6404L497.072 36.9058C497.779 37.3116 498.367 37.8963 498.776 38.6011C499.185 39.3059 499.401 40.106 499.402 40.9208C499.404 41.7356 499.19 42.5364 498.784 43.2426C498.377 43.9488 497.791 44.5354 497.086 44.9435Z" fill="#FDCDE7"/>
<g opacity="0.86">
<path opacity="0.86" d="M497.086 58.9181L474.289 72.1567C473.582 72.5664 472.779 72.7821 471.962 72.7821C471.144 72.7821 470.341 72.5664 469.634 72.1567L446.641 58.878C445.937 58.4704 445.352 57.885 444.946 57.1804C444.54 56.4758 444.326 55.6768 444.326 54.8636C444.326 54.0503 444.54 53.2513 444.946 52.5467C445.352 51.8421 445.937 51.2567 446.641 50.8491L469.447 37.6105C470.153 37.2017 470.956 36.9865 471.772 36.9865C472.589 36.9865 473.391 37.2017 474.097 37.6105L497.086 50.8759C497.793 51.2826 498.381 51.8684 498.789 52.5744C499.198 53.2803 499.413 54.0815 499.413 54.897C499.413 55.7126 499.198 56.5137 498.789 57.2197C498.381 57.9256 497.793 58.5115 497.086 58.9181Z" fill="#FDCDE7"/>
</g>
<g opacity="0.71">
<path opacity="0.71" d="M497.086 72.8883L474.289 86.1269C473.582 86.5366 472.779 86.7523 471.962 86.7523C471.144 86.7523 470.341 86.5366 469.634 86.1269L446.641 72.8615C445.937 72.454 445.352 71.8686 444.946 71.164C444.54 70.4594 444.326 69.6604 444.326 68.8471C444.326 68.0338 444.54 67.2349 444.946 66.5303C445.352 65.8257 445.937 65.2403 446.641 64.8327L469.447 51.5941C470.153 51.1853 470.956 50.97 471.772 50.97C472.589 50.97 473.391 51.1853 474.097 51.5941L497.086 64.8595C497.79 65.267 498.375 65.8524 498.781 66.557C499.187 67.2616 499.401 68.0606 499.401 68.8739C499.401 69.6872 499.187 70.4862 498.781 71.1908C498.375 71.8953 497.79 72.4808 497.086 72.8883Z" fill="#FDCDE7"/>
</g>
<g opacity="0.57">
<path opacity="0.57" d="M497.086 86.8629L474.289 100.101C473.582 100.511 472.779 100.727 471.962 100.727C471.144 100.727 470.341 100.511 469.634 100.101L446.641 86.8361C445.938 86.4276 445.355 85.8419 444.949 85.1374C444.544 84.433 444.33 83.6344 444.33 82.8217C444.33 82.0089 444.544 81.2104 444.949 80.5059C445.355 79.8015 445.938 79.2157 446.641 78.8073L469.447 65.5687C470.153 65.1598 470.955 64.9446 471.772 64.9446C472.588 64.9446 473.391 65.1598 474.097 65.5687L497.086 78.834C497.79 79.2416 498.375 79.827 498.781 80.5316C499.187 81.2362 499.401 82.0352 499.401 82.8484C499.401 83.6617 499.187 84.4607 498.781 85.1653C498.375 85.8699 497.79 86.4553 497.086 86.8629Z" fill="#FDCDE7"/>
</g>
<g opacity="0.43">
<path opacity="0.43" d="M497.086 100.833L474.289 114.072C473.582 114.48 472.78 114.696 471.964 114.696C471.147 114.696 470.345 114.48 469.639 114.072L446.641 100.806C445.938 100.398 445.355 99.8121 444.949 99.1076C444.544 98.4031 444.33 97.6046 444.33 96.7918C444.33 95.9791 444.544 95.1806 444.949 94.4761C445.355 93.7716 445.938 93.1859 446.641 92.7774L469.447 79.5388C470.153 79.13 470.955 78.9147 471.772 78.9147C472.588 78.9147 473.391 79.13 474.097 79.5388L497.086 92.8042C497.79 93.2117 498.375 93.7972 498.781 94.5017C499.187 95.2063 499.401 96.0053 499.401 96.8186C499.401 97.6319 499.187 98.4309 498.781 99.1355C498.375 99.8401 497.79 100.425 497.086 100.833Z" fill="#FDCDE7"/>
</g>
<g opacity="0.29">
<path opacity="0.29" d="M497.086 114.808L474.289 128.046C473.583 128.456 472.78 128.671 471.964 128.671C471.147 128.671 470.345 128.456 469.639 128.046L446.646 114.781C445.943 114.372 445.359 113.787 444.953 113.082C444.548 112.378 444.334 111.579 444.334 110.766C444.334 109.954 444.548 109.155 444.953 108.451C445.359 107.746 445.943 107.161 446.646 106.752L469.451 93.5135C470.158 93.1047 470.96 92.8894 471.776 92.8894C472.593 92.8894 473.395 93.1047 474.102 93.5135L497.09 106.779C497.794 107.187 498.378 107.773 498.784 108.477C499.19 109.182 499.404 109.981 499.403 110.795C499.403 111.608 499.189 112.407 498.782 113.111C498.375 113.815 497.79 114.401 497.086 114.808Z" fill="#FDCDE7"/>
</g>
<g opacity="0.14">
<path opacity="0.14" d="M497.086 128.778L474.289 142.016C473.583 142.426 472.78 142.641 471.964 142.641C471.147 142.641 470.345 142.426 469.639 142.016L446.646 128.751C445.943 128.343 445.359 127.757 444.953 127.052C444.548 126.348 444.334 125.549 444.334 124.737C444.334 123.924 444.548 123.125 444.953 122.421C445.359 121.716 445.943 121.131 446.646 120.722L469.451 107.484C470.158 107.075 470.96 106.859 471.776 106.859C472.593 106.859 473.395 107.075 474.102 107.484L497.09 120.749C497.794 121.157 498.378 121.743 498.784 122.447C499.19 123.152 499.404 123.951 499.403 124.765C499.403 125.578 499.189 126.377 498.782 127.081C498.375 127.786 497.79 128.371 497.086 128.778Z" fill="#FDCDE7"/>
</g>
<path d="M497.086 44.9435L474.294 58.1866C473.586 58.5963 472.784 58.812 471.966 58.812C471.149 58.812 470.346 58.5963 469.639 58.1866L446.646 44.9168C445.941 44.5092 445.357 43.9238 444.95 43.2192C444.544 42.5147 444.33 41.7157 444.33 40.9024C444.33 40.0891 444.544 39.2901 444.95 38.5855C445.357 37.8809 445.941 37.2955 446.646 36.888L469.433 23.6404C470.14 23.2316 470.942 23.0164 471.759 23.0164C472.575 23.0164 473.377 23.2316 474.084 23.6404L497.072 36.9058C497.779 37.3116 498.367 37.8963 498.776 38.6011C499.185 39.3059 499.401 40.106 499.402 40.9208C499.404 41.7356 499.19 42.5364 498.784 43.2426C498.377 43.9488 497.791 44.5354 497.086 44.9435Z" fill="#FDCDE7"/>
<g opacity="0.1">
<path opacity="0.1" d="M497.086 141.396L474.289 154.635C473.582 155.044 472.78 155.259 471.964 155.259C471.147 155.259 470.345 155.044 469.639 154.635L446.646 141.37C445.941 140.962 445.357 140.377 444.95 139.672C444.544 138.968 444.33 138.169 444.33 137.355C444.33 136.542 444.544 135.743 444.95 135.038C445.357 134.334 445.941 133.748 446.646 133.341L469.447 120.093C470.154 119.685 470.957 119.469 471.774 119.469C472.591 119.469 473.394 119.685 474.102 120.093L497.077 133.368C497.78 133.775 498.364 134.36 498.771 135.064C499.177 135.768 499.391 136.567 499.392 137.379C499.393 138.192 499.181 138.991 498.776 139.696C498.371 140.401 497.788 140.987 497.086 141.396Z" fill="black"/>
</g>
<g opacity="0.1">
<path opacity="0.1" d="M644.688 223.049L621.892 236.288C621.184 236.698 620.381 236.913 619.564 236.913C618.747 236.913 617.944 236.698 617.237 236.288L594.244 223.023C593.541 222.614 592.957 222.028 592.552 221.324C592.146 220.62 591.932 219.821 591.932 219.008C591.932 218.196 592.146 217.397 592.552 216.693C592.957 215.988 593.541 215.402 594.244 214.994L617.04 201.746C617.748 201.338 618.551 201.122 619.368 201.122C620.185 201.122 620.988 201.338 621.695 201.746L644.688 215.016C645.393 215.423 645.979 216.009 646.386 216.714C646.793 217.419 647.008 218.219 647.008 219.033C647.008 219.847 646.793 220.647 646.386 221.352C645.979 222.057 645.393 222.642 644.688 223.049Z" fill="black"/>
</g>
<path d="M644.688 105.655L621.892 118.898C621.185 119.308 620.382 119.524 619.564 119.524C618.747 119.524 617.944 119.308 617.237 118.898L594.248 105.632C593.545 105.224 592.962 104.638 592.556 103.934C592.15 103.229 591.937 102.431 591.937 101.618C591.937 100.805 592.15 100.007 592.556 99.3022C592.962 98.5978 593.545 98.012 594.248 97.6036L617.045 84.3605C617.752 83.9513 618.555 83.7358 619.372 83.7358C620.189 83.7358 620.992 83.9513 621.7 84.3605L644.688 97.6304C645.391 98.0382 645.975 98.6235 646.381 99.3276C646.786 100.032 647 100.83 647 101.643C647 102.455 646.786 103.253 646.381 103.957C645.975 104.662 645.391 105.247 644.688 105.655Z" fill="#A1F7F6"/>
<g opacity="0.86">
<path opacity="0.86" d="M644.688 122.426L621.892 135.669C621.184 136.079 620.382 136.295 619.564 136.295C618.747 136.295 617.944 136.079 617.237 135.669L594.248 122.404C593.545 121.995 592.962 121.41 592.556 120.705C592.15 120.001 591.937 119.202 591.937 118.389C591.937 117.577 592.15 116.778 592.556 116.074C592.962 115.369 593.545 114.783 594.248 114.375L617.045 101.132C617.752 100.723 618.555 100.507 619.372 100.507C620.189 100.507 620.992 100.723 621.7 101.132L644.693 114.402C645.396 114.81 645.979 115.396 646.384 116.1C646.789 116.804 647.003 117.603 647.002 118.415C647.002 119.228 646.788 120.026 646.382 120.73C645.976 121.434 645.392 122.019 644.688 122.426Z" fill="#A1F7F6"/>
</g>
<g opacity="0.71">
<path opacity="0.71" d="M644.688 139.197L621.892 152.436C621.184 152.846 620.382 153.062 619.564 153.062C618.747 153.062 617.944 152.846 617.237 152.436L594.244 139.166C593.541 138.758 592.957 138.172 592.552 137.468C592.146 136.763 591.932 135.965 591.932 135.152C591.932 134.339 592.146 133.54 592.552 132.836C592.957 132.132 593.541 131.546 594.244 131.137L617.04 117.894C617.748 117.485 618.551 117.27 619.368 117.27C620.185 117.27 620.988 117.485 621.695 117.894L644.688 131.164C645.393 131.571 645.979 132.157 646.386 132.862C646.793 133.567 647.008 134.367 647.008 135.181C647.008 135.995 646.793 136.794 646.386 137.5C645.979 138.205 645.393 138.79 644.688 139.197Z" fill="#A1F7F6"/>
</g>
<g opacity="0.57">
<path opacity="0.57" d="M644.688 155.969L621.892 169.207C621.185 169.617 620.382 169.833 619.564 169.833C618.747 169.833 617.944 169.617 617.237 169.207L594.248 155.942C593.545 155.533 592.962 154.948 592.556 154.243C592.15 153.539 591.937 152.74 591.937 151.927C591.937 151.115 592.15 150.316 592.556 149.612C592.962 148.907 593.545 148.322 594.248 147.913L617.045 134.67C617.752 134.261 618.555 134.045 619.372 134.045C620.19 134.045 620.992 134.261 621.7 134.67L644.693 147.94C645.397 148.348 645.981 148.934 646.387 149.638C646.793 150.343 647.007 151.142 647.006 151.956C647.006 152.769 646.791 153.568 646.385 154.272C645.978 154.976 645.393 155.562 644.688 155.969Z" fill="#A1F7F6"/>
</g>
<g opacity="0.43">
<path opacity="0.43" d="M644.688 172.736L621.892 185.974C621.185 186.384 620.382 186.6 619.564 186.6C618.747 186.6 617.944 186.384 617.237 185.974L594.248 172.709C593.545 172.3 592.962 171.715 592.556 171.01C592.15 170.306 591.937 169.507 591.937 168.694C591.937 167.882 592.15 167.083 592.556 166.379C592.962 165.674 593.545 165.088 594.248 164.68L617.045 151.437C617.752 151.028 618.555 150.812 619.372 150.812C620.19 150.812 620.992 151.028 621.7 151.437L644.693 164.707C645.397 165.115 645.981 165.7 646.387 166.405C646.793 167.11 647.007 167.909 647.006 168.722C647.006 169.536 646.791 170.335 646.385 171.039C645.978 171.743 645.393 172.328 644.688 172.736Z" fill="#A1F7F6"/>
</g>
<g opacity="0.29">
<path opacity="0.29" d="M644.688 189.507L621.892 202.745C621.185 203.156 620.382 203.372 619.564 203.372C618.747 203.372 617.944 203.156 617.237 202.745L594.248 189.48C593.545 189.072 592.962 188.486 592.556 187.781C592.15 187.077 591.937 186.278 591.937 185.466C591.937 184.653 592.15 183.854 592.556 183.15C592.962 182.445 593.545 181.86 594.248 181.451L617.045 168.208C617.752 167.799 618.555 167.584 619.372 167.584C620.189 167.584 620.992 167.799 621.7 168.208L644.693 181.478C645.397 181.886 645.981 182.472 646.387 183.177C646.793 183.881 647.007 184.68 647.006 185.494C647.006 186.307 646.791 187.106 646.385 187.81C645.978 188.515 645.393 189.1 644.688 189.507Z" fill="#A1F7F6"/>
</g>
<g opacity="0.14">
<path opacity="0.14" d="M644.688 206.278L621.892 219.517C621.184 219.926 620.382 220.142 619.564 220.142C618.747 220.142 617.944 219.926 617.237 219.517L594.248 206.251C593.545 205.843 592.962 205.257 592.556 204.553C592.15 203.848 591.937 203.05 591.937 202.237C591.937 201.424 592.15 200.626 592.556 199.921C592.962 199.217 593.545 198.631 594.248 198.223L617.045 184.979C617.752 184.571 618.555 184.355 619.372 184.355C620.189 184.355 620.992 184.571 621.7 184.979L644.693 198.249C645.397 198.657 645.981 199.243 646.387 199.948C646.793 200.653 647.007 201.452 647.006 202.265C647.006 203.078 646.791 203.877 646.385 204.582C645.978 205.286 645.393 205.871 644.688 206.278Z" fill="#A1F7F6"/>
</g>
<path d="M644.688 105.655L621.892 118.898C621.185 119.308 620.382 119.524 619.564 119.524C618.747 119.524 617.944 119.308 617.237 118.898L594.248 105.632C593.545 105.224 592.962 104.638 592.556 103.934C592.15 103.229 591.937 102.431 591.937 101.618C591.937 100.805 592.15 100.007 592.556 99.3022C592.962 98.5978 593.545 98.012 594.248 97.6036L617.045 84.3605C617.752 83.9513 618.555 83.7358 619.372 83.7358C620.189 83.7358 620.992 83.9513 621.7 84.3605L644.688 97.6304C645.391 98.0382 645.975 98.6235 646.381 99.3276C646.786 100.032 647 100.83 647 101.643C647 102.455 646.786 103.253 646.381 103.957C645.975 104.662 645.391 105.247 644.688 105.655Z" fill="#A2F8F7"/>
<path d="M572.313 31.2856L549.521 44.5198C548.813 44.9294 548.011 45.1451 547.193 45.1451C546.376 45.1451 545.573 44.9294 544.866 44.5198L521.873 31.2544C521.169 30.8468 520.584 30.2614 520.177 29.5568C519.771 28.8523 519.557 28.0533 519.557 27.24C519.557 26.4267 519.771 25.6277 520.177 24.9231C520.584 24.2185 521.169 23.6331 521.873 23.2256L544.665 9.98695C545.371 9.5777 546.174 9.36218 546.99 9.36218C547.807 9.36218 548.609 9.5777 549.315 9.98695L572.313 23.2523C573.017 23.6605 573.601 24.2464 574.008 24.9513C574.414 25.6562 574.628 26.4555 574.628 27.269C574.628 28.0825 574.414 28.8817 574.008 29.5867C573.601 30.2916 573.017 30.8775 572.313 31.2856Z" fill="#FFDF75"/>
<g opacity="0.86">
<path opacity="0.86" d="M572.313 52.7806L549.521 66.0147C548.813 66.4244 548.011 66.6401 547.193 66.6401C546.376 66.6401 545.573 66.4244 544.866 66.0147L521.873 52.7493C521.169 52.3418 520.584 51.7564 520.177 51.0518C519.771 50.3472 519.557 49.5482 519.557 48.7349C519.557 47.9216 519.771 47.1226 520.177 46.4181C520.584 45.7135 521.169 45.1281 521.873 44.7205L544.665 31.4819C545.371 31.0726 546.174 30.8571 546.99 30.8571C547.807 30.8571 548.609 31.0726 549.315 31.4819L572.313 44.7473C573.017 45.1554 573.601 45.7413 574.008 46.4462C574.414 47.1512 574.628 47.9504 574.628 48.7639C574.628 49.5774 574.414 50.3767 574.008 51.0816C573.601 51.7865 573.017 52.3724 572.313 52.7806Z" fill="#FFDF75"/>
</g>
<g opacity="0.71">
<path opacity="0.71" d="M572.313 74.2799L549.521 87.5141C548.813 87.9237 548.011 88.1395 547.193 88.1395C546.376 88.1395 545.573 87.9237 544.866 87.5141L521.873 74.2487C521.169 73.8412 520.584 73.2558 520.177 72.5512C519.771 71.8466 519.557 71.0476 519.557 70.2343C519.557 69.421 519.771 68.622 520.177 67.9174C520.584 67.2129 521.169 66.6274 521.873 66.2199L544.665 52.9813C545.372 52.5712 546.175 52.3552 546.992 52.3552C547.81 52.3552 548.613 52.5712 549.32 52.9813L572.317 66.2467C573.021 66.6552 573.605 67.2414 574.011 67.9466C574.417 68.6517 574.63 69.4511 574.63 70.2646C574.63 71.0781 574.415 71.8772 574.009 72.5819C573.602 73.2866 573.017 73.8722 572.313 74.2799Z" fill="#FFDF75"/>
</g>
<g opacity="0.57">
<path opacity="0.57" d="M572.313 95.7749L549.521 109.013C548.813 109.423 548.011 109.639 547.193 109.639C546.376 109.639 545.573 109.423 544.866 109.013L521.873 95.7481C521.169 95.3406 520.584 94.7552 520.177 94.0506C519.771 93.346 519.557 92.547 519.557 91.7337C519.557 90.9204 519.771 90.1214 520.177 89.4169C520.584 88.7123 521.169 88.1269 521.873 87.7193L544.652 74.4896C545.359 74.08 546.162 73.8643 546.979 73.8643C547.796 73.8643 548.599 74.08 549.306 74.4896L572.304 87.755C573.005 88.1632 573.588 88.748 573.992 89.4511C574.397 90.1543 574.611 90.9511 574.612 91.7624C574.613 92.5736 574.401 93.371 573.998 94.075C573.594 94.779 573.013 95.3651 572.313 95.7749Z" fill="#FFDF75"/>
</g>
<g opacity="0.43">
<path opacity="0.43" d="M572.313 117.27L549.521 130.508C548.813 130.918 548.011 131.134 547.193 131.134C546.376 131.134 545.573 130.918 544.866 130.508L521.873 117.243C521.169 116.835 520.584 116.25 520.177 115.545C519.771 114.841 519.557 114.042 519.557 113.229C519.557 112.415 519.771 111.616 520.177 110.912C520.584 110.207 521.169 109.622 521.873 109.214L544.665 95.9756C545.372 95.5659 546.175 95.3502 546.992 95.3502C547.81 95.3502 548.613 95.5659 549.32 95.9756L572.317 109.241C573.02 109.65 573.603 110.236 574.008 110.941C574.414 111.645 574.627 112.444 574.626 113.257C574.626 114.069 574.412 114.868 574.006 115.572C573.6 116.276 573.016 116.862 572.313 117.27Z" fill="#FFDF75"/>
</g>
<g opacity="0.29">
<path opacity="0.29" d="M572.313 138.769L549.521 152.008C548.813 152.417 548.011 152.633 547.193 152.633C546.376 152.633 545.573 152.417 544.866 152.008L521.873 138.742C521.169 138.335 520.584 137.749 520.177 137.045C519.771 136.34 519.557 135.541 519.557 134.728C519.557 133.915 519.771 133.116 520.177 132.411C520.584 131.707 521.169 131.121 521.873 130.714L544.665 117.475C545.372 117.065 546.175 116.85 546.992 116.85C547.81 116.85 548.613 117.065 549.32 117.475L572.317 130.745C573.019 131.154 573.601 131.74 574.006 132.444C574.41 133.148 574.623 133.946 574.622 134.758C574.622 135.57 574.408 136.368 574.003 137.072C573.598 137.776 573.015 138.361 572.313 138.769Z" fill="#FFDF75"/>
</g>
<g opacity="0.14">
<path opacity="0.14" d="M572.313 160.264L549.521 173.512C548.813 173.921 548.011 174.137 547.193 174.137C546.376 174.137 545.573 173.921 544.866 173.512L521.873 160.246C521.169 159.839 520.584 159.253 520.177 158.549C519.771 157.844 519.557 157.045 519.557 156.232C519.557 155.419 519.771 154.62 520.177 153.915C520.584 153.21 521.169 152.625 521.873 152.217L544.665 138.979C545.372 138.569 546.175 138.353 546.992 138.353C547.81 138.353 548.613 138.569 549.32 138.979L572.317 152.249C573.018 152.657 573.599 153.243 574.003 153.946C574.407 154.65 574.62 155.447 574.619 156.258C574.619 157.069 574.405 157.865 574.001 158.568C573.596 159.271 573.014 159.856 572.313 160.264Z" fill="#FFDF75"/>
</g>
<g opacity="0.1">
<path opacity="0.1" d="M572.313 181.688L549.516 194.922C548.809 195.331 548.006 195.546 547.189 195.546C546.371 195.546 545.569 195.331 544.861 194.922L521.873 181.656C521.17 181.248 520.586 180.662 520.181 179.958C519.775 179.253 519.562 178.455 519.562 177.642C519.562 176.829 519.775 176.031 520.181 175.326C520.586 174.622 521.17 174.036 521.873 173.628L544.669 160.385C545.378 159.975 546.181 159.76 546.999 159.76C547.817 159.76 548.621 159.975 549.329 160.385L572.322 173.65C573.027 174.059 573.611 174.645 574.018 175.351C574.424 176.057 574.637 176.857 574.636 177.671C574.635 178.486 574.42 179.285 574.012 179.99C573.605 180.695 573.019 181.281 572.313 181.688Z" fill="black"/>
</g>
<path d="M572.313 31.2856L549.516 44.5242C548.809 44.9339 548.006 45.1496 547.189 45.1496C546.371 45.1496 545.568 44.9339 544.861 44.5242L521.873 31.2589C521.169 30.8513 520.584 30.2659 520.177 29.5613C519.771 28.8567 519.557 28.0577 519.557 27.2444C519.557 26.4312 519.771 25.6322 520.177 24.9276C520.584 24.223 521.169 23.6376 521.873 23.23L544.665 9.99141C545.373 9.58183 546.177 9.36615 546.995 9.36615C547.813 9.36615 548.616 9.58183 549.324 9.99141L572.317 23.2568C573.021 23.6647 573.606 24.2505 574.012 24.9553C574.418 25.6601 574.631 26.4592 574.631 27.2725C574.63 28.0858 574.416 28.8847 574.009 29.589C573.602 30.2934 573.017 30.8785 572.313 31.2856Z" fill="#F5E981"/>
<g opacity="0.1">
<path opacity="0.1" d="M240.641 451.532L154.096 504L0 415.09L86.6523 364.562L240.641 451.532Z" fill="black"/>
</g>
<path d="M249.714 437.802L168.337 487.14L23.4348 403.533L104.919 356.02L249.714 437.802Z" fill="#626BDC"/>
<path d="M249.714 422.03L168.337 471.372L23.4348 387.765L104.919 340.252L249.714 422.03Z" fill="url(#paint2_linear)"/>
<path d="M23.4348 387.765V403.533L168.337 487.14V471.372L23.4348 387.765Z" fill="url(#paint3_linear)"/>
<path d="M249.714 422.03V437.802L168.337 487.14V471.372L249.714 422.03Z" fill="url(#paint4_linear)"/>
<path d="M68.8943 372.252C68.2962 371.971 67.7027 371.694 67.1582 371.471C66.2307 371.09 65.2832 370.759 64.3198 370.481C63.9002 370.365 63.5209 370.284 63.1326 370.204C62.8693 370.146 62.5837 370.075 62.3382 370.035C61.7997 369.941 61.2555 369.884 60.7093 369.865H60.4281C60.0255 369.863 59.6232 369.883 59.2231 369.928C59.1428 369.928 59.0624 369.928 58.9866 369.959C58.6004 370.016 58.2198 370.106 57.8485 370.226L57.6432 370.298C57.3038 370.418 56.9753 370.567 56.6614 370.744L59.3034 369.214L59.3704 369.174C59.57 369.062 59.7756 368.96 59.9863 368.871C60.08 368.83 60.1871 368.804 60.2853 368.759L60.4861 368.692C60.5486 368.692 60.6155 368.643 60.678 368.625C60.9327 368.549 61.1921 368.489 61.4546 368.447C61.5106 368.436 61.5672 368.428 61.6242 368.424L61.8652 368.398C62.0303 368.398 62.1909 368.353 62.365 368.344C62.5391 368.335 62.8113 368.344 63.0612 368.344H63.4718C63.9399 368.367 64.4062 368.416 64.8687 368.491H64.9758C65.2257 368.532 65.5069 368.607 65.7702 368.665C66.1094 368.737 66.4397 368.79 66.8056 368.888L66.9618 368.942C67.9222 369.219 68.8668 369.548 69.7913 369.928C69.8538 369.954 69.8984 369.959 69.952 369.981C70.4518 370.191 71.0097 370.463 71.5452 370.713C71.8309 370.846 72.0942 370.954 72.3887 371.101C73.326 371.547 74.3078 372.086 75.3566 372.693C76.0037 373.068 76.6687 373.465 77.3649 373.902C78.0611 374.339 78.8377 374.794 79.5517 375.24C80.8906 375.998 82.1358 376.65 83.372 377.247C83.7335 377.43 84.095 377.577 84.452 377.742C85.2063 378.081 85.9337 378.38 86.6478 378.666C87.5761 379.027 88.4731 379.326 89.3256 379.589C89.812 379.741 90.3119 379.91 90.7894 380.035C91.2669 380.16 91.682 380.24 92.1283 380.329C92.7843 380.468 93.4359 380.593 94.0652 380.673C94.391 380.713 94.6989 380.74 95.0069 380.771C95.7254 380.829 96.4216 380.856 97.0911 380.847C97.2964 380.847 97.5061 380.847 97.7069 380.847C98.5216 380.808 99.3328 380.714 100.135 380.566C100.3 380.535 100.447 380.49 100.608 380.454C101.234 380.319 101.852 380.143 102.456 379.928C102.63 379.866 102.808 379.812 102.973 379.75C103.687 379.473 104.379 379.143 105.044 378.764L102.397 380.298L102.223 380.401C101.715 380.682 101.188 380.94 100.644 381.172C100.541 381.213 100.434 381.244 100.322 381.284C100.211 381.324 99.992 381.404 99.8224 381.458C99.5457 381.552 99.2779 381.668 98.9967 381.743C98.7156 381.819 98.3005 381.917 97.9435 381.993C97.7962 382.024 97.6489 382.064 97.4972 382.096L97.2517 382.158C96.6403 382.261 96.011 382.332 95.3639 382.381C95.2657 382.381 95.1631 382.381 95.0649 382.381C94.8641 382.381 94.6454 382.381 94.4356 382.381C94.0473 382.381 93.6591 382.381 93.2485 382.381C92.9762 382.381 92.6728 382.314 92.3916 382.292C92.1104 382.27 91.7445 382.23 91.4098 382.194C91.1955 382.163 90.9992 382.163 90.7805 382.127C90.3788 382.065 89.9459 381.944 89.5264 381.855C89.1069 381.766 88.6115 381.676 88.1295 381.556C87.9733 381.516 87.8349 381.498 87.6832 381.458C87.3753 381.378 87.0316 381.221 86.7192 381.128C85.8266 380.856 84.934 380.557 83.9879 380.187C83.7424 380.089 83.5416 380.044 83.2738 379.941C82.8008 379.745 82.3009 379.495 81.8189 379.277C81.444 379.107 81.0781 378.956 80.6987 378.773C79.467 378.175 78.2084 377.524 76.8963 376.77C76.1778 376.355 75.4458 375.918 74.705 375.432C73.9642 374.946 73.3661 374.598 72.7011 374.223C71.6524 373.616 70.6705 373.095 69.7422 372.635C69.4521 372.492 69.1754 372.381 68.8943 372.252Z" fill="url(#paint5_linear)"/>
<path d="M126.225 336.764L126.31 336.72C126.548 336.587 126.792 336.466 127.042 336.358C127.275 336.261 127.514 336.176 127.756 336.104L128.033 336.042L128.162 336.01C128.256 335.984 128.354 335.961 128.452 335.943C128.679 335.901 128.909 335.872 129.139 335.859C129.379 335.845 129.619 335.845 129.858 335.859H130.005H130.126C130.291 335.859 130.456 335.859 130.626 335.908C130.937 335.956 131.246 336.024 131.549 336.108C131.679 336.14 131.813 336.202 131.942 336.247L132.299 336.367C132.46 336.425 132.612 336.47 132.745 336.532C133.259 336.75 133.758 337.001 134.241 337.282C135.018 337.749 135.764 338.267 136.472 338.834C136.592 338.927 136.709 339.008 136.825 339.106C137.565 339.704 138.315 340.386 139.083 341.131C139.15 341.198 139.212 341.238 139.284 341.314C139.355 341.39 139.449 341.492 139.525 341.568C140.315 342.358 141.122 343.218 141.944 344.16L142.037 344.262C142.104 344.338 142.171 344.436 142.238 344.508C143.131 345.556 144.059 346.666 145.005 347.884C145.567 348.613 146.139 349.371 146.719 350.159C148.089 352.019 149.356 353.785 150.57 355.511L150.985 356.087C151.182 356.359 151.351 356.618 151.543 356.89C152.025 357.581 152.485 358.255 152.945 358.919L154.074 360.565L155.292 362.385C155.663 362.938 156.029 363.482 156.377 364.013C156.725 364.544 157.118 365.137 157.475 365.686L158.474 367.211C158.854 367.796 159.211 368.344 159.568 368.902L160.438 370.24C161 371.132 161.549 371.966 162.071 372.778C162.259 373.077 162.437 373.344 162.616 373.63C162.995 374.219 163.375 374.807 163.736 375.356L164.298 376.212C164.62 376.716 164.954 377.216 165.262 377.684C165.427 377.934 165.584 378.157 165.749 378.394C166.079 378.889 166.418 379.379 166.74 379.843C167.271 380.602 167.793 381.302 168.302 381.971C168.476 382.198 168.654 382.417 168.828 382.635C169.092 382.97 169.355 383.291 169.614 383.603C169.801 383.826 169.989 384.049 170.172 384.237C170.426 384.527 170.676 384.79 170.93 385.058L171.475 385.597C171.805 385.912 172.138 386.21 172.474 386.489C172.631 386.619 172.773 386.752 172.921 386.864C173.39 387.232 173.884 387.569 174.398 387.872C174.856 388.137 175.332 388.369 175.822 388.568C175.933 388.617 176.049 388.644 176.165 388.688C176.536 388.83 176.914 388.951 177.299 389.05C177.437 389.085 177.589 389.108 177.745 389.143C178.089 389.219 178.446 389.277 178.807 389.322C178.999 389.348 179.196 389.371 179.392 389.384C179.722 389.411 180.066 389.42 180.41 389.42C180.673 389.42 180.932 389.42 181.204 389.42C181.476 389.42 181.78 389.375 182.07 389.348C182.516 389.304 182.985 389.255 183.462 389.174C183.721 389.134 183.98 389.09 184.239 389.045C185.288 388.849 186.394 388.599 187.59 388.251C188.313 388.046 189.059 387.805 189.822 387.555L189.639 452.852L186.992 454.386L187.18 389.09C186.457 389.331 185.752 389.536 185.078 389.745C185.033 389.745 184.997 389.745 184.948 389.777C183.739 390.125 182.623 390.383 181.574 390.58C181.472 390.58 181.342 390.642 181.235 390.664C181.128 390.687 180.945 390.691 180.789 390.713C180.311 390.789 179.847 390.847 179.396 390.887C179.231 390.887 179.044 390.941 178.874 390.954C178.705 390.968 178.647 390.954 178.535 390.954C178.267 390.954 178 390.954 177.741 390.954C177.482 390.954 177.348 390.954 177.161 390.954C176.973 390.954 176.87 390.919 176.714 390.91C176.558 390.901 176.322 390.874 176.13 390.847C175.997 390.841 175.864 390.828 175.732 390.807C175.5 390.771 175.286 390.718 175.063 390.664C174.92 390.638 174.773 390.611 174.617 390.575C174.559 390.575 174.492 390.553 174.438 390.535C174.108 390.45 173.8 390.33 173.488 390.214C173.376 390.169 173.251 390.138 173.135 390.093H173.077C172.609 389.899 172.154 389.674 171.716 389.42C171.205 389.116 170.713 388.781 170.243 388.416C170.082 388.3 169.926 388.153 169.77 388.024C169.444 387.752 169.123 387.475 168.797 387.172C168.721 387.087 168.632 387.025 168.56 386.944C168.489 386.864 168.333 386.699 168.217 386.587C167.985 386.347 167.771 386.092 167.512 385.829C167.405 385.709 167.302 385.606 167.19 385.481C167.079 385.356 166.99 385.236 166.896 385.12C166.655 384.843 166.423 384.549 166.177 384.228C166.052 384.072 165.932 383.933 165.802 383.782L165.579 383.478C165.079 382.818 164.566 382.14 164.044 381.378C164.022 381.346 163.995 381.324 163.977 381.293C163.718 380.918 163.441 380.512 163.178 380.12L162.558 379.228C162.25 378.782 161.92 378.251 161.589 377.756L161.112 376.962C160.706 376.346 160.295 375.691 159.867 375.039C159.742 374.839 159.617 374.651 159.492 374.446C158.898 373.527 158.278 372.564 157.64 371.565C157.51 371.368 157.376 371.163 157.251 370.967C156.756 370.209 156.261 369.428 155.738 368.63C155.524 368.295 155.292 367.943 155.069 367.604C154.608 366.896 154.132 366.172 153.641 365.432L152.82 364.2C152.338 363.482 151.856 362.76 151.351 362.015L150.423 360.65C149.905 359.892 149.374 359.124 148.821 358.335C148.558 357.951 148.281 357.559 148.004 357.171C146.772 355.418 145.483 353.602 144.09 351.725C143.51 350.939 142.939 350.181 142.372 349.454C141.475 348.263 140.582 347.161 139.69 346.131L139.324 345.685C138.507 344.753 137.704 343.901 136.918 343.111L136.472 342.688C135.704 341.934 134.946 341.251 134.209 340.654L133.857 340.382C133.147 339.815 132.402 339.295 131.625 338.825C130.997 338.47 130.338 338.172 129.657 337.933C129.541 337.888 129.425 337.844 129.305 337.808C128.715 337.613 128.106 337.484 127.488 337.424H127.368C126.75 337.381 126.129 337.428 125.524 337.563L125.391 337.589C124.763 337.744 124.162 337.989 123.605 338.316L126.225 336.764Z" fill="url(#paint6_linear)"/>
<g opacity="0.4">
<path opacity="0.4" d="M131.612 338.843C123.338 334.075 117.25 340.761 112.551 363.585C109.65 377.622 99.8091 389.973 76.9187 376.761C76.2001 376.346 75.4682 375.909 74.7274 375.423C73.9865 374.937 73.3885 374.589 72.7235 374.214C53.4481 363.094 53.408 376.569 53.408 377.278L187.059 454.395L187.247 389.099C180.106 391.476 175.643 391.637 171.805 389.433C164.705 385.339 159.858 373.063 144.135 351.711C139.458 345.417 135.312 340.979 131.612 338.843Z" fill="url(#paint7_linear)"/>
</g>
<path d="M216.921 434.279L219.558 432.744L219.746 367.452L217.099 368.987L216.921 434.279Z" fill="url(#paint8_linear)"/>
<path d="M88.549 351.644L88.6249 351.604C88.8601 351.469 89.1047 351.352 89.3568 351.252L89.5532 351.18C89.6513 351.14 89.7584 351.105 89.8566 351.073C89.9548 351.042 90.0976 350.98 90.2226 350.944C90.4234 350.882 90.6466 350.841 90.8608 350.797C90.9679 350.77 91.0616 350.743 91.1687 350.73L91.2892 350.699C91.7398 350.623 92.1942 350.572 92.6504 350.547H92.7263C92.9048 350.547 93.1146 350.547 93.3065 350.547C93.6769 350.547 94.0384 350.52 94.4401 350.547H94.6543C95.1006 350.569 95.5826 350.636 96.0556 350.69C96.3547 350.725 96.6224 350.73 96.9482 350.783C97.0252 350.794 97.1013 350.811 97.1758 350.833C97.3454 350.833 97.5284 350.895 97.7025 350.922C98.3541 351.042 99.0414 351.185 99.7777 351.368C100.001 351.426 100.224 351.47 100.452 351.533C100.679 351.595 100.773 351.604 100.943 351.653C101.469 351.796 102.063 351.988 102.63 352.166L103.683 352.487C104.799 352.862 105.977 353.281 107.253 353.772L110.957 355.231L117.5 357.84L117.884 357.987C118.709 358.313 119.513 358.634 120.285 358.928L121.298 359.316L122.86 359.914L123.967 360.311L125.248 360.757L126.323 361.118L127.479 361.498C127.832 361.613 128.166 361.707 128.506 361.81L129.577 362.126L129.871 362.198C131.123 362.534 132.39 362.807 133.669 363.014C133.799 363.014 133.933 363.05 134.071 363.068C134.963 363.197 135.856 363.286 136.726 363.335H137.003C137.948 363.374 138.894 363.364 139.837 363.304C140.007 363.304 140.176 363.304 140.35 363.273C141.634 363.183 142.912 363.027 144.179 362.804C144.519 362.751 144.844 362.702 145.197 362.635C146.121 362.457 146.982 362.238 147.848 361.997C148.053 361.939 148.259 361.881 148.459 361.819C149.223 361.587 149.968 361.373 150.691 361.087C150.74 361.06 150.798 361.047 150.847 361.025C151.686 360.726 152.498 360.405 153.302 360.092C154.016 359.816 154.73 359.539 155.439 359.276L155.886 359.107C156.606 358.839 157.329 358.597 158.055 358.38L158.318 358.29L158.621 358.219C159.233 358.045 159.858 357.902 160.491 357.773C160.612 357.773 160.728 357.715 160.853 357.688C160.902 357.688 160.951 357.688 161.005 357.688C161.451 357.617 161.897 357.572 162.344 357.532C162.518 357.532 162.687 357.479 162.866 357.47H162.897C163.223 357.47 163.557 357.47 163.888 357.47C164.218 357.47 164.455 357.47 164.749 357.47H164.82C165.115 357.47 165.419 357.528 165.713 357.559C166.008 357.59 166.391 357.603 166.735 357.661H166.842C167.413 357.751 168.011 357.893 168.627 358.036C168.779 358.081 168.922 358.094 169.074 358.134H169.105C170.074 358.406 171.026 358.734 171.957 359.116C172.064 359.156 172.153 359.178 172.26 359.218C172.631 359.37 173.023 359.566 173.407 359.74C173.67 359.861 173.925 359.968 174.188 360.097C175.009 360.498 175.853 360.94 176.732 361.435C178.12 362.229 179.575 363.166 181.132 364.259C182.025 364.887 182.886 365.436 183.712 365.913C184.616 366.439 185.554 366.904 186.519 367.305C187.289 367.627 188.081 367.894 188.889 368.103C189.041 368.139 189.188 368.166 189.335 368.193C189.904 368.323 190.481 368.417 191.063 368.474L191.451 368.514C192.053 368.552 192.657 368.543 193.258 368.487C193.41 368.487 193.566 368.456 193.705 368.438C194.151 368.38 194.557 368.304 194.977 368.215C195.195 368.166 195.423 368.117 195.624 368.063C195.909 367.987 196.173 367.894 196.445 367.809C196.927 367.653 197.4 367.483 197.864 367.296C198.092 367.202 198.31 367.113 198.547 367.015C199.264 366.718 199.974 366.395 200.676 366.047C201.359 365.726 202.041 365.409 202.738 365.102C202.854 365.057 202.956 365.003 203.072 364.954C203.188 364.905 203.3 364.87 203.416 364.829C203.862 364.642 204.353 364.477 204.831 364.321C204.996 364.267 205.143 364.192 205.317 364.147C205.491 364.102 205.589 364.089 205.719 364.053C205.946 363.995 206.165 363.946 206.402 363.893C206.638 363.839 206.736 363.804 206.91 363.777C207.187 363.723 207.482 363.705 207.763 363.67C207.897 363.67 208.026 363.634 208.156 363.625H208.33C208.787 363.6 209.246 363.6 209.704 363.625C209.807 363.625 209.918 363.652 210.021 363.661C210.124 363.67 210.316 363.688 210.467 363.701C210.695 363.728 210.914 363.732 211.15 363.772C211.507 363.826 211.882 363.915 212.261 364.009C212.391 364.04 212.525 364.058 212.659 364.094C212.71 364.101 212.761 364.113 212.81 364.129C213.572 364.333 214.318 364.592 215.042 364.905H215.086C216.09 365.328 217.065 365.815 218.005 366.364C218.563 366.681 219.134 367.037 219.728 367.43L217.081 368.964C216.488 368.576 215.912 368.219 215.363 367.898C214.422 367.355 213.449 366.869 212.449 366.444C211.653 366.111 210.834 365.833 209.999 365.615C209.865 365.579 209.735 365.561 209.602 365.53C209.013 365.392 208.417 365.291 207.816 365.226L207.37 365.182C206.747 365.139 206.123 365.139 205.5 365.182L205.125 365.226C204.648 365.28 204.192 365.356 203.742 365.449C203.514 365.503 203.295 365.552 203.063 365.61C202.764 365.695 202.479 365.784 202.171 365.878C201.68 366.038 201.198 366.203 200.729 366.395L200.087 366.658C199.39 366.957 198.694 367.278 198.016 367.599C197.337 367.921 196.605 368.255 195.896 368.563C195.762 368.621 195.633 368.688 195.503 368.746C195.374 368.804 195.284 368.822 195.182 368.862C194.736 369.04 194.289 369.21 193.798 369.357C193.62 369.424 193.459 369.5 193.276 369.549C193.169 369.58 193.057 369.598 192.955 369.624C192.745 369.682 192.535 369.727 192.317 369.772C192.098 369.816 191.919 369.883 191.71 369.919C191.5 369.955 191.263 369.972 191.036 370.004L190.589 370.057C190.509 370.057 190.424 370.084 190.34 370.088C189.894 370.113 189.447 370.113 189.001 370.088C188.929 370.088 188.853 370.088 188.782 370.088L188.385 370.048C188.126 370.021 187.867 370.008 187.599 369.968C187.332 369.928 186.97 369.843 186.644 369.767L186.198 369.674C186.127 369.662 186.057 369.647 185.988 369.629C185.267 369.426 184.561 369.176 183.873 368.88C182.912 368.473 181.977 368.007 181.074 367.483C180.249 367.002 179.387 366.458 178.49 365.824C176.933 364.731 175.474 363.795 174.09 363.005C173.197 362.492 172.354 362.051 171.537 361.667C171.292 361.551 171.064 361.457 170.832 361.346C170.305 361.096 169.788 360.873 169.288 360.681C168.364 360.302 167.419 359.976 166.458 359.704C166.28 359.655 166.11 359.629 165.927 359.588C165.347 359.441 164.767 359.312 164.214 359.218C163.821 359.165 163.455 359.138 163.08 359.098C162.785 359.067 162.477 359.026 162.187 359.013C161.897 359 161.567 359.013 161.255 359.013C160.942 359.013 160.585 359.013 160.264 359.013C160.063 359.013 159.871 359.053 159.684 359.071C159.237 359.116 158.791 359.16 158.345 359.232C158.171 359.263 158.001 359.307 157.827 359.343C157.202 359.464 156.577 359.606 155.971 359.789C155.779 359.843 155.582 359.892 155.395 359.95C154.667 360.168 153.953 360.396 153.239 360.668L152.708 360.869L150.758 361.618C149.905 361.957 149.048 362.287 148.16 362.613L148.08 362.639C147.339 362.903 146.576 363.157 145.795 363.393C145.675 363.429 145.563 363.478 145.447 363.509C145.331 363.54 145.268 363.549 145.184 363.576C144.336 363.817 143.461 364.022 142.537 364.214L141.756 364.357C141.671 364.357 141.604 364.357 141.524 364.383C140.185 364.611 138.909 364.771 137.686 364.856C137.619 364.856 137.539 364.879 137.472 364.883C137.405 364.887 137.28 364.883 137.182 364.883C136.204 364.928 135.254 364.95 134.316 364.914H134.267H134.124C133.216 364.871 132.31 364.781 131.411 364.647C131.322 364.647 131.232 364.647 131.134 364.62L131.005 364.593C129.721 364.377 128.449 364.095 127.194 363.75C127.135 363.75 127.082 363.75 127.028 363.71L126.877 363.665C126.569 363.581 126.238 363.478 125.931 363.389C125.551 363.277 125.172 363.17 124.779 363.045C124.467 362.952 124.141 362.836 123.82 362.733L122.543 362.287C122.244 362.184 121.923 362.064 121.615 361.952C121.133 361.783 120.655 361.609 120.142 361.417L119.25 361.078C118.683 360.869 118.129 360.654 117.531 360.427L116.665 360.088L114.702 359.316L114.403 359.191C111.533 358.058 108.306 356.76 104.584 355.293C103.312 354.798 102.134 354.374 101.014 354.004C100.652 353.883 100.331 353.794 99.9786 353.692C99.2288 353.46 98.479 353.246 97.8007 353.063L97.1312 352.893C96.3814 352.715 95.6629 352.563 94.9845 352.447C94.8417 352.42 94.6811 352.385 94.5382 352.362C94.092 352.296 93.7349 352.264 93.3377 352.224C92.9405 352.184 92.4184 352.108 91.9988 352.081C91.4901 352.055 91.0215 352.055 90.5752 352.081C90.4145 352.081 90.236 352.081 90.0887 352.081C89.5586 352.107 89.0308 352.168 88.5088 352.264C88.4062 352.264 88.3259 352.304 88.2277 352.327C87.8729 352.402 87.5227 352.497 87.1789 352.612L86.9066 352.715C86.5576 352.836 86.2189 352.986 85.8936 353.161L88.549 351.644Z" fill="url(#paint9_linear)"/>
<g opacity="0.4">
<path opacity="0.4" d="M215.385 367.92C207.316 363.264 202.653 365.436 198.047 367.622C193.441 369.807 188.894 372.006 181.088 367.497C180.262 367.015 179.401 366.471 178.504 365.837C176.946 364.745 175.487 363.808 174.103 363.018C158.961 354.285 153.534 362.126 142.542 364.2C130.545 366.475 125.23 363.407 104.607 355.311C83.9834 347.215 83.3184 356.649 83.2827 357.162L216.921 434.279L217.099 368.987C216.51 368.598 215.934 368.242 215.385 367.92Z" fill="url(#paint10_linear)"/>
</g>
<path d="M423.809 195.181C423.809 195.181 415.329 195.515 414.883 205.065C414.437 214.615 419.828 256.476 429.263 265.482C438.697 274.487 440.09 255.017 440.09 255.017C440.09 255.017 438.862 194.311 423.809 195.181Z" fill="#BAD1DE"/>
<path d="M475.432 265.522C475.432 265.522 486.803 268.644 494.944 266.017C503.084 263.39 501.227 262.984 500.719 261.73C499.616 259.054 489.142 258.889 487.267 258.225C485.393 257.56 489.03 256.324 489.945 255.071C490.86 253.818 492.788 252.395 492.199 251.949C491.61 251.503 490.034 250.883 486.919 252.97C483.804 255.058 476.15 257.609 476.15 257.609L475.432 265.522Z" fill="#EFB185"/>
<path d="M477.842 256.614C477.277 258.259 476.931 259.97 476.811 261.704C476.647 263.793 477.051 265.887 477.98 267.766C477.98 267.766 439.692 272.199 430.521 266.557C430.521 266.557 422.452 251.538 436.912 248.92L477.842 256.614Z" fill="#BAD1DE"/>
<path d="M433.685 267.85C432.793 267.85 431.784 267.431 430.65 266.615C430.61 266.588 430.552 266.575 430.517 266.552C430.507 266.529 430.497 266.507 430.485 266.485C430.054 266.179 429.645 265.842 429.262 265.477C419.828 256.476 414.419 214.61 414.878 205.065C414.939 203.521 415.306 202.005 415.958 200.604C418.159 211.461 428.49 261.267 432.815 262.511C436.787 263.635 466.314 264.322 476.949 264.549C477.132 265.662 477.479 266.742 477.98 267.752C477.98 267.752 446.333 271.419 433.685 267.85Z" fill="#A3C1CE"/>
<path d="M465.037 382.707C465.037 382.707 462.886 390.249 468.193 392.145C473.499 394.041 477.864 396.302 479.899 397.917C481.934 399.532 504.749 409.215 507.569 404.608C510.39 400 503.579 394.839 501.852 393.238C500.125 391.637 484.581 378.246 484.581 378.246L465.037 382.707Z" fill="#111114"/>
<path d="M446.61 395.843C446.61 395.843 444.468 403.386 449.779 405.29C455.09 407.195 459.432 409.429 461.476 411.053C463.52 412.677 486.321 422.347 489.146 417.771C491.971 413.194 485.13 407.989 483.443 406.392C481.756 404.795 466.162 391.365 466.162 391.365L446.61 395.843Z" fill="#111114"/>
<path d="M426.871 273.872C426.871 273.872 482.804 309.02 484.416 317.959C486.027 326.898 485.692 379.558 485.692 379.558C485.692 379.558 471.353 385.722 464.448 381.877L458.647 332.259C458.647 332.259 414.638 299.796 412.701 298.596C410.764 297.396 426.871 273.872 426.871 273.872Z" fill="#16365C"/>
<path d="M412.714 298.583C414.646 299.783 458.66 332.246 458.66 332.246L464.462 381.864C467.8 383.724 472.861 383.229 477.194 382.252C475.226 367.193 470.795 334.017 469.197 325.604C467.108 314.631 421.984 288.672 421.984 288.672L412.79 297.258C412.531 297.958 412.469 298.436 412.714 298.583Z" fill="#09294F"/>
<path d="M426.937 275.21C426.937 275.21 420.48 294.39 417.119 298.578C417.119 298.578 461.815 322.219 464.105 333.655C466.394 345.092 469.188 394.005 469.188 394.005C469.188 394.005 459.2 400.522 445.735 395.745C445.735 395.745 440.728 358.174 440.206 343.049C440.206 343.049 372.61 325.167 377.604 288.185C377.604 288.145 403.476 298.449 426.937 275.21Z" fill="#16365C"/>
<path d="M440.206 343.04C440.728 358.165 445.735 395.736 445.735 395.736C447.864 396.495 450.073 397.011 452.318 397.275C451.939 391.4 451.466 383.684 450.872 373.532C448.641 335.618 442.79 336.345 442.79 336.345C399.905 317 391.229 298.529 391.229 298.529L377.457 290.054C374.962 325.751 440.206 343.04 440.206 343.04Z" fill="#09294F"/>
<path d="M398.067 198.691C398.067 198.691 376.734 209.557 376.198 211.18C375.663 212.804 370.133 216.783 378.037 235.516C378.037 235.516 388.632 255.865 383.321 276.196C380.237 287.989 377.479 294.149 377.479 294.149C377.479 294.149 386.936 308.217 413.566 298.431C418.949 296.46 427.973 289.122 430.709 283.239C429.272 270.691 429.56 258.005 431.565 245.535C434.899 225.208 436.769 198.838 425.228 195.346C425.21 195.346 422.296 191.8 398.067 198.691Z" fill="#BAD1DE"/>
<path d="M431.565 245.535C429.56 258.005 429.272 270.691 430.709 283.239C427.973 289.122 418.949 296.46 413.566 298.431C410.867 299.425 408.1 300.227 405.288 300.831C407.097 295.907 408.657 290.894 409.96 285.812C415.271 265.477 404.681 245.129 404.681 245.129C396.777 226.395 402.307 222.438 402.842 220.792C403.378 219.147 424.71 208.303 424.71 208.303C427.754 207.438 430.459 206.733 432.864 206.162C435.247 216.528 433.721 232.3 431.565 245.535Z" fill="#CAE0EA"/>
<path d="M405.569 192.17C405.569 192.17 421.073 200.337 414.164 212.014L421.452 216.029C421.452 216.029 428.611 195.578 405.569 192.17Z" fill="#FEFFFF"/>
<path d="M395.621 183.936C395.621 183.936 402.146 193.838 396.96 200.529C394.068 204.258 400.874 213.129 412.491 212.416C412.491 212.416 417.677 211.144 417.155 209.258C415.945 204.985 417.664 202.567 419.52 199.311C421.377 196.055 395.621 183.936 395.621 183.936Z" fill="#EFB185"/>
<path d="M396.973 200.533C396.628 200.975 396.416 201.505 396.362 202.063C400.727 197.634 409.072 197.299 409.072 197.299L398.031 185.109C397.585 184.904 397.237 184.734 396.915 184.582L396.58 185.657C398.178 188.762 400.829 195.546 396.973 200.533Z" fill="#DD9569"/>
<path d="M417.168 209.262C416.07 202.482 417.677 202.571 419.533 199.315C420.042 198.423 418.462 196.853 415.914 195.065C415.164 195.653 414.526 196.372 414.031 197.188C409.528 204.128 409.568 209.539 410.099 212.425C410.9 212.508 411.708 212.508 412.509 212.425C413.901 212.202 417.498 211.359 417.168 209.262Z" fill="#F2B78F"/>
<path d="M393.184 178.382C393.184 178.382 396.023 191.492 405.042 197.442C413.04 202.71 422.345 206.162 424.05 196.626C425.415 189.043 429.137 169.743 422.448 165.849C413.816 160.862 410.652 154.697 400.664 158.386C400.673 158.395 389.252 163.632 393.184 178.382Z" fill="#EFB185"/>
<path d="M393.184 178.382C393.184 178.382 394.228 189.632 404.998 197.607C407.318 199.32 410.273 200.676 412.585 201.621C408.38 198.526 407.948 197.558 404.69 193.771C401.432 189.984 409.545 191.434 403.993 181.728C402.119 178.427 411.357 182.682 413.428 182.62C425.732 182.317 424.813 175.265 425.032 172.298C424.804 171.056 424.462 169.838 424.01 168.659L422.845 166.428C422.711 166.228 422.568 166.014 422.439 165.831C421.201 164.285 419.859 162.826 418.422 161.464C413.16 161.575 398.178 161.91 397.893 161.963C397.683 162.03 395.121 165.532 392.729 168.833C392.18 171.469 392.18 174.609 393.184 178.382Z" fill="#E6A376"/>
<path d="M398.602 191.081C398.602 191.081 388.637 181.942 392.104 168.824C392.104 168.824 393.961 158.284 405.671 156.874C411.272 156.214 422.046 156.562 426.304 167.856C427.642 171.371 426.75 179.101 412.888 175.505C410.902 174.975 405.636 174.288 403.784 175.952C401.932 177.615 401.717 180.796 402.614 183.467C403.4 185.818 401.32 186.063 401.035 185.573C400.749 185.082 398.089 178.36 395.585 180.992C393.318 183.374 398.352 190.622 398.602 191.081Z" fill="#341C09"/>
<path d="M398.602 191.081C398.352 190.635 393.323 183.374 395.585 181.01C398.089 178.378 400.749 185.1 401.035 185.591C401.32 186.081 403.4 185.84 402.614 183.485C401.722 180.809 401.914 177.655 403.784 175.969C405.466 174.444 410.085 175.224 412.888 175.523C410.585 174.047 406.011 173.534 404.373 169.725C402.19 164.609 399.12 162.209 396.215 161.312C394.175 163.403 392.752 166.016 392.104 168.864C388.637 181.942 398.602 191.081 398.602 191.081Z" fill="#221101"/>
<path d="M398.571 197.317C398.571 197.317 400.923 209.021 414.165 212.037L410.384 221.239C410.384 221.239 386.646 209.356 398.571 197.317Z" fill="#FEFFFF"/>
<path d="M376.203 211.202C375.672 212.853 370.138 216.805 378.041 235.539C378.041 235.539 386.967 255.727 382.312 276.044C380.326 284.755 379.38 282.65 376.064 290.054C374.154 294.292 383.12 300.835 391.952 301.611C396.505 290.839 395.251 290.938 397.156 279.144C399.745 262.988 397.919 249.705 384.66 233.496C373.021 219.249 377.916 213.705 377.653 209.945C376.814 210.533 376.283 210.979 376.203 211.202Z" fill="#9DBCC9"/>
<path d="M426.304 167.856C426.304 167.856 428.348 180.465 412.272 175.885C412.272 175.885 404.239 173.748 401.003 166.29C400.316 164.711 398.459 162.071 395.737 161.794C395.737 161.794 400.021 155.728 411.09 156.499C416.293 156.874 421.711 161.928 423.023 162.744C424.336 163.56 422.193 168.859 426.304 167.856Z" fill="#341C09"/>
<path d="M399.093 299.676L398.928 301.701L428.281 322.607L428.459 320.582L399.093 299.676Z" fill="#B4B9BC"/>
<path d="M428.459 320.582L428.281 322.607L483.117 297.427L483.291 295.402L428.459 320.582Z" fill="#7D8183"/>
<path d="M399.093 299.675L428.459 320.582L483.291 295.402L453.943 274.483L399.093 299.675Z" fill="#E3E5E5"/>
<path d="M437.265 285.839L435.082 283.805L425.933 320.479L428.12 322.504L437.265 285.839Z" fill="#BDBBBB"/>
<path d="M494.578 259.523L492.4 257.497L435.082 283.805L437.265 285.839L494.578 259.523Z" fill="#D2D0D0"/>
<path d="M437.265 285.839L428.12 322.504L485.433 296.165L494.578 259.523L437.265 285.839Z" fill="#D5DFE6"/>
<path d="M437.265 285.839L485.433 296.165L494.578 259.523L437.265 285.839Z" fill="#E9F0F4"/>
<path d="M409.153 301.901C409.153 301.901 419.73 314.649 432.485 314.573C432.485 314.573 433.078 311.38 427.83 309.145C422.582 306.91 421.301 302.343 421.479 301.714C421.658 301.085 426 301.535 427.933 301.803C429.865 302.071 432.672 299.89 428.053 298.712C423.434 297.534 415.816 294.225 411.094 294.354C411.094 294.354 405.645 298.328 409.153 301.901Z" fill="#EFB185"/>
<path d="M385.062 208.12C385.062 208.12 374.31 208.531 370.08 217.108C365.849 225.686 354.125 266.236 359.186 278.239C364.247 290.242 409.443 304.68 409.443 304.68C407.466 297.026 413.267 292.12 413.267 292.12L376.52 267.806C376.52 267.806 394.211 213.928 385.062 208.12Z" fill="#BAD1DE"/>
<path d="M376.52 267.806L413.267 292.12C412.504 292.837 411.826 293.639 411.246 294.51C402.32 289.412 372.909 272.431 370.468 267.864C367.79 262.899 384.223 217.568 386.798 210.556C391.359 222.603 376.52 267.806 376.52 267.806Z" fill="#CAE0EA"/>
<g opacity="0.5">
<path opacity="0.5" d="M339.183 148.047C340.298 147.529 341.414 147.008 342.427 146.593C344.156 145.877 345.925 145.262 347.725 144.751C348.501 144.532 349.229 144.385 349.956 144.229C350.452 144.126 350.983 143.988 351.447 143.908C352.454 143.738 353.47 143.632 354.491 143.591C354.674 143.591 354.839 143.591 355.013 143.591C355.758 143.579 356.503 143.615 357.244 143.698C357.396 143.725 357.552 143.725 357.69 143.756C358.41 143.862 359.119 144.027 359.81 144.251L360.19 144.385C360.826 144.609 361.443 144.886 362.033 145.215L357.097 142.346L356.976 142.28C356.606 142.079 356.222 141.883 355.816 141.713C355.638 141.633 355.441 141.579 355.249 141.512L354.879 141.379C354.758 141.338 354.647 141.285 354.517 141.249C354.041 141.109 353.556 140.998 353.067 140.915C352.964 140.915 352.853 140.915 352.75 140.879C352.647 140.843 352.451 140.848 352.304 140.83C351.991 140.79 351.692 140.736 351.362 140.718C350.951 140.692 350.501 140.718 350.059 140.718C349.88 140.718 349.72 140.718 349.537 140.718C349.452 140.718 349.385 140.718 349.296 140.718C348.419 140.759 347.546 140.849 346.68 140.99C346.622 140.99 346.551 141.022 346.48 141.031C346.033 141.111 345.489 141.254 344.998 141.356C344.355 141.49 343.753 141.588 343.065 141.776C342.976 141.798 342.865 141.856 342.78 141.878C340.982 142.389 339.214 143.002 337.487 143.716C337.371 143.765 337.295 143.774 337.179 143.823C336.251 144.211 335.22 144.715 334.211 145.183C333.68 145.438 333.185 145.629 332.631 145.915C330.877 146.78 329.061 147.761 327.093 148.885C325.874 149.586 324.634 150.335 323.339 151.138C321.956 152.03 320.59 152.828 319.256 153.605C316.783 155.028 314.422 156.25 312.115 157.356C311.432 157.69 310.776 157.971 310.098 158.284C308.692 158.917 307.331 159.479 305.987 160.001C304.26 160.674 302.591 161.236 300.953 161.736C300.061 162.008 299.101 162.334 298.217 162.561C297.334 162.789 296.544 162.936 295.709 163.101C294.478 163.355 293.25 163.587 292.085 163.743C291.492 163.815 290.912 163.868 290.327 163.922C288.988 164.033 287.694 164.087 286.44 164.069C286.06 164.069 285.663 164.069 285.288 164.069C283.767 163.999 282.252 163.826 280.754 163.551C280.455 163.498 280.169 163.404 279.861 163.346C278.69 163.094 277.536 162.766 276.407 162.365C276.081 162.249 275.747 162.151 275.43 162.021C274.097 161.509 272.805 160.896 271.565 160.188L276.505 163.056L276.831 163.244C277.803 163.776 278.802 164.255 279.826 164.68C280.022 164.76 280.227 164.809 280.424 164.89C280.732 165.01 281.053 165.113 281.356 165.22C281.874 165.398 282.37 165.608 282.901 165.764C283.534 165.947 284.204 166.076 284.864 166.21C285.15 166.277 285.413 166.353 285.699 166.402C285.851 166.433 285.993 166.482 286.145 166.509C287.317 166.708 288.498 166.846 289.684 166.924C289.867 166.924 290.064 166.924 290.247 166.924C290.622 166.924 291.023 166.924 291.411 166.924C292.152 166.924 292.871 166.973 293.643 166.924C294.161 166.924 294.719 166.808 295.245 166.758C295.852 166.714 296.459 166.651 297.084 166.576C297.481 166.518 297.856 166.518 298.262 166.455C299.012 166.335 299.829 166.107 300.605 165.951C301.466 165.777 302.319 165.617 303.216 165.389C303.502 165.313 303.765 165.287 304.055 165.206C304.626 165.055 305.269 164.76 305.84 164.586C307.5 164.087 309.196 163.516 310.95 162.829C311.396 162.65 311.843 162.566 312.289 162.383C313.182 162.017 314.106 161.553 315.011 161.143C315.708 160.826 316.391 160.532 317.1 160.193C319.399 159.078 321.755 157.86 324.205 156.45C325.547 155.677 326.911 154.857 328.298 153.988C329.592 153.181 330.837 152.432 332.046 151.731C334.001 150.598 335.836 149.63 337.581 148.756C338.156 148.506 338.665 148.301 339.183 148.047Z" fill="#FFEAF5"/>
<path opacity="0.5" d="M232.072 81.7601L231.916 81.6709C231.472 81.4215 231.015 81.1966 230.546 80.9974C230.108 80.8254 229.661 80.6765 229.207 80.5513C229.033 80.5067 228.864 80.4755 228.685 80.4264L228.453 80.3729C228.274 80.3372 228.096 80.2792 227.917 80.248C227.492 80.1738 227.063 80.1232 226.632 80.0964C226.186 80.0727 225.739 80.0727 225.293 80.0964C225.204 80.0964 225.11 80.0963 225.016 80.1231C224.923 80.1499 224.86 80.1231 224.789 80.1231C224.476 80.1499 224.177 80.1722 223.861 80.2168C223.278 80.3058 222.701 80.4294 222.133 80.587C221.892 80.6539 221.642 80.7654 221.397 80.8502C221.152 80.9349 220.951 80.9929 220.737 81.0776C220.438 81.1758 220.161 81.2561 219.844 81.3765C218.883 81.7803 217.95 82.2467 217.05 82.7726C215.584 83.6431 214.179 84.6133 212.846 85.6764C212.623 85.8503 212.4 86.0064 212.181 86.1893C210.807 87.3044 209.405 88.5757 207.964 89.9673C207.834 90.0878 207.714 90.177 207.584 90.3063C207.455 90.4357 207.285 90.6409 207.138 90.7836C205.665 92.26 204.157 93.8658 202.613 95.6321C202.555 95.699 202.497 95.7481 202.439 95.8239C202.38 95.8997 202.184 96.1406 202.059 96.27C200.372 98.2236 198.654 100.284 196.891 102.581C195.841 103.943 194.773 105.36 193.687 106.832C191.116 110.307 188.777 113.612 186.492 116.833C186.247 117.176 185.961 117.564 185.725 117.903C185.359 118.425 185.033 118.907 184.676 119.42C183.783 120.704 182.891 121.958 182.056 123.202L179.95 126.28C179.173 127.435 178.419 128.564 177.674 129.674C176.986 130.705 176.299 131.726 175.643 132.721C174.938 133.791 174.264 134.813 173.599 135.843C172.97 136.802 172.336 137.766 171.734 138.698C171.028 139.782 170.359 140.816 169.69 141.869C169.136 142.717 168.592 143.564 168.061 144.385L165.008 149.135C164.66 149.684 164.334 150.188 163.99 150.719C163.285 151.82 162.576 152.913 161.902 153.944C161.54 154.501 161.201 155.014 160.848 155.549C160.242 156.482 159.621 157.423 159.037 158.297C158.729 158.743 158.438 159.189 158.144 159.635C157.519 160.563 156.89 161.486 156.287 162.343C155.297 163.761 154.328 165.072 153.373 166.317C153.047 166.763 152.717 167.16 152.396 167.566C151.9 168.19 151.414 168.788 150.914 169.377C150.575 169.783 150.222 170.175 149.874 170.559C149.401 171.094 148.928 171.603 148.45 172.089C148.116 172.432 147.781 172.762 147.437 173.092C146.817 173.686 146.197 174.234 145.567 174.747C145.286 174.984 145.01 175.233 144.715 175.456C143.84 176.145 142.918 176.772 141.957 177.334C141.102 177.823 140.217 178.255 139.306 178.628C139.087 178.717 138.86 178.771 138.654 178.842C137.965 179.108 137.26 179.333 136.543 179.515C136.28 179.587 135.999 179.622 135.727 179.689C135.079 179.828 134.419 179.944 133.741 180.019C133.388 180.068 133.022 180.1 132.652 180.126C132.031 180.171 131.389 180.184 130.75 180.193C130.264 180.193 129.769 180.193 129.26 180.193C128.751 180.193 128.184 180.113 127.635 180.06C126.796 179.988 125.935 179.886 125.038 179.743C124.556 179.672 124.078 179.587 123.583 179.498C121.633 179.132 119.566 178.65 117.335 178.012C115.996 177.624 114.595 177.205 113.126 176.719L113.47 298.712L118.406 301.589L118.058 179.587C119.397 180.033 120.736 180.448 121.976 180.809C122.066 180.836 122.133 180.845 122.222 180.871C124.484 181.514 126.564 182.004 128.528 182.366C128.729 182.406 128.974 182.477 129.157 182.517C129.443 182.571 129.693 182.575 129.974 182.615C130.866 182.758 131.737 182.865 132.585 182.937C132.897 182.968 133.254 183.039 133.562 183.057C133.785 183.057 134.008 183.057 134.205 183.057C134.705 183.088 135.196 183.088 135.682 183.084C136.043 183.084 136.423 183.111 136.766 183.084C137.11 183.057 137.315 183.026 137.592 183.008C137.958 182.977 138.324 182.941 138.686 182.896C138.927 182.865 139.181 182.865 139.417 182.821C139.864 182.758 140.257 182.651 140.68 182.562C140.948 182.504 141.22 182.455 141.488 182.392L141.827 182.325C142.434 182.156 143.015 181.928 143.613 181.719C143.827 181.643 144.059 181.581 144.26 181.5C144.297 181.484 144.336 181.47 144.376 181.46C145.251 181.098 146.1 180.677 146.92 180.202C147.875 179.639 148.793 179.014 149.669 178.333C149.968 178.101 150.258 177.838 150.561 177.593C151.173 177.093 151.78 176.558 152.378 175.992C152.53 175.84 152.686 175.733 152.824 175.581C152.962 175.43 153.244 175.135 153.458 174.908C153.904 174.462 154.35 173.984 154.797 173.494C154.998 173.275 155.194 173.083 155.395 172.856C155.596 172.628 155.761 172.41 155.944 172.178C156.39 171.656 156.836 171.107 157.283 170.536C157.519 170.247 157.729 169.992 157.979 169.685C158.117 169.511 158.26 169.301 158.389 169.123C159.331 167.887 160.286 166.602 161.268 165.206C161.308 165.144 161.348 165.095 161.388 165.037C161.87 164.345 162.384 163.578 162.879 162.847C163.263 162.285 163.633 161.754 164.031 161.161C164.615 160.269 165.231 159.341 165.847 158.404L166.86 156.861C167.614 155.714 168.4 154.492 169.19 153.266C169.422 152.891 169.636 152.539 169.895 152.164C170.996 150.442 172.149 148.645 173.354 146.771C173.581 146.41 173.84 146.026 174.072 145.656C174.986 144.238 175.927 142.779 176.897 141.28C177.299 140.66 177.727 140 178.151 139.367C179.011 138.05 179.904 136.699 180.829 135.317C181.329 134.563 181.851 133.787 182.364 133.011C183.257 131.681 184.17 130.321 185.104 128.929C185.667 128.095 186.256 127.239 186.845 126.387C187.813 124.973 188.804 123.532 189.835 122.06C190.326 121.342 190.844 120.615 191.362 119.884C193.655 116.614 196.07 113.246 198.672 109.709C199.761 108.222 200.832 106.807 201.885 105.463C203.621 103.233 205.304 101.181 206.964 99.2495C207.192 98.9819 207.41 98.7054 207.647 98.4467C209.178 96.6982 210.677 95.1058 212.141 93.6338L212.94 92.8443C214.38 91.4378 215.79 90.1725 217.171 89.0485C217.389 88.8656 217.617 88.7139 217.831 88.54C219.162 87.4724 220.567 86.5005 222.035 85.6318C223.208 84.9553 224.438 84.385 225.713 83.9279C225.927 83.8476 226.159 83.7673 226.364 83.7049C227.465 83.3356 228.605 83.0946 229.761 82.9867C229.836 82.9867 229.912 82.9867 229.984 82.9867C231.138 82.9063 232.299 82.9919 233.429 83.241C233.509 83.2589 233.588 83.2812 233.666 83.3079C234.849 83.586 235.984 84.0369 237.035 84.646L232.072 81.7601Z" fill="#FFEAF5"/>
<path opacity="0.5" d="M222.017 85.6407C237.477 76.7198 248.849 89.2091 257.636 131.873C263.05 158.083 281.441 181.166 324.214 156.482C325.556 155.708 326.92 154.888 328.307 154.019C329.601 153.212 330.846 152.463 332.055 151.762C368.067 130.99 368.138 156.152 368.143 157.481L118.424 301.553L118.076 179.551C131.464 184.012 139.792 184.293 146.924 180.176C160.188 172.521 169.239 149.586 198.654 109.7C207.352 97.9114 215.113 89.6283 222.017 85.6407Z" fill="url(#paint11_linear)"/>
</g>
<path d="M139.716 223.322C144.023 220.837 145.732 224.254 145.746 229.33C145.746 235.048 143.764 240.111 139.654 242.479C135.544 244.848 133.642 241.654 133.602 236.44C133.589 231.101 135.548 225.699 139.716 223.322ZM139.739 239.165C141.203 238.318 141.97 235.775 141.97 231.555C141.97 227.474 141.189 225.757 139.685 226.609C138.293 227.416 137.347 229.99 137.396 234.259C137.373 238.527 138.288 240.008 139.739 239.165Z" fill="#FFD2CD"/>
<path d="M153.458 215.386C157.769 212.897 159.474 216.314 159.492 221.399C159.492 227.113 157.515 232.18 153.4 234.549C149.285 236.917 147.388 233.723 147.353 228.505C147.344 223.17 149.298 217.782 153.458 215.386ZM153.48 231.23C154.953 230.387 155.712 227.84 155.712 223.616C155.712 219.539 154.931 217.817 153.427 218.674C152.034 219.477 151.097 222.059 151.137 226.319C151.177 230.579 152.03 232.082 153.476 231.225L153.48 231.23Z" fill="#FFD2CD"/>
<path d="M167.213 207.451C171.524 204.967 173.22 208.383 173.242 213.464C173.242 219.178 171.26 224.245 167.155 226.613C163.049 228.982 161.143 225.788 161.112 220.569C161.089 215.235 163.049 209.851 167.213 207.451ZM167.239 223.295C168.703 222.447 169.471 219.905 169.471 215.681C169.471 211.604 168.69 209.882 167.19 210.739C165.793 211.546 164.852 214.12 164.896 218.379C164.865 222.657 165.789 224.142 167.239 223.286V223.295Z" fill="#FFD2CD"/>
<path d="M183.525 198.352L183.578 216.836L179.932 218.937L179.892 204.302L179.838 204.333L176.777 207.763L176.134 204.886L180.405 200.154L183.525 198.352Z" fill="#FFD2CD"/>
<path d="M194.709 191.585C199.024 189.096 200.716 192.518 200.738 197.598C200.738 203.312 198.761 208.375 194.651 210.752C190.54 213.129 188.635 209.922 188.603 204.708C188.59 199.382 190.545 193.99 194.709 191.585ZM194.736 207.425C196.204 206.577 196.967 204.035 196.967 199.815C196.967 195.738 196.186 194.016 194.677 194.868C193.285 195.676 192.343 198.249 192.388 202.518C192.433 206.787 193.281 208.276 194.736 207.425Z" fill="#FFD2CD"/>
<path d="M208.459 183.646C212.77 181.157 214.471 184.578 214.493 189.658C214.493 195.377 212.511 200.448 208.401 202.812C204.291 205.176 202.389 201.992 202.358 196.768C202.336 191.438 204.295 186.05 208.459 183.646ZM208.49 199.494C209.954 198.646 210.722 196.104 210.722 191.88C210.722 187.807 209.945 186.081 208.441 186.938C207.049 187.745 206.107 190.319 206.152 194.587C206.125 198.851 207.044 200.341 208.495 199.494H208.49Z" fill="#FFD2CD"/>
<path d="M222.205 175.715C226.516 173.231 228.216 176.647 228.239 181.728C228.239 187.446 226.257 192.509 222.151 194.877C218.045 197.246 216.135 194.052 216.104 188.833C216.086 183.499 218.045 178.115 222.205 175.715ZM222.236 191.559C223.7 190.716 224.468 188.178 224.468 183.945C224.468 179.868 223.687 178.146 222.187 179.007C220.795 179.805 219.844 182.379 219.893 186.648C219.871 190.916 220.786 192.406 222.241 191.554L222.236 191.559Z" fill="#FFD2CD"/>
<path d="M235.96 167.78C240.266 165.295 241.971 168.712 241.985 173.797C241.985 179.515 240.012 184.578 235.897 186.947C231.782 189.315 229.89 186.117 229.85 180.898C229.841 175.568 231.796 170.189 235.96 167.78ZM235.986 183.619C237.459 182.776 238.218 180.234 238.218 176.036C238.218 171.955 237.437 170.238 235.933 171.085C234.54 171.888 233.599 174.466 233.643 178.735C233.617 183.003 234.536 184.493 235.982 183.641L235.986 183.619Z" fill="#FFD2CD"/>
<path d="M249.71 159.849C254.021 157.36 255.722 160.777 255.735 165.862C255.757 171.58 253.758 176.647 249.647 179.011C245.537 181.375 243.636 178.186 243.6 172.967C243.587 167.633 245.546 162.249 249.71 159.849ZM249.737 175.693C251.201 174.845 251.968 172.303 251.968 168.083C251.968 164.002 251.187 162.285 249.683 163.137C248.291 163.94 247.345 166.513 247.389 170.782C247.434 175.051 248.282 176.536 249.737 175.688V175.693Z" fill="#FFD2CD"/>
<path d="M263.456 151.919C267.767 149.425 269.472 152.846 269.49 157.927C269.49 163.65 267.513 168.708 263.402 171.081C259.292 173.454 257.391 170.256 257.355 165.037C257.337 159.684 259.296 154.332 263.456 151.919ZM263.482 167.762C264.955 166.915 265.714 164.372 265.714 160.144C265.714 156.067 264.933 154.345 263.429 155.206C262.036 156.009 261.095 158.578 261.144 162.847C261.122 167.115 262.014 168.601 263.482 167.753V167.762Z" fill="#FFD2CD"/>
<path d="M279.75 142.833L279.808 161.308L276.184 163.395L276.144 148.765L276.086 148.792L273.024 152.226L272.386 149.349L276.644 144.617L279.75 142.833Z" fill="#FFD2CD"/>
<path d="M293.505 134.893L293.554 153.377L289.93 155.465L289.885 140.83L289.832 140.861L286.775 144.296L286.132 141.414L290.403 136.686L293.505 134.893Z" fill="#FFD2CD"/>
<path d="M307.25 126.962L307.304 145.438L303.685 147.534L303.636 132.895L303.582 132.926L300.525 136.356L299.882 133.479L304.149 128.755L307.25 126.962Z" fill="#FFD2CD"/>
<path d="M318.457 120.178C322.759 117.689 324.468 121.11 324.477 126.191C324.477 131.909 322.505 136.972 318.39 139.345C314.275 141.717 312.383 138.515 312.347 133.301C312.334 127.966 314.293 122.578 318.457 120.178ZM318.457 136.017C319.925 135.17 320.688 132.632 320.688 128.403C320.688 124.326 319.907 122.604 318.399 123.456C317.006 124.264 316.065 126.842 316.114 131.106C316.087 135.375 316.984 136.865 318.452 136.013L318.457 136.017Z" fill="#FFD2CD"/>
<path d="M332.203 112.238C336.518 109.754 338.214 113.175 338.232 118.256C338.232 123.974 336.26 129.041 332.149 131.409C328.039 133.778 326.133 130.58 326.102 125.361C326.08 120.031 328.025 114.634 332.203 112.238ZM332.229 128.091C333.675 127.257 334.461 124.701 334.461 120.472C334.461 116.396 333.684 114.674 332.18 115.53C330.783 116.333 329.842 118.907 329.891 123.175C329.864 127.449 330.761 128.929 332.234 128.082L332.229 128.091Z" fill="#FFD2CD"/>
<path d="M345.957 104.312C350.264 101.823 351.969 105.244 351.982 110.32C351.982 116.043 350.005 121.106 345.895 123.479C341.785 125.852 339.883 122.654 339.848 117.435C339.834 112.1 341.794 106.712 345.957 104.312ZM345.98 120.151C347.435 119.317 348.211 116.766 348.211 112.546C348.211 108.469 347.435 106.748 345.908 107.613C344.534 108.407 343.597 110.976 343.641 115.245C343.614 119.509 344.534 121.003 345.98 120.151Z" fill="#FFD2CD"/>
<path d="M359.712 96.3771C364.028 93.8881 365.728 97.3093 365.742 102.39C365.742 108.104 363.765 113.171 359.654 115.539C355.544 117.908 353.643 114.714 353.607 109.5C353.585 104.161 355.544 98.7812 359.712 96.3771ZM359.743 112.221C361.194 111.382 361.975 108.831 361.975 104.607C361.975 100.53 361.194 98.808 359.69 99.6599C358.289 100.472 357.351 103.041 357.396 107.314C357.374 111.578 358.289 113.068 359.743 112.221Z" fill="#FFD2CD"/>
<path d="M139.806 257.457C144.121 254.968 145.822 258.412 145.835 263.466C145.835 269.184 143.854 274.269 139.752 276.642C135.651 279.015 133.732 275.794 133.701 270.576C133.687 265.245 135.646 259.857 139.806 257.457ZM139.806 273.301C141.283 272.453 142.037 269.915 142.037 265.687C142.037 261.61 141.261 259.888 139.748 260.745C138.355 261.548 137.418 264.126 137.467 268.39C137.445 272.659 138.333 274.148 139.801 273.296L139.806 273.301Z" fill="#FFD2CD"/>
<path d="M153.556 249.527C157.867 247.038 159.572 250.481 159.585 255.539C159.585 261.258 157.608 266.343 153.498 268.711C149.388 271.08 147.486 267.864 147.455 262.645C147.437 257.31 149.397 251.922 153.556 249.527ZM153.583 265.37C155.051 264.527 155.814 261.98 155.814 257.756C155.814 253.679 155.038 251.958 153.529 252.814C152.137 253.617 151.195 256.191 151.24 260.459C151.213 264.723 152.132 266.218 153.578 265.366L153.583 265.37Z" fill="#FFD2CD"/>
<path d="M169.868 240.432L169.926 258.911L166.28 261.008L166.244 246.373L166.186 246.409L163.125 249.843L162.482 246.962L166.744 242.234L169.868 240.432Z" fill="#FFD2CD"/>
<path d="M181.057 233.661C185.372 231.172 187.073 234.615 187.086 239.674C187.086 245.396 185.105 250.472 180.994 252.845C176.884 255.218 174.987 252.016 174.947 246.779C174.947 241.444 176.893 236.061 181.057 233.661ZM181.079 249.504C182.552 248.661 183.31 246.114 183.31 241.886C183.31 237.818 182.534 236.087 181.025 236.944C179.629 237.747 178.687 240.325 178.74 244.593C178.714 248.858 179.611 250.352 181.079 249.5V249.504Z" fill="#FFD2CD"/>
<path d="M194.807 225.726C199.118 223.237 200.823 226.676 200.836 231.738C200.836 237.457 198.855 242.542 194.753 244.91C190.652 247.279 188.737 244.063 188.706 238.848C188.684 233.505 190.647 228.13 194.807 225.726ZM194.807 241.569C196.28 240.722 197.038 238.179 197.038 233.951C197.038 229.874 196.257 228.152 194.749 229.009C193.356 229.811 192.419 232.385 192.468 236.654C192.441 240.922 193.334 242.408 194.802 241.56L194.807 241.569Z" fill="#FFD2CD"/>
<path d="M208.553 217.791C212.864 215.306 214.573 218.745 214.587 223.803C214.587 229.522 212.605 234.602 208.495 236.975C204.384 239.348 202.483 236.132 202.447 230.909C202.434 225.579 204.402 220.186 208.553 217.791ZM208.579 233.639C210.052 232.791 210.811 230.249 210.811 226.025C210.811 221.948 210.025 220.226 208.526 221.082C207.129 221.89 206.187 224.463 206.241 228.728C206.214 233.001 207.111 234.486 208.575 233.634L208.579 233.639Z" fill="#FFD2CD"/>
<path d="M224.869 208.696L224.923 227.18L221.277 229.276L221.241 214.637L221.183 214.673L218.121 218.107L217.483 215.226L221.745 210.502L224.869 208.696Z" fill="#FFD2CD"/>
<path d="M236.053 201.92C240.364 199.436 242.069 202.875 242.087 207.937C242.087 213.651 240.106 218.741 235.995 221.109C231.885 223.478 229.984 220.262 229.953 215.043C229.935 209.708 231.894 204.329 236.053 201.92ZM236.08 217.764C237.548 216.916 238.312 214.369 238.312 210.159C238.312 206.082 237.535 204.36 236.031 205.208C234.639 206.01 233.692 208.589 233.742 212.857C233.742 217.126 234.634 218.616 236.085 217.764H236.08Z" fill="#FFD2CD"/>
<path d="M249.804 193.99C254.115 191.496 255.82 194.944 255.833 200.002C255.833 205.721 253.856 210.801 249.746 213.174C245.635 215.547 243.73 212.326 243.698 207.112C243.676 201.773 245.644 196.389 249.804 193.99ZM249.826 209.833C251.299 208.986 252.057 206.443 252.057 202.219C252.057 198.142 251.276 196.421 249.772 197.277C248.375 198.08 247.434 200.653 247.483 204.922C247.456 209.186 248.375 210.685 249.817 209.829L249.826 209.833Z" fill="#FFD2CD"/>
<path d="M263.558 186.05C267.865 183.565 269.57 187.005 269.583 192.067C269.583 197.785 267.602 202.875 263.492 205.239C259.381 207.603 257.48 204.396 257.444 199.173C257.435 193.838 259.395 188.454 263.558 186.05ZM263.581 201.898C265.045 201.055 265.812 198.508 265.812 194.284C265.812 190.207 265.031 188.485 263.527 189.333C262.135 190.14 261.193 192.714 261.238 196.987C261.238 201.251 262.13 202.741 263.581 201.894V201.898Z" fill="#FFD2CD"/>
<path d="M279.848 176.973L279.897 195.453L276.273 197.54L276.238 182.905L276.184 182.932L273.118 186.371L272.48 183.494L276.746 178.762L279.848 176.973Z" fill="#FFD2CD"/>
<path d="M291.05 170.189C295.361 167.7 297.071 171.139 297.079 176.201C297.079 181.92 295.098 187.005 290.992 189.373C286.886 191.742 284.981 188.53 284.94 183.307C284.931 177.972 286.891 172.584 291.05 170.189ZM291.077 186.032C292.523 185.194 293.308 182.647 293.308 178.418C293.308 174.346 292.527 172.62 291.028 173.476C289.631 174.279 288.689 176.853 288.738 181.117C288.738 185.39 289.631 186.88 291.081 186.023L291.077 186.032Z" fill="#FFD2CD"/>
<path d="M304.818 162.253C309.129 159.765 310.839 163.204 310.852 168.262C310.852 173.989 308.871 179.065 304.765 181.438C300.659 183.811 298.744 180.586 298.717 175.372C298.682 170.037 300.636 164.658 304.818 162.253ZM304.845 178.093C306.313 177.249 307.076 174.707 307.076 170.479C307.076 166.406 306.3 164.68 304.796 165.541C303.403 166.339 302.457 168.917 302.511 173.186C302.484 177.455 303.403 178.94 304.849 178.093H304.845Z" fill="#FFD2CD"/>
<path d="M318.551 154.332C322.857 151.843 324.567 155.282 324.58 160.34C324.58 166.063 322.603 171.148 318.493 173.512C314.382 175.876 312.481 172.669 312.445 167.45C312.427 162.106 314.391 156.723 318.551 154.332ZM318.577 170.171C320.046 169.323 320.809 166.785 320.809 162.552C320.809 158.484 320.028 156.754 318.528 157.615C317.127 158.418 316.185 160.996 316.239 165.26C316.208 169.533 317.105 171.018 318.577 170.166V170.171Z" fill="#FFD2CD"/>
<path d="M334.849 145.237L334.898 163.717L331.274 165.804L331.239 151.169L331.185 151.205L328.119 154.635L327.472 151.758L331.743 147.03L334.849 145.237Z" fill="#FFD2CD"/>
<path d="M346.051 138.452C350.362 135.968 352.072 139.407 352.085 144.461C352.085 150.183 350.103 155.264 345.993 157.641C341.883 160.019 339.982 156.794 339.946 151.575C339.932 146.236 341.887 140.852 346.051 138.452ZM346.078 154.296C347.528 153.457 348.309 150.911 348.309 146.686C348.309 142.61 347.528 140.888 346.006 141.749C344.636 142.543 343.686 145.116 343.735 149.385C343.735 153.649 344.627 155.139 346.078 154.292V154.296Z" fill="#FFD2CD"/>
<path d="M359.802 130.517C364.113 128.028 365.818 131.472 365.831 136.535C365.831 142.248 363.854 147.338 359.748 149.706C355.642 152.075 353.728 148.854 353.701 143.644C353.678 138.301 355.638 132.922 359.802 130.517ZM359.828 146.361C361.274 145.522 362.06 142.967 362.06 138.747C362.06 134.67 361.279 132.948 359.779 133.805C358.382 134.608 357.441 137.186 357.49 141.454C357.463 145.719 358.382 147.213 359.833 146.361H359.828Z" fill="#FFD2CD"/>
<path d="M288.72 39.3546L288.774 57.8298L285.15 59.9173L285.101 45.2781L285.047 45.3138L281.986 48.7483L281.348 45.8669L285.614 41.1388L288.72 39.3546Z" fill="#FFD2CD"/>
<path d="M302.466 31.4194L302.52 49.8946L298.896 51.9866L298.856 37.3474L298.798 37.3786L295.736 40.8131L295.098 37.9362L299.364 33.2081L302.466 31.4194Z" fill="#FFD2CD"/>
<path d="M313.677 24.6351C317.979 22.1462 319.684 25.5673 319.698 30.6433C319.698 36.3616 317.721 41.4242 313.61 43.7972C309.5 46.1702 307.599 42.9676 307.559 37.7488C307.55 32.4186 309.504 27.0348 313.677 24.6351ZM313.699 40.4697C315.168 39.6222 315.931 37.0887 315.931 32.8602C315.931 28.7878 315.154 27.0616 313.641 27.918C312.249 28.7209 311.312 31.299 311.356 35.5632C311.33 39.8363 312.249 41.3217 313.699 40.4697Z" fill="#FFD2CD"/>
<path d="M327.418 16.7C331.734 14.2066 333.434 17.6277 333.448 22.7082C333.448 28.4265 331.466 33.4936 327.365 35.8621C323.263 38.2306 321.331 35.0324 321.331 29.8182C321.3 24.4835 323.259 19.1042 327.418 16.7ZM327.445 32.5613C328.9 31.7228 329.677 29.1714 329.677 24.9429C329.677 20.866 328.9 19.1443 327.396 20.0052C326.004 20.808 325.058 23.3817 325.107 27.6504C325.084 31.9235 325.999 33.4044 327.45 32.5569L327.445 32.5613Z" fill="#FFD2CD"/>
<path d="M341.169 8.76481C345.476 6.27588 347.185 9.69704 347.198 14.7775C347.198 20.4958 345.217 25.5584 341.106 27.9314C336.996 30.3043 335.095 27.1062 335.064 21.883C335.05 16.5528 337.005 11.1512 341.169 8.76481ZM341.196 24.6039C342.646 23.7698 343.427 21.2139 343.427 16.9943C343.427 12.9175 342.646 11.1958 341.124 12.0611C339.745 12.855 338.808 15.4243 338.853 19.6974C338.826 23.966 339.745 25.4514 341.196 24.6039Z" fill="#FFD2CD"/>
<path d="M354.915 0.829628C359.226 -1.6593 360.931 1.76186 360.948 6.84232C360.948 12.5562 358.971 17.6232 354.865 19.9917C350.76 22.3602 348.849 19.1799 348.814 13.9523C348.8 8.61758 350.755 3.23381 354.915 0.829628ZM354.946 16.6732C356.396 15.8346 357.177 13.2832 357.177 9.0547C357.177 4.98231 356.396 3.25611 354.892 4.10806C353.5 4.90648 352.572 7.49354 352.603 11.7667C352.576 16.0309 353.495 17.5206 354.946 16.6732Z" fill="#FFD2CD"/>
<path d="M258.765 90.5115C263.072 88.0226 264.777 91.4616 264.795 96.5198C264.795 102.238 262.818 107.323 258.712 109.691C254.606 112.06 252.696 108.844 252.664 103.625C252.647 98.295 254.61 92.9113 258.765 90.5115ZM258.796 106.351C260.26 105.508 261.028 102.961 261.028 98.7366C261.028 94.6598 260.251 92.938 258.738 93.79C257.35 94.5973 256.409 97.171 256.458 101.44C256.436 105.704 257.35 107.194 258.801 106.346L258.796 106.351Z" fill="#FFD2CD"/>
<path d="M275.064 81.4256L275.117 99.9053L271.494 101.997L271.449 87.358L271.4 87.3892L268.334 90.8193L267.696 87.9423L271.962 83.2187L275.064 81.4256Z" fill="#FFD2CD"/>
<path d="M286.266 74.6412C290.581 72.1523 292.286 75.5913 292.3 80.6539C292.3 86.3678 290.318 91.4527 286.212 93.8257C282.106 96.1986 280.196 92.9826 280.165 87.7639C280.147 82.4247 282.106 77.041 286.266 74.6412ZM286.297 90.4892C287.747 89.6551 288.528 87.0993 288.528 82.8708C288.528 78.7984 287.747 77.0722 286.243 77.9286C284.847 78.7359 283.905 81.3052 283.958 85.5694C283.958 89.8425 284.851 91.3323 286.301 90.4759L286.297 90.4892Z" fill="#FFD2CD"/>
<path d="M300.016 66.7061C304.323 64.2216 306.028 67.6561 306.05 72.7188C306.05 78.4371 304.064 83.5175 299.962 85.8905C295.861 88.2634 293.942 85.043 293.915 79.8243C293.893 74.4896 295.852 69.1103 300.016 66.7061ZM300.047 82.5496C301.511 81.7066 302.279 79.1596 302.279 74.9401C302.279 70.8587 301.498 69.1415 299.994 69.9934C298.601 70.7963 297.655 73.3744 297.709 77.6386C297.682 81.9073 298.579 83.3971 300.052 82.5451L300.047 82.5496Z" fill="#FFD2CD"/>
<path d="M313.744 58.7754C318.055 56.282 319.76 59.7299 319.773 64.7836C319.773 70.5019 317.796 75.5868 313.69 77.9553C309.585 80.3238 307.674 77.1123 307.639 71.8891C307.648 66.5589 309.607 61.1796 313.744 58.7754ZM313.771 74.6145C315.243 73.7714 316.002 71.229 316.002 67.0049C316.002 62.9281 315.221 61.2063 313.717 62.0583C312.32 62.8612 311.379 65.4393 311.432 69.7035C311.405 73.9722 312.298 75.4664 313.771 74.61V74.6145Z" fill="#FFD2CD"/>
<path d="M330.065 49.6939L330.114 68.1646L326.495 70.2611L326.45 55.6218L326.396 55.6575L323.335 59.0876L322.688 56.2106L326.963 51.487L330.065 49.6939Z" fill="#FFD2CD"/>
<path d="M341.262 42.9051C345.578 40.4206 347.283 43.8597 347.296 48.9178C347.296 54.6406 345.315 59.721 341.209 62.094C337.103 64.4669 335.193 61.2465 335.166 56.0278C335.166 50.6886 337.103 45.3093 341.262 42.9051ZM341.289 58.7486C342.744 57.9145 343.521 55.3587 343.521 51.1346C343.521 47.0578 342.74 45.3361 341.218 46.2014C339.843 46.9953 338.902 49.569 338.951 53.8377C338.924 58.1019 339.843 59.5917 341.289 58.7442V58.7486Z" fill="#FFD2CD"/>
<path d="M355.017 34.97C359.328 32.4855 361.029 35.9289 361.042 40.9871C361.064 46.7054 359.065 51.7903 354.964 54.1588C350.862 56.5273 348.943 53.3113 348.912 48.0926C348.894 42.7534 350.853 37.3741 355.017 34.97ZM355.044 50.8179C356.494 49.9838 357.275 47.428 357.275 43.2039C357.275 39.1271 356.499 37.4054 354.99 38.2528C353.593 39.0602 352.652 41.6339 352.705 45.907C352.679 50.1712 353.598 51.6654 355.048 50.8135L355.044 50.8179Z" fill="#FFD2CD"/>
<path d="M245.117 132.587C249.429 130.098 251.129 133.541 251.142 138.604C251.142 144.318 249.17 149.381 245.059 151.753C240.949 154.126 239.043 150.924 239.012 145.714C238.994 140.366 240.949 134.987 245.117 132.587ZM245.14 148.43C246.608 147.587 247.371 145.041 247.371 140.816C247.371 136.74 246.595 135.018 245.086 135.87C243.689 136.677 242.748 139.251 242.797 143.515C242.77 147.784 243.689 149.278 245.135 148.422L245.14 148.43Z" fill="#FFD2CD"/>
<path d="M261.434 123.492L261.483 141.967L257.841 144.077L257.797 129.433L257.739 129.465L254.682 132.895L254.043 130.018L258.31 125.294L261.434 123.492Z" fill="#FFD2CD"/>
<path d="M275.162 115.57L275.211 134.05L271.592 136.138L271.547 121.498L271.494 121.53L268.432 124.96L267.789 122.083L272.06 117.359L275.162 115.57Z" fill="#FFD2CD"/>
<path d="M286.364 108.782C290.675 106.293 292.376 109.736 292.393 114.794C292.393 120.508 290.412 125.571 286.302 127.944C282.191 130.317 280.294 127.123 280.272 121.9C280.25 116.565 282.2 111.181 286.364 108.782ZM286.391 124.629C287.841 123.786 288.622 121.235 288.622 117.011C288.622 112.93 287.841 111.212 286.337 112.064C284.94 112.872 283.999 115.445 284.048 119.71C284.025 123.978 284.94 125.473 286.391 124.616V124.629Z" fill="#FFD2CD"/>
<path d="M302.658 99.7L302.712 118.18L299.088 120.267L299.048 105.632L298.994 105.664L295.932 109.098L295.29 106.226L299.556 101.489L302.658 99.7Z" fill="#FFD2CD"/>
<path d="M316.408 91.7649L316.462 110.245L312.834 112.337L312.793 97.6928L312.735 97.733L309.678 101.168L309.04 98.2861L313.307 93.558L316.408 91.7649Z" fill="#FFD2CD"/>
<path d="M330.159 83.8342L330.212 102.309L326.593 104.406L326.548 89.7622L326.495 89.7979L323.433 93.2279L322.79 90.351L327.057 85.6273L330.159 83.8342Z" fill="#FFD2CD"/>
<path d="M341.361 77.0454C345.672 74.561 347.381 78 347.395 83.0581C347.395 88.7809 345.409 93.8435 341.307 96.2076C337.206 98.5716 335.291 95.3868 335.26 90.1636C335.242 84.8334 337.197 79.4496 341.361 77.0454ZM341.392 92.889C342.838 92.0593 343.623 89.5035 343.623 85.275C343.623 81.1981 342.842 79.4764 341.321 80.3462C339.941 81.1312 339.004 83.7094 339.053 87.978C339.027 92.2467 339.946 93.732 341.396 92.8845L341.392 92.889Z" fill="#FFD2CD"/>
<path d="M355.115 69.1147C359.422 66.6258 361.127 70.0692 361.14 75.1319C361.14 80.8457 359.159 85.9083 355.057 88.2813C350.956 90.6542 349.046 87.4472 349.001 82.2374C349.001 76.8982 350.947 71.5189 355.115 69.1147ZM355.142 84.9582C356.588 84.1197 357.374 81.5683 357.374 77.3442C357.374 73.2629 356.593 71.5457 355.089 72.4021C353.696 73.2049 352.75 75.7742 352.799 80.0473C352.777 84.3115 353.692 85.8057 355.142 84.9538V84.9582Z" fill="#FFD2CD"/>
</g>
<defs>
<linearGradient id="paint0_linear" x1="167.793" y1="273.069" x2="554.872" y2="273.069" gradientUnits="userSpaceOnUse">
<stop stop-color="#FFF2C9"/>
<stop offset="1" stop-color="#FFB7BB"/>
</linearGradient>
<linearGradient id="paint1_linear" x1="405.587" y1="276.874" x2="487.222" y2="401.166" gradientUnits="userSpaceOnUse">
<stop stop-color="#FADD8D"/>
<stop offset="0.39" stop-color="#F4A3A8"/>
<stop offset="1" stop-color="#EA3FD6"/>
</linearGradient>
<linearGradient id="paint2_linear" x1="23.4348" y1="405.812" x2="249.714" y2="405.812" gradientUnits="userSpaceOnUse">
<stop stop-color="#B101D0"/>
<stop offset="0.75" stop-color="#790396"/>
<stop offset="1" stop-color="#650482"/>
</linearGradient>
<linearGradient id="paint3_linear" x1="7632.26" y1="97847.3" x2="54679.2" y2="97847.3" gradientUnits="userSpaceOnUse">
<stop stop-color="#B101D0"/>
<stop offset="0.75" stop-color="#790396"/>
<stop offset="1" stop-color="#650482"/>
</linearGradient>
<linearGradient id="paint4_linear" x1="30863" y1="66777.5" x2="45701.3" y2="66777.5" gradientUnits="userSpaceOnUse">
<stop stop-color="#B101D0"/>
<stop offset="0.75" stop-color="#790396"/>
<stop offset="1" stop-color="#650482"/>
</linearGradient>
<linearGradient id="paint5_linear" x1="105.066" y1="375.352" x2="56.6658" y2="375.352" gradientUnits="userSpaceOnUse">
<stop stop-color="#31F5DB"/>
<stop offset="1" stop-color="#3CBCE2"/>
</linearGradient>
<linearGradient id="paint6_linear" x1="-43851.5" y1="105344" x2="-34015" y2="105344" gradientUnits="userSpaceOnUse">
<stop stop-color="#31F5DB"/>
<stop offset="1" stop-color="#3CBCE2"/>
</linearGradient>
<linearGradient id="paint7_linear" x1="-88038" y1="104186" x2="-47902.4" y2="104186" gradientUnits="userSpaceOnUse">
<stop stop-color="#31F5DB"/>
<stop offset="1" stop-color="#3CBCE2"/>
</linearGradient>
<linearGradient id="paint8_linear" x1="1730.6" y1="50885.6" x2="3891.58" y2="67540.9" gradientUnits="userSpaceOnUse">
<stop stop-color="#FADD8D"/>
<stop offset="0.39" stop-color="#F4A3A8"/>
<stop offset="1" stop-color="#EA3FD6"/>
</linearGradient>
<linearGradient id="paint9_linear" x1="97644.5" y1="16160.9" x2="57509" y2="16160.9" gradientUnits="userSpaceOnUse">
<stop stop-color="#FADD8D"/>
<stop offset="0.39" stop-color="#F4A3A8"/>
<stop offset="1" stop-color="#EA3FD6"/>
</linearGradient>
<linearGradient id="paint10_linear" x1="96840.6" y1="72838.3" x2="56711.7" y2="72838.3" gradientUnits="userSpaceOnUse">
<stop stop-color="#FADD8D"/>
<stop offset="0.39" stop-color="#F4A3A8"/>
<stop offset="1" stop-color="#EA3FD6"/>
</linearGradient>
<linearGradient id="paint11_linear" x1="70159.3" y1="71691.7" x2="181923" y2="157480" gradientUnits="userSpaceOnUse">
<stop stop-color="#FFF2C9"/>
<stop offset="1" stop-color="#FFB7BB"/>
</linearGradient>
<clipPath id="clip0">
<rect width="647" height="504" fill="white"/>
</clipPath>
</defs>
</svg>
