<svg width="70" height="70" viewBox="0 0 70 70" fill="none" xmlns="http://www.w3.org/2000/svg">
<g clip-path="url(#clip0)">
<path d="M8.62504 0.627196C7.92095 1.09659 6.98218 1.21393 6.39544 1.80067C5.92605 2.15271 5.92605 2.8568 6.39544 3.20884C6.86483 3.44353 7.45157 3.20884 7.92096 3.09149C8.273 2.97414 8.39034 2.73945 8.39034 2.38741C8.74239 2.15271 9.09443 1.91802 9.32912 1.56597C9.79851 1.09659 9.21178 0.157807 8.62504 0.627196Z" fill="black" fill-opacity="0.67"/>
<path d="M3.93111 7.55069C3.22703 8.13742 2.52294 8.84151 1.93621 9.54559C1.34947 10.2497 0.645386 11.1885 0.645386 12.0099C0.645386 12.4793 1.23212 12.714 1.46682 12.3619C2.05355 11.7752 2.1709 10.8364 2.64029 10.1323C3.10968 9.31089 3.69642 8.72416 4.4005 8.02007C4.6352 7.66803 4.16581 7.31599 3.93111 7.55069Z" fill="black" fill-opacity="0.67"/>
<path d="M1.1148 18.112C0.880105 17.1732 0.762758 16.117 0.762758 15.0609C0.762758 14.7089 0.176021 14.7089 0.176021 15.0609C0.176021 16.4691 -0.528063 19.2854 0.880105 20.2242C1.1148 20.4589 1.46684 20.1069 1.46684 19.8722C1.46684 19.2854 1.23215 18.6987 1.1148 18.112Z" fill="black" fill-opacity="0.67"/>
<path d="M7.68625 22.5712C5.80869 22.8059 4.16583 23.1579 2.40562 22.2191C2.17092 22.1018 2.05357 22.3365 2.28827 22.4538C4.04848 23.7446 6.04338 24.3314 8.03829 23.2752C8.50768 23.0405 8.03829 22.4538 7.68625 22.5712Z" fill="black" fill-opacity="0.67"/>
<path d="M16.1352 16.4691C15.1965 16.8211 14.4924 17.5252 13.6709 18.112C12.7322 18.816 11.9107 19.5201 11.0893 20.3415C10.8546 20.5762 11.2066 21.0456 11.5587 20.8109C12.2628 20.1069 13.0842 19.6375 13.9056 19.0507C14.7271 18.464 15.7832 17.9946 16.4873 17.2905C16.8393 16.9385 16.6046 16.2344 16.1352 16.4691Z" fill="black" fill-opacity="0.67"/>
<path d="M23.9975 8.02008C21.8853 8.84151 19.8904 10.8364 18.3649 12.4793C18.1302 12.8313 18.4822 13.1834 18.8343 12.9487C19.773 12.1272 20.8292 11.3058 21.8853 10.6017C22.7067 10.015 23.6455 9.54559 24.3496 8.84151C24.7016 8.37212 24.3496 7.90273 23.9975 8.02008Z" fill="black" fill-opacity="0.67"/>
<path d="M34.4415 3.67823C32.3292 3.56088 30.217 4.38231 28.3394 5.0864C27.9874 5.20374 28.1047 5.67313 28.4567 5.67313C30.4516 5.0864 32.4466 4.8517 34.4415 4.73435C35.0282 4.61701 35.0282 3.67823 34.4415 3.67823Z" fill="black" fill-opacity="0.67"/>
<path d="M42.3037 7.55068C41.717 6.8466 40.8955 6.14251 40.1915 5.55578C39.6047 5.08639 38.9006 5.79047 39.37 6.37721C39.957 6.96394 40.5435 7.66803 41.1302 8.37211C41.7172 9.0762 42.3037 10.1323 43.1251 10.7191C43.4772 10.9538 43.9466 10.6017 43.8292 10.1323C43.8292 9.19354 43.0078 8.25477 42.3037 7.55068Z" fill="black" fill-opacity="0.67"/>
<path d="M44.5333 13.8874C44.5333 13.4181 43.7121 13.4181 43.7121 13.8874C43.5947 15.0609 43.36 16.117 43.1251 17.2905C42.8904 18.3466 42.3037 19.4028 42.3037 20.5762C42.3037 21.163 43.1251 21.3977 43.36 20.8109C44.4161 18.816 44.6506 15.9997 44.5333 13.8874Z" fill="black" fill-opacity="0.67"/>
<path d="M39.4874 25.7395C38.9005 26.561 38.314 27.3824 37.727 28.2038C37.2578 29.0253 36.4364 29.8467 36.3188 30.7855C36.3188 31.2549 36.7882 31.3722 37.1403 31.2549C37.9617 30.9028 38.3138 29.8467 38.6658 29.1426C39.2525 28.2038 39.7219 27.1477 40.3087 26.2089C40.5436 25.6222 39.8395 25.2701 39.4874 25.7395Z" fill="black" fill-opacity="0.67"/>
<path d="M33.62 34.3059C32.5639 35.2447 31.7425 36.1834 31.0384 37.2396C30.3343 38.2957 29.3955 39.8212 29.6302 41.112C29.7475 41.6988 30.3343 41.8161 30.6863 41.3467C31.2731 40.5253 31.3904 39.3518 31.7425 38.413C32.2118 37.0049 33.0333 35.7141 33.972 34.5406C34.2067 34.4232 33.8547 34.0712 33.62 34.3059Z" fill="black" fill-opacity="0.67"/>
<path d="M26.9312 45.8059C25.8751 46.7447 25.0537 47.8008 24.3496 49.0917C23.6455 50.3825 22.8241 52.0255 23.0588 53.4337C23.1761 53.9031 23.8802 53.9031 23.9976 53.551C24.7016 52.4947 24.7016 51.0866 25.171 49.9131C25.6404 48.6225 26.4619 47.3314 27.4006 46.158C27.6353 45.9233 27.2833 45.4539 26.9312 45.8059Z" fill="black" fill-opacity="0.67"/>
<path d="M26.8139 63.7599C25.9925 63.2907 25.2884 62.9386 24.7016 62.2346C24.1149 61.2958 23.8802 59.8876 23.8802 58.8315C23.8802 58.4792 23.2935 58.4792 23.2935 58.8315C23.0588 61.0611 23.5282 64.9334 26.5792 64.8162C27.0486 64.6989 27.2833 63.9948 26.8139 63.7599Z" fill="black" fill-opacity="0.67"/>
<path d="M39.2527 67.8672C37.962 67.7499 36.671 67.9844 35.3804 67.9844C33.7373 67.8672 32.2118 67.3976 30.921 66.4589C30.6863 66.3417 30.5689 66.6938 30.6863 66.8109C33.1506 68.6885 36.5539 70.3313 39.6049 69.0405C40.1914 68.6885 39.8394 67.8672 39.2527 67.8672Z" fill="black" fill-opacity="0.67"/>
<path d="M49.2272 59.8876C48.4058 60.357 47.7017 61.0611 46.7629 61.6478C45.9415 62.1172 45.0025 62.3519 44.0639 62.4693C43.477 62.5866 43.477 63.4081 44.0639 63.4081C46.1762 63.5254 48.8752 62.8213 50.0486 60.8264C50.5182 60.2397 49.8139 59.6527 49.2272 59.8876Z" fill="black" fill-opacity="0.67"/>
<path d="M54.0385 52.8466C52.5129 54.3721 50.8703 56.0149 49.814 57.8925C49.4619 58.4794 50.2834 58.8313 50.6354 58.3619C51.9262 56.719 54.0385 55.5456 54.9774 53.5507C55.0946 52.9641 54.5079 52.3774 54.0385 52.8466Z" fill="black" fill-opacity="0.67"/>
<path d="M62.8397 52.9641C62.4876 52.26 61.5489 51.7906 60.8448 51.4386C60.0234 51.0865 59.0846 50.9694 58.1458 50.9694C57.5591 50.9694 57.5591 51.7906 58.1458 51.7906C58.9672 51.7906 59.6713 52.0255 60.3754 52.3776C60.9623 52.7296 61.4317 53.3163 62.0183 53.6682C62.4876 54.02 63.0742 53.4335 62.8397 52.9641Z" fill="black" fill-opacity="0.67"/>
<path d="M69.8803 57.5407C68.2375 54.8417 67.1813 51.7906 65.7732 48.9743C65.0691 47.6835 63.1915 48.857 63.7783 50.1478C64.8344 52.4945 65.7732 54.959 67.1813 57.1886C66.1252 57.306 65.0691 57.4233 63.8956 57.5407C63.4262 57.658 62.6048 57.658 62.2527 58.1276L62.1356 58.2447C62.1356 58.2447 62.0182 58.2447 62.0182 58.3621C61.7835 58.5968 62.0182 59.0662 62.2529 59.0662C62.3703 59.1835 62.4878 59.1835 62.7223 59.1835C63.3092 59.3007 63.8958 59.1835 64.5999 59.1835C66.1254 59.0662 67.5336 58.9486 69.0591 59.0662C69.763 59.1835 70.2324 58.2447 69.8803 57.5407Z" fill="black" fill-opacity="0.67"/>
</g>
<defs>
<clipPath id="clip0">
<rect width="70" height="70" fill="white"/>
</clipPath>
</defs>
</svg>
