<svg width="20" height="20" viewBox="0 0 20 20" fill="none" xmlns="http://www.w3.org/2000/svg">
<g clip-path="url(#clip0)">
<path d="M9.99994 0.0415039C4.47711 0.0415039 -0.00012207 4.51874 -0.00012207 10.0416C-0.00012207 14.9949 3.6051 19.0971 8.33213 19.8914V12.1278H5.91982V9.33405H8.33213V7.27401C8.33213 4.88377 9.79201 3.58123 11.9246 3.58123C12.946 3.58123 13.8237 3.65734 14.0785 3.69086V6.18929L12.5994 6.19001C11.4399 6.19001 11.2163 6.7409 11.2163 7.54957V9.33262H13.9831L13.6222 12.1264H11.2163V19.9582C16.1641 19.3561 19.9999 15.1494 19.9999 10.0387C19.9999 4.51874 15.5226 0.0415039 9.99994 0.0415039Z" fill="white"/>
</g>
<defs>
<clipPath id="clip0">
<rect width="20" height="20" fill="white" transform="translate(-0.00012207)"/>
</clipPath>
</defs>
</svg>
