<svg width="20" height="20" viewBox="0 0 20 20" fill="none" xmlns="http://www.w3.org/2000/svg">
<g clip-path="url(#clip0)">
<path d="M9.99988 20C15.524 20 19.9999 15.5242 19.9999 10C19.9999 4.47583 15.524 0 9.99988 0C4.47571 0 -0.00012207 4.47583 -0.00012207 10C-0.00012207 15.5242 4.47571 20 9.99988 20ZM4.57571 9.78333L14.2174 6.06583C14.6649 5.90417 15.0557 6.175 14.9107 6.85167L14.9115 6.85083L13.2699 14.585C13.1482 15.1333 12.8224 15.2667 12.3665 15.0083L9.86654 13.1658L8.66071 14.3275C8.52738 14.4608 8.41488 14.5733 8.15654 14.5733L8.33404 12.0292L12.9674 7.84333C13.169 7.66583 12.9224 7.56583 12.6565 7.7425L6.93071 11.3475L4.46238 10.5775C3.92654 10.4075 3.91488 10.0417 4.57571 9.78333Z" fill="white"/>
</g>
<defs>
<clipPath id="clip0">
<rect width="20" height="20" fill="white" transform="translate(-0.00012207)"/>
</clipPath>
</defs>
</svg>
