<svg width="661" height="603" viewBox="0 0 661 603" fill="none" xmlns="http://www.w3.org/2000/svg">
<g opacity="0.1">
<path opacity="0.1" d="M0 499.864L146.032 584.795L483.213 389.955L333.656 301.96L0 499.864Z" fill="black"/>
</g>
<path d="M130.465 581.966L129.774 339.071L120.456 333.641L121.139 576.545C121.139 579.397 122.159 581.385 123.769 582.328L133.079 587.749C131.478 586.814 130.473 584.811 130.465 581.966Z" fill="#C0C0F6"/>
<path d="M129.774 339.071L120.456 333.641L120.362 300.797L129.68 306.219L129.774 339.071Z" fill="#C0C0F6"/>
<path d="M484.509 134.095L129.774 339.071L130.465 581.966C130.465 587.702 134.532 589.989 139.485 587.113L476.266 392.509C481.227 389.649 485.231 382.726 485.231 376.982L484.509 134.095Z" fill="url(#paint0_linear)"/>
<path d="M475.386 96.1038C480.348 93.228 484.391 95.5381 484.406 101.235L484.508 134.086L129.774 339.07L129.68 306.226C129.68 300.522 133.684 293.56 138.645 290.708L475.386 96.1038Z" fill="#F0F0F9"/>
<path d="M477.364 95.2232C477.843 95.0635 478.338 94.9581 478.84 94.9089H478.95C479.444 94.87 479.94 94.8991 480.426 94.9953H480.442C480.906 95.0917 481.354 95.2587 481.768 95.4903C481.768 95.4903 481.721 95.4903 481.713 95.4903L472.387 90.0766C472.245 89.9811 472.092 89.902 471.932 89.8408L471.469 89.6758L471.155 89.5973H471.076H470.966L470.425 89.5344C470.223 89.5201 470.021 89.5201 469.82 89.5344H469.632H469.483C469.373 89.5344 469.278 89.5344 469.161 89.5344C468.896 89.5774 468.634 89.6351 468.376 89.7073C468.266 89.7073 468.14 89.7858 468.046 89.8173C467.933 89.8478 467.823 89.8873 467.716 89.9351C467.583 89.9717 467.452 90.0163 467.324 90.0687C466.89 90.2524 466.468 90.4623 466.06 90.6973L129.28 285.294C128.699 285.646 128.14 286.035 127.608 286.456C127.419 286.621 127.231 286.794 127.034 286.967C126.838 287.14 126.524 287.384 126.297 287.619C126.069 287.855 126.085 287.863 125.967 287.973L125.629 288.319L125.315 288.664C125.056 288.963 124.805 289.254 124.53 289.56L124.279 289.898C124.247 289.954 124.21 290.006 124.169 290.055C124.083 290.155 124.007 290.263 123.941 290.377C123.761 290.629 123.604 290.888 123.415 291.163C123.227 291.438 123.117 291.658 122.96 291.949L122.905 292.02C122.787 292.232 122.693 292.444 122.568 292.664C122.442 292.884 122.293 293.175 122.167 293.45C122.042 293.725 121.955 293.921 121.861 294.149C121.857 294.156 121.855 294.164 121.855 294.172C121.855 294.181 121.857 294.189 121.861 294.196C121.858 294.202 121.857 294.209 121.857 294.216C121.857 294.222 121.858 294.229 121.861 294.235C121.751 294.502 121.641 294.762 121.539 295.021C121.419 295.3 121.316 295.586 121.233 295.877C121.185 296.011 121.146 296.147 121.115 296.286C121.115 296.357 121.068 296.42 121.037 296.49C121.015 296.595 120.984 296.698 120.943 296.797C120.864 297.143 120.762 297.48 120.699 297.834C120.652 298.038 120.629 298.235 120.581 298.455C120.534 298.675 120.581 298.659 120.534 298.785C120.487 298.91 120.534 298.981 120.487 299.091C120.405 299.672 120.366 300.257 120.37 300.843L129.688 306.265C129.697 305.575 129.76 304.887 129.876 304.206C129.876 304.104 129.876 303.994 129.923 303.892C130.029 303.225 130.181 302.566 130.379 301.92L130.426 301.763C130.646 301.038 130.909 300.327 131.211 299.633C131.211 299.633 131.211 299.578 131.211 299.563C131.515 298.855 131.863 298.167 132.255 297.504L132.294 297.418C132.674 296.758 133.091 296.121 133.542 295.508C133.542 295.445 133.621 295.398 133.652 295.335C134.076 294.777 134.524 294.251 134.971 293.764C135.081 293.662 135.16 293.56 135.269 293.457C135.631 293.075 136.017 292.715 136.423 292.381C136.58 292.232 136.745 292.082 136.918 291.941C137.456 291.513 138.023 291.122 138.614 290.77L475.394 96.1739C475.918 95.8622 476.47 95.5992 477.042 95.3882C477.16 95.286 477.262 95.2546 477.364 95.2232Z" fill="#C0C0F6"/>
<path d="M152.006 313.731C156.552 311.114 160.226 304.734 160.218 299.524C160.21 294.315 156.504 292.217 151.951 294.81C147.398 297.403 143.74 303.775 143.748 309C143.756 314.226 147.477 316.323 152.006 313.715V313.731Z" fill="#C0C0F6"/>
<path d="M176.908 299.304C181.453 296.688 185.127 290.307 185.119 285.098C185.111 279.888 181.406 277.79 176.86 280.383C172.315 282.976 168.649 289.349 168.657 294.574C168.665 299.799 172.386 301.889 176.915 299.288L176.908 299.304Z" fill="#C0C0F6"/>
<path d="M201.189 285.223C205.734 282.606 209.408 276.226 209.4 271.017C209.393 265.807 205.687 263.709 201.142 266.302C196.597 268.895 192.93 275.291 192.93 280.508C192.93 285.726 196.659 287.831 201.189 285.223Z" fill="#C0C0F6"/>
<g opacity="0.5">
<g opacity="0.14">
<path opacity="0.14" d="M52.9979 418.108L36.1903 427.89C35.6688 428.192 35.0772 428.35 34.475 428.35C33.8728 428.35 33.2812 428.192 32.7597 427.89L15.7872 418.092C15.2672 417.791 14.8354 417.359 14.5352 416.838C14.2351 416.318 14.077 415.727 14.077 415.126C14.077 414.525 14.2351 413.934 14.5352 413.414C14.8354 412.893 15.2672 412.461 15.7872 412.16L32.6027 402.378C33.1242 402.076 33.7158 401.917 34.318 401.917C34.9202 401.917 35.5118 402.076 36.0333 402.378L52.9901 412.176C53.5085 412.477 53.9388 412.91 54.2382 413.43C54.5376 413.95 54.6956 414.539 54.6964 415.14C54.6972 415.74 54.5408 416.33 54.2428 416.85C53.9447 417.371 53.5155 417.805 52.9979 418.108Z" fill="#FDCDE7"/>
</g>
<g opacity="0.29">
<path opacity="0.29" d="M53.0058 398.323L36.1903 408.105C35.6688 408.406 35.0772 408.565 34.475 408.565C33.8728 408.565 33.2812 408.406 32.7597 408.105L15.7872 398.307C15.2672 398.006 14.8354 397.574 14.5352 397.053C14.2351 396.532 14.077 395.942 14.077 395.341C14.077 394.74 14.2351 394.149 14.5352 393.628C14.8354 393.108 15.2672 392.675 15.7872 392.375L32.6105 382.592C33.1321 382.291 33.7236 382.132 34.3258 382.132C34.928 382.132 35.5196 382.291 36.0411 382.592L52.9979 392.39C53.5163 392.692 53.9467 393.124 54.2461 393.644C54.5455 394.164 54.7035 394.754 54.7043 395.354C54.705 395.954 54.5486 396.544 54.2506 397.065C53.9526 397.586 53.5234 398.02 53.0058 398.323Z" fill="#FDCDE7"/>
</g>
<g opacity="0.43">
<path opacity="0.43" d="M53.0058 378.538L36.1903 388.32C35.6688 388.621 35.0772 388.78 34.475 388.78C33.8728 388.78 33.2812 388.621 32.7597 388.32L15.7872 378.522C15.2672 378.221 14.8354 377.789 14.5352 377.268C14.2351 376.747 14.077 376.157 14.077 375.556C14.077 374.955 14.2351 374.364 14.5352 373.843C14.8354 373.323 15.2672 372.89 15.7872 372.589L32.6105 362.807C33.1318 362.505 33.7235 362.346 34.3258 362.346C34.9282 362.346 35.5199 362.505 36.0411 362.807L52.9979 372.605C53.5183 372.905 53.9507 373.337 54.2516 373.857C54.5524 374.378 54.7112 374.968 54.712 375.569C54.7128 376.17 54.5556 376.761 54.2561 377.282C53.9566 377.803 53.5254 378.236 53.0058 378.538Z" fill="#FDCDE7"/>
</g>
<g opacity="0.57">
<path opacity="0.57" d="M53.0058 358.761L36.1903 368.512C35.6688 368.813 35.0772 368.972 34.475 368.972C33.8728 368.972 33.2812 368.813 32.7597 368.512L15.7872 358.745C15.2672 358.444 14.8354 358.012 14.5352 357.491C14.2351 356.97 14.077 356.38 14.077 355.779C14.077 355.178 14.2351 354.587 14.5352 354.066C14.8354 353.546 15.2672 353.113 15.7872 352.812L32.6105 343.03C33.1318 342.728 33.7235 342.569 34.3258 342.569C34.9282 342.569 35.5199 342.728 36.0411 343.03L52.9979 352.797C53.5257 353.095 53.9651 353.527 54.2711 354.051C54.577 354.574 54.7387 355.17 54.7395 355.776C54.7403 356.383 54.5802 356.979 54.2756 357.503C53.971 358.027 53.5328 358.461 53.0058 358.761Z" fill="#FDCDE7"/>
</g>
<g opacity="0.71">
<path opacity="0.71" d="M53.0058 338.976L36.1903 348.759C35.6688 349.06 35.0772 349.219 34.475 349.219C33.8728 349.219 33.2812 349.06 32.7597 348.759L15.7872 338.961C15.2672 338.66 14.8354 338.227 14.5352 337.707C14.2351 337.186 14.077 336.595 14.077 335.994C14.077 335.393 14.2351 334.803 14.5352 334.282C14.8354 333.761 15.2672 333.329 15.7872 333.028L32.6105 323.246C33.1318 322.944 33.7235 322.784 34.3258 322.784C34.9282 322.784 35.5199 322.944 36.0411 323.246L52.9979 333.044C53.5183 333.344 53.9507 333.776 54.2516 334.296C54.5524 334.816 54.7112 335.407 54.712 336.008C54.7128 336.609 54.5556 337.2 54.2561 337.721C53.9566 338.242 53.5254 338.675 53.0058 338.976Z" fill="#FDCDE7"/>
</g>
<g opacity="0.86">
<path opacity="0.86" d="M53.0058 319.191L36.1903 328.973C35.6688 329.275 35.0772 329.433 34.475 329.433C33.8728 329.433 33.2812 329.275 32.7597 328.973L15.7872 319.175C15.2672 318.874 14.8354 318.442 14.5352 317.921C14.2351 317.401 14.077 316.81 14.077 316.209C14.077 315.608 14.2351 315.017 14.5352 314.497C14.8354 313.976 15.2672 313.543 15.7872 313.243L32.6105 303.46C33.1318 303.158 33.7235 302.999 34.3258 302.999C34.9282 302.999 35.5199 303.158 36.0411 303.46L52.9979 313.258C53.5183 313.558 53.9507 313.99 54.2516 314.511C54.5524 315.031 54.7112 315.621 54.712 316.222C54.7128 316.823 54.5556 317.414 54.2561 317.935C53.9566 318.456 53.5254 318.889 53.0058 319.191Z" fill="#FDCDE7"/>
</g>
<path opacity="0.5" d="M53.0058 299.406L36.1903 309.189C35.6688 309.49 35.0772 309.649 34.475 309.649C33.8728 309.649 33.2812 309.49 32.7597 309.189L15.7872 299.367C15.2672 299.066 14.8354 298.634 14.5352 298.113C14.2351 297.592 14.077 297.002 14.077 296.401C14.077 295.8 14.2351 295.209 14.5352 294.688C14.8354 294.168 15.2672 293.735 15.7872 293.435L32.6027 283.652C33.1237 283.349 33.7155 283.19 34.318 283.19C34.9205 283.19 35.5123 283.349 36.0333 283.652L52.9901 293.45C53.5164 293.748 53.9546 294.18 54.26 294.702C54.5653 295.225 54.7271 295.819 54.7287 296.424C54.7303 297.029 54.5717 297.624 54.269 298.147C53.9664 298.671 53.5305 299.106 53.0058 299.406Z" fill="#FDCDE7"/>
</g>
<path d="M53.0058 299.406L36.1903 309.189C35.6688 309.49 35.0772 309.649 34.475 309.649C33.8728 309.649 33.2812 309.49 32.7597 309.189L15.7872 299.367C15.2672 299.066 14.8354 298.634 14.5352 298.113C14.2351 297.592 14.077 297.002 14.077 296.401C14.077 295.8 14.2351 295.209 14.5352 294.688C14.8354 294.168 15.2672 293.735 15.7872 293.435L32.6027 283.652C33.1237 283.349 33.7155 283.19 34.318 283.19C34.9205 283.19 35.5123 283.349 36.0333 283.652L52.9901 293.45C53.5164 293.748 53.9546 294.18 54.26 294.702C54.5653 295.225 54.7271 295.819 54.7287 296.424C54.7303 297.029 54.5717 297.624 54.269 298.147C53.9664 298.671 53.5305 299.106 53.0058 299.406Z" fill="#FDCDE7"/>
<g opacity="0.5">
<g opacity="0.14">
<path opacity="0.14" d="M534.099 92.0966L519.183 100.74C518.72 101.007 518.195 101.148 517.66 101.148C517.126 101.148 516.601 101.007 516.137 100.74L501.096 92.0495C500.635 91.7824 500.252 91.3986 499.986 90.9366C499.719 90.4746 499.579 89.9506 499.579 89.4172C499.579 88.8839 499.719 88.3599 499.986 87.8979C500.252 87.4359 500.635 87.0521 501.096 86.785L516.012 78.1419C516.474 77.8728 517 77.731 517.535 77.731C518.07 77.731 518.595 77.8728 519.058 78.1419L534.107 86.8322C534.568 87.0999 534.95 87.4843 535.216 87.9467C535.481 88.4091 535.621 88.9333 535.62 89.4667C535.619 90 535.478 90.5238 535.211 90.9854C534.944 91.447 534.561 91.8303 534.099 92.0966Z" fill="#FFDF75"/>
</g>
<g opacity="0.29">
<path opacity="0.29" d="M534.099 79.1402L519.183 87.7833C518.72 88.0509 518.195 88.1918 517.66 88.1918C517.126 88.1918 516.6 88.0509 516.137 87.7833L501.096 79.093C500.635 78.826 500.252 78.4422 499.986 77.9802C499.719 77.5182 499.579 76.9942 499.579 76.4608C499.579 75.9274 499.719 75.4035 499.986 74.9414C500.252 74.4794 500.635 74.0956 501.096 73.8286L516.012 65.1855C516.474 64.9163 517 64.7746 517.535 64.7746C518.07 64.7746 518.595 64.9163 519.058 65.1855L534.083 73.86C534.549 74.1246 534.937 74.5077 535.207 74.9706C535.477 75.4334 535.62 75.9595 535.622 76.4955C535.623 77.0316 535.483 77.5585 535.216 78.023C534.949 78.4874 534.563 78.8728 534.099 79.1402Z" fill="#FFDF75"/>
</g>
<g opacity="0.43">
<path opacity="0.43" d="M534.099 66.1823L519.183 74.8255C518.72 75.0931 518.195 75.2339 517.66 75.2339C517.126 75.2339 516.6 75.0931 516.137 74.8255L501.096 66.1745C500.635 65.9074 500.252 65.5237 499.986 65.0616C499.719 64.5996 499.579 64.0756 499.579 63.5423C499.579 63.0089 499.719 62.4849 499.986 62.0229C500.252 61.5609 500.635 61.1771 501.096 60.91L516.012 52.2669C516.474 51.9978 517 51.856 517.535 51.856C518.07 51.856 518.595 51.9978 519.058 52.2669L534.107 60.9572C534.559 61.2274 534.933 61.6105 535.192 62.0689C535.451 62.5272 535.587 63.0452 535.587 63.572C535.586 64.0988 535.448 64.6163 535.187 65.0739C534.927 65.5315 534.552 65.9135 534.099 66.1823Z" fill="#FFDF75"/>
</g>
<g opacity="0.57">
<path opacity="0.57" d="M534.099 53.234L519.183 61.8772C518.72 62.1447 518.195 62.2856 517.66 62.2856C517.126 62.2856 516.601 62.1447 516.137 61.8772L501.096 53.2183C500.635 52.9513 500.252 52.5675 499.986 52.1055C499.719 51.6434 499.579 51.1195 499.579 50.5861C499.579 50.0527 499.719 49.5287 499.986 49.0667C500.252 48.6047 500.635 48.2209 501.096 47.9539L516.012 39.3107C516.474 39.0416 517 38.8998 517.535 38.8998C518.07 38.8998 518.595 39.0416 519.058 39.3107L534.083 47.9303C534.555 48.1932 534.948 48.577 535.222 49.0423C535.496 49.5075 535.641 50.0375 535.643 50.5776C535.644 51.1177 535.502 51.6484 535.231 52.1153C534.96 52.5822 534.569 52.9683 534.099 53.234Z" fill="#FFDF75"/>
</g>
<g opacity="0.71">
<path opacity="0.71" d="M534.099 40.2774L519.183 48.9205C518.72 49.1881 518.195 49.3289 517.66 49.3289C517.126 49.3289 516.6 49.1881 516.137 48.9205L501.096 40.2617C500.635 39.9946 500.252 39.6108 499.986 39.1488C499.719 38.6868 499.579 38.1628 499.579 37.6294C499.579 37.0961 499.719 36.5721 499.986 36.1101C500.252 35.648 500.635 35.2642 501.096 34.9972L516.012 26.3541C516.475 26.0857 517 25.9444 517.535 25.9444C518.07 25.9444 518.595 26.0857 519.058 26.3541L534.107 35.0443C534.56 35.3141 534.936 35.6974 535.197 36.1566C535.457 36.6158 535.594 37.135 535.593 37.6631C535.592 38.1912 535.454 38.71 535.192 39.1684C534.93 39.6268 534.553 40.009 534.099 40.2774Z" fill="#FFDF75"/>
</g>
<g opacity="0.86">
<path opacity="0.86" d="M534.099 27.3204L519.183 35.9636C518.72 36.2311 518.195 36.372 517.66 36.372C517.126 36.372 516.6 36.2311 516.137 35.9636L501.096 27.3047C500.635 27.0377 500.252 26.6539 499.986 26.1919C499.719 25.7298 499.579 25.2058 499.579 24.6725C499.579 24.1391 499.719 23.6151 499.986 23.1531C500.252 22.6911 500.635 22.3073 501.096 22.0403L516.012 13.3971C516.475 13.1288 517 12.9875 517.535 12.9875C518.07 12.9875 518.595 13.1288 519.058 13.3971L534.107 22.0874C534.56 22.3571 534.936 22.7405 535.197 23.1997C535.457 23.6589 535.594 24.1781 535.593 24.7061C535.592 25.2342 535.454 25.753 535.192 26.2114C534.93 26.6698 534.553 27.052 534.099 27.3204Z" fill="#FFDF75"/>
</g>
<path opacity="0.5" d="M534.099 14.3635L519.183 23.0066C518.72 23.2734 518.195 23.4138 517.66 23.4138C517.126 23.4138 516.601 23.2734 516.137 23.0066L501.096 14.3477C500.635 14.0807 500.252 13.6969 499.986 13.2349C499.719 12.7729 499.579 12.2489 499.579 11.7155C499.579 11.1821 499.719 10.6582 499.986 10.1961C500.252 9.73412 500.635 9.35033 501.096 9.08328L516.012 0.440151C516.475 0.171803 517 0.0304871 517.535 0.0304871C518.07 0.0304871 518.595 0.171803 519.058 0.440151L534.107 9.13043C534.56 9.40018 534.936 9.78352 535.197 10.2427C535.457 10.7019 535.594 11.2211 535.593 11.7492C535.592 12.2773 535.454 12.7961 535.192 13.2545C534.93 13.7129 534.553 14.0951 534.099 14.3635Z" fill="#FFDF75"/>
</g>
<path d="M534.099 14.3713L519.183 23.0145C518.721 23.2828 518.195 23.4241 517.66 23.4241C517.126 23.4241 516.6 23.2828 516.137 23.0145L501.096 14.3635C500.635 14.0964 500.252 13.7126 499.986 13.2506C499.719 12.7886 499.579 12.2646 499.579 11.7313C499.579 11.1979 499.719 10.6739 499.986 10.2119C500.252 9.74987 500.635 9.36608 501.096 9.09903L516.012 0.455898C516.475 0.18755 517 0.0462341 517.535 0.0462341C518.07 0.0462341 518.595 0.18755 519.058 0.455898L534.083 9.11475C534.544 9.38094 534.926 9.76334 535.192 10.2238C535.459 10.6842 535.6 11.2065 535.601 11.7385C535.603 12.2706 535.465 12.7937 535.201 13.2557C534.938 13.7177 534.558 14.1024 534.099 14.3713Z" fill="#F5E981"/>
<g opacity="0.5">
<path opacity="0.5" d="M399.238 278.073L399.261 284.241L332.447 322.844L332.423 316.676L399.238 278.073Z" fill="#FF61CB"/>
</g>
<g opacity="0.6">
<path opacity="0.6" d="M539.335 214.107L539.453 258.155L444.495 313.039L444.361 268.983L539.335 214.107Z" fill="#FF61CB"/>
</g>
<g opacity="0.5">
<path opacity="0.5" d="M434.667 263.78L546.55 199.13L546.825 297.009L434.91 361.636L434.667 263.78ZM539.445 258.162L539.32 214.106L444.33 268.99L444.456 313.038L539.445 258.162Z" fill="#FF61CB"/>
</g>
<g opacity="0.5">
<path opacity="0.5" d="M546.503 181.537L546.51 188.946L434.635 253.605L434.619 246.188L546.503 181.537Z" fill="#FF61CB"/>
</g>
<g opacity="0.5">
<path opacity="0.5" d="M399.387 333.609L399.512 377.297L332.706 415.9L332.58 372.221L399.387 333.609Z" fill="#FF61CB"/>
</g>
<g opacity="0.6">
<path opacity="0.6" d="M325.068 278.899L410.401 229.594L410.817 379.961L325.492 429.258L325.068 278.899ZM399.513 377.297L399.387 333.61L332.581 372.213L332.706 415.892L399.513 377.289V377.297ZM399.16 253.7V247.516L332.353 286.128V292.304L399.152 253.7H399.16ZM399.254 284.234V278.066L332.424 316.654V322.829L399.238 284.218L399.254 284.234ZM399.254 298.126V291.958L332.432 330.569V336.737L399.246 298.126H399.254ZM399.167 267.576V261.4L332.384 300.019V306.188L399.191 267.584L399.167 267.576Z" fill="#FF61CB"/>
</g>
<g opacity="0.7">
<path opacity="0.7" d="M316.134 253.409L556.794 114.333L557.32 303.296L316.667 442.372L316.134 253.409ZM410.817 379.96L410.401 229.594L325.067 278.899L325.491 429.266L410.817 379.96ZM546.824 297.01L546.55 199.146L434.666 263.781L434.91 361.637L546.824 297.01ZM546.385 142.659L546.33 126.01L321.809 255.774L321.849 272.432L546.385 142.659ZM546.424 158.374V150.965L434.533 215.639V223.04L546.4 158.398L546.424 158.374ZM546.463 172.258V164.849L434.556 229.531V236.932L546.463 172.282V172.258ZM546.502 188.924V181.506L434.611 246.188V253.598L546.487 188.947L546.502 188.924Z" fill="#FF61CB"/>
</g>
<g opacity="0.5">
<path opacity="0.5" d="M546.448 164.88L546.463 172.282L434.596 236.933L434.557 229.531L546.448 164.88Z" fill="#FF61CB"/>
</g>
<g opacity="0.5">
<path opacity="0.5" d="M325.036 265.941L446.976 195.468L446.96 187.61L325.005 258.068L325.036 265.941Z" fill="#FF61CB"/>
</g>
<g opacity="0.5">
<path opacity="0.5" d="M546.385 142.659L546.33 126.009L321.81 255.774L321.849 272.431L546.385 142.659ZM541.918 132.735V140.592L493.646 168.494L493.607 160.636L541.895 132.743L541.918 132.735ZM446.929 187.611V195.468L325.005 265.941V258.084L446.96 187.619L446.929 187.611Z" fill="#FF61CB"/>
</g>
<g opacity="0.5">
<path opacity="0.5" d="M541.91 132.727L541.942 140.592L493.67 168.494L493.63 160.629L541.91 132.727Z" fill="#FF61CB"/>
</g>
<g opacity="0.5">
<path opacity="0.5" d="M546.408 150.988L546.424 158.397L434.556 223.048L434.533 215.638L546.408 150.988Z" fill="#FF61CB"/>
</g>
<g opacity="0.5">
<path opacity="0.5" d="M399.285 291.958L399.301 298.134L332.486 336.737L332.455 330.569L399.285 291.958Z" fill="#FF61CB"/>
</g>
<g opacity="0.5">
<path opacity="0.5" d="M399.183 261.408L399.206 267.584L332.4 306.187L332.384 300.019L399.183 261.408Z" fill="#FF61CB"/>
</g>
<g opacity="0.5">
<path opacity="0.5" d="M399.144 247.516L399.159 253.7L332.361 292.304L332.345 286.128L399.144 247.516Z" fill="#FF61CB"/>
</g>
<g opacity="0.5">
<path opacity="0.5" d="M267.281 164.565L267.289 171.298L194.383 213.43L194.367 206.696L267.281 164.565Z" fill="#FF61CB"/>
<path opacity="0.5" d="M267.446 225.184L267.579 272.862L194.657 314.994L194.532 267.323L267.446 225.184Z" fill="#FF61CB"/>
<g opacity="0.6">
<path opacity="0.6" d="M186.32 165.469L279.472 111.653L279.92 275.794L186.783 329.57L186.32 165.469ZM267.579 272.863L267.446 225.185L194.532 267.324L194.657 314.995L267.579 272.863ZM267.202 137.968V131.218L194.288 173.35V180.099L267.21 137.968H267.202ZM267.296 171.299V164.565L194.39 206.696V213.438L267.289 171.291L267.296 171.299ZM267.344 186.456V179.73L194.429 221.861V228.595L267.336 186.456H267.344ZM267.257 153.117V146.383L194.351 188.522V195.248L267.273 153.117H267.257Z" fill="#FF61CB"/>
</g>
<path opacity="0.5" d="M288.83 97.1169L182.772 158.405L182.725 140.223L288.838 78.9349V72.7747L176.578 137.645L177.167 343.886L288.838 279.353L288.83 97.1169ZM186.32 165.476L279.473 111.653L279.92 275.794L186.783 329.57L186.32 165.476Z" fill="#FF61CB"/>
<path opacity="0.5" d="M288.83 83.4603L186.257 142.736L186.281 151.325L288.83 92.0641V83.4603Z" fill="#FF61CB"/>
<path opacity="0.5" d="M288.83 92.0653L186.281 151.326L186.258 142.738L288.83 83.4615V78.9042L182.725 140.223L182.772 158.405L288.83 97.1177V92.0653Z" fill="#FF61CB"/>
<path opacity="0.5" d="M267.32 179.729L267.336 186.455L194.429 228.595L194.406 221.861L267.32 179.729Z" fill="#FF61CB"/>
<path opacity="0.5" d="M267.218 146.374L267.25 153.116L194.328 195.247L194.312 188.514L267.218 146.374Z" fill="#FF61CB"/>
<path opacity="0.5" d="M267.163 131.218L267.202 137.968L194.28 180.099L194.257 173.35L267.163 131.218Z" fill="#FF61CB"/>
</g>
<g opacity="0.5">
<path opacity="0.5" d="M261.88 402.574L261.998 446.622L167.032 501.498L166.906 457.45L261.88 402.574Z" fill="#FF61CB"/>
<g opacity="0.6">
<path opacity="0.6" d="M157.203 452.247L269.087 387.597L269.354 485.461L157.486 550.103L157.203 452.247ZM261.99 446.629L261.872 402.581L166.883 457.457L167.008 501.505L261.998 446.629H261.99Z" fill="#FF61CB"/>
</g>
<path opacity="0.5" d="M269.039 370.004L269.055 377.413L157.18 442.072L157.148 434.655L269.039 370.004Z" fill="#FF61CB"/>
<g opacity="0.7">
<path opacity="0.7" d="M151.251 382.435L268.88 314.468L268.935 331.126L151.251 399.155V566.101L279.863 491.786L279.337 302.808L151.251 376.825V382.435ZM269.359 485.461L157.484 550.104L157.209 452.24L269.092 387.589L269.359 485.461ZM269.053 377.414L157.178 442.072V434.655L269.045 370.004L269.053 377.414ZM269.014 360.748L157.131 425.407V417.997L268.99 353.347L269.014 360.748ZM268.975 346.857L157.091 411.515V404.105L268.959 339.439L268.975 346.857Z" fill="#FF61CB"/>
</g>
<path opacity="0.5" d="M268.993 353.347L269.016 360.757L157.133 425.407L157.101 417.998L268.993 353.347Z" fill="#FF61CB"/>
<path opacity="0.5" d="M268.875 314.469L151.245 382.435V399.156L268.929 331.158L268.875 314.469ZM216.199 356.961V349.104L264.478 321.21V329.068L216.199 356.961Z" fill="#FF61CB"/>
<path opacity="0.5" d="M264.462 321.194L264.486 329.059L216.206 356.961L216.183 349.096L264.462 321.194Z" fill="#FF61CB"/>
<path opacity="0.5" d="M268.961 339.455L268.976 346.865L157.093 411.515L157.077 404.106L268.961 339.455Z" fill="#FF61CB"/>
</g>
<g opacity="0.7">
<g opacity="0.14">
<path opacity="0.14" d="M659.642 400.83L648.298 407.658C647.944 407.871 647.539 407.987 647.126 407.994C646.712 408 646.304 407.898 645.943 407.697L634.309 401.199C633.957 400.996 633.664 400.705 633.458 400.354C633.252 400.004 633.14 399.606 633.133 399.2C633.126 398.793 633.224 398.392 633.417 398.035C633.611 397.677 633.894 397.376 634.238 397.161L645.582 390.332C645.94 390.126 646.346 390.017 646.759 390.017C647.173 390.017 647.579 390.126 647.937 390.332L659.579 396.799C659.929 397.004 660.219 397.295 660.423 397.645C660.628 397.995 660.738 398.392 660.744 398.797C660.751 399.202 660.653 399.602 660.46 399.958C660.266 400.314 659.985 400.614 659.642 400.83Z" fill="#A8FEFD"/>
</g>
<g opacity="0.29">
<path opacity="0.29" d="M659.43 381.869L648.086 388.697C647.732 388.91 647.327 389.026 646.914 389.033C646.501 389.04 646.093 388.938 645.731 388.737L634.089 382.239C633.737 382.035 633.444 381.744 633.238 381.394C633.032 381.043 632.92 380.646 632.913 380.239C632.906 379.833 633.004 379.431 633.198 379.074C633.391 378.717 633.674 378.416 634.018 378.2L645.362 371.372C645.72 371.165 646.126 371.056 646.54 371.056C646.953 371.056 647.359 371.165 647.717 371.372L659.359 377.87C659.702 378.076 659.987 378.365 660.187 378.712C660.388 379.058 660.496 379.45 660.503 379.85C660.51 380.25 660.416 380.645 660.228 380.999C660.04 381.352 659.766 381.652 659.43 381.869Z" fill="#A7FDFC"/>
</g>
<g opacity="0.43">
<path opacity="0.43" d="M659.194 362.957L647.85 369.785C647.496 369.998 647.092 370.113 646.678 370.12C646.265 370.127 645.857 370.025 645.495 369.824L633.853 363.326C633.502 363.122 633.209 362.831 633.003 362.481C632.796 362.131 632.684 361.733 632.677 361.327C632.67 360.92 632.768 360.519 632.962 360.161C633.156 359.804 633.438 359.503 633.783 359.287L645.126 352.459C645.484 352.252 645.89 352.143 646.304 352.143C646.717 352.143 647.123 352.252 647.481 352.459L659.124 358.957C659.466 359.163 659.751 359.453 659.951 359.799C660.152 360.146 660.26 360.537 660.267 360.937C660.274 361.337 660.18 361.733 659.992 362.086C659.804 362.439 659.53 362.739 659.194 362.957Z" fill="#A6FCFB"/>
</g>
<g opacity="0.57">
<path opacity="0.57" d="M658.967 344.013L647.655 350.849C647.3 351.062 646.896 351.177 646.482 351.184C646.069 351.191 645.661 351.089 645.299 350.888L633.657 344.39C633.306 344.186 633.013 343.895 632.807 343.545C632.601 343.195 632.489 342.797 632.482 342.391C632.474 341.984 632.572 341.583 632.766 341.225C632.96 340.868 633.242 340.567 633.587 340.351L644.93 333.523C645.289 333.316 645.695 333.207 646.108 333.207C646.521 333.207 646.928 333.316 647.286 333.523L658.928 340.021C659.267 340.23 659.548 340.522 659.744 340.869C659.94 341.216 660.045 341.607 660.049 342.006C660.053 342.405 659.956 342.798 659.767 343.149C659.577 343.5 659.302 343.797 658.967 344.013Z" fill="#A4FAF9"/>
</g>
<g opacity="0.71">
<path opacity="0.71" d="M658.747 325.076L647.403 331.904C647.049 332.117 646.644 332.233 646.231 332.24C645.817 332.247 645.409 332.144 645.048 331.943L633.406 325.445C633.054 325.242 632.761 324.951 632.555 324.6C632.349 324.25 632.237 323.852 632.23 323.446C632.223 323.04 632.321 322.638 632.515 322.281C632.708 321.923 632.991 321.622 633.335 321.407L644.679 314.578C645.037 314.372 645.443 314.263 645.857 314.263C646.27 314.263 646.676 314.372 647.034 314.578L658.645 321.045C658.996 321.246 659.29 321.535 659.498 321.883C659.706 322.231 659.82 322.627 659.83 323.032C659.84 323.437 659.746 323.838 659.556 324.196C659.367 324.554 659.088 324.857 658.747 325.076Z" fill="#A3F9F8"/>
</g>
<g opacity="0.86">
<path opacity="0.86" d="M658.519 306.14L647.176 312.968C646.821 313.181 646.417 313.297 646.003 313.304C645.59 313.311 645.182 313.208 644.82 313.007L633.178 306.509C632.827 306.306 632.534 306.015 632.328 305.664C632.122 305.314 632.01 304.916 632.003 304.51C631.995 304.104 632.093 303.702 632.287 303.345C632.481 302.987 632.763 302.686 633.108 302.471L644.451 295.643C644.81 295.436 645.216 295.327 645.629 295.327C646.042 295.327 646.449 295.436 646.807 295.643L658.449 302.141C658.792 302.346 659.077 302.636 659.277 302.983C659.477 303.329 659.585 303.721 659.593 304.121C659.6 304.521 659.505 304.916 659.317 305.269C659.129 305.623 658.855 305.922 658.519 306.14Z" fill="#A2F8F7"/>
</g>
<path opacity="0.7" d="M658.292 287.204L646.948 294.032C646.593 294.245 646.189 294.36 645.775 294.367C645.362 294.374 644.954 294.272 644.593 294.071L632.974 287.581C632.623 287.377 632.33 287.086 632.123 286.736C631.917 286.386 631.805 285.988 631.798 285.582C631.791 285.175 631.889 284.774 632.083 284.416C632.277 284.059 632.559 283.758 632.904 283.542L644.247 276.714C644.605 276.507 645.011 276.398 645.425 276.398C645.838 276.398 646.244 276.507 646.602 276.714L658.244 283.212C658.584 283.42 658.866 283.711 659.063 284.058C659.26 284.405 659.365 284.796 659.37 285.195C659.375 285.594 659.278 285.987 659.09 286.339C658.901 286.69 658.626 286.988 658.292 287.204Z" fill="#A1F7F6"/>
</g>
<g opacity="0.8">
<path opacity="0.8" d="M658.276 287.204L646.932 294.032C646.578 294.245 646.173 294.36 645.76 294.367C645.346 294.374 644.939 294.272 644.577 294.071L632.951 287.581C632.6 287.377 632.307 287.085 632.102 286.734C631.896 286.384 631.785 285.986 631.779 285.579C631.773 285.173 631.871 284.772 632.066 284.415C632.26 284.058 632.543 283.757 632.888 283.542L644.232 276.714C644.59 276.507 644.996 276.398 645.409 276.398C645.823 276.398 646.229 276.507 646.587 276.714L658.229 283.212C658.569 283.42 658.85 283.711 659.047 284.058C659.244 284.405 659.35 284.796 659.354 285.195C659.359 285.594 659.263 285.987 659.074 286.339C658.885 286.69 658.611 286.988 658.276 287.204Z" fill="#A2F8F7"/>
</g>
<path d="M340.431 84.9466V89.5746L335.721 92.2932V87.3667C335.721 82.7387 334.151 80.8686 330.508 82.9587C326.865 85.0487 325.295 88.7653 325.295 93.3933V120.572C325.295 125.2 326.952 127.039 330.508 124.98C334.064 122.921 335.721 119.181 335.721 114.553V107.867L340.431 105.148V111.544C340.431 119.331 337.291 126.308 330.39 130.268C323.49 134.228 320.412 130.897 320.412 123.11V96.5127C320.412 88.7338 323.553 81.7486 330.39 77.8199C337.228 73.8912 340.431 77.1599 340.431 84.9466Z" fill="url(#paint1_linear)"/>
<path d="M364.209 71.1336V72.5243L359.499 75.243V73.5536C359.499 68.9256 357.968 67.087 354.412 69.1456C350.856 71.2043 349.341 74.803 349.341 79.3602C349.341 90.887 364.256 83.3675 364.256 97.833C364.256 105.62 361.014 112.558 354.216 116.486C347.417 120.415 344.238 117.186 344.238 109.415V106.476L348.877 103.797V107.026C348.877 111.654 350.526 113.414 354.09 111.356C357.654 109.297 359.303 105.628 359.303 101C359.303 89.5434 344.426 97.0708 344.426 82.5661C344.426 74.6301 347.566 67.8727 354.278 64.0148C360.99 60.1568 364.209 63.3469 364.209 71.1336Z" fill="url(#paint2_linear)"/>
<path d="M387.862 57.4612V58.852L383.152 61.5707V59.8813C383.152 55.2533 381.629 53.4225 378.065 55.4733C374.501 57.5241 372.986 61.1306 372.986 65.6879C372.986 77.2147 387.902 69.6952 387.902 84.1607C387.902 91.9473 384.659 98.8854 377.861 102.814C371.063 106.743 367.883 103.513 367.883 95.7425V92.8038L372.531 90.1244V93.3538C372.531 97.9818 374.179 99.7497 377.743 97.6911C381.307 95.6325 382.956 91.963 382.956 87.335C382.956 75.879 368.087 83.4063 368.087 68.9016C368.087 60.9656 371.228 54.2083 377.94 50.3503C384.652 46.4923 387.862 49.6746 387.862 57.4612Z" fill="url(#paint3_linear)"/>
<path d="M21.2586 490.805L13.8244 517.284L9.11414 520.003L18.0557 488.306L9.69506 468.246L14.8449 465.276L21.7061 481.879L28.638 457.301L33.2775 454.621L24.9483 484.338L33.8506 505.71L28.638 508.719L21.2586 490.805Z" fill="url(#paint4_linear)"/>
<path d="M54.2618 493.846L49.4967 496.588L42.1252 459.941V500.925L37.8075 503.424V452.013L44.7315 448.006L52.0402 484.841L59.1055 439.701L66.0374 435.701V487.159L61.3272 489.878V448.485L54.2618 493.846Z" fill="url(#paint5_linear)"/>
<path d="M71.1243 484.172V432.753L76.0857 429.893V476.095L88.7954 468.748V473.965L71.1243 484.172Z" fill="url(#paint6_linear)"/>
<path d="M33.0655 230.097V253.237L28.1041 256.105V204.686L33.0655 201.818V224.95L44.0011 218.664V195.493L48.9625 192.625V244.051L43.9618 246.911V223.779L33.0655 230.097Z" fill="url(#paint7_linear)"/>
<path d="M60.5343 237.364V191.163L52.3385 195.877V190.66L73.6836 178.363V183.58L65.4878 188.295V234.496L60.5343 237.364Z" fill="url(#paint8_linear)"/>
<path d="M93.5289 218.215L88.7638 220.965L81.3923 184.319V225.303L77.0746 227.801V176.383L84.0065 172.375L91.3151 209.211L98.3805 164.07L105.312 160.071V211.489L100.602 214.208V172.862L93.5289 218.215Z" fill="url(#paint9_linear)"/>
<path d="M110.392 208.552V157.149L115.353 154.288V200.49L128.063 193.143V198.361L110.392 208.552Z" fill="url(#paint10_linear)"/>
<path d="M527.442 433.139L507.738 435.198V431.081L527.442 410.369V414.557L512.385 430.452L527.442 428.951V433.139Z" fill="url(#paint11_linear)"/>
<path d="M552.877 381.352L535.339 442.899L531.014 445.397L548.551 383.842L552.877 381.352Z" fill="url(#paint12_linear)"/>
<path d="M556.449 412.191L571.506 396.288L556.441 397.796V393.608L576.138 391.55V395.667L556.441 416.379L556.449 412.191Z" fill="url(#paint13_linear)"/>
<g opacity="0.5">
<path opacity="0.5" d="M395.069 246.495C404.427 241.089 412.002 245.41 412.034 256.175C412.065 266.94 404.537 279.983 395.179 285.397C385.821 290.81 378.207 286.505 378.175 275.748C378.144 264.991 385.712 251.901 395.069 246.495Z" fill="#B53892"/>
</g>
<g opacity="0.5">
<path opacity="0.5" d="M395.085 253.983C401.153 250.479 406.075 253.284 406.075 260.269C406.075 267.254 401.224 275.693 395.155 279.19C389.087 282.686 384.165 279.912 384.165 272.904C384.165 265.895 389.024 257.487 395.085 253.983Z" fill="#B53892"/>
</g>
<g opacity="0.5">
<path opacity="0.5" d="M395.093 261.282C397.95 259.632 400.258 260.952 400.266 264.236C400.175 266.022 399.663 267.761 398.77 269.31C397.878 270.858 396.631 272.173 395.132 273.147C392.282 274.797 389.959 273.484 389.951 270.208C390.044 268.42 390.558 266.679 391.452 265.127C392.346 263.576 393.593 262.258 395.093 261.282Z" fill="#B53892"/>
</g>
<g opacity="0.5">
<path opacity="0.5" d="M339.041 314.163C348.399 308.757 355.974 313.078 356.006 323.835C356.037 334.592 348.509 347.651 339.151 353.057C329.793 358.463 322.179 354.173 322.147 343.369C322.116 332.565 329.715 319.569 339.041 314.163Z" fill="#B53892"/>
</g>
<g opacity="0.5">
<path opacity="0.5" d="M339.049 321.651C345.117 318.146 350.04 320.951 350.04 327.937C350.04 334.922 345.188 343.369 339.135 346.842C333.083 350.315 328.145 347.564 328.145 340.556C328.145 333.547 332.996 325.155 339.049 321.651Z" fill="#B53892"/>
</g>
<g opacity="0.5">
<path opacity="0.5" d="M339.065 328.951C341.922 327.301 344.23 328.621 344.238 331.905C344.149 333.687 343.641 335.422 342.754 336.969C341.867 338.517 340.627 339.832 339.135 340.808C336.286 342.458 333.962 341.145 333.954 337.869C334.045 336.085 334.555 334.347 335.443 332.798C336.331 331.248 337.572 329.93 339.065 328.951Z" fill="#B53892"/>
</g>
<path d="M433.033 590.161C433.033 590.161 438.254 598.529 431.008 600.533C423.762 602.536 425.937 597.995 410.165 601.979C394.394 605.962 396.231 597.083 396.6 595.26C396.969 593.438 403.814 590.907 407.269 590.004C410.723 589.1 424.492 585.91 424.492 585.91L432.9 587.482L433.033 590.161Z" fill="#111114"/>
<path d="M410.315 285.554C410.315 285.554 409.09 274.553 407.912 272.471C406.735 270.389 402.017 261.471 393.954 260.056C389.59 259.271 392.039 263.891 396.066 269.053C397.927 271.41 399.779 272.73 399.206 277.696C398.767 281.303 399.732 286.834 400.572 289.404C401.412 291.973 410.315 285.554 410.315 285.554Z" fill="#EFB185"/>
<path d="M400.305 288.948C399.473 286.386 399.041 280.988 396.922 278.034C394.41 274.482 397.919 271.386 396.058 269.053C392.918 265.045 390.791 261.195 392.015 260.197C394.158 263.427 399.402 262.405 402.142 272.125C403.139 275.669 403.712 284.532 403.257 288.79C401.216 289.49 400.627 289.938 400.305 288.948Z" fill="#E6A376"/>
<path d="M403.65 288.508C403.65 288.508 396.035 278.646 394.159 275.315C392.282 271.983 392.353 268.88 393.264 269.155C394.174 269.43 400.243 278.961 402.904 275.936C404.341 274.341 402.888 286.842 403.65 288.508Z" fill="#EFB185"/>
<path d="M479.1 334.922C479.1 334.922 478.165 348.735 460.738 343.934C443.31 339.133 411.924 326.341 407.905 317.942C403.885 309.542 399.811 286.921 399.811 286.921C399.811 286.921 408.281 289.734 411.453 282.819L425.246 310.839C425.246 310.839 479.971 325.296 479.1 334.922Z" fill="#9DBCC9"/>
<path d="M479.099 334.922C479.971 325.288 425.246 310.839 425.246 310.839L411.453 282.819C411.004 283.876 410.318 284.814 409.448 285.562C408.578 286.31 407.547 286.848 406.436 287.133C407.881 294.307 410.73 307.154 413.549 313.062C417.552 321.47 448.946 334.277 466.382 339.062C471.445 340.453 475.08 340.249 477.741 339.306C478.466 337.943 478.926 336.456 479.099 334.922Z" fill="#CAE0EA"/>
<path d="M450.94 558.661C450.94 558.661 444.385 559.658 445.963 563.43C447.541 567.202 455.085 572.922 456.106 575.31C457.126 577.699 463.257 586.224 465.236 585.431C467.214 584.637 472.372 585.824 471.775 576.096C471.178 566.369 459.646 558.228 450.94 558.661Z" fill="#111114"/>
<path d="M471.021 430.538C471.021 430.538 471.131 486.899 471.131 493.248C471.131 499.597 478.197 549.593 473.95 571.437C473.95 571.437 461.679 583.757 450.822 571.437C450.822 571.437 447.353 508.845 444.205 494.709C441.057 480.574 442.109 437.35 442.109 437.35L471.021 430.538Z" fill="#09294F"/>
<path d="M449.511 438.545C449.511 438.545 446.693 474.932 443.82 511.021C443.82 511.021 442.006 582.642 440.311 592.958C440.311 592.958 417.223 598.686 414.938 587.804C414.938 587.804 415.527 524.78 414.938 511.587C414.35 498.395 412.999 461.669 418.212 440.47C423.425 419.271 449.511 438.545 449.511 438.545Z" fill="#09294F"/>
<path d="M440.311 592.951C442.007 582.642 443.82 511.014 443.82 511.014C445.759 486.718 447.659 462.298 448.687 448.94L434.431 452.437C434.431 452.437 424.163 479.435 425.725 519.924C426.95 551.267 427.452 582.092 427.625 594.451C431.896 594.418 436.15 593.915 440.311 592.951Z" fill="#16365C"/>
<path d="M473.965 571.429C478.236 549.586 471.147 499.581 471.147 493.24C471.147 487.19 471.045 435.803 471.037 430.939L458.657 440.478C458.657 440.478 454.732 480.771 458.657 503.722C462.237 524.607 459.937 565.253 461.672 576.906C468.533 576.906 473.965 571.429 473.965 571.429Z" fill="#16365C"/>
<path d="M475.064 330.066C475.064 330.066 486.118 335.566 479.845 354.424C473.573 373.282 469.177 385.382 469.545 392.399C469.914 399.416 472.482 422.996 473.957 427.757C473.957 427.757 475.794 443.244 440.444 452.469C440.444 452.469 411.335 455.415 416.108 436.243C420.881 417.071 422.742 386.105 422.004 378.719C421.266 371.333 416.862 356.608 435.263 346.645C453.664 336.682 463.297 329.328 475.064 330.066Z" fill="#CAE0EA"/>
<path d="M466.916 330.867C458.28 333.004 449.347 339.062 435.287 346.66C416.854 356.616 421.297 371.356 422.027 378.726C422.757 386.097 420.92 417.071 416.132 436.25C412.285 451.643 430.262 452.751 437.516 452.617C470.009 430.043 467.135 371.482 466.916 330.867Z" fill="#CAE0EA"/>
<path d="M461.923 321.532C461.923 321.532 460.659 332.116 464.278 338.74C467.583 344.751 442.674 350.219 442.093 344.656C442.03 344.059 446.803 334.96 440.782 324.156C437.634 318.507 461.923 321.532 461.923 321.532Z" fill="#EFB185"/>
<path d="M464.153 339.102C461.46 334.191 461.46 327.072 461.656 323.756L443.459 332.785C443.459 332.785 443.459 332.785 443.459 332.832C444.103 332.997 456.396 336.108 459.042 344.948C462.81 343.408 465.362 341.294 464.153 339.102Z" fill="#DD9569"/>
<path d="M435.695 293.426C435.695 293.426 431.832 303.044 432.617 311.302C433.402 320.204 432.107 322.011 432.617 325.964C432.861 327.645 432.986 330.207 434.635 331.802C437.383 334.457 443.035 335.424 450.712 332.627C459.999 329.224 469.742 316.464 465.793 304.992C461.844 293.521 449.653 284.084 435.695 293.426Z" fill="#EFB185"/>
<path d="M465.4 317.439C461.695 307.114 452.447 294.731 452.534 294.071C452.589 293.678 449.543 291.714 446.042 289.695C442.322 289.993 438.749 291.281 435.695 293.427C434.925 295.449 434.283 297.517 433.771 299.619C435.977 302.086 440.491 304.899 441.159 307.012C442.729 311.955 441.857 319.443 440.374 322.727C438.89 326.012 444.84 330.883 443.592 333.814C443.559 333.943 443.559 334.078 443.592 334.207C446.043 334.021 448.456 333.492 450.76 332.635C456.671 330.459 462.786 324.448 465.4 317.439Z" fill="#E6A376"/>
<path d="M425.631 283.495C422.655 281.664 431.605 297.725 439.714 301.7C444.581 304.058 444.15 311.915 443.914 313.408C443.679 314.901 442.234 321.485 442.839 322.334C443.985 323.968 447.792 318.869 449.614 319.191C454.206 320.087 452.416 324.377 448.224 328.895C443.781 333.68 455.493 335.652 460.918 331.692C463.783 329.594 464.843 328.329 468.643 320.794C474.138 309.794 475.669 293.544 461.452 289.592C447.855 285.844 433.764 288.508 425.631 283.495Z" fill="#131C24"/>
<path d="M460.926 331.731C463.791 329.633 464.851 328.368 468.65 320.832C474.146 309.832 476.053 296.702 463.069 289.662C450.084 282.622 440.507 290.016 425.63 283.494C424.845 283.164 435.373 297.496 451.27 300.521C458.092 301.825 458.814 304.552 458.516 311.961C458.233 319.112 460.086 328.462 448.098 332.477C452.534 335.683 458.806 333.263 460.926 331.731Z" fill="#1D2833"/>
<path d="M443.49 341.364L434.996 346.81C434.996 346.81 460.619 355.453 467.967 343.054C469.011 341.302 467.755 335.416 463.351 334.316C463.398 334.316 462.527 344.405 443.49 341.364Z" fill="#9DBCC9"/>
<path d="M353.91 341.098C353.91 341.098 347.629 333.924 347.873 331.473C348.116 329.021 344.733 327.945 344.78 330.876C344.879 332.907 345.414 334.893 346.35 336.698C346.35 336.698 337.934 329.304 339.52 326.279C341.106 323.254 332.572 331.693 334.574 336.808C336.576 341.923 337.832 347.918 351.57 349.78C351.602 349.773 355.15 345.671 353.91 341.098Z" fill="#F1B287"/>
<path d="M436.338 353.582C436.338 353.582 441.669 365.808 424.618 369.494C407.567 373.179 378.418 377.987 371.235 372.636C364.052 367.286 346.02 349.968 346.02 349.968C346.02 349.968 354.341 347.422 353.972 340.091L381.449 357.165C381.449 357.165 432.766 344.939 436.338 353.582Z" fill="#9DBCC9"/>
<path d="M436.339 353.583C432.759 344.94 381.465 357.126 381.465 357.126L353.988 340.052C354.075 341.483 353.782 342.912 353.141 344.193C361.627 350.707 377.477 362.611 381.763 363.994C387.03 365.683 427.57 359.326 437.147 357.771C437.136 356.337 436.862 354.917 436.339 353.583Z" fill="#CAE0EA"/>
<defs>
<linearGradient id="paint0_linear" x1="129.774" y1="361.221" x2="485.199" y2="361.221" gradientUnits="userSpaceOnUse">
<stop stop-color="#FFF2C9"/>
<stop offset="1" stop-color="#FFB7BB"/>
</linearGradient>
<linearGradient id="paint1_linear" x1="17972.8" y1="25654.4" x2="-6589.43" y2="19419.4" gradientUnits="userSpaceOnUse">
<stop stop-color="#FFF2C9"/>
<stop offset="1" stop-color="#FFB7BB"/>
</linearGradient>
<linearGradient id="paint2_linear" x1="18364.2" y1="24188.5" x2="-6197.21" y2="17953" gradientUnits="userSpaceOnUse">
<stop stop-color="#FFF2C9"/>
<stop offset="1" stop-color="#FFB7BB"/>
</linearGradient>
<linearGradient id="paint3_linear" x1="18753.6" y1="22733.6" x2="-5808.09" y2="16497.4" gradientUnits="userSpaceOnUse">
<stop stop-color="#FFF2C9"/>
<stop offset="1" stop-color="#FFB7BB"/>
</linearGradient>
<linearGradient id="paint4_linear" x1="12882" y1="63826.1" x2="-17263.7" y2="55757.2" gradientUnits="userSpaceOnUse">
<stop stop-color="#FFF2C9"/>
<stop offset="1" stop-color="#FFB7BB"/>
</linearGradient>
<linearGradient id="paint5_linear" x1="15398.3" y1="63809.5" x2="-18521.3" y2="53806.5" gradientUnits="userSpaceOnUse">
<stop stop-color="#FFF2C9"/>
<stop offset="1" stop-color="#FFB7BB"/>
</linearGradient>
<linearGradient id="paint6_linear" x1="9982.17" y1="49938.7" x2="-11934.3" y2="44890.9" gradientUnits="userSpaceOnUse">
<stop stop-color="#FFF2C9"/>
<stop offset="1" stop-color="#FFB7BB"/>
</linearGradient>
<linearGradient id="paint7_linear" x1="14326.7" y1="46901.1" x2="-11516.1" y2="40893.7" gradientUnits="userSpaceOnUse">
<stop stop-color="#FFF2C9"/>
<stop offset="1" stop-color="#FFB7BB"/>
</linearGradient>
<linearGradient id="paint8_linear" x1="15157.4" y1="41756.5" x2="-11007.9" y2="35059.6" gradientUnits="userSpaceOnUse">
<stop stop-color="#FFF2C9"/>
<stop offset="1" stop-color="#FFB7BB"/>
</linearGradient>
<linearGradient id="paint9_linear" x1="20582.5" y1="46108.6" x2="-13344" y2="36102" gradientUnits="userSpaceOnUse">
<stop stop-color="#FFF2C9"/>
<stop offset="1" stop-color="#FFB7BB"/>
</linearGradient>
<linearGradient id="paint10_linear" x1="13238.8" y1="35683.6" x2="-8676.98" y2="30634.5" gradientUnits="userSpaceOnUse">
<stop stop-color="#FFF2C9"/>
<stop offset="1" stop-color="#FFB7BB"/>
</linearGradient>
<linearGradient id="paint11_linear" x1="15681.1" y1="15715.4" x2="-3885.62" y2="4729.89" gradientUnits="userSpaceOnUse">
<stop stop-color="#FFF2C9"/>
<stop offset="1" stop-color="#FFB7BB"/>
</linearGradient>
<linearGradient id="paint12_linear" x1="17716.5" y1="38411.6" x2="-9262.68" y2="31895.9" gradientUnits="userSpaceOnUse">
<stop stop-color="#FFF2C9"/>
<stop offset="1" stop-color="#FFB7BB"/>
</linearGradient>
<linearGradient id="paint13_linear" x1="16354" y1="14574.1" x2="-3208.32" y2="3595.14" gradientUnits="userSpaceOnUse">
<stop stop-color="#FFF2C9"/>
<stop offset="1" stop-color="#FFB7BB"/>
</linearGradient>
</defs>
</svg>
