<svg width="47" height="47" viewBox="0 0 47 47" fill="none" xmlns="http://www.w3.org/2000/svg">
<g clip-path="url(#clip0)">
<path d="M26.8872 40.7685V46.6858H0.942017V40.7685C0.942017 38.2258 3.00278 36.165 5.54441 36.165H22.2837C24.8264 36.165 26.8872 38.2258 26.8872 40.7685Z" fill="#3B485B"/>
<path d="M26.8872 40.7685V46.6858H2.51941V40.7685C2.51941 38.2258 4.58018 36.165 7.12252 36.165H22.2837C24.8264 36.165 26.8872 38.2258 26.8872 40.7685Z" fill="#515F75"/>
<path d="M5.6746 36.1655L5.39526 43.2446L8.37113 43.9887L5.69898 46.6605H22.1299L19.4581 43.9887L22.434 43.2446L22.1546 36.1655" fill="#3B485B"/>
<path d="M19.5875 36.1655L16.5901 46.6852H11.2393L8.24194 36.1655" fill="#F2F2F2"/>
<path d="M10.2487 38.748L13.9148 43.3375L17.5447 38.7656L13.9148 38.0872L10.2487 38.748Z" fill="#F74866"/>
<path d="M9.9262 42.0757L13.9147 38.0872L17.9032 42.0757L19.5875 36.1655H8.24194L9.9262 42.0757Z" fill="#E6E6E6"/>
<path d="M17.3249 30.2551V36.1659L13.9147 38.0872L12.8612 37.4937L10.5046 36.1659V30.2515L12.8612 30.2525L17.3249 30.2551Z" fill="#F9C2AF"/>
<path d="M11.2581 46.6851L13.9148 43.3374L16.5902 46.6851" fill="#F74866"/>
<path d="M12.8612 30.2525L10.5046 30.2515V36.1659L12.8612 37.4937V34.7592C13.2094 34.7933 13.5623 34.8126 13.9194 34.8126C15.1099 34.8126 16.2556 34.6183 17.3249 34.2593V30.2551L12.8612 30.2525Z" fill="#EA9E8F"/>
<path d="M3.21504 24.0322C1.43935 24.0322 0 22.7434 0 21.1539C0 19.5646 1.43935 18.2759 3.21504 18.2759H24.6245C26.3998 18.2759 27.8396 19.5646 27.8396 21.1539C27.8396 22.7434 26.4002 24.0322 24.6245 24.0322" fill="#EA9E8F"/>
<path d="M24.6246 11.9771V22.6821C24.6246 28.5941 19.8321 33.3869 13.9195 33.3869C10.964 33.3869 8.28687 32.1885 6.35017 30.2514C4.41347 28.3147 3.21509 25.6376 3.21509 22.6821V11.9771H24.6246Z" fill="#F9C2AF"/>
<path d="M13.8438 33.3865C10.9174 33.3668 8.27145 32.1724 6.35017 30.2518C4.41311 28.314 3.21509 25.6387 3.21509 22.6821V11.9771H8.03442V22.6821C8.03442 25.6387 8.69278 28.314 9.75777 30.2518C10.8066 32.1587 12.2485 33.3492 13.8438 33.3865Z" fill="#EA9E8F"/>
<path d="M12.1681 22.0735C12.1681 21.6812 12.4858 21.3635 12.8781 21.3635H14.3658C14.7578 21.3635 15.0758 21.6812 15.0758 22.0735C15.0758 22.4654 14.7578 22.7835 14.3658 22.7835H12.8781C12.4858 22.7835 12.1681 22.4654 12.1681 22.0735Z" fill="#293544"/>
<path d="M24.6246 11.9771V14.6596C23.8913 15.1849 23.0135 15.6461 21.9714 16.0219C18.0923 17.4189 14.3369 16.9488 11.6816 16.2083C11.6816 16.2083 11.6805 16.2083 11.6805 16.2072C9.36727 15.5636 7.88848 14.7137 7.88848 14.7137C7.88848 14.7137 6.91242 19.4119 3.21509 19.4119V11.9771H24.6246Z" fill="#EA9E8F"/>
<path d="M21.971 14.8858C18.0922 16.2835 14.3371 15.8131 11.6811 15.0726C11.6811 15.0726 11.68 15.0726 11.68 15.0719C9.36718 14.4272 7.88875 13.5773 7.88875 13.5773C7.88875 13.5773 6.91233 18.2755 3.21499 18.2755C3.21499 18.2755 0.755124 13.9244 0.832219 9.89864C0.872381 7.81098 2.59357 6.24936 4.54999 6.24936C4.91575 6.24936 5.28939 6.3035 5.6616 6.41969C6.70937 3.60554 9.47798 1.82482 12.475 2.00698C12.9419 2.03603 13.4116 2.07296 13.8832 2.11563C13.9732 2.12316 14.0646 2.13141 14.1546 2.14001C14.1639 2.14073 14.1732 2.14181 14.1826 2.14288C19.0751 2.60223 24.0307 3.49653 26.9423 0.275391C26.9423 0.275391 31.7549 11.3613 21.971 14.8858Z" fill="#515F75"/>
<path d="M12.4754 2.00691C12.9419 2.03596 13.4116 2.07289 13.8832 2.11556C9.56655 1.9334 6.13672 11.4401 11.68 15.0718C9.36754 14.4271 7.88875 13.5773 7.88875 13.5773C7.88875 13.5773 6.91233 18.2754 3.21499 18.2754C3.21499 18.2754 0.755124 13.9244 0.832219 9.89858C0.872381 7.81091 2.59357 6.24929 4.55035 6.24929C4.91575 6.24929 5.28939 6.30344 5.6616 6.41962C6.70937 3.60547 9.47798 1.82475 12.4754 2.00691Z" fill="#3B485B"/>
<path d="M14.1851 2.1438C14.1748 2.14197 14.1653 2.14124 14.1547 2.14014C14.1642 2.14124 14.1737 2.14197 14.1832 2.14307L14.1851 2.1438Z" fill="#F4AF9D"/>
<path d="M16.091 29.9383C14.9554 29.9383 13.8194 29.5062 12.9549 28.6417C12.6734 28.3598 12.6734 27.903 12.9549 27.6215C13.2367 27.34 13.6932 27.34 13.9747 27.6215C15.1419 28.7887 17.0406 28.7887 18.2074 27.6215C18.4892 27.34 18.9457 27.34 19.2272 27.6215C19.509 27.9034 19.509 28.3598 19.2272 28.6417C18.3627 29.5062 17.227 29.9383 16.091 29.9383Z" fill="#E06E86"/>
<path d="M36.6542 26.7961V31.6538H30.606V26.7961H31.6136H35.6465H36.6542Z" fill="#F4AF9D"/>
<path d="M36.6543 26.7961V31.6538H33.0437V26.7961H36.6543Z" fill="#F9C2AF"/>
<path d="M30.606 31.6533H36.6538V46.6521H30.606V31.6533Z" fill="#515F75"/>
<path d="M30.606 31.6533H33.0253V46.6521H30.606V31.6533Z" fill="#3B485B"/>
<path d="M42.5647 16.4399V27.7292H32.4362C30.0717 27.7292 27.6018 25.3744 27.4705 22.4078C27.4652 22.3013 27.463 22.1937 27.463 22.0851C27.463 18.9669 29.9867 16.4399 32.4362 16.4399H42.5647Z" fill="#DD8C22"/>
<path d="M19.4312 25.3883H17.3712C15.9379 25.3883 14.7754 23.9099 14.7754 22.0851C14.7754 20.2603 15.9379 18.7808 17.3712 18.7808H19.4323" fill="#DD8C22"/>
<path d="M33.6944 16.4399V27.7292H23.0281C20.6636 27.7292 18.7312 25.3744 18.6003 22.4078C18.5949 22.3013 18.5928 22.1937 18.5928 22.0851C18.5928 18.9669 20.5786 16.4399 23.0281 16.4399H33.6944Z" fill="#EFA233"/>
<path d="M32.3856 22.4077V27.7291H23.0277C20.6633 27.7291 18.7312 25.3743 18.6 22.4077H32.3856Z" fill="#DD8C22"/>
<path d="M38.1297 22.0851C38.1297 24.2086 37.2071 26.0592 35.8449 27.0224C35.2084 27.4731 34.4747 27.7288 33.6944 27.7288C31.245 27.7288 29.2588 25.2022 29.2588 22.0851C29.2588 18.9669 31.245 16.4399 33.6944 16.4399C34.4751 16.4399 35.2084 16.697 35.8449 17.1474C37.2071 18.1099 38.1297 19.9605 38.1297 22.0851Z" fill="#79BBE8"/>
<path d="M38.1298 22.0851C38.1298 24.2086 37.2072 26.0593 35.8449 27.0224C34.4823 26.0593 33.5601 24.2086 33.5601 22.0851C33.5601 19.9605 34.4827 18.1099 35.8449 17.1475C37.2072 18.1099 38.1298 19.9605 38.1298 22.0851Z" fill="#AEDBF4"/>
<path d="M47 22.0847C47 18.9672 45.0142 16.4399 42.5647 16.4399C40.1152 16.4399 38.1298 18.9672 38.1298 22.0847C38.1298 25.2022 40.1152 27.7295 42.5647 27.7295C45.0142 27.7295 47 25.2022 47 22.0847Z" fill="#79BBE8"/>
<path d="M47.0001 22.0851C47.0001 24.2086 46.0774 26.0593 44.7152 27.0224C43.3529 26.0593 42.4303 24.2086 42.4303 22.0851C42.4303 19.9605 43.3529 18.1099 44.7152 17.1475C46.0774 18.1099 47.0001 19.9605 47.0001 22.0851Z" fill="#AEDBF4"/>
<path d="M28.1874 26.3644V31.4054H22.1392V26.3644C22.1392 25.8076 22.5906 25.3572 23.1468 25.3572H27.1797C27.7355 25.3572 28.1874 25.8076 28.1874 26.3644Z" fill="#F4AF9D"/>
<path d="M28.1873 26.3644V31.4054H24.5768V26.3644C24.5768 25.8076 25.0272 25.3572 25.584 25.3572H27.1797C27.7355 25.3572 28.1873 25.8076 28.1873 26.3644Z" fill="#F9C2AF"/>
<path d="M22.1392 31.405H28.187V46.6523H22.1392V31.405Z" fill="#515F75"/>
<path d="M22.1392 31.405H24.5585V46.6523H22.1392V31.405Z" fill="#3B485B"/>
</g>
<defs>
<clipPath id="clip0">
<rect width="47" height="47" fill="white"/>
</clipPath>
</defs>
</svg>
