<svg width="47" height="47" viewBox="0 0 47 47" fill="none" xmlns="http://www.w3.org/2000/svg">
<g clip-path="url(#clip0)">
<path d="M39.8002 31.3318C39.4465 31.0701 39.3719 30.5713 39.6336 30.2177C39.8954 29.8641 40.3942 29.7894 40.7478 30.0511C41.972 30.9568 42.4549 30.8533 42.5738 30.8C42.8689 30.6682 43.0544 30.0166 43.218 29.4419C43.4774 28.5306 43.8002 27.3964 44.8716 26.9668C45.28 26.8032 45.7437 27.0014 45.9075 27.4097C46.0713 27.8181 45.873 28.2818 45.4646 28.4456C45.1186 28.5844 44.9314 29.2421 44.7504 29.8781C44.4914 30.788 44.1978 31.8195 43.2249 32.2543C42.0877 32.7642 40.8026 32.0735 39.8002 31.3318Z" fill="#FF8CA5"/>
<path d="M28.3736 18.2226C42.1042 18.2226 44.3208 35.5389 35.0064 41.1132L34.2606 45.4158C34.1013 46.3319 33.3076 47.0001 32.3786 47.0001H27.5073C26.5653 47.0001 25.7647 46.314 25.6204 45.383L25.3268 43.4922C25.2666 43.1041 24.9324 42.8179 24.5397 42.8179H19.2967C18.9039 42.8179 18.5698 43.1042 18.5095 43.4922L18.216 45.383C18.0716 46.314 17.27 47.0001 16.328 47.0001H11.4199C10.4918 47.0001 9.69821 46.3329 9.53789 45.4188L8.81905 41.2991C8.78251 41.0895 8.66421 40.9022 8.48856 40.7823C6.14075 39.179 4.60628 36.7879 3.88783 34.1548H2.62819C1.74824 34.1548 1.03497 33.4415 1.03497 32.5615V29.0764C1.03497 28.1964 1.74824 27.4832 2.62819 27.4832H3.8022C4.2254 25.6669 5.024 23.9482 6.198 22.4944C6.02972 21.6042 5.8236 20.7199 5.57764 19.8367C5.22116 18.5551 6.49773 17.415 7.72252 17.9348C8.54402 18.2823 9.29483 18.815 9.90722 19.5181C11.5582 18.6985 13.5258 18.2226 15.8111 18.2226H28.3736Z" fill="#FFA4B8"/>
<path d="M12.5593 42.8054C12.7421 43.8399 12.8735 44.599 12.9702 45.1613C13.1354 46.1225 12.395 47 11.4198 47C10.4917 47 9.69811 46.3328 9.53779 45.4187L8.81895 41.299C8.78241 41.0894 8.66411 40.9021 8.48846 40.7822C6.14075 39.179 4.60628 36.7879 3.88783 34.1548H2.62819C1.74824 34.1548 1.03497 33.4415 1.03497 32.5615V29.0764C1.03497 28.1964 1.74824 27.4832 2.62819 27.4832H3.8022C4.2254 25.6669 5.024 23.9482 6.198 22.4944C6.02972 21.6042 5.8236 20.7199 5.57764 19.8367C5.22116 18.5551 6.49773 17.415 7.72252 17.9348C9.21496 18.5664 10.151 23.1722 9.33356 24.4548C6.37166 29.103 6.68164 37.9357 11.9455 41.8138C12.27 42.0529 12.4892 42.4085 12.5593 42.8054Z" fill="#FFBFCB"/>
<path d="M29.2398 18.2459C29.9933 18.2873 29.9598 19.413 29.2051 19.416C27.1875 19.4243 24.1902 19.4277 19.4954 19.4173C17.4999 19.413 15.7465 19.7803 14.2348 20.4179C12.7927 21.0262 12.0791 18.6009 13.6473 18.3739C15.4656 18.1106 15.8617 18.2456 28.3736 18.2224C28.6677 18.2219 28.9564 18.2304 29.2398 18.2459Z" fill="#FFBFCB"/>
<path d="M9.59855 27.3834C9.15862 27.3834 8.80194 27.0268 8.80194 26.5868V25.6907C8.80194 25.2507 9.15862 24.894 9.59855 24.894C10.0385 24.894 10.3952 25.2507 10.3952 25.6907V26.5868C10.3952 27.0268 10.0385 27.3834 9.59855 27.3834Z" fill="#585966"/>
<path d="M7.17009 34.7594C7.05438 34.3349 7.30471 33.897 7.72921 33.7813C9.14209 33.3963 10.1956 32.3623 10.6488 31.0633C10.7937 30.6478 11.2479 30.4286 11.6633 30.5735C12.0787 30.7183 12.298 31.1726 12.1531 31.5879C11.5189 33.4062 10.0435 34.8019 8.14812 35.3185C7.72363 35.4342 7.28569 35.1839 7.17009 34.7594Z" fill="#FF8CA5"/>
<path d="M31.0075 28.0805H17.266C16.826 28.0805 16.4694 27.7238 16.4694 27.2839C16.4694 26.844 16.826 26.4873 17.266 26.4873H31.0075C31.4474 26.4873 31.8041 26.844 31.8041 27.2839C31.8041 27.7238 31.4474 28.0805 31.0075 28.0805Z" fill="#FF8CA5"/>
<path d="M24.1367 23.5C28.5912 23.5 32.2024 19.8889 32.2024 15.4343C32.2024 10.9798 28.5912 7.36865 24.1367 7.36865C19.6821 7.36865 16.071 10.9798 16.071 15.4343C16.071 19.8889 19.6821 23.5 24.1367 23.5Z" fill="#FFE773"/>
<path d="M24.1367 19.8157C26.5564 19.8157 28.518 17.8541 28.518 15.4343C28.518 13.0146 26.5564 11.053 24.1367 11.053C21.7169 11.053 19.7553 13.0146 19.7553 15.4343C19.7553 17.8541 21.7169 19.8157 24.1367 19.8157Z" fill="#FFEE99"/>
<path d="M16.071 8.16525C15.6311 8.16525 15.2744 7.80857 15.2744 7.36864V0.79661C15.2744 0.356682 15.6311 0 16.071 0C16.511 0 16.8676 0.356682 16.8676 0.79661V7.36864C16.8676 7.80857 16.511 8.16525 16.071 8.16525Z" fill="#CBE3FA"/>
<path d="M21.4482 5.4768C21.0082 5.4768 20.6516 5.12012 20.6516 4.68019V2.58909C20.6516 2.14916 21.0082 1.79248 21.4482 1.79248C21.8881 1.79248 22.2448 2.14916 22.2448 2.58909V4.68019C22.2448 5.12012 21.8881 5.4768 21.4482 5.4768Z" fill="#CBE3FA"/>
<path d="M32.2024 8.16525C31.7624 8.16525 31.4058 7.80857 31.4058 7.36864V0.79661C31.4058 0.356682 31.7624 0 32.2024 0C32.6423 0 32.999 0.356682 32.999 0.79661V7.36864C32.999 7.80857 32.6423 8.16525 32.2024 8.16525Z" fill="#CBE3FA"/>
<path d="M26.8253 5.47672C26.3854 5.47672 26.0287 5.12003 26.0287 4.68011V1.59324C26.0287 1.15331 26.3854 0.796631 26.8253 0.796631C27.2652 0.796631 27.6219 1.15331 27.6219 1.59324V4.68011C27.6219 5.12003 27.2652 5.47672 26.8253 5.47672Z" fill="#CBE3FA"/>
<path d="M18.7511 19.6961C19.0456 20.3605 18.1516 20.8901 17.7118 20.3116C16.6817 18.9567 16.0705 17.2658 16.071 15.4322C16.0722 10.9943 19.7231 7.34517 24.1803 7.36877C24.8976 7.37255 25.017 8.40396 24.3184 8.56677C19.2936 9.73719 16.7362 15.1518 18.7511 19.6961Z" fill="#FFEE99"/>
<path d="M21.8514 17.3861C22.0206 18.1463 21.0038 18.5945 20.5547 17.9582C20.0119 17.1892 19.7105 16.2374 19.7608 15.2134C19.8715 12.9588 21.7229 11.1247 23.9996 11.0551C24.7934 11.0308 25.0338 12.1119 24.3116 12.4424C22.4302 13.3033 21.3992 15.3537 21.8514 17.3861Z" fill="#FFF8D6"/>
<path d="M28.6405 45.5469C28.8236 46.2856 28.2684 47.0001 27.5074 47.0001C26.5654 47.0001 25.7648 46.314 25.6204 45.383L25.3648 43.7368C25.2898 43.2538 25.6633 42.8179 26.1519 42.8179H27.5269C27.9196 42.8179 28.2538 43.1042 28.314 43.4922C28.3141 43.4922 28.6274 45.4939 28.6405 45.5469Z" fill="#FFBFCB"/>
</g>
<defs>
<clipPath id="clip0">
<rect width="47" height="47" fill="white"/>
</clipPath>
</defs>
</svg>
