<svg width="169" height="161" viewBox="0 0 169 161" fill="none" xmlns="http://www.w3.org/2000/svg">
<g clip-path="url(#clip0)">
<path opacity="0.1" d="M13.5469 127.597L77.8686 161L169 105.803L107.969 70.147L13.5469 127.597Z" fill="black"/>
<path d="M131.331 103.883L133.5 102.628L133.642 52.3423L131.475 53.6013L131.331 103.883Z" fill="#E6E6FF"/>
<path d="M131.476 53.6012L133.642 52.3422L104.352 35.4639L102.179 36.7207L131.476 53.6012Z" fill="#AEB6BC"/>
<path d="M102.178 36.7207L102.039 87.0083L131.331 103.882L131.475 53.6012L102.178 36.7207Z" fill="#C0C0F6"/>
<path d="M58.3846 146.676L60.5535 145.423L60.697 95.1333L58.526 96.3923L58.3846 146.676Z" fill="#ACACE0"/>
<path d="M58.5269 96.3921L60.6979 95.1331L31.4053 78.2568L29.2343 79.5158L58.5269 96.3921Z" fill="#AEB6BC"/>
<path d="M29.2334 79.5156L29.0899 129.797L58.3846 146.675L58.526 96.3919L29.2334 79.5156Z" fill="#C0C0F6"/>
<path d="M16.1146 82.918L16.1188 86.1181L53.8907 108.013L53.878 104.822L16.1146 82.918Z" fill="#ACACE0"/>
<path d="M53.8781 104.822L53.8907 108.013L139.861 58.4857L139.859 55.2856L53.8781 104.822Z" fill="#C0C0F6"/>
<path d="M16.1146 82.918L53.8781 104.822L139.859 55.2857L102.089 33.3799L16.1146 82.918Z" fill="#E9F0F4"/>
<path d="M79.9131 63.2416L89.8566 69.0102L113.415 55.4372L103.473 49.6729L79.9131 63.2416Z" fill="#C0C0F6"/>
<path d="M81.1199 61.6748L81.1263 63.0812L88.0148 67.0813L88.0127 65.6665L81.1199 61.6748Z" fill="#95C4DE"/>
<path d="M88.0127 65.6668L88.0148 67.0816L104.343 57.673L104.338 56.2666L88.0127 65.6668Z" fill="#A9D6EA"/>
<path d="M81.1199 61.675L88.0127 65.6666L104.338 56.2664L97.4478 52.2705L81.1199 61.675Z" fill="#E6E7EC"/>
<path d="M81.1199 61.675L104.338 56.2664L97.4478 52.2705L81.1199 61.675Z" fill="#DEF6FF"/>
<path d="M87.4873 63.0417L86.2615 62.3301L86.2256 49.6182L87.4514 50.3277L87.4873 63.0417Z" fill="#95C4DE"/>
<path d="M87.4514 50.3275L86.2256 49.618L97.3169 43.2241L98.5406 43.9378L87.4514 50.3275Z" fill="#C0C5D1"/>
<path d="M98.5406 43.938L98.5743 56.6478L87.4873 63.0417L87.4514 50.3276L98.5406 43.938Z" fill="#A9D6EA"/>
<path d="M76.318 62.9491L75.1365 62.6206L70.0687 37.6895L71.2502 38.0179L76.318 62.9491Z" fill="#95C4DE"/>
<path d="M71.2502 38.0178L70.0687 37.6894L103.022 18.71L104.199 19.0342L71.2502 38.0178Z" fill="#A9D6EA"/>
<path d="M104.199 19.0342L109.267 43.9654L76.318 62.949L71.2502 38.0178L104.199 19.0342Z" fill="#DEF6FF"/>
<path d="M103.317 21.0239L107.815 43.4814L77.3096 61.0923L72.63 38.3465L103.317 21.0239Z" fill="url(#paint0_linear)"/>
<path d="M99.3993 28.3628L102.328 42.9821L82.466 54.4498L79.4215 39.6389L99.3993 28.3628Z" fill="#DEFCFF"/>
<path d="M99.4183 33.2134L99.5428 33.8639L88.4199 40.5757L88.2975 39.9357L99.4183 33.2134Z" fill="#17CFBF"/>
<path d="M99.1419 31.4639L99.2748 32.1165L88.1455 38.8241L88.0253 38.1925L99.1419 31.4639Z" fill="#17CFBF"/>
<path d="M100.256 37.1587L100.382 37.8134L89.2511 44.521L89.1309 43.8852L100.256 37.1587Z" fill="#17CFBF"/>
<path d="M99.9837 35.4092L100.112 36.0618L88.9831 42.7694L88.865 42.1336L99.9837 35.4092Z" fill="#17CFBF"/>
<path d="M75.6006 38.0176L75.8454 39.2576L74.1639 40.2303L73.9044 38.9755L75.6006 38.0176Z" fill="#17CFBF"/>
<path d="M76.3623 41.2202L76.6091 42.456L74.9276 43.4329L74.6681 42.1739L76.3623 41.2202Z" fill="#17CFBF"/>
<path d="M77.0416 44.6665L77.2906 45.9065L75.6048 46.8792L75.3474 45.6265L77.0416 44.6665Z" fill="#17CFBF"/>
<path d="M77.5966 47.8096L77.8455 49.0475L76.1661 50.0202L75.9003 48.7633L77.5966 47.8096Z" fill="#17CFBF"/>
<path d="M81.1578 40.2623L86.3585 37.5254L87.6603 44.2119L82.4554 46.9488L81.1578 40.2623ZM82.5587 45.9467L87.2193 43.4982C86.9007 42.5297 86.1939 41.9592 85.3732 41.9466C85.4297 41.6983 85.4354 41.4413 85.3901 41.1907C85.2424 40.4455 84.6348 40.0855 84.0398 40.4013C83.4449 40.7171 83.0735 41.5802 83.2212 42.3318C83.2611 42.5546 83.3602 42.7625 83.5082 42.934C82.8216 43.7816 82.4823 44.8573 82.5587 45.9446V45.9467Z" fill="#17CFBF"/>
<path d="M84.042 40.3969C84.6369 40.0811 85.2446 40.4411 85.3923 41.1864C85.4376 41.4369 85.4318 41.694 85.3754 41.9422C86.1961 41.9528 86.9029 42.5254 87.2215 43.4938L82.5609 45.9423C82.4845 44.8551 82.8237 43.7794 83.5103 42.9317C83.3623 42.7603 83.2632 42.5523 83.2234 42.3296C83.0757 41.5759 83.4449 40.7127 84.042 40.3969Z" fill="#17CFBF"/>
<path d="M45.4261 82.7623L55.3676 88.5309L78.9278 74.9558L68.9843 69.1914L45.4261 82.7623Z" fill="#C0C0F6"/>
<path d="M46.4177 81.5264V82.939L53.3126 86.9328L53.3105 85.5244L46.4177 81.5264Z" fill="#95C4DE"/>
<path d="M53.3105 85.5242L53.3126 86.9327L69.6404 77.5303L69.6341 76.1177L53.3105 85.5242Z" fill="#A9D6EA"/>
<path d="M46.4177 81.5264L53.3105 85.5244L69.6341 76.1178L62.7455 72.124L46.4177 81.5264Z" fill="#DEF6FF"/>
<path d="M46.4177 81.5264L69.6341 76.1178L62.7455 72.124L46.4177 81.5264Z" fill="#DEF6FF"/>
<path d="M52.7809 82.8903L51.5572 82.1872L51.5256 69.4731L52.745 70.1826L52.7809 82.8903Z" fill="#95C4DE"/>
<path d="M52.745 70.1828L51.5256 69.4733L62.6126 63.0815L63.8363 63.7889L52.745 70.1828Z" fill="#C0C5D1"/>
<path d="M63.8363 63.7891L63.8742 76.5052L52.7809 82.8906L52.745 70.1829L63.8363 63.7891Z" fill="#A9D6EA"/>
<path d="M41.6137 82.8024L40.4301 82.4719L35.3644 57.5449L36.5438 57.8712L41.6137 82.8024Z" fill="#95C4DE"/>
<path d="M36.5438 57.8712L35.3644 57.5449L68.3154 38.5591L69.4948 38.8917L36.5438 57.8712Z" fill="#A9D6EA"/>
<path d="M69.4948 38.8916L74.5647 63.8228L41.6137 82.8022L36.5438 57.871L69.4948 38.8916Z" fill="#DEF6FF"/>
<path d="M68.6108 40.875L73.1132 63.3367L42.6053 80.9434L37.9279 58.2018L68.6108 40.875Z" fill="url(#paint1_linear)"/>
<path d="M64.6951 48.2139L67.6277 62.8353L47.7617 74.3072L44.7151 59.4921L64.6951 48.2139Z" fill="#6876A5"/>
<path d="M64.714 53.0708L64.8385 53.7213L53.7134 60.431L53.5911 59.7973L64.714 53.0708Z" fill="#17CFBF"/>
<path d="M64.4439 51.3193L64.5684 51.972L53.4413 58.6753L53.3189 58.0437L64.4439 51.3193Z" fill="#17CFBF"/>
<path d="M65.5537 57.0122L65.6782 57.6691L54.5489 64.3745L54.4308 63.7408L65.5537 57.0122Z" fill="#17CFBF"/>
<path d="M65.2794 55.2666L65.4081 55.9192L54.2789 62.6247L54.1586 61.991L65.2794 55.2666Z" fill="#17CFBF"/>
<path d="M40.8922 57.8711L41.1432 59.109L39.4596 60.0817L39.198 58.829L40.8922 57.8711Z" fill="#17CFBF"/>
<path d="M41.658 61.0732L41.9027 62.3133L40.2212 63.2859L39.9596 62.0312L41.658 61.0732Z" fill="#17CFBF"/>
<path d="M42.3373 64.5239L42.5863 65.764L40.9006 66.7324L40.6411 65.4776L42.3373 64.5239Z" fill="#17CFBF"/>
<path d="M42.8944 67.665L43.1433 68.9051L41.4597 69.8777L41.2002 68.623L42.8944 67.665Z" fill="#17CFBF"/>
<path d="M46.4515 60.1153L51.6501 57.3784L52.956 64.0607L47.7553 66.7976L46.4515 60.1153ZM47.8566 65.7997L52.5151 63.3533C52.1986 62.3849 51.4855 61.8122 50.6627 61.7975C50.7235 61.55 50.7321 61.2926 50.688 61.0417C50.5382 60.2943 49.9327 59.9406 49.3377 60.2564C48.7427 60.5722 48.3672 61.4354 48.5149 62.1828C48.5543 62.4048 48.6518 62.6125 48.7976 62.7849C48.1132 63.635 47.7763 64.712 47.8545 65.7997H47.8566Z" fill="#17CFBF"/>
<path d="M49.3399 60.2523C49.9348 59.9366 50.5403 60.2902 50.6901 61.0376C50.7343 61.2886 50.7257 61.546 50.6648 61.7934C51.4876 61.8082 52.2008 62.3808 52.5172 63.3493L47.8588 65.7956C47.7805 64.7079 48.1174 63.631 48.8019 62.7808C48.6561 62.6085 48.5586 62.4008 48.5191 62.1787C48.3693 61.4334 48.7364 60.566 49.3399 60.2523Z" fill="#17CFBF"/>
<path d="M5.4115 65.4164C5.52543 65.3596 5.64991 65.288 5.75751 65.2269C6.20901 64.9343 6.48539 64.5301 6.48539 63.8037V58.3615L7.17319 57.9678V63.3595C7.17319 64.7006 6.5951 65.4522 5.85034 65.9006C5.71023 65.9896 5.56512 66.0704 5.41572 66.1427L5.4115 65.4164Z" fill="#E9F0F4"/>
<path d="M8.55513 62.8904L8.31672 64.4694L7.68378 64.8378L8.86105 56.9913L9.86954 56.4229L11.0595 62.8988L10.3675 63.2967L10.1269 61.983L8.55513 62.8904ZM8.64374 62.1535L10.0299 61.3556L9.32943 57.6229L8.64374 62.1535Z" fill="#E9F0F4"/>
<path d="M11.9054 55.2395L12.9182 60.886L13.9245 54.0774L14.5575 53.709L13.395 61.5408L12.3738 62.1281L11.2029 55.6417L11.9054 55.2395Z" fill="#E9F0F4"/>
<path d="M15.5745 58.8457L15.3339 60.4226L14.701 60.7889L15.8909 52.9424L16.8783 52.3677L18.0682 58.8436L17.3762 59.2415L17.1357 57.9383L15.5745 58.8457ZM15.6631 58.1089L17.0492 57.311L16.3466 53.5803L15.6631 58.1089Z" fill="#E9F0F4"/>
<path d="M21.3089 51.5405V51.7321L20.6527 52.111V51.8752C20.6527 51.231 20.4417 50.9763 19.9417 51.2626C19.4417 51.5489 19.2328 52.05 19.2328 52.6837C19.2328 54.29 21.3194 53.2416 21.3194 55.2585C21.3194 56.3427 20.8658 57.3091 19.9164 57.8586C18.967 58.408 18.5239 57.9533 18.5239 56.8712V56.4501L19.1716 56.0775V56.528C19.1716 57.1701 19.4016 57.4164 19.8995 57.1301C20.3974 56.8438 20.6274 56.3343 20.6274 55.688C20.6274 54.0921 18.5492 55.1364 18.5492 53.1195C18.5492 52.0142 18.9923 51.0731 19.9248 50.5363C20.8574 49.9994 21.3089 50.4542 21.3089 51.5405Z" fill="#E9F0F4"/>
<path d="M24.6698 49.6142V50.2584L24.0136 50.6374V49.9511C24.0136 49.3068 23.79 49.0479 23.2858 49.3384C22.7815 49.629 22.5579 50.1469 22.5579 50.7911V54.5807C22.5579 55.2249 22.7878 55.4818 23.2858 55.1954C23.7837 54.9091 24.0136 54.387 24.0136 53.7428V52.8122L24.6698 52.4332V53.3217C24.6698 54.408 24.2267 55.3786 23.2668 55.9302C22.3068 56.4818 21.8722 56.0165 21.8722 54.9344V51.2269C21.8722 50.1406 22.3153 49.17 23.2668 48.6226C24.2183 48.0752 24.6698 48.53 24.6698 49.6142Z" fill="#E9F0F4"/>
<path d="M26.6868 46.723C27.6637 46.1588 28.073 46.4956 28.073 47.5651V48.1504C28.0896 48.5064 28.0293 48.8617 27.896 49.1923C27.7628 49.5229 27.5598 49.8209 27.3008 50.0663C27.8683 49.9336 28.0814 50.3442 28.0814 51.1189V52.2347C28.055 52.5035 28.0979 52.7745 28.2059 53.0221L27.5033 53.4264C27.4232 53.2664 27.3873 53.1021 27.3873 52.6221V51.4979C27.3873 50.6894 27.0603 50.6221 26.4822 50.9526L25.9948 51.2368V54.2937L25.3028 54.6959V47.5378L26.6868 46.723ZM26.5096 50.1989C26.7885 50.0677 27.0214 49.8557 27.1779 49.5907C27.3345 49.3256 27.4074 49.0196 27.3873 48.7125V48.0262C27.3873 47.382 27.1763 47.1609 26.6678 47.4578L25.9927 47.8452V50.4979L26.5096 50.1989Z" fill="#E9F0F4"/>
<path d="M29.4949 45.1045V52.2626L28.8029 52.6626V45.5045L29.4949 45.1045Z" fill="#E9F0F4"/>
<path d="M31.5647 43.9126C32.5415 43.3484 32.9593 43.7737 32.9593 44.8579V45.719C32.9593 46.8538 32.4972 47.7149 31.514 48.2812L30.9001 48.6328V51.456L30.2081 51.8539V44.6958L31.5647 43.9126ZM31.514 47.5654C32.0288 47.2685 32.2778 46.8475 32.2778 46.1632V45.2116C32.2778 44.5548 32.0668 44.3463 31.5668 44.639L30.9022 45.0222V47.9191L31.514 47.5654Z" fill="#E9F0F4"/>
<path d="M34.3898 49.4414V43.0075L33.2441 43.6686V42.9486L36.219 41.2349V41.9612L35.0733 42.6223V49.054L34.3898 49.4414Z" fill="#E9F0F4"/>
<path opacity="0.5" d="M39.8457 48.5001L-0.000183105 71.4544V58.8688L39.8457 35.9146V48.5001Z" fill="url(#paint2_linear)"/>
<path d="M42.3416 20.3562C42.4576 20.3014 42.5821 20.2299 42.6876 20.1667C43.1391 19.8762 43.4155 19.4698 43.4155 18.7456V13.3034L44.0948 12.9097V18.3014C44.0948 19.6404 43.5167 20.3941 42.772 20.8425C42.6316 20.9305 42.4866 21.0106 42.3373 21.0825L42.3416 20.3562Z" fill="#E9F0F4"/>
<path d="M45.4852 17.83L45.2468 19.409L44.6138 19.7795L45.8038 11.9309L46.808 11.354L47.998 17.83L47.306 18.23L47.0486 16.9247L45.4852 17.83ZM45.5717 17.0952L46.9557 16.2973L46.2553 12.5667L45.5717 17.0952Z" fill="#E9F0F4"/>
<path d="M48.8377 10.1813L49.8504 15.8278L50.8463 9.02126L51.4792 8.65283L50.3167 16.4846L49.2955 17.0741L48.1225 10.5876L48.8377 10.1813Z" fill="#E9F0F4"/>
<path d="M52.5045 13.788L52.2661 15.3691L51.6332 15.7375L52.821 7.89097L53.8253 7.31201L55.0152 13.788L54.3232 14.1859L54.0827 12.8827L52.5045 13.788ZM52.5931 13.0511L53.9793 12.2532L53.2788 8.52257L52.5931 13.0511Z" fill="#E9F0F4"/>
<path opacity="0.5" d="M59.6357 1.14746L38.0165 13.6025V26.1881L59.6357 13.7352V1.14746Z" fill="url(#paint3_linear)"/>
<path d="M86.6624 11.2761C87.6392 10.7139 88.0569 11.1392 88.0569 12.2214V13.0824C88.0569 14.2193 87.5949 15.0783 86.6096 15.6446L85.9957 16.0004V18.8236L85.3036 19.2215V12.0635L86.6624 11.2761ZM86.6096 14.9288C87.1265 14.6319 87.3734 14.213 87.3734 13.5267V12.5772C87.3734 11.9203 87.1624 11.7119 86.6624 12.0024L85.9978 12.3856V15.2825L86.6096 14.9288Z" fill="#E9F0F4"/>
<path d="M89.3186 13.6844V16.9077L88.6266 17.3056V10.1475L89.3186 9.74747V12.9686L90.8461 12.0886V8.86534L91.5381 8.46533V15.6234L90.8461 16.0234V12.8044L89.3186 13.6844Z" fill="#E9F0F4"/>
<path d="M93.6099 7.27406C94.5868 6.71194 95.0045 7.13721 95.0045 8.22145V9.08253C95.0045 10.2173 94.5425 11.0763 93.5572 11.6426L92.9432 12.0005V14.8216L92.2512 15.2195V8.06145L93.6099 7.27406ZM93.5572 10.9289C94.072 10.6299 94.3209 10.211 94.3209 9.52464V8.57515C94.3209 7.92039 94.11 7.70986 93.6099 8.00039L92.9432 8.38567V11.2805L93.5572 10.9289Z" fill="#E9F0F4"/>
<path opacity="0.5" d="M101.037 0L79.4173 12.4551V25.0407L101.037 12.5835V0Z" fill="url(#paint4_linear)"/>
<path d="M13.1693 33.4113V34.0576L12.5131 34.4366V33.7481C12.5131 33.1039 12.2895 32.8428 11.7831 33.1334C11.2768 33.4239 11.0552 33.9418 11.0552 34.586V38.3756C11.0552 39.0177 11.2873 39.2767 11.7831 38.9883C12.2789 38.6998 12.5131 38.1798 12.5131 37.5356V36.605L13.1693 36.2261V37.1145C13.1693 38.2009 12.7262 39.1714 11.7662 39.7251C10.8063 40.2788 10.3716 39.8114 10.3716 38.7251V35.0218C10.3716 33.9376 10.8168 32.9649 11.7662 32.4197C12.7156 31.8744 13.1693 32.3291 13.1693 33.4113Z" fill="#E9F0F4"/>
<path d="M15.4331 34.2449V35.6891L14.9351 35.9733V34.527L13.7136 35.2386V34.6638L14.9394 33.9606V32.5375L15.4352 32.249V33.6722L16.6673 32.9648V33.5396L15.4331 34.2449Z" fill="#E9F0F4"/>
<path d="M18.9185 32.2387V33.685L18.4206 33.9713V32.5292L17.1948 33.2345V32.6618L18.4206 31.9566V30.527L18.9185 30.2407V31.6618L20.1443 30.9565V31.5292L18.9185 32.2387Z" fill="#E9F0F4"/>
<path opacity="0.5" d="M26.267 21.5625L4.64774 34.0155V46.6032L26.267 34.146V21.5625Z" fill="url(#paint5_linear)"/>
<path d="M82.6347 75.1348L82.6389 76.7138L91.074 81.6044L91.0697 80.0254L82.6347 75.1348Z" fill="#82A5B5"/>
<path d="M91.0697 80.0253L91.0739 81.6043L120.556 64.6164L120.552 63.0396L91.0697 80.0253Z" fill="#5B737E"/>
<path d="M82.6347 75.1348L91.0697 80.0254L120.552 63.0397L112.119 58.147L82.6347 75.1348Z" fill="#92B8CA"/>
<path d="M84.6284 74.8653L87.4956 76.5285L114.782 60.9091L111.72 59.3428L84.6284 74.8653Z" fill="#ABCFDD"/>
<path d="M88.9008 77.1119L91.768 78.7751L119.054 63.1578L115.993 61.5894L88.9008 77.1119Z" fill="#ABCFDD"/>
<path opacity="0.6" d="M134.395 121.936C145.826 127.852 145.788 137.336 134.517 143.2C123.246 149.063 104.959 149.118 93.5235 143.2C82.1875 137.341 82.1305 127.799 93.3885 121.936C104.646 116.073 123.059 116.077 134.395 121.936Z" fill="#FFEBC4"/>
<g opacity="0.86">
<path opacity="0.66" d="M136.595 105.897C149.387 112.514 149.336 123.129 136.732 129.687C124.128 136.246 103.659 136.307 90.8651 129.687C78.1809 123.132 78.1071 112.455 90.7132 105.897C103.319 99.3393 123.905 99.3372 136.595 105.897Z" fill="#FAE9C7"/>
</g>
<g opacity="0.71">
<path opacity="0.71" d="M138.787 89.8507C152.938 97.1709 152.883 108.914 138.939 116.167C124.995 123.42 102.351 123.49 88.1983 116.167C74.166 108.914 74.0837 97.1036 88.0295 89.8507C101.975 82.5979 124.749 82.5979 138.787 89.8507Z" fill="#F5E7CB"/>
</g>
<g opacity="0.57">
<path opacity="0.77" d="M140.979 73.8081C156.491 81.8315 156.43 94.7034 141.146 102.651C125.863 110.599 101.043 110.676 85.5315 102.651C70.1489 94.7013 70.0603 81.7557 85.3458 73.8081C100.631 65.8606 125.593 65.8585 140.979 73.8081Z" fill="#F0E5CE"/>
</g>
<g opacity="0.43">
<path opacity="0.83" d="M143.172 57.7658C160.05 66.4924 159.976 80.5033 143.355 89.1351C126.734 97.7669 99.7369 97.8637 82.8669 89.1351C66.1361 80.4885 66.0411 66.3976 82.6559 57.7658C99.2706 49.134 126.437 49.1172 143.172 57.7658Z" fill="#EBE2D2"/>
</g>
<g opacity="0.29">
<path opacity="0.89" d="M145.366 41.7233C163.597 51.153 163.525 66.2818 145.564 75.6189C127.603 84.956 98.4309 85.0507 80.2021 75.6189C62.1232 66.2755 62.0198 51.0603 79.9911 41.7233C97.9625 32.3862 127.28 32.3778 145.366 41.7233Z" fill="#E6E0D5"/>
</g>
<g opacity="0.14">
<path opacity="0.94" d="M147.556 25.6847C167.147 35.8176 167.069 52.0749 147.767 62.1067C128.464 72.1385 97.1207 72.2417 77.5311 62.1067C58.104 52.0664 57.9942 35.7165 77.2948 25.6847C96.5953 15.6528 128.124 15.6381 147.556 25.6847Z" fill="#E1DED9"/>
</g>
<path opacity="0.6" d="M134.395 122.035C145.826 127.951 145.788 137.435 134.517 143.298C123.246 149.162 104.959 149.214 93.5235 143.298C82.1875 137.439 82.1305 127.898 93.3885 122.035C104.646 116.171 123.059 116.175 134.395 122.035Z" fill="url(#paint6_linear)"/>
<path d="M141.317 61.4394C138.363 60.7194 135.876 69.6501 131.046 76.2271L120.094 68.8711C117.101 70.2417 118.196 70.9049 118.196 70.9049C122.991 78.9051 130.293 82.0778 130.293 82.0778C131.281 82.602 132.561 82.4315 132.561 82.4315C138.083 79.6946 141.18 74.0481 143.648 67.0901C145.416 62.1068 141.317 61.4394 141.317 61.4394Z" fill="#EFB185"/>
<path d="M141.657 59.6439C141.657 59.6439 151.491 61.9366 141.657 76.2759C141.657 76.2759 134.931 77.2822 133.401 70.9684C133.403 70.9768 136.692 59.0734 141.657 59.6439Z" fill="#4B23C9"/>
<path d="M120.141 68.7806C120.141 68.7806 116.202 63.9109 111.725 64.4099C111.725 64.4099 111.575 65.7531 113.451 66.4836C115.326 67.2142 115.86 69.0521 115.818 69.3153C115.776 69.5785 114.233 69.5595 113.548 69.5132C112.862 69.4669 111.915 70.4774 113.548 70.7953C115.181 71.1132 117.93 72.1912 119.588 71.9638C119.594 71.9638 121.438 70.1216 120.141 68.7806Z" fill="#EFB185"/>
<path d="M134.798 126.108C134.798 126.416 134.601 126.727 134.19 126.961L114.795 138.14C114.584 138.256 114.358 138.343 114.124 138.399H114.103C113.857 138.456 113.606 138.485 113.354 138.488H113.314C113.072 138.485 112.831 138.455 112.596 138.399L112.518 138.387C112.298 138.329 112.085 138.245 111.885 138.136C111.805 138.09 111.73 138.036 111.662 137.974C111.647 137.969 111.634 137.959 111.626 137.947C111.555 137.891 111.494 137.825 111.444 137.751C111.401 137.684 111.365 137.614 111.337 137.54C111.336 137.53 111.336 137.519 111.337 137.509C111.316 137.44 111.303 137.37 111.299 137.298V137.319V138.747C111.299 138.787 111.305 138.828 111.316 138.867C111.32 138.893 111.325 138.919 111.332 138.945C111.333 138.954 111.333 138.963 111.332 138.972C111.332 138.972 111.332 138.972 111.332 138.987C111.347 139.028 111.367 139.068 111.391 139.105C111.399 139.121 111.409 139.135 111.421 139.149C111.432 139.163 111.438 139.18 111.448 139.195C111.458 139.205 111.467 139.215 111.474 139.227C111.512 139.274 111.554 139.318 111.598 139.359C111.598 139.359 111.598 139.359 111.609 139.359C111.655 139.399 111.704 139.437 111.754 139.471C111.79 139.5 111.822 139.526 111.858 139.551C111.894 139.576 111.873 139.551 111.881 139.551C112.026 139.636 112.178 139.706 112.337 139.761L112.529 139.814C112.553 139.817 112.577 139.822 112.6 139.829C112.647 139.829 112.687 139.852 112.729 139.856C112.818 139.871 112.904 139.886 112.989 139.896C113.073 139.907 113.145 139.911 113.216 139.911H113.427C113.493 139.911 113.558 139.908 113.624 139.9L113.835 139.884L114.046 139.844C114.115 139.831 114.187 139.816 114.257 139.797L114.512 139.711C114.613 139.668 114.712 139.619 114.807 139.563L134.205 128.388C134.612 128.155 134.817 127.854 134.817 127.546L134.798 126.108Z" fill="#242626"/>
<path d="M135.926 136.793C135.922 136.805 135.917 136.816 135.91 136.827C135.886 136.891 135.856 136.953 135.821 137.012C135.821 137.012 135.806 137.035 135.794 137.041C135.747 137.111 135.692 137.175 135.629 137.231C135.581 137.269 135.531 137.304 135.479 137.336C135.442 137.368 135.402 137.396 135.359 137.42C135.161 137.532 134.948 137.615 134.726 137.667C134.691 137.672 134.657 137.679 134.623 137.688C134.395 137.743 134.161 137.771 133.926 137.772H133.874C133.63 137.772 133.387 137.744 133.15 137.688C133.133 137.685 133.116 137.685 133.099 137.688C132.868 137.633 132.645 137.546 132.437 137.431L113.046 126.262C112.636 126.024 112.434 125.721 112.434 125.42V126.849C112.434 127.161 112.645 127.468 113.043 127.704L132.441 138.879C132.537 138.932 132.636 138.979 132.739 139.018C132.821 139.048 132.905 139.075 132.99 139.102L133.114 139.134H133.129L133.196 139.157C133.268 139.157 133.333 139.185 133.407 139.193C133.481 139.201 133.544 139.206 133.618 139.218H133.829C133.853 139.22 133.877 139.22 133.901 139.218H134.04C134.116 139.219 134.191 139.214 134.266 139.203C134.355 139.193 134.439 139.182 134.526 139.168C134.566 139.168 134.601 139.149 134.644 139.14L134.739 139.119C134.798 139.1 134.861 139.092 134.92 139.071C135.077 139.021 135.229 138.956 135.374 138.877C135.384 138.877 135.388 138.862 135.397 138.862C135.439 138.833 135.464 138.81 135.504 138.784C135.545 138.759 135.602 138.713 135.646 138.677C135.646 138.677 135.646 138.677 135.659 138.677C135.705 138.634 135.748 138.588 135.787 138.538C135.787 138.538 135.8 138.513 135.81 138.507C135.821 138.5 135.827 138.479 135.834 138.473C135.84 138.467 135.861 138.437 135.867 138.418C135.891 138.379 135.91 138.337 135.924 138.294C135.924 138.288 135.924 138.283 135.924 138.277C135.924 138.277 135.924 138.267 135.924 138.254C135.924 138.241 135.937 138.201 135.943 138.18C135.95 138.141 135.954 138.102 135.954 138.062V136.627V136.61C135.953 136.672 135.944 136.733 135.926 136.793Z" fill="#242626"/>
<path d="M135.355 135.734C136.161 136.206 136.154 136.963 135.355 137.418C134.904 137.65 134.403 137.772 133.896 137.772C133.388 137.772 132.888 137.65 132.437 137.418L113.046 126.25C112.231 125.78 112.229 125.024 113.046 124.565C113.498 124.337 113.998 124.218 114.504 124.218C115.011 124.218 115.511 124.337 115.963 124.565L135.355 135.734Z" fill="#3B3F3F"/>
<path d="M102.115 117.193C102.115 117.193 99.6419 118.016 100.511 119.368C101.38 120.719 104.686 122.439 105.222 123.292C105.758 124.145 108.72 127.035 109.442 126.595C110.164 126.155 112.235 126.281 111.358 122.561C110.48 118.841 105.478 116.462 102.115 117.193Z" fill="#111114"/>
<path d="M101.271 91.2173C101.271 91.2173 97.3022 92.8489 101.937 112.835L104.372 123.361C104.372 123.361 106.938 127.262 112.343 123.361L109.67 101.407L101.271 91.2173Z" fill="#29383D"/>
<path d="M105.442 127.448C105.442 127.448 107.075 130.949 104.062 132.132C101.049 133.315 101.771 131.29 95.2007 133.698C88.6308 136.107 87.483 132.726 87.5611 131.932C87.6392 131.138 91.9875 129.267 93.4222 128.73C94.8568 128.193 98.7115 126.643 98.7115 126.643L105.568 126.34L105.442 127.448Z" fill="#111114"/>
<path d="M94.3674 96.3838C94.3674 96.3838 91.458 97.7544 95.9455 117.201C98.3781 127.728 98.3803 127.728 98.3803 127.728C98.3803 127.728 100.95 131.62 106.36 127.728L103.691 105.771L94.3674 96.3838Z" fill="#29383D"/>
<path d="M104.14 109.453L101.596 108.156L103.906 129.056C104.781 128.727 105.607 128.28 106.36 127.725L104.14 109.453Z" fill="#243135"/>
<path d="M111.166 113.708L107.858 110.571L110.499 124.441C111.145 124.142 111.759 123.78 112.332 123.359L111.166 113.708Z" fill="#243135"/>
<path d="M111.883 136.452C111.071 136.921 111.083 137.679 111.883 138.136C112.334 138.367 112.834 138.487 113.341 138.487C113.848 138.487 114.348 138.367 114.799 138.136L134.184 126.969C134.994 126.498 134.996 125.746 134.184 125.285C133.731 125.055 133.231 124.936 132.723 124.936C132.215 124.936 131.714 125.055 131.262 125.285L111.883 136.452Z" fill="#3B3F3F"/>
<path d="M126.688 116.285V116.273C126.688 115.9 126.447 115.531 125.964 115.254C124.983 114.681 123.386 114.681 122.407 115.243C121.827 115.576 121.599 116.03 121.687 116.464C121.673 116.406 121.664 116.347 121.662 116.287V116.306L121.702 130.656C121.704 130.704 121.71 130.752 121.719 130.799C121.719 130.827 121.738 130.86 121.744 130.89C121.746 130.9 121.746 130.911 121.744 130.921C121.744 130.921 121.744 130.934 121.744 130.938C121.759 130.989 121.781 131.037 121.81 131.081C121.824 131.102 121.837 131.128 121.85 131.147C121.864 131.162 121.875 131.18 121.884 131.199C121.896 131.21 121.898 131.22 121.911 131.231C121.957 131.292 122.009 131.349 122.067 131.399C122.072 131.401 122.077 131.405 122.08 131.41C122.147 131.462 122.217 131.51 122.291 131.553C122.327 131.582 122.356 131.61 122.396 131.637C122.405 131.644 122.414 131.649 122.424 131.654C122.598 131.752 122.782 131.832 122.972 131.894C123.044 131.917 123.12 131.928 123.183 131.949C123.224 131.956 123.264 131.967 123.303 131.98L123.436 132.008C123.544 132.03 123.652 132.046 123.761 132.054C123.854 132.065 123.947 132.07 124.04 132.069C124.088 132.069 124.133 132.069 124.187 132.069H124.2C124.232 132.067 124.265 132.067 124.297 132.069C124.382 132.069 124.466 132.069 124.548 132.056C124.63 132.043 124.711 132.043 124.795 132.029C124.879 132.014 124.964 132.003 125.046 131.987C125.075 131.977 125.105 131.968 125.135 131.961H125.158C125.209 131.952 125.26 131.94 125.31 131.923C125.411 131.894 125.521 131.858 125.62 131.818C125.745 131.769 125.866 131.71 125.983 131.643C126.477 131.359 126.726 130.985 126.719 130.608L126.688 116.285ZM122.274 117.224C122.314 117.252 122.35 117.281 122.396 117.308C122.35 117.279 122.314 117.249 122.274 117.222V117.224ZM121.711 116.563C121.735 116.63 121.767 116.695 121.805 116.755C121.767 116.695 121.735 116.632 121.711 116.565V116.563ZM121.856 116.845C121.888 116.891 121.94 116.934 121.983 116.98C121.943 116.934 121.894 116.891 121.856 116.845Z" fill="#111114"/>
<path d="M121.314 119.424C121.27 119.33 121.215 119.241 121.149 119.159C121.15 119.157 121.151 119.154 121.151 119.152C121.151 119.149 121.15 119.147 121.149 119.144C121.082 119.056 121.004 118.963 120.911 118.86C120.844 118.781 120.774 118.706 120.7 118.635C120.656 118.586 120.607 118.538 120.556 118.49C120.367 118.304 120.134 118.1 119.896 117.887L119.74 117.763C119.514 117.572 119.267 117.369 118.995 117.159C118.948 117.124 118.903 117.087 118.86 117.047C118.554 116.816 118.217 116.563 117.873 116.31C117.786 116.247 117.691 116.184 117.598 116.113C117.286 115.887 116.966 115.656 116.613 115.418C116.546 115.372 116.485 115.329 116.421 115.281C116.025 115.014 115.615 114.734 115.187 114.458C115.058 114.371 114.927 114.296 114.803 114.207C114.415 113.953 114.018 113.698 113.609 113.441L113.398 113.317C112.927 113.022 112.446 112.723 111.955 112.432C111.822 112.348 111.687 112.27 111.548 112.186C111.04 111.882 110.521 111.576 109.993 111.27C109.216 110.82 108.455 110.397 107.72 110.007C107.68 109.983 107.639 109.961 107.596 109.942C106.904 109.563 106.239 109.209 105.596 108.889C105.535 108.864 105.477 108.833 105.421 108.799C104.788 108.489 104.212 108.201 103.659 107.942C103.606 107.917 103.551 107.891 103.492 107.868C102.937 107.607 102.418 107.373 101.939 107.18C101.902 107.165 101.864 107.146 101.826 107.133C101.492 106.999 101.193 106.879 100.895 106.771C100.834 106.748 100.769 106.725 100.707 106.708C100.431 106.607 100.171 106.523 99.9415 106.462C99.8909 106.443 99.8529 106.439 99.798 106.422C99.6778 106.394 99.5533 106.365 99.4457 106.348C99.3803 106.338 99.3107 106.323 99.2495 106.317C99.22 106.314 99.1903 106.314 99.1609 106.317C99.0759 106.311 98.9906 106.311 98.9056 106.317C98.8388 106.322 98.774 106.343 98.7157 106.375H98.7284L119.892 94.0657C119.901 94.0608 119.911 94.0573 119.921 94.0552C119.937 94.0462 119.954 94.0398 119.972 94.0362C119.994 94.0332 120.016 94.0282 120.037 94.0215H120.065H120.082H120.12C120.17 94.0176 120.221 94.0176 120.272 94.0215C120.29 94.0196 120.308 94.0196 120.326 94.0215C120.358 94.0232 120.389 94.0267 120.419 94.032H120.529C120.552 94.0407 120.576 94.0471 120.601 94.051C120.719 94.0783 120.85 94.0994 120.995 94.1373C121.021 94.1407 121.047 94.1478 121.071 94.1583C121.081 94.1563 121.091 94.1563 121.101 94.1583C121.337 94.2236 121.605 94.3036 121.886 94.4068L122.044 94.4615C122.341 94.571 122.66 94.6952 123.008 94.8341C123.015 94.8392 123.023 94.8428 123.031 94.8447C123.047 94.8539 123.063 94.8616 123.08 94.8678C123.565 95.0699 124.085 95.3001 124.641 95.5584C124.711 95.5878 124.784 95.6236 124.852 95.6552C125.384 95.9015 125.947 96.1773 126.54 96.4784C126.628 96.5226 126.719 96.5626 126.818 96.6173C127.422 96.9247 128.044 97.2489 128.686 97.5963C128.774 97.6489 128.85 97.6868 128.928 97.7332C129.654 98.1268 130.405 98.5395 131.167 98.9837C131.694 99.289 132.222 99.5964 132.717 99.8974C132.852 99.9774 132.992 100.06 133.127 100.146C133.616 100.434 134.095 100.729 134.561 101.022C134.637 101.07 134.711 101.116 134.772 101.165C135.175 101.415 135.568 101.668 135.95 101.914C136.078 102.005 136.209 102.087 136.338 102.171C136.76 102.449 137.167 102.723 137.559 102.988L137.787 103.144C138.112 103.371 138.42 103.594 138.73 103.809C138.829 103.885 138.941 103.959 139.034 104.03C139.372 104.274 139.695 104.519 139.996 104.752C140.062 104.799 140.114 104.849 140.182 104.893C140.431 105.087 140.654 105.277 140.863 105.449C140.927 105.502 141 105.559 141.057 105.613C141.296 105.824 141.505 106.009 141.69 106.186C141.69 106.199 141.722 106.209 141.733 106.224C141.796 106.279 141.836 106.335 141.893 106.392C141.95 106.449 142.005 106.506 142.055 106.561C142.069 106.574 142.081 106.588 142.091 106.603C142.152 106.664 142.197 106.725 142.245 106.78C142.266 106.803 142.283 106.828 142.3 106.851C142.299 106.858 142.299 106.864 142.3 106.87C142.307 106.874 142.312 106.879 142.317 106.885C142.342 106.914 142.357 106.948 142.382 106.984C142.389 106.997 142.397 107.01 142.406 107.022C142.418 107.045 142.425 107.062 142.437 107.077C142.45 107.091 142.45 107.098 142.458 107.117C142.463 107.13 142.469 107.142 142.475 107.154C142.482 107.168 142.489 107.182 142.494 107.197C142.494 107.211 142.505 107.224 142.507 107.234C142.509 107.248 142.513 107.261 142.52 107.272C142.52 107.285 142.52 107.293 142.52 107.306C142.52 107.317 142.52 107.329 142.52 107.34C142.522 107.349 142.522 107.358 142.52 107.367C142.521 107.406 142.512 107.444 142.494 107.478C142.475 107.511 142.448 107.539 142.414 107.559L121.244 119.833C121.278 119.814 121.307 119.786 121.326 119.752C121.346 119.719 121.355 119.68 121.354 119.641C121.35 119.564 121.33 119.489 121.295 119.42C121.295 119.42 121.314 119.437 121.314 119.424Z" fill="#C0C0F6"/>
<path d="M109.988 111.268C103.699 107.647 98.6102 105.525 98.606 106.54C98.6018 107.555 103.689 111.306 109.976 114.929C116.263 118.553 121.369 120.666 121.369 119.658C121.369 118.65 116.28 114.894 109.988 111.268Z" fill="#ACACE0"/>
<path d="M140.53 102.072C140.53 102.072 139.817 112.115 128.795 109.104C117.774 106.093 110.176 103.15 110.176 103.15C110.176 103.15 96.1164 93.4762 101.661 91.0067C101.661 91.0067 106.773 85.8971 140.53 102.072Z" fill="#29383D"/>
<path d="M140.53 102.072C140.53 102.072 139.817 112.115 128.795 109.104C117.774 106.093 110.176 103.15 110.176 103.15C110.176 103.15 96.1164 93.4762 101.661 91.0067C101.661 91.0067 106.773 85.8971 140.53 102.072Z" fill="#29383D"/>
<path d="M134.549 106.434C134.549 106.434 133.84 116.483 122.816 113.466C111.792 110.449 99.2453 104.051 99.2453 104.051C99.2453 104.051 90.1309 97.8424 95.6818 95.3771C95.6839 95.3708 100.796 90.2569 134.549 106.434Z" fill="#29383D"/>
<path d="M95.6839 95.3706C94.3315 95.9727 93.8526 96.798 93.9033 97.7012C102.532 97.7727 121.662 104.314 121.662 104.314L121.818 100.75C99.4584 91.621 95.6839 95.3706 95.6839 95.3706Z" fill="#354751"/>
<path d="M102.047 90.5181C100.688 91.1203 100.216 91.9476 100.262 92.8508C108.896 92.9245 128.027 99.4678 128.027 99.4678L128.186 95.9014C105.822 86.7686 102.047 90.5181 102.047 90.5181Z" fill="#304047"/>
<path d="M142.062 59.6627C142.062 59.6627 146.737 62.1048 143.902 70.0587C141.066 78.0126 139.079 83.1601 139.173 86.1371C139.268 89.114 140.174 99.19 140.76 101.247C140.76 101.247 141.416 107.853 126.242 111.477C126.242 111.477 113.795 112.487 115.995 104.365C118.196 96.2426 119.255 83.0759 119.004 79.9432C118.753 76.8105 116.987 70.4693 124.936 66.3955C132.886 62.3217 137.036 59.25 142.062 59.6627Z" fill="#632BEE"/>
<path d="M119.004 79.9323C119.255 83.0755 118.2 96.2443 115.995 104.354C114.468 109.988 119.98 111.224 123.506 111.459C124.713 107.836 122.93 101.301 125.709 93.3979C129.139 83.6355 128.816 77.128 127.185 71.8605C126.131 68.4457 124.086 68.3109 122.637 67.8057C117.362 71.8331 118.782 77.1301 119.004 79.9323Z" fill="#4B23C9"/>
<path d="M140.76 101.247C140.171 99.1899 139.27 89.1223 139.173 86.137C139.076 83.1516 141.133 78.0378 143.901 70.0587C146.513 62.5216 143.674 60.4774 142.062 59.6626C141.157 63.568 127.504 64.9638 127.764 67.5954C128.076 70.5197 131.667 73.3261 131.772 78.5599C131.878 83.7938 131.044 91.5287 130.048 95.3793C129.177 98.7268 129.416 106.868 130.114 110.388C141.306 106.676 140.76 101.247 140.76 101.247Z" fill="#693DF4"/>
<path d="M136.559 55.5952C136.559 55.5952 135.971 59.7658 137.359 62.4164C138.625 64.8165 128.709 66.787 128.51 64.5807C128.494 64.3512 130.462 60.7911 128.158 56.4668C126.958 54.2036 136.559 55.5952 136.559 55.5952Z" fill="#EFB185"/>
<path d="M137.306 62.5573C136.275 60.5889 136.332 57.7804 136.431 56.4688L129.15 59.892C129.15 59.9025 129.15 59.9067 129.15 59.9173C129.413 59.9846 134.258 61.3152 135.241 64.829C136.739 64.25 137.77 63.431 137.306 62.5573Z" fill="#DD9569"/>
<path d="M126.377 44.279C126.377 44.279 124.763 48.0433 125.008 51.3191C125.268 54.8498 124.725 55.5487 124.92 57.1151C124.998 57.7888 125.029 58.7993 125.675 59.4309C126.745 60.4962 128.979 60.9341 132.042 59.8794C135.745 58.6162 139.722 53.6455 138.237 49.077C136.751 44.5084 131.985 40.6894 126.377 44.279Z" fill="#EFB185"/>
<path d="M137.981 53.9906C136.591 49.8768 133.028 44.9061 133.066 44.6493C133.091 44.4914 131.89 43.7082 130.534 42.8682C129.236 42.9166 127.844 43.3482 126.394 44.2787C126.073 45.0712 125.802 45.8834 125.584 46.7104C126.441 47.7083 128.205 48.8494 128.451 49.6852C129.046 51.6516 128.629 54.6095 128.029 55.9127C127.43 57.2159 129.749 59.1654 129.228 60.317C129.206 60.3666 129.198 60.4212 129.205 60.4749C130.182 60.4199 131.146 60.2227 132.066 59.8897C134.395 59.0791 136.88 56.757 137.981 53.9906Z" fill="#E6A376"/>
<path d="M125.323 42.7023C125.323 42.7023 124.725 45.9403 127.918 47.5783C129.816 48.5572 129.593 51.6605 129.485 52.2352C129.378 52.81 128.764 55.4206 128.994 55.7574C129.43 56.4143 130.981 54.429 131.696 54.5827C133.515 54.97 132.772 56.6585 131.063 58.4101C129.262 60.2712 133.897 61.147 136.078 59.6165C137.241 58.8059 137.669 58.3217 139.224 55.3721C141.496 51.0752 141.709 45.8603 136.618 42.9781C131.527 40.096 128.487 44.0266 125.323 42.7023Z" fill="#221101"/>
<path d="M136.083 59.6162C137.245 58.8057 137.673 58.3215 139.228 55.3719C141.501 51.075 141.714 45.8601 136.623 42.9779C131.532 40.0957 128.491 44.0306 125.318 42.7021C125.257 43.1358 125.257 43.5759 125.318 44.0095C126.941 44.3043 131.388 45.2727 132.492 47.2054C133.859 49.5844 135.445 48.8623 135.277 51.7866C135.104 54.6077 135.762 58.313 130.981 59.8141C132.73 61.1194 135.239 60.212 136.083 59.6162Z" fill="#341C09"/>
<path d="M127.038 90.9943C126.382 90.3206 124.603 96.2829 123.052 104.306C121.502 112.33 120.757 119.368 121.411 120.037C122.065 120.707 123.846 114.74 125.401 106.725C126.956 98.7103 127.69 91.6638 127.038 90.9943Z" fill="#ACACE0"/>
<path d="M148.398 76.7512C148.394 76.6748 148.385 76.5988 148.37 76.5238C148.368 76.4831 148.361 76.4429 148.349 76.4038C148.341 76.3864 148.336 76.3679 148.334 76.3491C148.332 76.3297 148.325 76.311 148.315 76.2943C148.318 76.2776 148.318 76.2605 148.315 76.2438C148.315 76.227 148.303 76.2101 148.296 76.1975C148.295 76.1898 148.295 76.182 148.296 76.1743C148.296 76.1638 148.296 76.1554 148.284 76.1512C148.281 76.1426 148.277 76.1347 148.271 76.128C148.271 76.128 148.271 76.1112 148.271 76.1048C148.271 76.0985 148.271 76.1049 148.258 76.0901C148.253 76.0831 148.248 76.0768 148.241 76.0712C148.241 76.0712 148.241 76.0712 148.229 76.0585C148.216 76.0459 148.229 76.0585 148.229 76.0585L148.214 76.0438C148.205 76.0361 148.195 76.0291 148.184 76.0227L148.159 76.0101H148.077C148.069 76.0083 148.06 76.0083 148.052 76.0101L148.03 76.0227C148.022 76.0293 148.012 76.0336 148.001 76.0354L126.799 90.9852C126.833 90.9629 126.873 90.9499 126.913 90.9473C126.954 90.952 126.991 90.9706 127.019 91L127.034 91.0147C127.034 91.0147 127.034 91.0147 127.034 91.0337C127.034 91.0526 127.048 91.0442 127.048 91.0484C127.048 91.0526 127.048 91.061 127.048 91.0652L127.061 91.0905C127.061 91.101 127.061 91.1094 127.061 91.1179C127.068 91.1239 127.073 91.132 127.076 91.141C127.076 91.1558 127.076 91.1705 127.091 91.1873C127.099 91.2015 127.105 91.2172 127.107 91.2337C127.107 91.2526 127.107 91.2758 127.12 91.2863C127.123 91.3086 127.129 91.3305 127.137 91.3516C127.137 91.3895 127.154 91.4274 127.162 91.4716C127.171 91.5158 127.181 91.6126 127.194 91.6968C127.405 93.7643 126.673 99.8907 125.354 106.725C123.958 113.942 122.375 119.498 121.597 120.043L142.562 107.815C143.336 107.266 145.119 98.9981 146.516 91.7832C147.885 84.9535 148.621 78.8228 148.398 76.7512Z" fill="#C0C0F6"/>
<path d="M101.564 79.9706C101.564 79.9706 93.9264 76.9726 95.4455 72.7388C95.6881 72.0588 96.5131 71.143 97.6397 72.8083C98.7663 74.4736 102.281 75.5115 102.429 77.1747C102.425 77.1747 103.17 80.939 101.564 79.9706Z" fill="#EFB185"/>
<path d="M123.656 69.7409C120.702 69.0187 118.202 77.9516 113.379 84.5286L102.425 77.1747C99.4331 78.5474 100.526 79.2022 100.526 79.2022C105.324 87.2024 112.622 90.3814 112.622 90.3814C113.613 90.9077 114.892 90.733 114.892 90.733C120.415 87.9961 123.508 82.3496 125.983 75.3957C127.753 70.4104 123.656 69.7409 123.656 69.7409Z" fill="#EFB185"/>
<path d="M123.991 67.9408C123.991 67.9408 133.825 70.2377 123.991 84.5854C123.991 84.5854 117.267 85.5855 115.736 79.2779C115.733 79.2779 119.027 67.3702 123.991 67.9408Z" fill="#632BEE"/>
<path d="M100.395 74.6525C100.395 74.6525 99.9985 72.9682 100.395 72.8145C100.792 72.6608 102.684 76.1304 102.425 77.1746C102.165 78.2189 100.395 74.6525 100.395 74.6525Z" fill="#EFB185"/>
</g>
<defs>
<linearGradient id="paint0_linear" x1="72.63" y1="41.0581" x2="107.815" y2="41.0581" gradientUnits="userSpaceOnUse">
<stop stop-color="#3A3586"/>
<stop offset="1" stop-color="#626BDC"/>
</linearGradient>
<linearGradient id="paint1_linear" x1="6363.19" y1="11633.1" x2="12231" y2="11633.1" gradientUnits="userSpaceOnUse">
<stop stop-color="#3A3586"/>
<stop offset="1" stop-color="#626BDC"/>
</linearGradient>
<linearGradient id="paint2_linear" x1="9.19252" y1="19.6418" x2="26.5888" y2="75.0695" gradientUnits="userSpaceOnUse">
<stop stop-color="#FFF2C9"/>
<stop offset="1" stop-color="#FFB7BB"/>
</linearGradient>
<linearGradient id="paint3_linear" x1="6229.76" y1="-2246" x2="6572.95" y2="4652.12" gradientUnits="userSpaceOnUse">
<stop stop-color="#FFF2C9"/>
<stop offset="1" stop-color="#FFB7BB"/>
</linearGradient>
<linearGradient id="paint4_linear" x1="10399.6" y1="-1107.05" x2="10742.8" y2="5790.82" gradientUnits="userSpaceOnUse">
<stop stop-color="#FFF2C9"/>
<stop offset="1" stop-color="#FFB7BB"/>
</linearGradient>
<linearGradient id="paint5_linear" x1="2351.2" y1="-904.942" x2="2694.1" y2="5992.93" gradientUnits="userSpaceOnUse">
<stop stop-color="#FFF2C9"/>
<stop offset="1" stop-color="#FFB7BB"/>
</linearGradient>
<linearGradient id="paint6_linear" x1="23443.5" y1="19072.1" x2="39380.3" y2="19072.1" gradientUnits="userSpaceOnUse">
<stop stop-color="#FFF2C9"/>
<stop offset="1" stop-color="#FFB7BB"/>
</linearGradient>
<clipPath id="clip0">
<rect width="169" height="161" fill="white" transform="translate(-0.000183105)"/>
</clipPath>
</defs>
</svg>
