<svg width="169" height="161" viewBox="0 0 169 161" fill="none" xmlns="http://www.w3.org/2000/svg"><g clip-path="url(#clip0)"><path opacity=".1" d="M13.5469 127.597 77.8686 161 169 105.803 107.969 70.147 13.5469 127.597z" fill="#000"/><path d="M131.331 103.883 133.5 102.628 133.642 52.3423 131.475 53.6013 131.331 103.883z" fill="#e6e6ff"/><path d="M131.476 53.6012 133.642 52.3422 104.352 35.4639 102.179 36.7207 131.476 53.6012z" fill="#aeb6bc"/><path d="M102.178 36.7207 102.039 87.0083 131.331 103.882 131.475 53.6012 102.178 36.7207z" fill="#c0c0f6"/><path d="M58.3846 146.676 60.5535 145.423 60.697 95.1333 58.526 96.3923 58.3846 146.676z" fill="#acace0"/><path d="M58.5269 96.3921 60.6979 95.1331 31.4053 78.2568 29.2343 79.5158 58.5269 96.3921z" fill="#aeb6bc"/><path d="M29.2334 79.5156 29.0899 129.797 58.3846 146.675 58.526 96.3919 29.2334 79.5156z" fill="#c0c0f6"/><path d="M16.1146 82.918 16.1188 86.1181 53.8907 108.013 53.878 104.822 16.1146 82.918z" fill="#acace0"/><path d="M53.8781 104.822 53.8907 108.013 139.861 58.4857 139.859 55.2856 53.8781 104.822z" fill="#c0c0f6"/><path d="M16.1146 82.918 53.8781 104.822 139.859 55.2857 102.089 33.3799 16.1146 82.918z" fill="#e9f0f4"/><path d="M79.9131 63.2416 89.8566 69.0102 113.415 55.4372 103.473 49.6729 79.9131 63.2416z" fill="#c0c0f6"/><path d="M81.1199 61.6748 81.1263 63.0812 88.0148 67.0813 88.0127 65.6665 81.1199 61.6748z" fill="#95c4de"/><path d="M88.0127 65.6668 88.0148 67.0816 104.343 57.673 104.338 56.2666 88.0127 65.6668z" fill="#a9d6ea"/><path d="M81.1199 61.675 88.0127 65.6666 104.338 56.2664 97.4478 52.2705 81.1199 61.675z" fill="#e6e7ec"/><path d="M81.1199 61.675 104.338 56.2664 97.4478 52.2705 81.1199 61.675z" fill="#def6ff"/><path d="M87.4873 63.0417 86.2615 62.3301 86.2256 49.6182 87.4514 50.3277 87.4873 63.0417z" fill="#95c4de"/><path d="M87.4514 50.3275 86.2256 49.618 97.3169 43.2241 98.5406 43.9378 87.4514 50.3275z" fill="#c0c5d1"/><path d="M98.5406 43.938 98.5743 56.6478 87.4873 63.0417 87.4514 50.3276 98.5406 43.938z" fill="#a9d6ea"/><path d="M76.318 62.9491 75.1365 62.6206 70.0687 37.6895 71.2502 38.0179 76.318 62.9491z" fill="#95c4de"/><path d="M71.2502 38.0178 70.0687 37.6894 103.022 18.71 104.199 19.0342 71.2502 38.0178z" fill="#a9d6ea"/><path d="M104.199 19.0342 109.267 43.9654 76.318 62.949 71.2502 38.0178 104.199 19.0342z" fill="#def6ff"/><path d="M103.317 21.0239 107.815 43.4814 77.3096 61.0923 72.63 38.3465 103.317 21.0239z" fill="url(#paint0_linear)"/><path d="M99.3993 28.3628 102.328 42.9821 82.466 54.4498 79.4215 39.6389 99.3993 28.3628z" fill="#defcff"/><path d="M99.4183 33.2134 99.5428 33.8639 88.4199 40.5757 88.2975 39.9357 99.4183 33.2134z" fill="#17cfbf"/><path d="M99.1419 31.4639 99.2748 32.1165 88.1455 38.8241 88.0253 38.1925 99.1419 31.4639z" fill="#17cfbf"/><path d="M100.256 37.1587 100.382 37.8134 89.2511 44.521 89.1309 43.8852 100.256 37.1587z" fill="#17cfbf"/><path d="M99.9837 35.4092 100.112 36.0618 88.9831 42.7694 88.865 42.1336 99.9837 35.4092z" fill="#17cfbf"/><path d="M75.6006 38.0176 75.8454 39.2576 74.1639 40.2303 73.9044 38.9755 75.6006 38.0176z" fill="#17cfbf"/><path d="M76.3623 41.2202 76.6091 42.456 74.9276 43.4329 74.6681 42.1739 76.3623 41.2202z" fill="#17cfbf"/><path d="M77.0416 44.6665 77.2906 45.9065 75.6048 46.8792 75.3474 45.6265 77.0416 44.6665z" fill="#17cfbf"/><path d="M77.5966 47.8096 77.8455 49.0475 76.1661 50.0202 75.9003 48.7633 77.5966 47.8096z" fill="#17cfbf"/><path d="M81.1578 40.2623 86.3585 37.5254 87.6603 44.2119 82.4554 46.9488 81.1578 40.2623zM82.5587 45.9467 87.2193 43.4982C86.9007 42.5297 86.1939 41.9592 85.3732 41.9466 85.4297 41.6983 85.4354 41.4413 85.3901 41.1907 85.2424 40.4455 84.6348 40.0855 84.0398 40.4013 83.4449 40.7171 83.0735 41.5802 83.2212 42.3318 83.2611 42.5546 83.3602 42.7625 83.5082 42.934 82.8216 43.7816 82.4823 44.8573 82.5587 45.9446V45.9467z" fill="#17cfbf"/><path d="M84.042 40.3969C84.6369 40.0811 85.2446 40.4411 85.3923 41.1864 85.4376 41.4369 85.4318 41.694 85.3754 41.9422 86.1961 41.9528 86.9029 42.5254 87.2215 43.4938L82.5609 45.9423C82.4845 44.8551 82.8237 43.7794 83.5103 42.9317 83.3623 42.7603 83.2632 42.5523 83.2234 42.3296 83.0757 41.5759 83.4449 40.7127 84.042 40.3969z" fill="#17cfbf"/><path d="M45.4261 82.7623 55.3676 88.5309 78.9278 74.9558 68.9843 69.1914 45.4261 82.7623z" fill="#c0c0f6"/><path d="M46.4177 81.5264V82.939L53.3126 86.9328 53.3105 85.5244 46.4177 81.5264z" fill="#95c4de"/><path d="M53.3105 85.5242 53.3126 86.9327 69.6404 77.5303 69.6341 76.1177 53.3105 85.5242z" fill="#a9d6ea"/><path d="M46.4177 81.5264 53.3105 85.5244 69.6341 76.1178 62.7455 72.124 46.4177 81.5264z" fill="#def6ff"/><path d="M46.4177 81.5264 69.6341 76.1178 62.7455 72.124 46.4177 81.5264z" fill="#def6ff"/><path d="M52.7809 82.8903 51.5572 82.1872 51.5256 69.4731 52.745 70.1826 52.7809 82.8903z" fill="#95c4de"/><path d="M52.745 70.1828 51.5256 69.4733 62.6126 63.0815 63.8363 63.7889 52.745 70.1828z" fill="#c0c5d1"/><path d="M63.8363 63.7891 63.8742 76.5052 52.7809 82.8906 52.745 70.1829 63.8363 63.7891z" fill="#a9d6ea"/><path d="M41.6137 82.8024 40.4301 82.4719 35.3644 57.5449 36.5438 57.8712 41.6137 82.8024z" fill="#95c4de"/><path d="M36.5438 57.8712 35.3644 57.5449 68.3154 38.5591 69.4948 38.8917 36.5438 57.8712z" fill="#a9d6ea"/><path d="M69.4948 38.8916 74.5647 63.8228 41.6137 82.8022 36.5438 57.871 69.4948 38.8916z" fill="#def6ff"/><path d="M68.6108 40.875 73.1132 63.3367 42.6053 80.9434 37.9279 58.2018 68.6108 40.875z" fill="url(#paint1_linear)"/><path d="M64.6951 48.2139 67.6277 62.8353 47.7617 74.3072 44.7151 59.4921 64.6951 48.2139z" fill="#6876a5"/><path d="M64.714 53.0708 64.8385 53.7213 53.7134 60.431 53.5911 59.7973 64.714 53.0708z" fill="#17cfbf"/><path d="M64.4439 51.3193 64.5684 51.972 53.4413 58.6753 53.3189 58.0437 64.4439 51.3193z" fill="#17cfbf"/><path d="M65.5537 57.0122 65.6782 57.6691 54.5489 64.3745 54.4308 63.7408 65.5537 57.0122z" fill="#17cfbf"/><path d="M65.2794 55.2666 65.4081 55.9192 54.2789 62.6247 54.1586 61.991 65.2794 55.2666z" fill="#17cfbf"/><path d="M40.8922 57.8711 41.1432 59.109 39.4596 60.0817 39.198 58.829 40.8922 57.8711z" fill="#17cfbf"/><path d="M41.658 61.0732 41.9027 62.3133 40.2212 63.2859 39.9596 62.0312 41.658 61.0732z" fill="#17cfbf"/><path d="M42.3373 64.5239 42.5863 65.764 40.9006 66.7324 40.6411 65.4776 42.3373 64.5239z" fill="#17cfbf"/><path d="M42.8944 67.665 43.1433 68.9051 41.4597 69.8777 41.2002 68.623 42.8944 67.665z" fill="#17cfbf"/><path d="M46.4515 60.1153 51.6501 57.3784 52.956 64.0607 47.7553 66.7976 46.4515 60.1153zM47.8566 65.7997 52.5151 63.3533C52.1986 62.3849 51.4855 61.8122 50.6627 61.7975 50.7235 61.55 50.7321 61.2926 50.688 61.0417 50.5382 60.2943 49.9327 59.9406 49.3377 60.2564 48.7427 60.5722 48.3672 61.4354 48.5149 62.1828 48.5543 62.4048 48.6518 62.6125 48.7976 62.7849 48.1132 63.635 47.7763 64.712 47.8545 65.7997H47.8566z" fill="#17cfbf"/><path d="M49.3399 60.2523C49.9348 59.9366 50.5403 60.2902 50.6901 61.0376 50.7343 61.2886 50.7257 61.546 50.6648 61.7934 51.4876 61.8082 52.2008 62.3808 52.5172 63.3493L47.8588 65.7956C47.7805 64.7079 48.1174 63.631 48.8019 62.7808 48.6561 62.6085 48.5586 62.4008 48.5191 62.1787 48.3693 61.4334 48.7364 60.566 49.3399 60.2523z" fill="#17cfbf"/><path d="M5.4115 65.4164C5.52543 65.3596 5.64991 65.288 5.75751 65.2269 6.20901 64.9343 6.48539 64.5301 6.48539 63.8037V58.3615L7.17319 57.9678v5.3917C7.17319 64.7006 6.5951 65.4522 5.85034 65.9006 5.71023 65.9896 5.56512 66.0704 5.41572 66.1427L5.4115 65.4164z" fill="#e9f0f4"/><path d="M8.55513 62.8904 8.31672 64.4694 7.68378 64.8378 8.86105 56.9913 9.86954 56.4229 11.0595 62.8988 10.3675 63.2967 10.1269 61.983 8.55513 62.8904zM8.64374 62.1535 10.0299 61.3556 9.32943 57.6229 8.64374 62.1535z" fill="#e9f0f4"/><path d="M11.9054 55.2395 12.9182 60.886 13.9245 54.0774 14.5575 53.709 13.395 61.5408 12.3738 62.1281 11.2029 55.6417 11.9054 55.2395z" fill="#e9f0f4"/><path d="M15.5745 58.8457 15.3339 60.4226 14.701 60.7889 15.8909 52.9424 16.8783 52.3677 18.0682 58.8436 17.3762 59.2415 17.1357 57.9383 15.5745 58.8457zM15.6631 58.1089 17.0492 57.311 16.3466 53.5803 15.6631 58.1089z" fill="#e9f0f4"/><path d="M21.3089 51.5405V51.7321L20.6527 52.111V51.8752C20.6527 51.231 20.4417 50.9763 19.9417 51.2626 19.4417 51.5489 19.2328 52.05 19.2328 52.6837 19.2328 54.29 21.3194 53.2416 21.3194 55.2585 21.3194 56.3427 20.8658 57.3091 19.9164 57.8586 18.967 58.408 18.5239 57.9533 18.5239 56.8712V56.4501L19.1716 56.0775V56.528C19.1716 57.1701 19.4016 57.4164 19.8995 57.1301 20.3974 56.8438 20.6274 56.3343 20.6274 55.688 20.6274 54.0921 18.5492 55.1364 18.5492 53.1195 18.5492 52.0142 18.9923 51.0731 19.9248 50.5363 20.8574 49.9994 21.3089 50.4542 21.3089 51.5405z" fill="#e9f0f4"/><path d="M24.6698 49.6142V50.2584L24.0136 50.6374V49.9511C24.0136 49.3068 23.79 49.0479 23.2858 49.3384 22.7815 49.629 22.5579 50.1469 22.5579 50.7911v3.7896C22.5579 55.2249 22.7878 55.4818 23.2858 55.1954 23.7837 54.9091 24.0136 54.387 24.0136 53.7428V52.8122L24.6698 52.4332V53.3217C24.6698 54.408 24.2267 55.3786 23.2668 55.9302 22.3068 56.4818 21.8722 56.0165 21.8722 54.9344V51.2269C21.8722 50.1406 22.3153 49.17 23.2668 48.6226 24.2183 48.0752 24.6698 48.53 24.6698 49.6142z" fill="#e9f0f4"/><path d="M26.6868 46.723C27.6637 46.1588 28.073 46.4956 28.073 47.5651V48.1504C28.0896 48.5064 28.0293 48.8617 27.896 49.1923 27.7628 49.5229 27.5598 49.8209 27.3008 50.0663 27.8683 49.9336 28.0814 50.3442 28.0814 51.1189V52.2347C28.055 52.5035 28.0979 52.7745 28.2059 53.0221L27.5033 53.4264C27.4232 53.2664 27.3873 53.1021 27.3873 52.6221V51.4979C27.3873 50.6894 27.0603 50.6221 26.4822 50.9526L25.9948 51.2368V54.2937L25.3028 54.6959V47.5378L26.6868 46.723zM26.5096 50.1989C26.7885 50.0677 27.0214 49.8557 27.1779 49.5907 27.3345 49.3256 27.4074 49.0196 27.3873 48.7125V48.0262C27.3873 47.382 27.1763 47.1609 26.6678 47.4578L25.9927 47.8452V50.4979L26.5096 50.1989z" fill="#e9f0f4"/><path d="M29.4949 45.1045V52.2626L28.8029 52.6626V45.5045L29.4949 45.1045z" fill="#e9f0f4"/><path d="M31.5647 43.9126C32.5415 43.3484 32.9593 43.7737 32.9593 44.8579V45.719C32.9593 46.8538 32.4972 47.7149 31.514 48.2812L30.9001 48.6328V51.456L30.2081 51.8539V44.6958L31.5647 43.9126zM31.514 47.5654C32.0288 47.2685 32.2778 46.8475 32.2778 46.1632V45.2116C32.2778 44.5548 32.0668 44.3463 31.5668 44.639L30.9022 45.0222V47.9191L31.514 47.5654z" fill="#e9f0f4"/><path d="M34.3898 49.4414V43.0075L33.2441 43.6686V42.9486L36.219 41.2349V41.9612L35.0733 42.6223V49.054L34.3898 49.4414z" fill="#e9f0f4"/><path opacity=".5" d="M39.8457 48.5001-183105e-9 71.4544V58.8688L39.8457 35.9146V48.5001z" fill="url(#paint2_linear)"/><path d="M42.3416 20.3562C42.4576 20.3014 42.5821 20.2299 42.6876 20.1667 43.1391 19.8762 43.4155 19.4698 43.4155 18.7456V13.3034L44.0948 12.9097v5.3917C44.0948 19.6404 43.5167 20.3941 42.772 20.8425 42.6316 20.9305 42.4866 21.0106 42.3373 21.0825L42.3416 20.3562z" fill="#e9f0f4"/><path d="M45.4852 17.83 45.2468 19.409 44.6138 19.7795 45.8038 11.9309 46.808 11.354 47.998 17.83 47.306 18.23 47.0486 16.9247 45.4852 17.83zM45.5717 17.0952 46.9557 16.2973 46.2553 12.5667 45.5717 17.0952z" fill="#e9f0f4"/><path d="M48.8377 10.1813 49.8504 15.8278 50.8463 9.02126 51.4792 8.65283 50.3167 16.4846 49.2955 17.0741 48.1225 10.5876 48.8377 10.1813z" fill="#e9f0f4"/><path d="M52.5045 13.788 52.2661 15.3691 51.6332 15.7375 52.821 7.89097 53.8253 7.31201 55.0152 13.788 54.3232 14.1859 54.0827 12.8827 52.5045 13.788zM52.5931 13.0511 53.9793 12.2532 53.2788 8.52257 52.5931 13.0511z" fill="#e9f0f4"/><path opacity=".5" d="M59.6357 1.14746 38.0165 13.6025V26.1881L59.6357 13.7352V1.14746z" fill="url(#paint3_linear)"/><path d="M86.6624 11.2761C87.6392 10.7139 88.0569 11.1392 88.0569 12.2214V13.0824C88.0569 14.2193 87.5949 15.0783 86.6096 15.6446L85.9957 16.0004v2.8232L85.3036 19.2215V12.0635L86.6624 11.2761zM86.6096 14.9288C87.1265 14.6319 87.3734 14.213 87.3734 13.5267V12.5772C87.3734 11.9203 87.1624 11.7119 86.6624 12.0024L85.9978 12.3856V15.2825L86.6096 14.9288z" fill="#e9f0f4"/><path d="M89.3186 13.6844V16.9077L88.6266 17.3056V10.1475L89.3186 9.74747V12.9686L90.8461 12.0886V8.86534L91.5381 8.46533V15.6234L90.8461 16.0234V12.8044L89.3186 13.6844z" fill="#e9f0f4"/><path d="M93.6099 7.27406C94.5868 6.71194 95.0045 7.13721 95.0045 8.22145V9.08253C95.0045 10.2173 94.5425 11.0763 93.5572 11.6426L92.9432 12.0005V14.8216L92.2512 15.2195V8.06145L93.6099 7.27406zM93.5572 10.9289C94.072 10.6299 94.3209 10.211 94.3209 9.52464V8.57515C94.3209 7.92039 94.11 7.70986 93.6099 8.00039L92.9432 8.38567V11.2805L93.5572 10.9289z" fill="#e9f0f4"/><path opacity=".5" d="M101.037.0 79.4173 12.4551V25.0407L101.037 12.5835V0z" fill="url(#paint4_linear)"/><path d="M13.1693 33.4113V34.0576L12.5131 34.4366V33.7481C12.5131 33.1039 12.2895 32.8428 11.7831 33.1334 11.2768 33.4239 11.0552 33.9418 11.0552 34.586v3.7896C11.0552 39.0177 11.2873 39.2767 11.7831 38.9883 12.2789 38.6998 12.5131 38.1798 12.5131 37.5356V36.605L13.1693 36.2261V37.1145C13.1693 38.2009 12.7262 39.1714 11.7662 39.7251 10.8063 40.2788 10.3716 39.8114 10.3716 38.7251V35.0218C10.3716 33.9376 10.8168 32.9649 11.7662 32.4197 12.7156 31.8744 13.1693 32.3291 13.1693 33.4113z" fill="#e9f0f4"/><path d="M15.4331 34.2449V35.6891L14.9351 35.9733V34.527L13.7136 35.2386V34.6638L14.9394 33.9606V32.5375L15.4352 32.249V33.6722L16.6673 32.9648V33.5396L15.4331 34.2449z" fill="#e9f0f4"/><path d="M18.9185 32.2387V33.685L18.4206 33.9713V32.5292L17.1948 33.2345V32.6618L18.4206 31.9566V30.527L18.9185 30.2407V31.6618L20.1443 30.9565V31.5292L18.9185 32.2387z" fill="#e9f0f4"/><path opacity=".5" d="M26.267 21.5625 4.64774 34.0155V46.6032L26.267 34.146V21.5625z" fill="url(#paint5_linear)"/><path d="M82.6347 75.1348 82.6389 76.7138 91.074 81.6044 91.0697 80.0254 82.6347 75.1348z" fill="#82a5b5"/><path d="M91.0697 80.0253 91.0739 81.6043 120.556 64.6164 120.552 63.0396 91.0697 80.0253z" fill="#5b737e"/><path d="M82.6347 75.1348 91.0697 80.0254 120.552 63.0397 112.119 58.147 82.6347 75.1348z" fill="#92b8ca"/><path d="M84.6284 74.8653 87.4956 76.5285 114.782 60.9091 111.72 59.3428 84.6284 74.8653z" fill="#abcfdd"/><path d="M88.9008 77.1119 91.768 78.7751 119.054 63.1578 115.993 61.5894 88.9008 77.1119z" fill="#abcfdd"/><path opacity=".6" d="M134.395 121.936C145.826 127.852 145.788 137.336 134.517 143.2 123.246 149.063 104.959 149.118 93.5235 143.2 82.1875 137.341 82.1305 127.799 93.3885 121.936 104.646 116.073 123.059 116.077 134.395 121.936z" fill="#ffebc4"/><g opacity=".86"><path opacity=".66" d="M136.595 105.897C149.387 112.514 149.336 123.129 136.732 129.687 124.128 136.246 103.659 136.307 90.8651 129.687 78.1809 123.132 78.1071 112.455 90.7132 105.897 103.319 99.3393 123.905 99.3372 136.595 105.897z" fill="#fae9c7"/></g><g opacity=".71"><path opacity=".71" d="M138.787 89.8507C152.938 97.1709 152.883 108.914 138.939 116.167 124.995 123.42 102.351 123.49 88.1983 116.167 74.166 108.914 74.0837 97.1036 88.0295 89.8507 101.975 82.5979 124.749 82.5979 138.787 89.8507z" fill="#f5e7cb"/></g><g opacity=".57"><path opacity=".77" d="M140.979 73.8081C156.491 81.8315 156.43 94.7034 141.146 102.651 125.863 110.599 101.043 110.676 85.5315 102.651 70.1489 94.7013 70.0603 81.7557 85.3458 73.8081 100.631 65.8606 125.593 65.8585 140.979 73.8081z" fill="#f0e5ce"/></g><g opacity=".43"><path opacity=".83" d="M143.172 57.7658C160.05 66.4924 159.976 80.5033 143.355 89.1351 126.734 97.7669 99.7369 97.8637 82.8669 89.1351 66.1361 80.4885 66.0411 66.3976 82.6559 57.7658 99.2706 49.134 126.437 49.1172 143.172 57.7658z" fill="#ebe2d2"/></g><g opacity=".29"><path opacity=".89" d="M145.366 41.7233C163.597 51.153 163.525 66.2818 145.564 75.6189 127.603 84.956 98.4309 85.0507 80.2021 75.6189 62.1232 66.2755 62.0198 51.0603 79.9911 41.7233 97.9625 32.3862 127.28 32.3778 145.366 41.7233z" fill="#e6e0d5"/></g><g opacity=".14"><path opacity=".94" d="M147.556 25.6847C167.147 35.8176 167.069 52.0749 147.767 62.1067 128.464 72.1385 97.1207 72.2417 77.5311 62.1067 58.104 52.0664 57.9942 35.7165 77.2948 25.6847 96.5953 15.6528 128.124 15.6381 147.556 25.6847z" fill="#e1ded9"/></g><path opacity=".6" d="M134.395 122.035C145.826 127.951 145.788 137.435 134.517 143.298 123.246 149.162 104.959 149.214 93.5235 143.298 82.1875 137.439 82.1305 127.898 93.3885 122.035 104.646 116.171 123.059 116.175 134.395 122.035z" fill="url(#paint6_linear)"/><path d="M141.317 61.4394C138.363 60.7194 135.876 69.6501 131.046 76.2271L120.094 68.8711C117.101 70.2417 118.196 70.9049 118.196 70.9049 122.991 78.9051 130.293 82.0778 130.293 82.0778 131.281 82.602 132.561 82.4315 132.561 82.4315 138.083 79.6946 141.18 74.0481 143.648 67.0901 145.416 62.1068 141.317 61.4394 141.317 61.4394z" fill="#efb185"/><path d="M141.657 59.6439C141.657 59.6439 151.491 61.9366 141.657 76.2759 141.657 76.2759 134.931 77.2822 133.401 70.9684 133.403 70.9768 136.692 59.0734 141.657 59.6439z" fill="#4b23c9"/><path d="M120.141 68.7806C120.141 68.7806 116.202 63.9109 111.725 64.4099 111.725 64.4099 111.575 65.7531 113.451 66.4836 115.326 67.2142 115.86 69.0521 115.818 69.3153 115.776 69.5785 114.233 69.5595 113.548 69.5132 112.862 69.4669 111.915 70.4774 113.548 70.7953 115.181 71.1132 117.93 72.1912 119.588 71.9638 119.594 71.9638 121.438 70.1216 120.141 68.7806z" fill="#efb185"/><path d="M134.798 126.108C134.798 126.416 134.601 126.727 134.19 126.961L114.795 138.14C114.584 138.256 114.358 138.343 114.124 138.399H114.103C113.857 138.456 113.606 138.485 113.354 138.488H113.314C113.072 138.485 112.831 138.455 112.596 138.399L112.518 138.387C112.298 138.329 112.085 138.245 111.885 138.136 111.805 138.09 111.73 138.036 111.662 137.974 111.647 137.969 111.634 137.959 111.626 137.947 111.555 137.891 111.494 137.825 111.444 137.751 111.401 137.684 111.365 137.614 111.337 137.54 111.336 137.53 111.336 137.519 111.337 137.509 111.316 137.44 111.303 137.37 111.299 137.298V137.319 138.747C111.299 138.787 111.305 138.828 111.316 138.867 111.32 138.893 111.325 138.919 111.332 138.945 111.333 138.954 111.333 138.963 111.332 138.972c0 0 0 0 0 .014999999999986358C111.347 139.028 111.367 139.068 111.391 139.105 111.399 139.121 111.409 139.135 111.421 139.149 111.432 139.163 111.438 139.18 111.448 139.195 111.458 139.205 111.467 139.215 111.474 139.227 111.512 139.274 111.554 139.318 111.598 139.359c0 0 0 0 .01099999999999568.0C111.655 139.399 111.704 139.437 111.754 139.471 111.79 139.5 111.822 139.526 111.858 139.551 111.894 139.576 111.873 139.551 111.881 139.551 112.026 139.636 112.178 139.706 112.337 139.761L112.529 139.814C112.553 139.817 112.577 139.822 112.6 139.829 112.647 139.829 112.687 139.852 112.729 139.856 112.818 139.871 112.904 139.886 112.989 139.896 113.073 139.907 113.145 139.911 113.216 139.911H113.427C113.493 139.911 113.558 139.908 113.624 139.9L113.835 139.884 114.046 139.844C114.115 139.831 114.187 139.816 114.257 139.797L114.512 139.711C114.613 139.668 114.712 139.619 114.807 139.563L134.205 128.388C134.612 128.155 134.817 127.854 134.817 127.546L134.798 126.108z" fill="#242626"/><path d="M135.926 136.793C135.922 136.805 135.917 136.816 135.91 136.827 135.886 136.891 135.856 136.953 135.821 137.012 135.821 137.012 135.806 137.035 135.794 137.041 135.747 137.111 135.692 137.175 135.629 137.231 135.581 137.269 135.531 137.304 135.479 137.336 135.442 137.368 135.402 137.396 135.359 137.42 135.161 137.532 134.948 137.615 134.726 137.667 134.691 137.672 134.657 137.679 134.623 137.688 134.395 137.743 134.161 137.771 133.926 137.772H133.874C133.63 137.772 133.387 137.744 133.15 137.688 133.133 137.685 133.116 137.685 133.099 137.688 132.868 137.633 132.645 137.546 132.437 137.431L113.046 126.262C112.636 126.024 112.434 125.721 112.434 125.42V126.849C112.434 127.161 112.645 127.468 113.043 127.704L132.441 138.879C132.537 138.932 132.636 138.979 132.739 139.018 132.821 139.048 132.905 139.075 132.99 139.102L133.114 139.134H133.129L133.196 139.157C133.268 139.157 133.333 139.185 133.407 139.193 133.481 139.201 133.544 139.206 133.618 139.218H133.829C133.853 139.22 133.877 139.22 133.901 139.218H134.04C134.116 139.219 134.191 139.214 134.266 139.203 134.355 139.193 134.439 139.182 134.526 139.168 134.566 139.168 134.601 139.149 134.644 139.14L134.739 139.119C134.798 139.1 134.861 139.092 134.92 139.071 135.077 139.021 135.229 138.956 135.374 138.877 135.384 138.877 135.388 138.862 135.397 138.862 135.439 138.833 135.464 138.81 135.504 138.784 135.545 138.759 135.602 138.713 135.646 138.677c0 0 0 0 .01300000000000523.0C135.705 138.634 135.748 138.588 135.787 138.538 135.787 138.538 135.8 138.513 135.81 138.507 135.821 138.5 135.827 138.479 135.834 138.473 135.84 138.467 135.861 138.437 135.867 138.418 135.891 138.379 135.91 138.337 135.924 138.294 135.924 138.288 135.924 138.283 135.924 138.277 135.924 138.277 135.924 138.267 135.924 138.254 135.924 138.241 135.937 138.201 135.943 138.18 135.95 138.141 135.954 138.102 135.954 138.062V136.627 136.61C135.953 136.672 135.944 136.733 135.926 136.793z" fill="#242626"/><path d="M135.355 135.734C136.161 136.206 136.154 136.963 135.355 137.418 134.904 137.65 134.403 137.772 133.896 137.772 133.388 137.772 132.888 137.65 132.437 137.418L113.046 126.25C112.231 125.78 112.229 125.024 113.046 124.565 113.498 124.337 113.998 124.218 114.504 124.218 115.011 124.218 115.511 124.337 115.963 124.565L135.355 135.734z" fill="#3b3f3f"/><path d="M102.115 117.193C102.115 117.193 99.6419 118.016 100.511 119.368 101.38 120.719 104.686 122.439 105.222 123.292 105.758 124.145 108.72 127.035 109.442 126.595 110.164 126.155 112.235 126.281 111.358 122.561 110.48 118.841 105.478 116.462 102.115 117.193z" fill="#111114"/><path d="M101.271 91.2173C101.271 91.2173 97.3022 92.8489 101.937 112.835L104.372 123.361C104.372 123.361 106.938 127.262 112.343 123.361L109.67 101.407 101.271 91.2173z" fill="#29383d"/><path d="M105.442 127.448C105.442 127.448 107.075 130.949 104.062 132.132 101.049 133.315 101.771 131.29 95.2007 133.698 88.6308 136.107 87.483 132.726 87.5611 131.932 87.6392 131.138 91.9875 129.267 93.4222 128.73 94.8568 128.193 98.7115 126.643 98.7115 126.643L105.568 126.34 105.442 127.448z" fill="#111114"/><path d="M94.3674 96.3838C94.3674 96.3838 91.458 97.7544 95.9455 117.201 98.3781 127.728 98.3803 127.728 98.3803 127.728 98.3803 127.728 100.95 131.62 106.36 127.728L103.691 105.771 94.3674 96.3838z" fill="#29383d"/><path d="M104.14 109.453 101.596 108.156 103.906 129.056C104.781 128.727 105.607 128.28 106.36 127.725L104.14 109.453z" fill="#243135"/><path d="M111.166 113.708 107.858 110.571 110.499 124.441C111.145 124.142 111.759 123.78 112.332 123.359L111.166 113.708z" fill="#243135"/><path d="M111.883 136.452C111.071 136.921 111.083 137.679 111.883 138.136 112.334 138.367 112.834 138.487 113.341 138.487 113.848 138.487 114.348 138.367 114.799 138.136L134.184 126.969C134.994 126.498 134.996 125.746 134.184 125.285 133.731 125.055 133.231 124.936 132.723 124.936 132.215 124.936 131.714 125.055 131.262 125.285L111.883 136.452z" fill="#3b3f3f"/><path d="M126.688 116.285V116.273C126.688 115.9 126.447 115.531 125.964 115.254 124.983 114.681 123.386 114.681 122.407 115.243 121.827 115.576 121.599 116.03 121.687 116.464 121.673 116.406 121.664 116.347 121.662 116.287V116.306L121.702 130.656C121.704 130.704 121.71 130.752 121.719 130.799 121.719 130.827 121.738 130.86 121.744 130.89 121.746 130.9 121.746 130.911 121.744 130.921c0 0 0 .01300000000000523.0.016999999999995907C121.759 130.989 121.781 131.037 121.81 131.081 121.824 131.102 121.837 131.128 121.85 131.147 121.864 131.162 121.875 131.18 121.884 131.199 121.896 131.21 121.898 131.22 121.911 131.231 121.957 131.292 122.009 131.349 122.067 131.399 122.072 131.401 122.077 131.405 122.08 131.41 122.147 131.462 122.217 131.51 122.291 131.553 122.327 131.582 122.356 131.61 122.396 131.637 122.405 131.644 122.414 131.649 122.424 131.654 122.598 131.752 122.782 131.832 122.972 131.894 123.044 131.917 123.12 131.928 123.183 131.949 123.224 131.956 123.264 131.967 123.303 131.98L123.436 132.008C123.544 132.03 123.652 132.046 123.761 132.054 123.854 132.065 123.947 132.07 124.04 132.069 124.088 132.069 124.133 132.069 124.187 132.069H124.2C124.232 132.067 124.265 132.067 124.297 132.069 124.382 132.069 124.466 132.069 124.548 132.056 124.63 132.043 124.711 132.043 124.795 132.029 124.879 132.014 124.964 132.003 125.046 131.987 125.075 131.977 125.105 131.968 125.135 131.961H125.158C125.209 131.952 125.26 131.94 125.31 131.923 125.411 131.894 125.521 131.858 125.62 131.818 125.745 131.769 125.866 131.71 125.983 131.643 126.477 131.359 126.726 130.985 126.719 130.608L126.688 116.285zM122.274 117.224C122.314 117.252 122.35 117.281 122.396 117.308 122.35 117.279 122.314 117.249 122.274 117.222V117.224zM121.711 116.563C121.735 116.63 121.767 116.695 121.805 116.755 121.767 116.695 121.735 116.632 121.711 116.565V116.563zM121.856 116.845C121.888 116.891 121.94 116.934 121.983 116.98 121.943 116.934 121.894 116.891 121.856 116.845z" fill="#111114"/><path d="M121.314 119.424C121.27 119.33 121.215 119.241 121.149 119.159 121.15 119.157 121.151 119.154 121.151 119.152 121.151 119.149 121.15 119.147 121.149 119.144 121.082 119.056 121.004 118.963 120.911 118.86 120.844 118.781 120.774 118.706 120.7 118.635 120.656 118.586 120.607 118.538 120.556 118.49 120.367 118.304 120.134 118.1 119.896 117.887L119.74 117.763C119.514 117.572 119.267 117.369 118.995 117.159 118.948 117.124 118.903 117.087 118.86 117.047 118.554 116.816 118.217 116.563 117.873 116.31 117.786 116.247 117.691 116.184 117.598 116.113 117.286 115.887 116.966 115.656 116.613 115.418 116.546 115.372 116.485 115.329 116.421 115.281 116.025 115.014 115.615 114.734 115.187 114.458 115.058 114.371 114.927 114.296 114.803 114.207 114.415 113.953 114.018 113.698 113.609 113.441L113.398 113.317C112.927 113.022 112.446 112.723 111.955 112.432 111.822 112.348 111.687 112.27 111.548 112.186 111.04 111.882 110.521 111.576 109.993 111.27 109.216 110.82 108.455 110.397 107.72 110.007 107.68 109.983 107.639 109.961 107.596 109.942 106.904 109.563 106.239 109.209 105.596 108.889 105.535 108.864 105.477 108.833 105.421 108.799 104.788 108.489 104.212 108.201 103.659 107.942 103.606 107.917 103.551 107.891 103.492 107.868 102.937 107.607 102.418 107.373 101.939 107.18 101.902 107.165 101.864 107.146 101.826 107.133 101.492 106.999 101.193 106.879 100.895 106.771 100.834 106.748 100.769 106.725 100.707 106.708 100.431 106.607 100.171 106.523 99.9415 106.462 99.8909 106.443 99.8529 106.439 99.798 106.422 99.6778 106.394 99.5533 106.365 99.4457 106.348 99.3803 106.338 99.3107 106.323 99.2495 106.317 99.22 106.314 99.1903 106.314 99.1609 106.317 99.0759 106.311 98.9906 106.311 98.9056 106.317 98.8388 106.322 98.774 106.343 98.7157 106.375H98.7284L119.892 94.0657C119.901 94.0608 119.911 94.0573 119.921 94.0552 119.937 94.0462 119.954 94.0398 119.972 94.0362 119.994 94.0332 120.016 94.0282 120.037 94.0215H120.065 120.082 120.12C120.17 94.0176 120.221 94.0176 120.272 94.0215 120.29 94.0196 120.308 94.0196 120.326 94.0215 120.358 94.0232 120.389 94.0267 120.419 94.032H120.529C120.552 94.0407 120.576 94.0471 120.601 94.051 120.719 94.0783 120.85 94.0994 120.995 94.1373 121.021 94.1407 121.047 94.1478 121.071 94.1583 121.081 94.1563 121.091 94.1563 121.101 94.1583 121.337 94.2236 121.605 94.3036 121.886 94.4068L122.044 94.4615C122.341 94.571 122.66 94.6952 123.008 94.8341 123.015 94.8392 123.023 94.8428 123.031 94.8447 123.047 94.8539 123.063 94.8616 123.08 94.8678 123.565 95.0699 124.085 95.3001 124.641 95.5584 124.711 95.5878 124.784 95.6236 124.852 95.6552 125.384 95.9015 125.947 96.1773 126.54 96.4784 126.628 96.5226 126.719 96.5626 126.818 96.6173 127.422 96.9247 128.044 97.2489 128.686 97.5963 128.774 97.6489 128.85 97.6868 128.928 97.7332 129.654 98.1268 130.405 98.5395 131.167 98.9837 131.694 99.289 132.222 99.5964 132.717 99.8974 132.852 99.9774 132.992 100.06 133.127 100.146 133.616 100.434 134.095 100.729 134.561 101.022 134.637 101.07 134.711 101.116 134.772 101.165 135.175 101.415 135.568 101.668 135.95 101.914 136.078 102.005 136.209 102.087 136.338 102.171 136.76 102.449 137.167 102.723 137.559 102.988L137.787 103.144C138.112 103.371 138.42 103.594 138.73 103.809 138.829 103.885 138.941 103.959 139.034 104.03 139.372 104.274 139.695 104.519 139.996 104.752 140.062 104.799 140.114 104.849 140.182 104.893 140.431 105.087 140.654 105.277 140.863 105.449 140.927 105.502 141 105.559 141.057 105.613 141.296 105.824 141.505 106.009 141.69 106.186 141.69 106.199 141.722 106.209 141.733 106.224 141.796 106.279 141.836 106.335 141.893 106.392 141.95 106.449 142.005 106.506 142.055 106.561 142.069 106.574 142.081 106.588 142.091 106.603 142.152 106.664 142.197 106.725 142.245 106.78 142.266 106.803 142.283 106.828 142.3 106.851 142.299 106.858 142.299 106.864 142.3 106.87 142.307 106.874 142.312 106.879 142.317 106.885 142.342 106.914 142.357 106.948 142.382 106.984 142.389 106.997 142.397 107.01 142.406 107.022 142.418 107.045 142.425 107.062 142.437 107.077 142.45 107.091 142.45 107.098 142.458 107.117 142.463 107.13 142.469 107.142 142.475 107.154 142.482 107.168 142.489 107.182 142.494 107.197 142.494 107.211 142.505 107.224 142.507 107.234 142.509 107.248 142.513 107.261 142.52 107.272 142.52 107.285 142.52 107.293 142.52 107.306 142.52 107.317 142.52 107.329 142.52 107.34 142.522 107.349 142.522 107.358 142.52 107.367 142.521 107.406 142.512 107.444 142.494 107.478 142.475 107.511 142.448 107.539 142.414 107.559L121.244 119.833C121.278 119.814 121.307 119.786 121.326 119.752 121.346 119.719 121.355 119.68 121.354 119.641 121.35 119.564 121.33 119.489 121.295 119.42 121.295 119.42 121.314 119.437 121.314 119.424z" fill="#c0c0f6"/><path d="M109.988 111.268C103.699 107.647 98.6102 105.525 98.606 106.54 98.6018 107.555 103.689 111.306 109.976 114.929 116.263 118.553 121.369 120.666 121.369 119.658 121.369 118.65 116.28 114.894 109.988 111.268z" fill="#acace0"/><path d="M140.53 102.072C140.53 102.072 139.817 112.115 128.795 109.104 117.774 106.093 110.176 103.15 110.176 103.15 110.176 103.15 96.1164 93.4762 101.661 91.0067 101.661 91.0067 106.773 85.8971 140.53 102.072z" fill="#29383d"/><path d="M140.53 102.072C140.53 102.072 139.817 112.115 128.795 109.104 117.774 106.093 110.176 103.15 110.176 103.15 110.176 103.15 96.1164 93.4762 101.661 91.0067 101.661 91.0067 106.773 85.8971 140.53 102.072z" fill="#29383d"/><path d="M134.549 106.434C134.549 106.434 133.84 116.483 122.816 113.466 111.792 110.449 99.2453 104.051 99.2453 104.051 99.2453 104.051 90.1309 97.8424 95.6818 95.3771 95.6839 95.3708 100.796 90.2569 134.549 106.434z" fill="#29383d"/><path d="M95.6839 95.3706C94.3315 95.9727 93.8526 96.798 93.9033 97.7012 102.532 97.7727 121.662 104.314 121.662 104.314L121.818 100.75C99.4584 91.621 95.6839 95.3706 95.6839 95.3706z" fill="#354751"/><path d="M102.047 90.5181C100.688 91.1203 100.216 91.9476 100.262 92.8508 108.896 92.9245 128.027 99.4678 128.027 99.4678L128.186 95.9014C105.822 86.7686 102.047 90.5181 102.047 90.5181z" fill="#304047"/><path d="M142.062 59.6627C142.062 59.6627 146.737 62.1048 143.902 70.0587 141.066 78.0126 139.079 83.1601 139.173 86.1371 139.268 89.114 140.174 99.19 140.76 101.247 140.76 101.247 141.416 107.853 126.242 111.477 126.242 111.477 113.795 112.487 115.995 104.365 118.196 96.2426 119.255 83.0759 119.004 79.9432 118.753 76.8105 116.987 70.4693 124.936 66.3955 132.886 62.3217 137.036 59.25 142.062 59.6627z" fill="#632bee"/><path d="M119.004 79.9323C119.255 83.0755 118.2 96.2443 115.995 104.354 114.468 109.988 119.98 111.224 123.506 111.459 124.713 107.836 122.93 101.301 125.709 93.3979 129.139 83.6355 128.816 77.128 127.185 71.8605 126.131 68.4457 124.086 68.3109 122.637 67.8057 117.362 71.8331 118.782 77.1301 119.004 79.9323z" fill="#4b23c9"/><path d="M140.76 101.247C140.171 99.1899 139.27 89.1223 139.173 86.137 139.076 83.1516 141.133 78.0378 143.901 70.0587 146.513 62.5216 143.674 60.4774 142.062 59.6626 141.157 63.568 127.504 64.9638 127.764 67.5954 128.076 70.5197 131.667 73.3261 131.772 78.5599 131.878 83.7938 131.044 91.5287 130.048 95.3793 129.177 98.7268 129.416 106.868 130.114 110.388 141.306 106.676 140.76 101.247 140.76 101.247z" fill="#693df4"/><path d="M136.559 55.5952C136.559 55.5952 135.971 59.7658 137.359 62.4164 138.625 64.8165 128.709 66.787 128.51 64.5807 128.494 64.3512 130.462 60.7911 128.158 56.4668 126.958 54.2036 136.559 55.5952 136.559 55.5952z" fill="#efb185"/><path d="M137.306 62.5573C136.275 60.5889 136.332 57.7804 136.431 56.4688L129.15 59.892C129.15 59.9025 129.15 59.9067 129.15 59.9173 129.413 59.9846 134.258 61.3152 135.241 64.829 136.739 64.25 137.77 63.431 137.306 62.5573z" fill="#dd9569"/><path d="M126.377 44.279C126.377 44.279 124.763 48.0433 125.008 51.3191 125.268 54.8498 124.725 55.5487 124.92 57.1151 124.998 57.7888 125.029 58.7993 125.675 59.4309 126.745 60.4962 128.979 60.9341 132.042 59.8794 135.745 58.6162 139.722 53.6455 138.237 49.077 136.751 44.5084 131.985 40.6894 126.377 44.279z" fill="#efb185"/><path d="M137.981 53.9906C136.591 49.8768 133.028 44.9061 133.066 44.6493 133.091 44.4914 131.89 43.7082 130.534 42.8682 129.236 42.9166 127.844 43.3482 126.394 44.2787 126.073 45.0712 125.802 45.8834 125.584 46.7104 126.441 47.7083 128.205 48.8494 128.451 49.6852 129.046 51.6516 128.629 54.6095 128.029 55.9127 127.43 57.2159 129.749 59.1654 129.228 60.317 129.206 60.3666 129.198 60.4212 129.205 60.4749 130.182 60.4199 131.146 60.2227 132.066 59.8897 134.395 59.0791 136.88 56.757 137.981 53.9906z" fill="#e6a376"/><path d="M125.323 42.7023C125.323 42.7023 124.725 45.9403 127.918 47.5783 129.816 48.5572 129.593 51.6605 129.485 52.2352 129.378 52.81 128.764 55.4206 128.994 55.7574 129.43 56.4143 130.981 54.429 131.696 54.5827 133.515 54.97 132.772 56.6585 131.063 58.4101 129.262 60.2712 133.897 61.147 136.078 59.6165 137.241 58.8059 137.669 58.3217 139.224 55.3721 141.496 51.0752 141.709 45.8603 136.618 42.9781 131.527 40.096 128.487 44.0266 125.323 42.7023z" fill="#221101"/><path d="M136.083 59.6162C137.245 58.8057 137.673 58.3215 139.228 55.3719 141.501 51.075 141.714 45.8601 136.623 42.9779 131.532 40.0957 128.491 44.0306 125.318 42.7021 125.257 43.1358 125.257 43.5759 125.318 44.0095 126.941 44.3043 131.388 45.2727 132.492 47.2054 133.859 49.5844 135.445 48.8623 135.277 51.7866 135.104 54.6077 135.762 58.313 130.981 59.8141 132.73 61.1194 135.239 60.212 136.083 59.6162z" fill="#341c09"/><path d="M127.038 90.9943C126.382 90.3206 124.603 96.2829 123.052 104.306 121.502 112.33 120.757 119.368 121.411 120.037 122.065 120.707 123.846 114.74 125.401 106.725 126.956 98.7103 127.69 91.6638 127.038 90.9943z" fill="#acace0"/><path d="M148.398 76.7512C148.394 76.6748 148.385 76.5988 148.37 76.5238 148.368 76.4831 148.361 76.4429 148.349 76.4038 148.341 76.3864 148.336 76.3679 148.334 76.3491 148.332 76.3297 148.325 76.311 148.315 76.2943 148.318 76.2776 148.318 76.2605 148.315 76.2438 148.315 76.227 148.303 76.2101 148.296 76.1975 148.295 76.1898 148.295 76.182 148.296 76.1743 148.296 76.1638 148.296 76.1554 148.284 76.1512 148.281 76.1426 148.277 76.1347 148.271 76.128 148.271 76.128 148.271 76.1112 148.271 76.1048 148.271 76.0985 148.271 76.1049 148.258 76.0901 148.253 76.0831 148.248 76.0768 148.241 76.0712 148.241 76.0712 148.241 76.0712 148.229 76.0585 148.216 76.0459 148.229 76.0585 148.229 76.0585L148.214 76.0438C148.205 76.0361 148.195 76.0291 148.184 76.0227L148.159 76.0101H148.077C148.069 76.0083 148.06 76.0083 148.052 76.0101L148.03 76.0227C148.022 76.0293 148.012 76.0336 148.001 76.0354L126.799 90.9852C126.833 90.9629 126.873 90.9499 126.913 90.9473 126.954 90.952 126.991 90.9706 127.019 91L127.034 91.0147c0 0 0 0 0 .018999999999991246C127.034 91.0526 127.048 91.0442 127.048 91.0484 127.048 91.0526 127.048 91.061 127.048 91.0652L127.061 91.0905C127.061 91.101 127.061 91.1094 127.061 91.1179 127.068 91.1239 127.073 91.132 127.076 91.141 127.076 91.1558 127.076 91.1705 127.091 91.1873 127.099 91.2015 127.105 91.2172 127.107 91.2337 127.107 91.2526 127.107 91.2758 127.12 91.2863 127.123 91.3086 127.129 91.3305 127.137 91.3516 127.137 91.3895 127.154 91.4274 127.162 91.4716 127.171 91.5158 127.181 91.6126 127.194 91.6968 127.405 93.7643 126.673 99.8907 125.354 106.725 123.958 113.942 122.375 119.498 121.597 120.043L142.562 107.815C143.336 107.266 145.119 98.9981 146.516 91.7832 147.885 84.9535 148.621 78.8228 148.398 76.7512z" fill="#c0c0f6"/><path d="M101.564 79.9706C101.564 79.9706 93.9264 76.9726 95.4455 72.7388 95.6881 72.0588 96.5131 71.143 97.6397 72.8083 98.7663 74.4736 102.281 75.5115 102.429 77.1747 102.425 77.1747 103.17 80.939 101.564 79.9706z" fill="#efb185"/><path d="M123.656 69.7409C120.702 69.0187 118.202 77.9516 113.379 84.5286L102.425 77.1747C99.4331 78.5474 100.526 79.2022 100.526 79.2022 105.324 87.2024 112.622 90.3814 112.622 90.3814 113.613 90.9077 114.892 90.733 114.892 90.733 120.415 87.9961 123.508 82.3496 125.983 75.3957 127.753 70.4104 123.656 69.7409 123.656 69.7409z" fill="#efb185"/><path d="M123.991 67.9408C123.991 67.9408 133.825 70.2377 123.991 84.5854 123.991 84.5854 117.267 85.5855 115.736 79.2779 115.733 79.2779 119.027 67.3702 123.991 67.9408z" fill="#632bee"/><path d="M100.395 74.6525C100.395 74.6525 99.9985 72.9682 100.395 72.8145 100.792 72.6608 102.684 76.1304 102.425 77.1746 102.165 78.2189 100.395 74.6525 100.395 74.6525z" fill="#efb185"/></g><defs><linearGradient id="paint0_linear" x1="72.63" y1="41.0581" x2="107.815" y2="41.0581" gradientUnits="userSpaceOnUse"><stop stop-color="#3a3586"/><stop offset="1" stop-color="#626bdc"/></linearGradient><linearGradient id="paint1_linear" x1="6363.19" y1="11633.1" x2="12231" y2="11633.1" gradientUnits="userSpaceOnUse"><stop stop-color="#3a3586"/><stop offset="1" stop-color="#626bdc"/></linearGradient><linearGradient id="paint2_linear" x1="9.19252" y1="19.6418" x2="26.5888" y2="75.0695" gradientUnits="userSpaceOnUse"><stop stop-color="#fff2c9"/><stop offset="1" stop-color="#ffb7bb"/></linearGradient><linearGradient id="paint3_linear" x1="6229.76" y1="-2246" x2="6572.95" y2="4652.12" gradientUnits="userSpaceOnUse"><stop stop-color="#fff2c9"/><stop offset="1" stop-color="#ffb7bb"/></linearGradient><linearGradient id="paint4_linear" x1="10399.6" y1="-1107.05" x2="10742.8" y2="5790.82" gradientUnits="userSpaceOnUse"><stop stop-color="#fff2c9"/><stop offset="1" stop-color="#ffb7bb"/></linearGradient><linearGradient id="paint5_linear" x1="2351.2" y1="-904.942" x2="2694.1" y2="5992.93" gradientUnits="userSpaceOnUse"><stop stop-color="#fff2c9"/><stop offset="1" stop-color="#ffb7bb"/></linearGradient><linearGradient id="paint6_linear" x1="23443.5" y1="19072.1" x2="39380.3" y2="19072.1" gradientUnits="userSpaceOnUse"><stop stop-color="#fff2c9"/><stop offset="1" stop-color="#ffb7bb"/></linearGradient><clipPath id="clip0"><path d="M0 0h169v161H0z" fill="#fff" transform="translate(-0.000183105)"/></clipPath></defs></svg>