<svg width="171" height="156" viewBox="0 0 171 156" fill="none" xmlns="http://www.w3.org/2000/svg"><g opacity=".1"><path opacity=".1" d="M0 129.318 37.7784 151.29 125.007 100.884 86.3164 78.1187.0 129.318z" fill="#000"/></g><path d="M33.7511 150.558 33.5724 87.7196 31.1617 86.3149 31.3384 149.156C31.3384 149.894 31.6024 150.408 32.0188 150.652L34.4274 152.054C34.0131 151.812 33.7531 151.294 33.7511 150.558z" fill="#c0c0f6"/><path d="M33.5725 87.7195 31.1618 86.3148 31.1375 77.8179 33.5481 79.2205 33.5725 87.7195z" fill="#c0c0f6"/><path d="M125.342 34.6909 33.5725 87.7195 33.7512 150.558C33.7512 152.042 34.8032 152.634 36.0847 151.89L123.209 101.544C124.493 100.804 125.529 99.0135 125.529 97.5276L125.342 34.6909z" fill="url(#paint0_linear)"/><path d="M122.982 24.8626C124.265 24.1186 125.311 24.7163 125.315 26.19L125.342 34.689 33.5725 87.7196 33.5481 79.2227C33.5481 77.7469 34.5838 75.9459 35.8674 75.208L122.982 24.8626z" fill="#f0f0f9"/><path d="M123.494 24.6347C123.618 24.5934 123.746 24.5661 123.875 24.5533H123.904C124.032 24.5433 124.16 24.5508 124.286 24.5757H124.29C124.41 24.6007 124.526 24.6438 124.633 24.7038 124.633 24.7038 124.621 24.7038 124.619 24.7038L122.206 23.3032C122.169 23.2785 122.13 23.258 122.088 23.2422L121.968 23.1995 121.887 23.1792H121.867 121.838L121.698 23.1629C121.646 23.1592 121.594 23.1592 121.542 23.1629H121.493 121.455C121.426 23.1629 121.402 23.1629 121.371 23.1629 121.303 23.1741 121.235 23.189 121.168 23.2077 121.14 23.2077 121.107 23.228 121.083 23.2361 121.054 23.244 121.025 23.2542 120.998 23.2666 120.963 23.2761 120.929 23.2876 120.896 23.3012 120.784 23.3487 120.675 23.403 120.569 23.4638L33.4445 73.8071C33.2942 73.8983 33.1498 73.9988 33.0119 74.1079 32.9632 74.1506 32.9145 74.1954 32.8637 74.2401 32.8129 74.2848 32.7317 74.3478 32.6728 74.4088 32.6139 74.4698 32.6179 74.4718 32.5875 74.5003L32.5002 74.5897 32.4189 74.6792C32.3519 74.7564 32.2869 74.8316 32.2158 74.9109L32.1508 74.9983C32.1426 75.0127 32.1331 75.0263 32.1224 75.0389 32.1001 75.0647 32.0804 75.0927 32.0635 75.1223 32.0168 75.1873 31.9762 75.2544 31.9275 75.3256 31.8787 75.3967 31.8503 75.4536 31.8097 75.5288L31.7954 75.5471C31.765 75.602 31.7406 75.6569 31.7081 75.7138 31.6756 75.7707 31.637 75.846 31.6045 75.9171 31.572 75.9882 31.5497 76.0391 31.5253 76.098 31.5243 76.0999 31.5237 76.102 31.5237 76.1041 31.5237 76.1063 31.5243 76.1084 31.5253 76.1102 31.5246 76.1118 31.5242 76.1135 31.5242 76.1153 31.5242 76.1171 31.5246 76.1188 31.5253 76.1204 31.4969 76.1895 31.4685 76.2566 31.4421 76.3237 31.4109 76.3957 31.3844 76.4697 31.3629 76.5452 31.3504 76.5797 31.3402 76.6151 31.3324 76.6509 31.3324 76.6692 31.3202 76.6855 31.3121 76.7038 31.3065 76.7309 31.2984 76.7575 31.2877 76.7831 31.2674 76.8725 31.241 76.9599 31.2248 77.0514 31.2126 77.1042 31.2065 77.155 31.1943 77.212 31.1821 77.2689 31.1943 77.2648 31.1821 77.2973 31.1699 77.3299 31.1821 77.3482 31.1699 77.3766 31.1487 77.5268 31.1385 77.6783 31.1395 77.8299L33.5501 79.2325C33.5525 79.054 33.5688 78.8759 33.5989 78.6999 33.5989 78.6735 33.5989 78.6451 33.611 78.6186 33.6383 78.446 33.6776 78.2755 33.7288 78.1084L33.741 78.0678C33.7981 77.8804 33.8659 77.6964 33.9441 77.5169c0 0 0-.014200000000002433.0-.01830000000001064C34.0227 77.3155 34.1129 77.1376 34.2142 76.966L34.2244 76.9436C34.3226 76.773 34.4304 76.6081 34.5473 76.4497 34.5473 76.4334 34.5676 76.4212 34.5757 76.405 34.6854 76.2606 34.8011 76.1244 34.9169 75.9984 34.9453 75.972 34.9656 75.9456 34.9941 75.9191 35.0877 75.8201 35.1874 75.7271 35.2926 75.6406 35.3332 75.602 35.3759 75.5634 35.4206 75.5268 35.5598 75.4161 35.7064 75.3149 35.8592 75.2239L122.984 24.8806C123.12 24.8 123.262 24.7319 123.41 24.6773 123.441 24.6509 123.467 24.6428 123.494 24.6347z" fill="#c0c0f6"/><path d="M39.3239 81.1642C40.4997 80.4873 41.4502 78.8367 41.4482 77.489 41.4461 76.1413 40.4876 75.5985 39.3096 76.2693 38.1317 76.9401 37.1854 78.5887 37.1874 79.9405 37.1894 81.2923 38.152 81.835 39.3239 81.1601V81.1642z" fill="#c0c0f6"/><path d="M45.7658 77.4318C46.9417 76.7549 47.8921 75.1043 47.8901 73.7566 47.8881 72.4088 46.9295 71.8661 45.7536 72.5369 44.5777 73.2077 43.6293 74.8563 43.6314 76.2081 43.6334 77.5599 44.596 78.1006 45.7678 77.4277L45.7658 77.4318z" fill="#c0c0f6"/><path d="M52.0474 73.7887C53.2233 73.1118 54.1737 71.4612 54.1717 70.1135 54.1696 68.7658 53.2111 68.223 52.0352 68.8938 50.8593 69.5646 49.9109 71.2193 49.9109 72.5691 49.9109 73.9188 50.8756 74.4636 52.0474 73.7887z" fill="#c0c0f6"/><g opacity=".5"><g opacity=".14"><path opacity=".14" d="M13.7105 108.167 9.3624 110.698C9.22749 110.776 9.07444 110.817 8.91866 110.817 8.76287 110.817 8.60982 110.776 8.47491 110.698L4.08415 108.163C3.94962 108.085 3.83792 107.973 3.76026 107.839 3.68261 107.704 3.64172 107.551 3.64172 107.396 3.64172 107.24 3.68261 107.087 3.76026 106.953 3.83792 106.818 3.94962 106.706 4.08415 106.628L8.43429 104.098C8.56921 104.02 8.72225 103.979 8.87804 103.979 9.03383 103.979 9.18687 104.02 9.32179 104.098L13.7085 106.632C13.8426 106.71 13.9539 106.822 14.0314 106.957 14.1088 107.091 14.1497 107.244 14.1499 107.399 14.1501 107.554 14.1097 107.707 14.0326 107.842 13.9555 107.977 13.8444 108.089 13.7105 108.167z" fill="#fdcde7"/></g><g opacity=".29"><path opacity=".29" d="M13.7125 103.048 9.3624 105.579C9.22749 105.657 9.07444 105.698 8.91866 105.698 8.76287 105.698 8.60983 105.657 8.47491 105.579L4.08415 103.044C3.94962 102.967 3.83792 102.855 3.76026 102.72 3.68261 102.585 3.64172 102.433 3.64172 102.277 3.64172 102.121 3.68261 101.969 3.76026 101.834 3.83792 101.699 3.94962 101.587 4.08415 101.51L8.43632 98.9789C8.57124 98.9009 8.72428 98.8599 8.88007 98.8599 9.03586 98.8599 9.1889 98.9009 9.32382 98.9789l4.38668 2.5351C13.8446 101.592 13.956 101.704 14.0334 101.838 14.1109 101.973 14.1517 102.125 14.1519 102.281 14.1521 102.436 14.1117 102.588 14.0346 102.723 13.9575 102.858 13.8465 102.97 13.7125 103.048z" fill="#fdcde7"/></g><g opacity=".43"><path opacity=".43" d="M13.7125 97.9296 9.3624 100.46C9.22749 100.538 9.07445 100.579 8.91866 100.579 8.76287 100.579 8.60983 100.538 8.47491 100.46L4.08415 97.9256C3.94962 97.8478 3.83792 97.7359 3.76026 97.6012 3.68261 97.4665 3.64172 97.3137 3.64172 97.1582 3.64172 97.0027 3.68261 96.8499 3.76026 96.7152 3.83792 96.5805 3.94962 96.4686 4.08415 96.3908L8.43632 93.86C8.57117 93.7819 8.72424 93.7407 8.88007 93.7407 9.0359 93.7407 9.18897 93.7819 9.32382 93.86L13.7105 96.3949C13.8451 96.4725 13.957 96.5843 14.0348 96.7188 14.1127 96.8534 14.1538 97.0062 14.154 97.1617 14.1542 97.3172 14.1135 97.47 14.036 97.6048 13.9585 97.7396 13.847 97.8516 13.7125 97.9296z" fill="#fdcde7"/></g><g opacity=".57"><path opacity=".57" d="M13.7125 92.8134 9.3624 95.3361C9.22749 95.4141 9.07444 95.4551 8.91866 95.4551 8.76287 95.4551 8.60983 95.4141 8.47491 95.3361L4.08415 92.8094C3.94962 92.7316 3.83792 92.6197 3.76026 92.485 3.68261 92.3503 3.64172 92.1975 3.64172 92.042 3.64172 91.8865 3.68261 91.7337 3.76026 91.599 3.83792 91.4643 3.94962 91.3524 4.08415 91.2746L8.43632 88.7438C8.57117 88.6657 8.72424 88.6245 8.88007 88.6245 9.0359 88.6245 9.18897 88.6657 9.32382 88.7438L13.7105 91.2706C13.8471 91.3476 13.9607 91.4596 14.0399 91.595 14.119 91.7305 14.1609 91.8845 14.1611 92.0414 14.1613 92.1983 14.1199 92.3525 14.0411 92.4881 13.9623 92.6237 13.8489 92.736 13.7125 92.8134z" fill="#fdcde7"/></g><g opacity=".71"><path opacity=".71" d="M13.7125 87.6953 9.3624 90.2261C9.22749 90.304 9.07445 90.3451 8.91866 90.3451 8.76287 90.3451 8.60983 90.304 8.47491 90.2261L4.08415 87.6912C3.94962 87.6134 3.83792 87.5015 3.76026 87.3668 3.68261 87.2321 3.64172 87.0794 3.64172 86.9238 3.64172 86.7683 3.68261 86.6155 3.76026 86.4808 3.83792 86.3462 3.94962 86.2343 4.08415 86.1565L8.43632 83.6257C8.57117 83.5475 8.72424 83.5063 8.88007 83.5063 9.0359 83.5063 9.18897 83.5475 9.32382 83.6257L13.7105 86.1605C13.8451 86.2382 13.957 86.3499 14.0348 86.4845 14.1127 86.6191 14.1538 86.7718 14.154 86.9273 14.1542 87.0828 14.1135 87.2357 14.036 87.3705 13.9585 87.5053 13.847 87.6173 13.7125 87.6953z" fill="#fdcde7"/></g><g opacity=".86"><path opacity=".86" d="M13.7125 82.5766 9.3624 85.1074C9.22749 85.1854 9.07445 85.2264 8.91866 85.2264 8.76287 85.2264 8.60983 85.1854 8.47491 85.1074L4.08415 82.5725C3.94962 82.4947 3.83792 82.3829 3.76026 82.2482 3.68261 82.1135 3.64172 81.9607 3.64172 81.8052 3.64172 81.6497 3.68261 81.4969 3.76026 81.3622 3.83792 81.2275 3.94962 81.1156 4.08415 81.0378L8.43632 78.507C8.57117 78.4289 8.72424 78.3877 8.88007 78.3877 9.0359 78.3877 9.18897 78.4289 9.32382 78.507L13.7105 81.0419C13.8451 81.1195 13.957 81.2312 14.0348 81.3658 14.1127 81.5004 14.1538 81.6531 14.154 81.8087 14.1542 81.9642 14.1135 82.117 14.036 82.2518 13.9585 82.3866 13.847 82.4986 13.7125 82.5766z" fill="#fdcde7"/></g><path opacity=".5" d="M13.7125 77.458 9.3624 79.9888C9.22749 80.0668 9.07445 80.1078 8.91866 80.1078 8.76287 80.1078 8.60983 80.0668 8.47491 79.9888L4.08415 77.4479C3.94962 77.3701 3.83792 77.2582 3.76026 77.1235 3.68261 76.9888 3.64172 76.836 3.64172 76.6805 3.64172 76.525 3.68261 76.3722 3.76026 76.2375 3.83792 76.1028 3.94962 75.9909 4.08415 75.9131L8.43429 73.3823C8.56907 73.304 8.72217 73.2627 8.87804 73.2627 9.03391 73.2627 9.18701 73.304 9.32179 73.3823L13.7085 75.9172C13.8447 75.9942 13.958 76.106 14.037 76.2411 14.116 76.3762 14.1578 76.5299 14.1583 76.6864 14.1587 76.843 14.1176 76.9969 14.0394 77.1324 13.9611 77.2679 13.8483 77.3803 13.7125 77.458z" fill="#fdcde7"/></g><path d="M13.7125 77.458 9.3624 79.9888C9.22749 80.0668 9.07445 80.1078 8.91866 80.1078 8.76287 80.1078 8.60983 80.0668 8.47491 79.9888L4.08415 77.4479C3.94962 77.3701 3.83792 77.2582 3.76026 77.1235 3.68261 76.9888 3.64172 76.836 3.64172 76.6805 3.64172 76.525 3.68261 76.3722 3.76026 76.2375 3.83792 76.1028 3.94962 75.9909 4.08415 75.9131L8.43429 73.3823C8.56907 73.304 8.72217 73.2627 8.87804 73.2627 9.03391 73.2627 9.18701 73.304 9.32179 73.3823L13.7085 75.9172C13.8447 75.9942 13.958 76.106 14.037 76.2411 14.116 76.3762 14.1578 76.5299 14.1583 76.6864 14.1587 76.843 14.1176 76.9969 14.0394 77.1324 13.9611 77.2679 13.8483 77.3803 13.7125 77.458z" fill="#fdcde7"/><g opacity=".5"><g opacity=".14"><path opacity=".14" d="M138.171 23.8259 134.312 26.0619C134.192 26.1311 134.057 26.1676 133.918 26.1676 133.78 26.1676 133.644 26.1311 133.524 26.0619L129.633 23.8137C129.514 23.7446 129.415 23.6453 129.346 23.5258 129.277 23.4062 129.241 23.2707 129.241 23.1327 129.241 22.9947 129.277 22.8591 129.346 22.7396 129.415 22.6201 129.514 22.5208 129.633 22.4517L133.492 20.2157C133.611 20.1461 133.747 20.1094 133.886 20.1094 134.024 20.1094 134.16 20.1461 134.28 20.2157L138.173 22.4639C138.292 22.5332 138.391 22.6326 138.46 22.7522 138.528 22.8719 138.565 23.0075 138.564 23.1455 138.564 23.2835 138.528 23.419 138.459 23.5384 138.39 23.6578 138.29 23.7569 138.171 23.8259z" fill="#ffdf75"/></g><g opacity=".29"><path opacity=".29" d="M138.171 20.4738 134.312 22.7098C134.192 22.7791 134.057 22.8155 133.918 22.8155 133.78 22.8155 133.644 22.7791 133.524 22.7098L129.633 20.4616C129.514 20.3925 129.415 20.2932 129.346 20.1737 129.277 20.0542 129.241 19.9186 129.241 19.7806 129.241 19.6426 129.277 19.5071 129.346 19.3876 129.415 19.268 129.514 19.1687 129.633 19.0997L133.492 16.8636C133.611 16.794 133.747 16.7573 133.886 16.7573 134.024 16.7573 134.16 16.794 134.28 16.8636L138.167 19.1078C138.287 19.1762 138.388 19.2754 138.457 19.3951 138.527 19.5148 138.564 19.6509 138.565 19.7896 138.565 19.9283 138.529 20.0646 138.46 20.1848 138.391 20.3049 138.291 20.4046 138.171 20.4738z" fill="#ffdf75"/></g><g opacity=".43"><path opacity=".43" d="M138.171 17.1218 134.312 19.3579C134.192 19.4271 134.057 19.4635 133.918 19.4635 133.78 19.4635 133.644 19.4271 133.524 19.3579L129.633 17.1198C129.514 17.0507 129.415 16.9514 129.346 16.8319 129.277 16.7124 129.241 16.5768 129.241 16.4388 129.241 16.3008 129.277 16.1653 129.346 16.0458 129.415 15.9262 129.514 15.8269 129.633 15.7579L133.492 13.5218C133.611 13.4522 133.747 13.4155 133.886 13.4155 134.024 13.4155 134.16 13.4522 134.28 13.5218L138.173 15.7701C138.29 15.84 138.386 15.9391 138.454 16.0577 138.521 16.1762 138.556 16.3102 138.556 16.4465 138.555 16.5828 138.52 16.7167 138.452 16.8351 138.385 16.9535 138.288 17.0523 138.171 17.1218z" fill="#ffdf75"/></g><g opacity=".57"><path opacity=".57" d="M138.171 13.7718 134.312 16.0079C134.192 16.0771 134.057 16.1135 133.918 16.1135 133.78 16.1135 133.644 16.0771 133.524 16.0079L129.633 13.7678C129.514 13.6987 129.415 13.5994 129.346 13.4799 129.277 13.3603 129.241 13.2248 129.241 13.0868 129.241 12.9488 129.277 12.8132 129.346 12.6937 129.415 12.5742 129.514 12.4749 129.633 12.4058L133.492 10.1698C133.611 10.1002 133.747 10.0635 133.886 10.0635 134.024 10.0635 134.16 10.1002 134.28 10.1698L138.167 12.3997C138.289 12.4677 138.39 12.567 138.461 12.6874 138.532 12.8078 138.57 12.9449 138.57 13.0846 138.571 13.2243 138.534 13.3616 138.464 13.4824 138.393 13.6032 138.292 13.7031 138.171 13.7718z" fill="#ffdf75"/></g><g opacity=".71"><path opacity=".71" d="M138.171 10.4199 134.312 12.656C134.192 12.7252 134.057 12.7616 133.918 12.7616 133.78 12.7616 133.644 12.7252 133.524 12.656L129.633 10.4159C129.514 10.3468 129.415 10.2475 129.346 10.128 129.277 10.0085 129.241 9.87289 129.241 9.73491 129.241 9.59692 129.277 9.46136 129.346 9.34183 129.415 9.22231 129.514 9.12302 129.633 9.05393L133.492 6.8179C133.611 6.74847 133.747 6.71191 133.886 6.71191 134.024 6.71191 134.16 6.74847 134.28 6.8179L138.173 9.06613C138.29 9.13591 138.387 9.23509 138.455 9.35388 138.522 9.47267 138.558 9.60699 138.557 9.74362 138.557 9.88024 138.521 10.0145 138.454 10.133 138.386 10.2516 138.288 10.3505 138.171 10.4199z" fill="#ffdf75"/></g><g opacity=".86"><path opacity=".86" d="M138.171 7.06789 134.312 9.30393C134.192 9.37315 134.057 9.40959 133.918 9.40959 133.78 9.40959 133.644 9.37315 133.524 9.30393L129.633 7.06383C129.514 6.99474 129.415 6.89545 129.346 6.77592 129.277 6.6564 129.241 6.52084 129.241 6.38285 129.241 6.24487 129.277 6.10931 129.346 5.98978 129.415 5.87026 129.514 5.77097 129.633 5.70188L133.492 3.46585C133.611 3.39642 133.747 3.35986 133.886 3.35986 134.024 3.35986 134.16 3.39642 134.28 3.46585L138.173 5.71408C138.29 5.78386 138.387 5.88303 138.455 6.00183 138.522 6.12062 138.558 6.25494 138.557 6.39156 138.557 6.52819 138.521 6.6624 138.454 6.78099 138.386 6.89958 138.288 6.99846 138.171 7.06789z" fill="#ffdf75"/></g><path opacity=".5" d="M138.171 3.71584 134.312 5.95188C134.192 6.0209 134.056 6.05723 133.918 6.05723 133.78 6.05723 133.644 6.0209 133.524 5.95188L129.633 3.71178C129.514 3.64269 129.415 3.5434 129.346 3.42388 129.277 3.30435 129.241 3.16879 129.241 3.0308 129.241 2.89282 129.277 2.75726 129.346 2.63773 129.415 2.51821 129.514 2.41892 129.633 2.34983L133.492.113795C133.611.0443717 133.747.0078125 133.886.0078125 134.024.0078125 134.16.0443717 134.28.113795L138.173 2.36203C138.29 2.43181 138.387 2.53098 138.455 2.64978 138.522 2.76857 138.558 2.90289 138.557 3.03951 138.557 3.17614 138.521 3.31035 138.454 3.42894 138.386 3.54753 138.288 3.64641 138.171 3.71584z" fill="#ffdf75"/></g><path d="M138.171 3.71772 134.312 5.95375C134.192 6.02317 134.057 6.05973 133.918 6.05973 133.78 6.05973 133.644 6.02317 133.524 5.95375L129.633 3.71568C129.514 3.6466 129.415 3.54731 129.346 3.42778 129.277 3.30826 129.241 3.1727 129.241 3.03471 129.241 2.89672 129.277 2.76116 129.346 2.64164 129.415 2.52211 129.514 2.42282 129.633 2.35374L133.492.117701C133.611.048278 133.747.0117188 133.886.0117188 134.024.0117188 134.16.048278 134.28.117701L138.167 2.3578C138.286 2.42667 138.385 2.5256 138.454 2.64471 138.523 2.76382 138.559 2.89895 138.56 3.03659 138.56 3.17423 138.524 3.30958 138.456 3.4291 138.388 3.54862 138.29 3.64814 138.171 3.71772z" fill="#f5e981"/><g opacity=".5"><path opacity=".5" d="M103.282 71.939 103.288 73.5347 86.0037 83.5216 85.9976 81.9259 103.282 71.939z" fill="#ff61cb"/></g><g opacity=".6"><path opacity=".6" d="M139.525 55.3906 139.556 66.7863 114.99 80.9851 114.956 69.5874 139.525 55.3906z" fill="#ff61cb"/></g><g opacity=".5"><path opacity=".5" d="M112.448 68.2417 141.392 51.5161 141.463 76.8382 112.511 93.5576 112.448 68.2417zM139.554 66.7882 139.521 55.3906 114.948 69.5894 114.98 80.985 139.554 66.7882z" fill="#ff61cb"/></g><g opacity=".5"><path opacity=".5" d="M141.38 46.9648 141.382 48.8817 112.44 65.6093 112.436 63.6904 141.38 46.9648z" fill="#ff61cb"/></g><g opacity=".5"><path opacity=".5" d="M103.321 86.3066 103.353 97.6088 86.0707 107.596 86.0382 96.2956 103.321 86.3066z" fill="#ff61cb"/></g><g opacity=".6"><path opacity=".6" d="M84.0947 72.153 106.17 59.3975 106.278 98.2984 84.2044 111.052 84.0947 72.153zM103.354 97.6092 103.321 86.3071 86.0383 96.2941 86.0708 107.594 103.354 97.6072V97.6092zM103.262 65.634V64.0342L85.9794 74.0232V75.6209L103.26 65.634H103.262zM103.287 73.5333V71.9375L85.9977 81.9204V83.5182L103.282 73.5292 103.287 73.5333zM103.287 77.1272V75.5315L85.9997 85.5204V87.1161L103.284 77.1272H103.287zM103.264 69.2238V67.6261l-17.2765 9.991V79.2128L103.27 69.2258 103.264 69.2238z" fill="#ff61cb"/></g><g opacity=".7"><path opacity=".7" d="M81.7834 65.5584 144.042 29.5786 144.178 78.4644 81.9215 114.444 81.7834 65.5584zM106.278 98.298 106.17 59.3972 84.0946 72.1527 84.2043 111.054 106.278 98.298zM141.463 76.8382 141.392 51.5202 112.448 68.2417 112.511 93.5577 141.463 76.8382zM141.349 36.9067 141.335 32.5993 83.2518 66.1703 83.2619 70.4797 141.349 36.9067zM141.359 40.9722V39.0553L112.413 55.787V57.7018L141.353 40.9783 141.359 40.9722zM141.369 44.5641V42.6472L112.419 59.3809V61.2957L141.369 44.5702V44.5641zM141.38 48.8756V46.9567L112.433 63.6903V65.6072L141.376 48.8817 141.38 48.8756z" fill="#ff61cb"/></g><g opacity=".5"><path opacity=".5" d="M141.365 42.6558 141.369 44.5706 112.429 61.2962 112.419 59.3813 141.365 42.6558z" fill="#ff61cb"/></g><g opacity=".5"><path opacity=".5" d="M84.0865 68.8007 115.632 50.5689 115.628 48.5361 84.0784 66.7639 84.0865 68.8007z" fill="#ff61cb"/></g><g opacity=".5"><path opacity=".5" d="M141.349 36.9065 141.335 32.5991 83.2518 66.1701 83.262 70.4796 141.349 36.9065zM140.194 34.3392V36.3719L127.706 43.5902 127.696 41.5575 140.188 34.3412 140.194 34.3392zM115.62 48.5359V50.5687L84.0784 68.8005V66.7678L115.628 48.538 115.62 48.5359z" fill="#ff61cb"/></g><g opacity=".5"><path opacity=".5" d="M140.192 34.3374 140.2 36.3722 127.712 43.5905 127.702 41.5557 140.192 34.3374z" fill="#ff61cb"/></g><g opacity=".5"><path opacity=".5" d="M141.355 39.0615 141.359 40.9784 112.419 57.704 112.413 55.7871 141.355 39.0615z" fill="#ff61cb"/></g><g opacity=".5"><path opacity=".5" d="M103.295 75.5312 103.299 77.129 86.0139 87.1159 86.0057 85.5202 103.295 75.5312z" fill="#ff61cb"/></g><g opacity=".5"><path opacity=".5" d="M103.268 67.6279 103.274 69.2257 85.9915 79.2126 85.9874 77.6169 103.268 67.6279z" fill="#ff61cb"/></g><g opacity=".5"><path opacity=".5" d="M103.258 64.0342 103.262 65.634 85.9814 75.6209 85.9773 74.0232 103.258 64.0342z" fill="#ff61cb"/></g><g opacity=".5"><path opacity=".5" d="M69.1453 42.5737 69.1473 44.3158 50.2865 55.2155 50.2825 53.4734 69.1453 42.5737z" fill="#ff61cb"/><path opacity=".5" d="M69.188 58.2563 69.2225 70.5911 50.3577 81.4908 50.3252 69.158 69.188 58.2563z" fill="#ff61cb"/><g opacity=".6"><path opacity=".6" d="M48.2008 42.8076 72.2992 28.8853 72.415 71.3496 48.3206 85.2618 48.2008 42.8076zM69.2224 70.5914 69.1879 58.2566 50.3251 69.1583 50.3576 81.491 69.2224 70.5914zM69.1249 35.693V33.9468L50.2621 44.8465V46.5926L69.127 35.693H69.1249zM69.1493 44.3159V42.5738L50.2885 53.4735V55.2176L69.1473 44.3139 69.1493 44.3159zM69.1615 48.2371V46.4971L50.2987 57.3967V59.1388L69.1595 48.2371H69.1615zM69.1392 39.6121V37.87L50.2784 48.7717V50.5118L69.1432 39.6121H69.1392z" fill="#ff61cb"/></g><path opacity=".5" d="M74.7201 25.1246 47.2829 40.9801 47.2707 36.2763 74.7221 20.4208V18.8271L45.6805 35.6096 45.8329 88.9654 74.7221 72.2704 74.7201 25.1246zM48.2009 42.8096 72.2993 28.8852 72.415 71.3496 48.3207 85.2617 48.2009 42.8096z" fill="#ff61cb"/><path opacity=".5" d="M74.72 21.5918 48.1846 36.9269 48.1907 39.1487 74.72 23.8177V21.5918z" fill="#ff61cb"/><path opacity=".5" d="M74.7201 23.818 48.1907 39.149 48.1846 36.9272 74.7201 21.5921V20.4131L47.2708 36.2767 47.2829 40.9805 74.7201 25.125V23.818z" fill="#ff61cb"/><path opacity=".5" d="M69.1554 46.4971 69.1595 48.2371 50.2987 59.1388 50.2926 57.3967 69.1554 46.4971z" fill="#ff61cb"/><path opacity=".5" d="M69.1291 37.8677 69.1372 39.6118 50.2724 50.5114 50.2683 48.7694 69.1291 37.8677z" fill="#ff61cb"/><path opacity=".5" d="M69.1148 33.9468 69.125 35.6929 50.2601 46.5926 50.254 44.8464 69.1148 33.9468z" fill="#ff61cb"/></g><g opacity=".5"><path opacity=".5" d="M67.748 104.148 67.7785 115.544 43.211 129.741 43.1785 118.345 67.748 104.148z" fill="#ff61cb"/><g opacity=".6"><path opacity=".6" d="M40.6683 116.999 69.6124 100.274 69.6815 125.592 40.7414 142.315 40.6683 116.999zM67.7765 115.546 67.746 104.15 43.1724 118.347 43.2049 129.743 67.7785 115.546H67.7765z" fill="#ff61cb"/></g><path opacity=".5" d="M69.6002 95.7222 69.6042 97.6391 40.6622 114.367 40.6541 112.448 69.6002 95.7222z" fill="#ff61cb"/><g opacity=".7"><path opacity=".7" d="M39.1287 98.9384 69.5594 81.355 69.5736 85.6644 39.1287 103.264V146.454L72.4006 127.228 72.2645 78.3384 39.1287 97.487V98.9384zM69.6832 125.592l-28.942 16.723L40.6701 116.997 69.6142 100.272 69.6832 125.592zM69.604 97.6394 40.662 114.367V112.448L69.602 95.7225 69.604 97.6394zM69.5939 93.3279 40.6498 110.056V108.139L69.5878 91.4131 69.5939 93.3279zM69.5837 89.734 40.6396 106.462V104.545L69.5797 87.8151 69.5837 89.734z" fill="#ff61cb"/></g><path opacity=".5" d="M69.5881 91.4131 69.5942 93.33 40.6501 110.056 40.642 108.139 69.5881 91.4131z" fill="#ff61cb"/><path opacity=".5" d="M69.5575 81.355 39.1268 98.9383V103.264L69.5717 85.6726 69.5575 81.355zM55.9303 92.3481V90.3154L68.4202 83.0991V85.1318L55.9303 92.3481z" fill="#ff61cb"/><path opacity=".5" d="M68.4162 83.0952 68.4223 85.13 55.9324 92.3483 55.9263 90.3135 68.4162 83.0952z" fill="#ff61cb"/><path opacity=".5" d="M69.5798 87.8193 69.5839 89.7362 40.6398 106.462 40.6357 104.545 69.5798 87.8193z" fill="#ff61cb"/></g><g opacity=".7"><g opacity=".14"><path opacity=".14" d="M170.649 103.697 167.714 105.463C167.622 105.518 167.518 105.548 167.411 105.55 167.304 105.552 167.198 105.526 167.105 105.474L164.095 103.792C164.004 103.74 163.928 103.664 163.875 103.574 163.822 103.483 163.793 103.38 163.791 103.275 163.789 103.17 163.814 103.066 163.864 102.974 163.915 102.881 163.988 102.803 164.077 102.748L167.011 100.981C167.104 100.928 167.209 100.899 167.316 100.899 167.423 100.899 167.528 100.928 167.621 100.981L170.632 102.654C170.723 102.707 170.798 102.782 170.851 102.873 170.904 102.963 170.932 103.066 170.934 103.171 170.936 103.276 170.91 103.379 170.86 103.471 170.81 103.563 170.737 103.641 170.649 103.697z" fill="#a8fefd"/></g><g opacity=".29"><path opacity=".29" d="M170.594 98.7921 167.659 100.559C167.568 100.614 167.463 100.644 167.356 100.645 167.249 100.647 167.143 100.621 167.05 100.569L164.038 98.8876C163.947 98.835 163.871 98.7597 163.818 98.6691 163.765 98.5784 163.736 98.4755 163.734 98.3704 163.732 98.2652 163.757 98.1614 163.808 98.069 163.858 97.9765 163.931 97.8986 164.02 97.8428L166.955 96.0763C167.047 96.0228 167.152 95.9946 167.259 95.9946 167.366 95.9946 167.471 96.0228 167.564 96.0763L170.576 97.7574C170.664 97.8107 170.738 97.8856 170.79 97.9752 170.842 98.0648 170.87 98.1662 170.871 98.2697 170.873 98.3732 170.849 98.4755 170.8 98.5669 170.752 98.6583 170.681 98.7358 170.594 98.7921z" fill="#a7fdfc"/></g><g opacity=".43"><path opacity=".43" d="M170.533 93.899 167.598 95.6655C167.506 95.7206 167.402 95.7505 167.295 95.7523 167.188 95.7541 167.082 95.7276 166.989 95.6757L163.977 93.9946C163.886 93.9419 163.81 93.8666 163.757 93.776 163.704 93.6854 163.675 93.5825 163.673 93.4773 163.671 93.3722 163.696 93.2683 163.747 93.1759 163.797 93.0834 163.87 93.0055 163.959 92.9497L166.893 91.1833C166.986 91.1297 167.091 91.1016 167.198 91.1016 167.305 91.1016 167.41 91.1297 167.503 91.1833L170.515 92.8644C170.603 92.9176 170.677 92.9925 170.729 93.0822 170.78 93.1718 170.809 93.2731 170.81 93.3766 170.812 93.4801 170.788 93.5824 170.739 93.6738 170.691 93.7652 170.62 93.8427 170.533 93.899z" fill="#a6fcfb"/></g><g opacity=".57"><path opacity=".57" d="M170.474 88.9981 167.548 90.7666C167.456 90.8217 167.351 90.8516 167.244 90.8534 167.137 90.8552 167.032 90.8287 166.938 90.7767L163.926 89.0956C163.836 89.043 163.76 88.9677 163.706 88.8771 163.653 88.7864 163.624 88.6836 163.622 88.5784 163.62 88.4732 163.646 88.3694 163.696 88.277 163.746 88.1845 163.819 88.1066 163.908 88.0508L166.843 86.2843C166.935 86.2308 167.041 86.2026 167.147 86.2026 167.254 86.2026 167.359 86.2308 167.452 86.2843L170.464 87.9654C170.552 88.0195 170.624 88.0949 170.675 88.1847 170.726 88.2745 170.753 88.3758 170.754 88.4789 170.755 88.5821 170.73 88.6839 170.681 88.7747 170.632 88.8655 170.561 88.9423 170.474 88.9981z" fill="#a4faf9"/></g><g opacity=".71"><path opacity=".71" d="M170.417 84.0992 167.482 85.8657C167.391 85.9208 167.286 85.9507 167.179 85.9525 167.072 85.9543 166.967 85.9279 166.873 85.8759L163.861 84.1948C163.77 84.1421 163.695 84.0668 163.641 83.9762 163.588 83.8856 163.559 83.7827 163.557 83.6775 163.555 83.5724 163.581 83.4685 163.631 83.3761 163.681 83.2836 163.754 83.2057 163.843 83.1499L166.778 81.3835C166.87 81.3299 166.975 81.3018 167.082 81.3018 167.189 81.3018 167.294 81.3299 167.387 81.3835L170.391 83.0564C170.482 83.1085 170.558 83.1831 170.611 83.2732 170.665 83.3632 170.695 83.4656 170.697 83.5704 170.7 83.6752 170.676 83.779 170.627 83.8716 170.577 83.9642 170.505 84.0426 170.417 84.0992z" fill="#a3f9f8"/></g><g opacity=".86"><path opacity=".86" d="M170.358 79.2003 167.424 80.9668C167.332 81.0218 167.227 81.0518 167.12 81.0536 167.013 81.0553 166.908 81.0289 166.814 80.9769L163.803 79.2958C163.712 79.2432 163.636 79.1679 163.583 79.0773 163.529 78.9866 163.5 78.8837 163.498 78.7786 163.497 78.6734 163.522 78.5696 163.572 78.4772 163.622 78.3847 163.695 78.3068 163.784 78.251L166.719 76.4845C166.812 76.431 166.917 76.4028 167.024 76.4028 167.13 76.4028 167.236 76.431 167.328 76.4845L170.34 78.1656C170.429 78.2189 170.502 78.2938 170.554 78.3834 170.606 78.4731 170.634 78.5744 170.636 78.6779 170.638 78.7814 170.613 78.8837 170.565 78.9751 170.516 79.0665 170.445 79.144 170.358 79.2003z" fill="#a2f8f7"/></g><path opacity=".7" d="M170.299 74.3013 167.365 76.0678C167.273 76.1228 167.168 76.1528 167.061 76.1546 166.954 76.1564 166.849 76.1299 166.755 76.0779L163.75 74.3989C163.659 74.3462 163.583 74.2709 163.53 74.1803 163.476 74.0897 163.447 73.9868 163.446 73.8816 163.444 73.7765 163.469 73.6726 163.519 73.5802 163.569 73.4877 163.642 73.4098 163.731 73.354L166.666 71.5876C166.759 71.534 166.864 71.5059 166.971 71.5059 167.078 71.5059 167.183 71.534 167.275 71.5876L170.287 73.2687C170.375 73.3225 170.448 73.3978 170.499 73.4875 170.55 73.5773 170.577 73.6784 170.578 73.7816 170.58 73.8848 170.555 73.9866 170.506 74.0775 170.457 74.1684 170.386 74.2454 170.299 74.3013z" fill="#a1f7f6"/></g><g opacity=".8"><path opacity=".8" d="M170.295 74.3013 167.361 76.0678C167.269 76.1228 167.164 76.1528 167.057 76.1546 166.95 76.1564 166.845 76.1299 166.751 76.0779L163.744 74.3989C163.653 74.3461 163.577 74.2706 163.524 74.1799 163.471 74.0891 163.442 73.9862 163.441 73.881 163.439 73.7759 163.464 73.6721 163.515 73.5798 163.565 73.4874 163.638 73.4097 163.727 73.354L166.662 71.5876C166.755 71.534 166.86 71.5059 166.967 71.5059 167.074 71.5059 167.179 71.534 167.271 71.5876L170.283 73.2687C170.371 73.3225 170.444 73.3978 170.495 73.4875 170.546 73.5773 170.573 73.6784 170.574 73.7816 170.576 73.8848 170.551 73.9866 170.502 74.0775 170.453 74.1684 170.382 74.2454 170.295 74.3013z" fill="#a2f8f7"/></g><path d="M88.0691 21.9763V23.1736L86.8506 23.8769V22.6024C86.8506 21.4051 86.4444 20.9213 85.5021 21.462 84.5598 22.0027 84.1536 22.9642 84.1536 24.1615V31.1928C84.1536 32.3901 84.5821 32.8658 85.5021 32.3332 86.4221 31.8006 86.8506 30.833 86.8506 29.6357V27.9058L88.0691 27.2025V28.8572C88.0691 30.8716 87.2568 32.6767 85.4716 33.7012 83.6865 34.7257 82.8904 33.8638 82.8904 31.8494V24.9685C82.8904 22.9561 83.7027 21.1489 85.4716 20.1326 87.2405 19.1162 88.0691 19.9618 88.0691 21.9763z" fill="url(#paint1_linear)"/><path d="M94.2205 18.4027V18.7625L93.002 19.4658V19.0288C93.002 17.8315 92.6059 17.3558 91.686 17.8884 90.766 18.421 90.374 19.352 90.374 20.531 90.374 23.513 94.2327 21.5677 94.2327 25.31 94.2327 27.3244 93.3939 29.1194 91.6352 30.1357 89.8765 31.1521 89.054 30.3167 89.054 28.3063V27.546L90.2542 26.8528V27.6883C90.2542 28.8856 90.6807 29.3409 91.6027 28.8084 92.5247 28.2758 92.9512 27.3265 92.9512 26.1292 92.9512 23.1654 89.1027 25.1128 89.1027 21.3603 89.1027 19.3072 89.915 17.5591 91.6514 16.561 93.3878 15.5629 94.2205 16.3882 94.2205 18.4027z" fill="url(#paint2_linear)"/><path d="M100.34 14.8654V15.2252L99.1211 15.9285V15.4915C99.1211 14.2942 98.7271 13.8206 97.8051 14.3511 96.8831 14.8817 96.4911 15.8147 96.4911 16.9937 96.4911 19.9757 100.35 18.0304 100.35 21.7727 100.35 23.7872 99.511 25.5821 97.7523 26.5985 95.9935 27.6149 95.171 26.7794 95.171 24.769V24.0087L96.3733 23.3156V24.151C96.3733 25.3483 96.7998 25.8057 97.7218 25.2731 98.6438 24.7405 99.0703 23.7912 99.0703 22.5939 99.0703 19.6302 95.2238 21.5776 95.2238 17.8251 95.2238 15.772 96.0362 14.0238 97.7726 13.0258 99.509 12.0277 100.34 12.8509 100.34 14.8654z" fill="url(#paint3_linear)"/><path d="M5.49956 126.974 3.57632 133.825 2.35779 134.528 4.67096 126.328 2.50807 121.138 3.84033 120.37 5.61532 124.665 7.40859 118.306 8.60883 117.613 6.45407 125.301 8.75709 130.83 7.40859 131.609 5.49956 126.974z" fill="url(#paint4_linear)"/><path d="M14.0375 127.761 12.8047 128.471 10.8977 118.99V129.593L9.78076 130.239V116.939L11.572 115.902 13.4627 125.432 15.2905 113.753 17.0838 112.719V126.031L15.8653 126.735V116.026L14.0375 127.761z" fill="url(#paint5_linear)"/><path d="M18.3998 125.259V111.956L19.6833 111.216V123.169L22.9713 121.268V122.618L18.3998 125.259z" fill="url(#paint6_linear)"/><path d="M8.55402 59.5272V65.5137L7.27051 66.2557V52.9533L8.55402 52.2113V58.1958L11.383 56.5696V50.575L12.6665 49.833V63.1374L11.3729 63.8773V57.8929L8.55402 59.5272z" fill="url(#paint7_linear)"/><path d="M15.6602 61.4075V49.4549L13.5399 50.6746V49.3248L19.0619 46.1436V47.4933L16.9416 48.713V60.6656L15.6602 61.4075z" fill="url(#paint8_linear)"/><path d="M24.1958 56.4536 22.9631 57.165 21.0561 47.6842V58.2871L19.9391 58.9335V45.6311L21.7324 44.5944 23.6231 54.124 25.4509 42.4458 27.2442 41.4111V54.7135L26.0256 55.4168V44.7205L24.1958 56.4536z" fill="url(#paint9_linear)"/><path d="M28.5582 53.9538V40.6555L29.8417 39.9155V51.8681L33.1297 49.9675V51.3173L28.5582 53.9538z" fill="url(#paint10_linear)"/><path d="M136.449 112.056 131.351 112.589V111.523L136.449 106.165V107.248L132.553 111.361 136.449 110.973V112.056z" fill="url(#paint11_linear)"/><path d="M143.029 98.6582 138.492 114.581 137.373 115.227 141.91 99.3026 143.029 98.6582z" fill="url(#paint12_linear)"/><path d="M143.953 106.636 147.848 102.522 143.951 102.912V101.829L149.046 101.296V102.362L143.951 107.72 143.953 106.636z" fill="url(#paint13_linear)"/><g opacity=".5"><path opacity=".5" d="M102.204 63.7696C104.625 62.371 106.585 63.489 106.593 66.2739 106.601 69.0588 104.653 72.4332 102.232 73.8337 99.8116 75.2343 97.8416 74.1204 97.8335 71.3375 97.8254 68.5547 99.7832 65.1681 102.204 63.7696z" fill="#b53892"/></g><g opacity=".5"><path opacity=".5" d="M102.208 65.7068C103.778 64.8002 105.051 65.5259 105.051 67.333 105.051 69.1401 103.796 71.3233 102.226 72.2279 100.656 73.1325 99.3831 72.4149 99.3831 70.6017 99.3831 68.7884 100.64 66.6134 102.208 65.7068z" fill="#b53892"/></g><g opacity=".5"><path opacity=".5" d="M102.21 67.595C102.949 67.1681 103.546 67.5096 103.548 68.3593 103.525 68.8213 103.392 69.2711 103.161 69.6718 102.931 70.0726 102.608 70.4127 102.22 70.6645 101.483 71.0914 100.882 70.7519 100.88 69.9042 100.904 69.4416 101.037 68.9912 101.268 68.5899 101.499 68.1886 101.822 67.8477 102.21 67.595z" fill="#b53892"/></g><g opacity=".5"><path opacity=".5" d="M87.7096 81.2759C90.1304 79.8774 92.0902 80.9954 92.0983 83.7783 92.1064 86.5611 90.1588 89.9396 87.738 91.3381 85.3172 92.7367 83.3473 91.6268 83.3391 88.8317 83.331 86.0367 85.2969 82.6745 87.7096 81.2759z" fill="#b53892"/></g><g opacity=".5"><path opacity=".5" d="M87.7117 83.2131C89.2815 82.3065 90.5549 83.0322 90.5549 84.8393 90.5549 86.6465 89.2998 88.8317 87.734 89.7302 86.1682 90.6286 84.8907 89.9172 84.8907 88.104 84.8907 86.2907 86.1458 84.1197 87.7117 83.2131z" fill="#b53892"/></g><g opacity=".5"><path opacity=".5" d="M87.7157 85.1018C88.4549 84.675 89.052 85.0165 89.054 85.8662 89.0311 86.3271 88.8995 86.776 88.6701 87.1763 88.4407 87.5766 88.1199 87.9168 87.7339 88.1693 86.9967 88.5962 86.3956 88.2567 86.3936 87.409 86.4171 86.9475 86.549 86.498 86.7788 86.0971 87.0085 85.6962 87.3295 85.3552 87.7157 85.1018z" fill="#b53892"/></g><path d="M112.025 152.678C112.025 152.678 113.376 154.843 111.501 155.362 109.627 155.88 110.189 154.705 106.109 155.736 102.029 156.766 102.505 154.469 102.6 153.998 102.695 153.526 104.466 152.871 105.36 152.638 106.254 152.404 109.816 151.579 109.816 151.579L111.991 151.985 112.025 152.678z" fill="#111114"/><path d="M106.148 73.8743C106.148 73.8743 105.831 71.0285 105.526 70.4898 105.222 69.9511 104.001 67.6439 101.916 67.278 100.786 67.0748 101.42 68.27 102.462 69.6055 102.943 70.2154 103.422 70.5569 103.274 71.8416 103.161 72.7746 103.41 74.2057 103.628 74.8704 103.845 75.5351 106.148 73.8743 106.148 73.8743z" fill="#efb185"/><path d="M103.559 74.7523C103.343 74.0896 103.232 72.6931 102.683 71.9288 102.033 71.01 102.941 70.2091 102.46 69.6054 101.647 68.5687 101.097 67.5726 101.414 67.3145 101.968 68.1499 103.325 67.8857 104.034 70.4002 104.292 71.317 104.44 73.6099 104.322 74.7117 103.794 74.8926 103.642 75.0084 103.559 74.7523z" fill="#e6a376"/><path d="M104.424 74.6385C104.424 74.6385 102.454 72.0874 101.968 71.2255 101.483 70.3636 101.501 69.5607 101.737 69.6318 101.973 69.703 103.542 72.1687 104.231 71.3861 104.602 70.9735 104.227 74.2076 104.424 74.6385z" fill="#efb185"/><path d="M123.943 86.6462C123.943 86.6462 123.701 90.2198 119.192 88.9778 114.684 87.7358 106.564 84.4264 105.524 82.2534 104.485 80.0804 103.431 74.2281 103.431 74.2281 103.431 74.2281 105.622 74.9558 106.442 73.167L110.011 80.4158C110.011 80.4158 124.168 84.1561 123.943 86.6462z" fill="#9dbcc9"/><path d="M123.942 86.6462C124.168 84.1541 110.011 80.4158 110.011 80.4158L106.442 73.167C106.326 73.4403 106.149 73.6831 105.924 73.8767 105.699 74.0702 105.432 74.2092 105.145 74.283 105.518 76.1389 106.256 79.4624 106.985 80.9911 108.02 83.1661 116.142 86.4795 120.652 87.7175 121.962 88.0773 122.903 88.0244 123.591 87.7805 123.779 87.4279 123.898 87.0431 123.942 86.6462z" fill="#cae0ea"/><path d="M116.658 144.529C116.658 144.529 114.962 144.787 115.37 145.763 115.778 146.739 117.73 148.219 117.994 148.837 118.258 149.455 119.844 151.66 120.356 151.455 120.868 151.249 122.202 151.556 122.048 149.04 121.893 146.523 118.91 144.417 116.658 144.529z" fill="#111114"/><path d="M121.853 111.383C121.853 111.383 121.881 125.964 121.881 127.606 121.881 129.249 123.709 142.183 122.61 147.834 122.61 147.834 119.436 151.022 116.627 147.834 116.627 147.834 115.73 131.641 114.915 127.984 114.101 124.327 114.373 113.145 114.373 113.145L121.853 111.383z" fill="#09294f"/><path d="M116.288 113.454C116.288 113.454 115.559 122.868 114.816 132.204 114.816 132.204 114.347 150.733 113.908 153.402 113.908 153.402 107.935 154.884 107.344 152.068 107.344 152.068 107.496 135.764 107.344 132.351 107.192 128.938 106.842 119.436 108.191 113.952 109.54 108.468 116.288 113.454 116.288 113.454z" fill="#09294f"/><path d="M113.908 153.4C114.347 150.733 114.816 132.202 114.816 132.202 115.317 125.917 115.809 119.599 116.075 116.144L112.387 117.048C112.387 117.048 109.73 124.033 110.135 134.508 110.451 142.616 110.581 150.591 110.626 153.788 111.731 153.78 112.832 153.649 113.908 153.4z" fill="#16365c"/><path d="M122.614 147.833C123.719 142.181 121.885 129.245 121.885 127.605 121.885 126.039 121.859 112.745 121.857 111.487L118.654 113.955C118.654 113.955 117.639 124.379 118.654 130.316 119.58 135.719 118.985 146.235 119.434 149.249 121.209 149.249 122.614 147.833 122.614 147.833z" fill="#16365c"/><path d="M122.899 85.3902C122.899 85.3902 125.758 86.8131 124.135 91.6917 122.513 96.5703 121.375 99.7008 121.471 101.516 121.566 103.331 122.23 109.432 122.612 110.663 122.612 110.663 123.087 114.67 113.942 117.056 113.942 117.056 106.412 117.819 107.647 112.859 108.881 107.899 109.363 99.8878 109.172 97.977 108.981 96.0662 107.842 92.2568 112.602 89.6793 117.362 87.1018 119.854 85.1991 122.899 85.3902z" fill="#cae0ea"/><path d="M120.791 85.5972C118.557 86.1501 116.246 87.7173 112.608 89.683 107.84 92.2585 108.989 96.072 109.178 97.9787 109.367 99.8854 108.892 107.899 107.653 112.861 106.658 116.843 111.308 117.129 113.185 117.095 121.591 111.255 120.847 96.1045 120.791 85.5972z" fill="#cae0ea"/><path d="M119.499 83.1824C119.499 83.1824 119.172 85.9205 120.108 87.6342 120.963 89.1892 114.519 90.604 114.369 89.1648 114.353 89.0103 115.587 86.6564 114.03 83.8614 113.215 82.3998 119.499 83.1824 119.499 83.1824z" fill="#efb185"/><path d="M120.076 87.7278C119.379 86.4573 119.379 84.6156 119.43 83.7578L114.722 86.0935c0 0 0 0 0 .012199999999992883C114.889 86.1483 118.069 86.9533 118.754 89.2402 119.729 88.8418 120.389 88.2949 120.076 87.7278z" fill="#dd9569"/><path d="M112.714 75.9111C112.714 75.9111 111.715 78.3992 111.918 80.5357 112.121 82.8388 111.786 83.3063 111.918 84.3288 111.981 84.7638 112.013 85.4265 112.44 85.8391 113.15 86.5262 114.613 86.7762 116.599 86.0526 119.001 85.1724 121.522 81.8712 120.5 78.9034 119.479 75.9355 116.325 73.4942 112.714 75.9111z" fill="#efb185"/><path d="M120.399 82.1235C119.44 79.4524 117.048 76.2488 117.07 76.078 117.084 75.9764 116.296 75.4682 115.39 74.9458 114.428 75.023 113.504 75.3563 112.714 75.9114 112.515 76.4344 112.349 76.9694 112.216 77.5132 112.787 78.1515 113.955 78.8792 114.127 79.426 114.533 80.7046 114.308 82.6418 113.924 83.4915 113.54 84.3412 115.08 85.6015 114.757 86.3597 114.748 86.3931 114.748 86.428 114.757 86.4614 115.391 86.4134 116.015 86.2765 116.611 86.0548 118.14 85.4918 119.722 83.9367 120.399 82.1235z" fill="#e6a376"/><path d="M110.11 73.3417C109.34 72.868 111.656 77.023 113.754 78.0516 115.013 78.6614 114.901 80.6942 114.84 81.0804 114.779 81.4666 114.405 83.1701 114.562 83.3896 114.858 83.8124 115.843 82.4932 116.315 82.5765 117.503 82.8082 117.04 83.9181 115.955 85.087 114.806 86.3249 117.836 86.8351 119.239 85.8106 119.98 85.2679 120.254 84.9406 121.237 82.9912 122.659 80.1453 123.055 75.9416 119.377 74.9191 115.86 73.9495 112.214 74.6386 110.11 73.3417z" fill="#131c24"/><path d="M119.241 85.8209C119.982 85.2782 120.256 84.9509 121.239 83.0015 122.661 80.1556 123.154 76.7589 119.795 74.9375 116.436 73.1161 113.959 75.029 110.11 73.3418 109.907 73.2564 112.63 76.9642 116.743 77.7468 118.508 78.0842 118.695 78.7896 118.617 80.7065 118.544 82.5563 119.024 84.9753 115.922 86.014 117.07 86.8434 118.693 86.2173 119.241 85.8209z" fill="#1d2833"/><path d="M114.73 88.3132 112.533 89.7219C112.533 89.7219 119.162 91.9579 121.063 88.7502 121.333 88.2969 121.008 86.7743 119.868 86.4897 119.881 86.4897 119.655 89.0998 114.73 88.3132z" fill="#9dbcc9"/><path d="M91.5561 88.2444C91.5561 88.2444 89.9314 86.3885 89.9943 85.7543 90.0573 85.1201 89.182 84.8416 89.1942 85.5998 89.2198 86.1253 89.3583 86.6391 89.6003 87.1061 89.6003 87.1061 87.4232 85.1933 87.8335 84.4106 88.2437 83.628 86.0362 85.8112 86.554 87.1345 87.0719 88.4579 87.3968 90.0088 90.9509 90.4906 90.959 90.4886 91.877 89.4275 91.5561 88.2444z" fill="#f1b287"/><path d="M112.88 91.4741C112.88 91.4741 114.259 94.6371 109.848 95.5905 105.437 96.5438 97.8965 97.7879 96.0382 96.4036 94.1799 95.0193 89.515 90.5391 89.515 90.5391 89.515 90.5391 91.6677 89.8805 91.5723 87.9839L98.6804 92.4011C98.6804 92.4011 111.956 89.2381 112.88 91.4741z" fill="#9dbcc9"/><path d="M112.88 91.4741C111.954 89.238 98.6845 92.3908 98.6845 92.3908L91.5764 87.9736C91.5988 88.3438 91.5231 88.7134 91.3571 89.0449 93.5524 90.7301 97.6528 93.8097 98.7616 94.1675 100.124 94.6045 110.612 92.96 113.089 92.5575 113.087 92.1866 113.016 91.8193 112.88 91.4741z" fill="#cae0ea"/><defs><linearGradient id="paint0_linear" x1="33.5725" y1="93.4498" x2="125.521" y2="93.4498" gradientUnits="userSpaceOnUse"><stop stop-color="#fff2c9"/><stop offset="1" stop-color="#ffb7bb"/></linearGradient><linearGradient id="paint1_linear" x1="4649.56" y1="6636.96" x2="-1704.71" y2="5024" gradientUnits="userSpaceOnUse"><stop stop-color="#fff2c9"/><stop offset="1" stop-color="#ffb7bb"/></linearGradient><linearGradient id="paint2_linear" x1="4750.78" y1="6257.72" x2="-1603.23" y2="4644.66" gradientUnits="userSpaceOnUse"><stop stop-color="#fff2c9"/><stop offset="1" stop-color="#ffb7bb"/></linearGradient><linearGradient id="paint3_linear" x1="4851.53" y1="5881.32" x2="-1502.57" y2="4268.08" gradientUnits="userSpaceOnUse"><stop stop-color="#fff2c9"/><stop offset="1" stop-color="#ffb7bb"/></linearGradient><linearGradient id="paint4_linear" x1="3332.55" y1="16512.2" x2="-4466.12" y2="14424.9" gradientUnits="userSpaceOnUse"><stop stop-color="#fff2c9"/><stop offset="1" stop-color="#ffb7bb"/></linearGradient><linearGradient id="paint5_linear" x1="3983.51" y1="16507.9" x2="-4791.49" y2="13920.2" gradientUnits="userSpaceOnUse"><stop stop-color="#fff2c9"/><stop offset="1" stop-color="#ffb7bb"/></linearGradient><linearGradient id="paint6_linear" x1="2582.38" y1="12919.5" x2="-3087.4" y2="11613.6" gradientUnits="userSpaceOnUse"><stop stop-color="#fff2c9"/><stop offset="1" stop-color="#ffb7bb"/></linearGradient><linearGradient id="paint7_linear" x1="3706.31" y1="12133.6" x2="-2979.23" y2="10579.5" gradientUnits="userSpaceOnUse"><stop stop-color="#fff2c9"/><stop offset="1" stop-color="#ffb7bb"/></linearGradient><linearGradient id="paint8_linear" x1="3921.21" y1="10802.7" x2="-2847.77" y2="9070.23" gradientUnits="userSpaceOnUse"><stop stop-color="#fff2c9"/><stop offset="1" stop-color="#ffb7bb"/></linearGradient><linearGradient id="paint9_linear" x1="5324.66" y1="11928.6" x2="-3452.13" y2="9339.96" gradientUnits="userSpaceOnUse"><stop stop-color="#fff2c9"/><stop offset="1" stop-color="#ffb7bb"/></linearGradient><linearGradient id="paint10_linear" x1="3424.87" y1="9231.59" x2="-2244.74" y2="7925.41" gradientUnits="userSpaceOnUse"><stop stop-color="#fff2c9"/><stop offset="1" stop-color="#ffb7bb"/></linearGradient><linearGradient id="paint11_linear" x1="4056.68" y1="4065.68" x2="-1005.28" y2="1223.78" gradientUnits="userSpaceOnUse"><stop stop-color="#fff2c9"/><stop offset="1" stop-color="#ffb7bb"/></linearGradient><linearGradient id="paint12_linear" x1="4583.23" y1="9937.33" x2="-2396.26" y2="8251.78" gradientUnits="userSpaceOnUse"><stop stop-color="#fff2c9"/><stop offset="1" stop-color="#ffb7bb"/></linearGradient><linearGradient id="paint13_linear" x1="4230.76" y1="3770.4" x2="-830.062" y2="930.222" gradientUnits="userSpaceOnUse"><stop stop-color="#fff2c9"/><stop offset="1" stop-color="#ffb7bb"/></linearGradient></defs></svg>