<svg width="383" height="412" viewBox="0 0 383 412" fill="none" xmlns="http://www.w3.org/2000/svg"><path d="M196.774 287.468 183.422 295.209 180.384 293.462 190.954 287.316 187.133 286.529 188.959 284.875 194.166 285.959 196.774 287.468z" fill="#ffd2cd"/><path d="M183.4 279.493C186.998 281.56 185.204 284.218 181.552 286.339 177.422 288.737 172.928 289.426 169.483 287.424 166.037 285.422 167.58 282.748 171.33 280.54 175.194 278.294 179.917 277.48 183.4 279.493zM171.928 286.128C173.14 286.827 175.335 286.328 178.373 284.56 181.411 282.791 182.253 281.576 180.982 280.844 179.835 280.182 177.596 280.562 174.493 282.379 171.39 284.196 170.689 285.411 171.933 286.122L171.928 286.128z" fill="#ffd2cd"/><path d="M171.917 272.869C175.515 274.947 173.732 277.605 170.086 279.732 165.95 282.124 161.44 282.802 157.994 280.817 154.549 278.831 156.098 276.124 159.858 273.954 163.728 271.703 168.466 270.873 171.917 272.869zM160.445 279.504C161.652 280.193 163.847 279.699 166.885 277.931 169.923 276.162 170.765 274.952 169.493 274.215 168.341 273.553 166.102 273.938 163.005 275.75 159.907 277.562 159.201 278.788 160.445 279.498V279.504z" fill="#ffd2cd"/><path d="M231.217 307.317 217.87 315.058 214.827 313.311 225.402 307.176 221.577 306.373 223.408 304.724 228.614 305.814 231.217 307.317z" fill="#ffd2cd"/><path d="M240.804 312.579C244.401 314.651 242.613 317.304 238.956 319.42 234.826 321.817 230.31 322.501 226.886 320.505 223.462 318.508 224.984 315.828 228.728 313.621 232.592 311.385 237.331 310.572 240.804 312.579zM229.332 319.214C230.543 319.913 232.739 319.409 235.771 317.646 238.804 315.883 239.652 314.657 238.38 313.919 237.233 313.262 234.989 313.648 231.897 315.465 228.804 317.282 228.093 318.503 229.332 319.214z" fill="#ffd2cd"/><path d="M206.36 292.724C209.958 294.802 208.165 297.449 204.507 299.57 200.383 301.974 195.867 302.652 192.437 300.655 189.008 298.659 190.541 295.985 194.285 293.771 198.154 291.542 202.882 290.717 206.36 292.724zM194.888 299.359C196.1 300.059 198.29 299.554 201.334 297.791 204.29 296.077 205.214 294.807 203.937 294.075 202.79 293.413 200.546 293.793 197.443 295.61 194.339 297.428 193.638 298.654 194.883 299.359H194.888z" fill="#ffd2cd"/><path d="M217.843 299.343C221.441 301.415 219.647 304.068 215.99 306.194 211.855 308.586 207.36 309.275 203.915 307.279 200.47 305.283 202.018 302.597 205.768 300.39 209.637 298.16 214.365 297.33 217.843 299.343zM206.377 305.961C207.583 306.661 209.779 306.151 212.816 304.399 215.854 302.646 216.691 301.409 215.425 300.683 214.273 300.015 212.034 300.4 208.936 302.218 205.839 304.035 205.132 305.256 206.377 305.961z" fill="#ffd2cd"/><path d="M252.286 319.192C255.884 321.269 254.091 323.928 250.439 326.043 246.309 328.436 241.798 329.114 238.369 327.128 234.94 325.143 236.472 322.452 240.222 320.244 244.086 318.009 248.814 317.19 252.286 319.192zM240.82 325.832C242.037 326.532 244.222 326.027 247.26 324.264 250.297 322.501 251.134 321.275 249.868 320.543 248.716 319.886 246.477 320.26 243.374 322.078 240.271 323.895 239.57 325.121 240.814 325.826L240.82 325.832z" fill="#ffd2cd"/><path d="M288.626 340.409 275.274 348.144 272.236 346.398 282.806 340.262 278.986 339.465 280.822 337.81 286.018 338.895 288.626 340.409z" fill="#ffd2cd"/><path d="M263.764 325.805C267.367 327.883 265.568 330.541 261.922 332.656 257.786 335.054 253.281 335.727 249.846 333.741 246.412 331.756 247.95 329.065 251.699 326.857 255.569 324.628 260.308 323.808 263.764 325.805zM252.303 332.445C253.509 333.145 255.705 332.64 258.737 330.877 261.769 329.114 262.617 327.888 261.346 327.15 260.199 326.499 257.965 326.879 254.868 328.685 251.77 330.492 251.064 331.734 252.303 332.439V332.445z" fill="#ffd2cd"/><path d="M277.143 333.779 263.791 341.531 260.759 339.774 271.334 333.644 267.508 332.846 269.34 331.192 274.54 332.277 277.143 333.779z" fill="#ffd2cd"/><path d="M298.212 345.66C301.815 347.737 300.022 350.385 296.37 352.511 292.235 354.909 287.73 355.582 284.3 353.596 280.871 351.611 282.398 348.915 286.143 346.707 290.012 344.477 294.734 343.658 298.212 345.66zM286.73 352.283C287.952 352.989 290.148 352.49 293.186 350.726 296.142 349.018 297.066 347.743 295.789 347.01 294.642 346.354 292.398 346.734 289.311 348.546 286.224 350.358 285.507 351.594 286.73 352.283z" fill="#ffd2cd"/><path d="M172.113 301.773 158.766 309.519 155.717 307.762 166.293 301.626 162.472 300.829 164.304 299.174 169.504 300.27 172.113 301.773z" fill="#ffd2cd"/><path d="M183.59 308.391 170.243 316.138 167.2 314.385 177.775 308.245 173.95 307.447 175.781 305.792 180.987 306.883 183.59 308.391z" fill="#ffd2cd"/><path d="M195.073 315.004 181.721 322.751 178.683 320.993 189.258 314.863 185.433 314.071 187.264 312.411 192.465 313.507 195.073 315.004z" fill="#ffd2cd"/><path d="M204.659 320.261C208.257 322.339 206.464 324.997 202.806 327.118 198.682 329.51 194.16 330.188 190.736 328.203 187.313 326.217 188.84 323.521 192.584 321.313 196.459 319.084 201.187 318.259 204.659 320.261zM193.193 326.901C194.405 327.601 196.595 327.096 199.633 325.338 202.67 323.581 203.513 322.349 202.241 321.612 201.089 320.955 198.85 321.335 195.752 323.147 192.655 324.959 191.948 326.196 193.193 326.895V326.901z" fill="#ffd2cd"/><path d="M250.58 346.734C254.183 348.811 252.39 351.459 248.738 353.585 244.602 355.983 240.092 356.656 236.662 354.67 233.233 352.685 234.76 349.994 238.505 347.781 242.374 345.562 247.107 344.732 250.58 346.734zM239.113 353.374C240.325 354.074 242.521 353.569 245.548 351.806 248.575 350.043 249.428 348.817 248.162 348.085 247.01 347.434 244.771 347.813 241.673 349.625 238.575 351.437 237.869 352.674 239.113 353.379V353.374z" fill="#ffd2cd"/><path d="M240.999 341.483 227.652 349.218 224.615 347.466 235.184 341.336 231.359 340.539 233.19 338.884 238.391 339.974 240.999 341.483z" fill="#ffd2cd"/><path d="M227.62 333.497C231.217 335.575 229.424 338.233 225.772 340.349 221.642 342.747 217.126 343.425 213.702 341.434 210.279 339.443 211.806 336.752 215.55 334.544 219.419 332.325 224.147 331.495 227.62 333.497zM216.153 340.137C217.365 340.842 219.561 340.338 222.593 338.58 225.625 336.823 226.473 335.591 225.201 334.859 224.055 334.197 221.81 334.577 218.718 336.405 215.626 338.233 214.914 339.443 216.153 340.143V340.137z" fill="#ffd2cd"/><path d="M216.142 326.879C219.74 328.957 217.952 331.615 214.295 333.73 210.159 336.128 205.649 336.801 202.219 334.815 198.79 332.83 200.323 330.134 204.073 327.926 207.942 325.702 212.664 324.883 216.142 326.879zM204.676 333.513C205.882 334.213 208.078 333.709 211.116 331.951 214.072 330.237 214.996 328.962 213.719 328.224 212.572 327.568 210.333 327.948 207.235 329.77 204.138 331.593 203.431 332.814 204.676 333.513z" fill="#ffd2cd"/><path d="M273.551 359.97C277.149 362.048 275.361 364.706 271.709 366.822 267.573 369.214 263.063 369.892 259.634 367.907 256.205 365.921 257.732 363.225 261.476 361.017 265.345 358.793 270.09 357.969 273.551 359.97zM262.068 366.594C263.297 367.299 265.492 366.8 268.524 365.037 271.557 363.274 272.405 362.053 271.128 361.321 269.992 360.654 267.742 361.05 264.644 362.856 261.547 364.663 260.84 365.905 262.068 366.594z" fill="#ffd2cd"/><path d="M262.063 353.347C265.666 355.424 263.873 358.082 260.215 360.198 256.085 362.596 251.575 363.274 248.145 361.283 244.716 359.292 246.249 356.607 249.993 354.394 253.868 352.175 258.59 351.35 262.063 353.347zM250.58 359.976C251.808 360.692 253.998 360.187 257.036 358.43 259.992 356.71 260.911 355.435 259.65 354.703 258.498 354.036 256.259 354.426 253.161 356.238 250.064 358.05 249.357 359.276 250.58 359.976z" fill="#ffd2cd"/><path d="M225.924 361.045C229.522 363.117 227.728 365.77 224.076 367.896 219.946 370.294 215.43 370.967 212.007 368.981 208.583 366.996 210.11 364.305 213.854 362.092 217.718 359.862 222.452 359.037 225.924 361.045zM214.452 367.679C215.664 368.368 217.859 367.874 220.892 366.111 223.924 364.348 224.772 363.122 223.5 362.39 222.354 361.734 220.109 362.113 217.012 363.925 213.914 365.737 213.208 366.963 214.447 367.679H214.452z" fill="#ffd2cd"/><path d="M248.895 374.276C252.493 376.353 250.7 379.006 247.053 381.133 242.918 383.525 238.402 384.203 234.978 382.218 231.554 380.232 233.081 377.541 236.826 375.334 240.684 373.099 245.412 372.279 248.895 374.276zM237.412 380.899C238.635 381.61 240.831 381.111 243.869 379.342 246.825 377.628 247.743 376.359 246.483 375.626 245.33 374.975 243.086 375.35 239.994 377.162 236.902 378.974 236.19 380.2 237.412 380.899z" fill="#ffd2cd"/><path d="M237.407 367.657C241.005 369.735 239.211 372.382 235.554 374.503 231.429 376.907 226.913 377.585 223.479 375.588 220.044 373.592 221.588 370.912 225.332 368.704 229.201 366.485 233.924 365.634 237.407 367.657zM225.919 374.281C227.147 374.992 229.342 374.493 232.375 372.729 235.407 370.966 236.255 369.74 234.983 369.008 233.831 368.352 231.592 368.731 228.489 370.543 225.386 372.355 224.685 373.592 225.913 374.281H225.919z" fill="#ffd2cd"/><path d="M214.441 354.426C218.039 356.504 216.251 359.162 212.594 361.278 208.464 363.67 203.948 364.354 200.524 362.363 197.1 360.372 198.622 357.687 202.366 355.473 206.235 353.249 210.963 352.424 214.441 354.426zM202.975 361.066C204.187 361.755 206.377 361.256 209.415 359.498 212.452 357.741 213.3 356.509 212.023 355.777 210.876 355.115 208.632 355.495 205.54 357.323 202.448 359.151 201.736 360.361 202.98 361.066H202.975z" fill="#ffd2cd"/><path d="M204.85 349.164 191.508 356.911 188.465 355.159 199.04 349.023 195.22 348.226 197.046 346.571 202.247 347.661 204.85 349.164z" fill="#ffd2cd"/><path d="M193.372 342.551 180.02 350.298 176.982 348.54 187.552 342.41 183.737 341.613 185.563 339.958 190.764 341.049 193.372 342.551z" fill="#ffd2cd"/><path d="M181.889 335.933 168.542 343.674 165.505 341.922 176.074 335.786 172.249 334.994 174.08 333.34 179.286 334.436 181.889 335.933z" fill="#ffd2cd"/><path d="M143.854 342.264C147.451 344.336 145.658 346.989 142.001 349.115 137.871 351.513 133.376 352.207 129.931 350.2 126.486 348.193 128.034 345.524 131.779 343.311 135.648 341.081 140.376 340.262 143.854 342.264zM132.382 348.898C133.594 349.598 135.784 349.094 138.822 347.33 141.859 345.567 142.702 344.341 141.43 343.609 140.283 342.953 138.045 343.332 134.941 345.155 131.838 346.978 131.137 348.193 132.382 348.898z" fill="#ffd2cd"/><path d="M132.371 335.645C135.969 337.723 134.181 340.381 130.518 342.497 126.393 344.889 121.877 345.567 118.454 343.582 115.03 341.596 116.552 338.906 120.296 336.692 124.165 334.468 128.893 333.627 132.371 335.645zM120.899 342.307C122.105 343.007 124.301 342.497 127.339 340.739 130.301 339.025 131.219 337.75 129.947 337.023 128.795 336.361 126.556 336.736 123.464 338.559 120.372 340.381 119.66 341.596 120.899 342.302V342.307z" fill="#ffd2cd"/><path d="M120.883 329.027C124.48 331.105 122.687 333.763 119.035 335.879 114.905 338.277 110.389 338.949 106.96 336.964 103.531 334.978 105.063 332.282 108.808 330.074 112.682 327.85 117.41 327.025 120.883 329.027zM109.416 335.667C110.628 336.367 112.818 335.857 115.856 334.099 118.894 332.342 119.736 331.11 118.464 330.383 117.318 329.716 115.073 330.107 111.981 331.919 108.889 333.731 108.177 334.962 109.416 335.667z" fill="#ffd2cd"/><path d="M111.302 323.77 97.9496 331.512 94.9117 329.759 105.482 323.629 101.656 322.832 103.493 321.177 108.693 322.268 111.302 323.77z" fill="#ffd2cd"/><path d="M166.836 355.495C170.434 357.573 168.64 360.231 164.988 362.352 160.858 364.744 156.342 365.422 152.918 363.437 149.495 361.452 151.022 358.761 154.766 356.547 158.608 354.318 163.336 353.499 166.836 355.495zM155.364 362.135C156.581 362.829 158.771 362.33 161.809 360.573 164.847 358.815 165.689 357.584 164.418 356.846 163.271 356.179 161.027 356.569 157.934 358.381 154.842 360.193 154.13 361.43 155.369 362.135H155.364z" fill="#ffd2cd"/><path d="M157.228 350.243 143.881 357.985 140.838 356.227 151.408 350.097 147.582 349.3 149.419 347.65 154.619 348.741 157.228 350.243z" fill="#ffd2cd"/><path d="M178.297 362.113C181.895 364.191 180.101 366.838 176.444 368.965 172.319 371.363 167.803 372.035 164.369 370.05 160.934 368.064 162.472 365.368 166.222 363.16 170.097 360.931 174.819 360.111 178.297 362.113zM166.836 368.753C168.048 369.453 170.243 368.948 173.276 367.191 176.227 365.466 177.151 364.202 175.884 363.464 174.732 362.808 172.493 363.193 169.401 364.999 166.309 366.806 165.597 368.048 166.836 368.753z" fill="#ffd2cd"/><path d="M224.223 388.586C227.821 390.659 226.028 393.317 222.37 395.438 218.24 397.836 213.729 398.519 210.3 396.523 206.871 394.527 208.404 391.847 212.148 389.639 216.023 387.404 220.751 386.579 224.223 388.586zM212.74 395.21C213.963 395.921 216.159 395.422 219.191 393.653 222.223 391.885 223.071 390.664 221.8 389.937 220.653 389.27 218.414 389.661 215.316 391.478 212.219 393.295 211.512 394.516 212.74 395.21z" fill="#ffd2cd"/><path d="M189.775 368.732C193.383 370.809 191.584 373.457 187.927 375.583 183.797 377.981 179.286 378.659 175.857 376.668 172.428 374.677 173.96 371.987 177.705 369.779 181.58 367.56 186.297 366.719 189.775 368.732zM178.303 375.399C179.52 376.088 181.71 375.589 184.742 373.831 187.775 372.073 188.622 370.842 187.356 370.11 186.204 369.448 183.965 369.827 180.862 371.645 177.759 373.462 177.058 374.694 178.297 375.399H178.303z" fill="#ffd2cd"/><path d="M203.154 376.706 189.807 384.453 186.764 382.701 197.339 376.57 193.513 375.773 195.345 374.118 200.551 375.203 203.154 376.706z" fill="#ffd2cd"/><path d="M212.74 381.968C216.338 384.041 214.545 386.693 210.893 388.809 206.763 391.212 202.247 391.89 198.823 389.894 195.399 387.898 196.926 385.218 200.671 383.004 204.54 380.786 209.268 379.961 212.74 381.968zM201.257 388.592C202.48 389.297 204.676 388.798 207.714 387.041 210.751 385.283 211.588 384.051 210.322 383.319 209.181 382.652 206.942 383.042 203.839 384.854 200.736 386.666 200.035 387.892 201.257 388.592z" fill="#ffd2cd"/><path d="M15.8521 297.015C19.4497 299.087 17.6726 301.762 14.0207 303.878 9.89059 306.275 5.38004 306.948 1.93463 304.962-1.51078 302.977.0325899 300.286 3.80406 298.089 7.66792 295.843 12.3741 295.019 15.8521 297.015zM4.38554 303.655C5.59198 304.349 7.78748 303.85 10.8199 302.087 13.8523 300.324 14.7055 299.098 13.4284 298.371 12.2872 297.704 10.0428 298.095 6.94514 299.907 3.84754 301.718 3.14107 302.944 4.38554 303.661V303.655z" fill="#ffd2cd"/><path d="M52.192 318.226 38.8397 325.973 35.8019 324.215 46.3718 318.08 42.5568 317.288 44.3828 315.633 49.5835 316.724 52.192 318.226z" fill="#ffd2cd"/><path d="M38.8124 310.252C42.41 312.319 40.633 314.988 36.981 317.103 32.8455 319.501 28.3349 320.185 24.8895 318.188 21.4441 316.192 22.9929 313.512 26.7535 311.315 30.6282 309.075 35.3235 308.245 38.8124 310.252zM27.3459 316.881C28.5632 317.581 30.7478 317.082 33.7856 315.313 36.8234 313.545 37.6603 312.329 36.3941 311.592 35.242 310.93 33.0031 311.32 29.9163 313.132 26.8296 314.944 26.1122 316.176 27.3513 316.881H27.3459z" fill="#ffd2cd"/><path d="M29.2262 304.99 15.8739 312.736 12.8361 310.984 23.4114 304.849 19.5856 304.051 21.417 302.402 26.6177 303.487 29.2262 304.99z" fill="#ffd2cd"/><path d="M63.6694 324.844 50.3225 332.591 47.2847 330.833 57.8546 324.698 54.0288 323.911 55.8656 322.257 61.0609 323.342 63.6694 324.844z" fill="#ffd2cd"/><path d="M73.2611 330.107C76.8587 332.179 75.0817 334.843 71.4297 336.958 67.2996 339.356 62.789 340.04 59.3436 338.043 55.8982 336.047 57.4416 333.367 61.2076 331.164 65.0661 328.924 69.7831 328.099 73.2611 330.107zM61.7891 336.741C63.001 337.441 65.1965 336.931 68.2289 335.173 71.2613 333.416 72.109 332.184 70.8374 331.452 69.6907 330.79 67.4463 331.17 64.3487 332.998 61.2511 334.826 60.5446 336.036 61.7837 336.741H61.7891z" fill="#ffd2cd"/><path d="M86.6351 338.081 73.2883 345.828 70.245 344.07 80.8203 337.935 76.9945 337.137 78.8259 335.483 84.0266 336.578 86.6351 338.081z" fill="#ffd2cd"/><path d="M98.1181 344.7 84.7712 352.446 81.7225 350.689 92.2979 344.553 88.4775 343.756 90.3143 342.101 95.5096 343.197 98.1181 344.7z" fill="#ffd2cd"/><path d="M107.704 349.962C111.307 352.034 109.514 354.687 105.862 356.808 101.732 359.205 97.2214 359.878 93.7923 357.893 90.3632 355.907 91.8903 353.211 95.64 351.003 99.5039 348.779 104.226 347.949 107.704 349.962zM96.2323 356.591C97.4497 357.29 99.6397 356.781 102.672 355.028 105.705 353.276 106.558 352.034 105.281 351.312 104.129 350.645 101.89 351.025 98.7974 352.848 95.7052 354.67 94.9933 355.885 96.2323 356.591z" fill="#ffd2cd"/><path d="M142.148 369.806C145.745 371.883 143.952 374.531 140.3 376.657 136.17 379.055 131.654 379.733 128.225 377.742 124.796 375.751 126.328 373.071 130.072 370.863 133.952 368.628 138.67 367.804 142.148 369.806zM130.676 376.451C131.887 377.14 134.083 376.641 137.121 374.878 140.077 373.169 141.001 371.889 139.724 371.162 138.577 370.505 136.333 370.885 133.235 372.697 130.138 374.509 129.431 375.746 130.67 376.451H130.676z" fill="#ffd2cd"/><path d="M132.561 364.554 119.214 372.29 116.171 370.538 126.746 364.402 122.926 363.605 124.752 361.956 129.953 363.052 132.561 364.554z" fill="#ffd2cd"/><path d="M121.078 357.936 107.731 365.677 104.688 363.92 115.269 357.79 111.438 356.992 113.275 355.338 118.475 356.428 121.078 357.936z" fill="#ffd2cd"/><path d="M155.522 377.785 142.175 385.527 139.137 383.775 149.707 377.644 145.886 376.847 147.712 375.192 152.913 376.283 155.522 377.785z" fill="#ffd2cd"/><path d="M167.004 384.398 153.658 392.145 150.62 390.393 161.195 384.257 157.369 383.46 159.201 381.811 164.401 382.896 167.004 384.398z" fill="#ffd2cd"/><path d="M188.074 396.279C191.677 398.351 189.878 401.004 186.231 403.12 182.101 405.518 177.585 406.201 174.156 404.205 170.727 402.208 172.259 399.528 176.009 397.326 179.879 395.091 184.601 394.272 188.074 396.279zM176.618 402.903C177.846 403.603 180.042 403.109 183.074 401.34 186.106 399.572 186.954 398.362 185.682 397.624 184.536 396.957 182.291 397.348 179.199 399.16 176.107 400.971 175.395 402.208 176.618 402.903z" fill="#ffd2cd"/><path d="M178.493 391.017 165.14 398.764 162.097 397.011 172.672 390.876 168.847 390.084 170.683 388.429 175.884 389.514 178.493 391.017z" fill="#ffd2cd"/><path d="M199.556 402.897C203.154 404.964 201.361 407.622 197.709 409.743 193.573 412.141 189.063 412.819 185.639 410.828 182.215 408.837 183.737 406.146 187.481 403.944 191.356 401.709 196.084 400.895 199.556 402.897zM188.074 409.521C189.296 410.226 191.492 409.727 194.53 407.964 197.567 406.201 198.41 404.98 197.138 404.248 195.986 403.581 193.747 403.971 190.655 405.788 187.563 407.606 186.851 408.826 188.074 409.526V409.521z" fill="#ffd2cd"/><path d="M54.6375 230.865C54.6375 236.431 57.6917 241.904 64.1912 246.949L71.9624 251.289 230.473 339.79C231.668 340.549 232.893 341.293 234.147 342.02 235.32 342.692 236.521 343.354 237.766 343.994 238.396 344.32 239.037 344.613 239.673 344.938L240.885 345.524C243.059 346.56 245.309 347.504 247.569 348.372 247.972 348.529 248.385 348.665 248.781 348.812 250.593 349.481 252.404 350.099 254.216 350.667 254.721 350.824 255.232 350.987 255.737 351.133 256.917 351.486 258.118 351.779 259.319 352.088 260.791 352.468 262.259 352.848 263.748 353.173 265.047 353.461 266.351 353.716 267.66 353.933 268.791 354.139 269.921 354.356 271.062 354.529 272.513 354.746 273.964 354.914 275.41 355.072 276.388 355.18 277.366 355.316 278.35 355.408 279.915 355.544 281.486 355.62 283.062 355.701 283.969 355.744 284.877 355.815 285.779 355.848 287.208 355.88 288.643 355.848 290.072 355.848 291.186 355.848 292.3 355.848 293.414 355.848 294.311 355.82 295.202 355.744 296.099 355.69 297.914 355.593 299.734 355.5 301.533 355.327 303.707 355.126 305.881 354.882 307.995 354.573L309.228 354.372C310.858 354.122 312.434 353.829 314.027 353.526 315.619 353.222 317.32 352.848 318.961 352.441 319.994 352.202 321.037 351.969 322.07 351.708 323.803 351.258 325.51 350.754 327.216 350.244 328.14 349.962 329.075 349.701 329.988 349.414 330.901 349.126 331.743 348.79 332.623 348.481 334.014 347.992 335.4 347.493 336.759 346.962 337.694 346.598 338.607 346.202 339.52 345.812 340.797 345.269 342.074 344.727 343.324 344.146 344.258 343.718 345.177 343.262 346.095 342.812 347.285 342.215 348.465 341.618 349.633 340.989 350.551 340.49 351.453 339.974 352.35 339.459 353.98 338.531 355.556 337.609 357.094 336.617 358.632 335.624 360.176 334.517 361.605 333.432L362.148 333.036C363.474 332.005 364.713 330.953 365.898 329.879L366.577 329.26C367.496 328.398 368.382 327.53 369.202 326.651L369.42 326.407C370.175 325.593 370.876 324.78 371.539 323.939 371.773 323.657 371.99 323.396 372.207 323.087 372.615 322.544 373.006 322.002 373.381 321.46 373.577 321.172 373.783 320.884 373.974 320.597 374.403 319.951 374.805 319.3 375.185 318.639 375.289 318.46 375.408 318.286 375.506 318.096 375.952 317.31 376.359 316.512 376.74 315.709 376.837 315.498 376.914 315.286 377.011 315.074 377.278 314.494 377.555 313.892 377.767 313.301 377.892 312.97 378.006 312.633 378.12 312.297 378.283 311.825 378.446 311.364 378.587 310.892 378.685 310.55 378.772 310.219 378.865 309.872 378.99 309.4 379.109 308.917 379.212 308.445 379.283 308.114 379.343 307.784 379.403 307.458 379.495 306.964 379.571 306.476 379.636 305.977 379.68 305.641 379.723 305.304 379.756 304.968 379.805 304.469 379.837 303.981 379.864 303.487 379.892 302.993 379.919 302.543 379.919 302.071 379.901 309.304 379.879 316.537 379.854 323.771 379.854 324.025 379.854 324.313 379.854 324.562 379.854 324.812 379.816 325.029 379.805 325.262 379.805 325.718 379.75 326.174 379.707 326.629 379.674 326.998 379.631 327.356 379.582 327.714 379.517 328.181 379.441 328.647 379.365 329.098 379.326 329.304 379.305 329.515 379.261 329.722 379.218 329.928 379.185 330.02 379.153 330.172 379.055 330.638 378.941 331.105 378.816 331.566 378.723 331.902 378.642 332.239 378.538 332.58 378.397 333.063 378.223 333.546 378.06 334.023 377.973 334.273 377.908 334.523 377.816 334.772 377.816 334.848 377.75 334.913 377.723 334.994 377.495 335.591 377.229 336.193 376.968 336.796 376.87 337.007 376.794 337.202 376.696 337.414 376.316 338.217 375.903 339.014 375.457 339.812 375.445 339.836 375.434 339.862 375.425 339.888 375.348 340.012 375.256 340.137 375.185 340.267 374.794 340.946 374.376 341.624 373.93 342.291 373.745 342.573 373.544 342.833 373.349 343.126 372.963 343.669 372.566 344.211 372.148 344.754 372.033 344.906 371.936 345.058 371.816 345.209 371.697 345.361 371.61 345.448 371.512 345.567 370.827 346.414 370.11 347.26 369.338 348.101L369.175 348.291C368.344 349.175 367.458 350.054 366.528 350.922L366.23 351.22C366.121 351.323 365.985 351.421 365.871 351.524 364.686 352.609 363.442 353.65 362.105 354.692L361.561 355.072C360.138 356.157 358.643 357.242 357.045 358.267 356.056 358.907 355.051 359.531 354.029 360.149 353.453 360.497 352.839 360.806 352.252 361.148 351.372 361.652 350.492 362.151 349.595 362.634 348.426 363.274 347.231 363.876 346.03 364.468 345.111 364.923 344.193 365.379 343.253 365.808 342.019 366.383 340.764 366.925 339.498 367.435 338.568 367.836 337.639 368.232 336.688 368.607 335.357 369.149 333.998 369.616 332.645 370.088 331.732 370.419 330.83 370.755 329.928 371.059 329.732 371.124 329.537 371.2 329.335 371.27 328.645 371.482 327.933 371.656 327.232 371.862 325.51 372.404 323.787 372.898 322.032 373.348 320.999 373.619 319.95 373.853 318.907 374.097 317.277 374.471 315.646 374.824 314.016 375.144 313.51 375.236 313.016 375.377 312.511 375.458 311.424 375.664 310.277 375.822 309.163 376.001L307.962 376.202C306.06 376.467 304.158 376.711 302.229 376.901 301.99 376.901 301.75 376.901 301.511 376.945 299.658 377.118 297.805 377.227 295.947 377.319 295.213 377.362 294.479 377.444 293.746 377.476 293.621 377.476 293.501 377.476 293.376 377.476 292.213 377.509 291.061 377.476 289.903 377.476 288.746 377.476 287.442 377.525 286.213 377.476L285.735 377.444C284.801 377.417 283.871 377.346 282.942 377.297 281.649 377.232 280.355 377.205 279.073 377.097 278.806 377.097 278.529 377.032 278.296 377.01 277.307 376.918 276.323 376.787 275.334 376.668 274.247 376.549 273.117 376.462 272.019 376.305 271.671 376.25 271.334 376.18 270.992 376.126 269.856 375.952 268.726 375.74 267.59 375.54 266.65 375.366 265.693 375.241 264.753 375.046 264.389 374.97 264.036 374.862 263.666 374.78 262.188 374.455 260.726 374.075 259.253 373.695 258.417 373.484 257.558 373.316 256.721 373.082 256.362 372.974 256.009 372.854 255.634 372.746 255.145 372.599 254.656 372.437 254.161 372.285 252.287 371.704 250.423 371.075 248.586 370.381 248.232 370.245 247.879 370.131 247.531 370.001 247.336 369.925 247.14 369.86 246.95 369.789 244.869 368.959 242.82 368.086 240.798 367.126L239.592 366.551C238.956 366.225 238.315 365.932 237.679 365.612 236.434 364.967 235.228 364.31 234.06 363.627 232.804 362.911 231.587 362.167 230.386 361.403L71.9026 273.01 64.1369 268.67C57.6156 263.636 54.5669 258.157 54.5832 252.591 54.6049 245.347 54.623 238.105 54.6375 230.865z" fill="#c0c0f6"/><path d="M267.209 211.427C285.463 221.946 294.865 235.839 295.055 249.776 314.619 250.486 333.917 254.826 349.676 262.974 350.941 263.625 352.165 264.291 353.35 264.971 387.081 284.419 389.119 315.888 357.121 336.622 324.934 357.497 277.698 362.921 240.885 345.519L239.657 344.933C239.021 344.607 238.38 344.314 237.749 343.989 236.505 343.349 235.299 342.687 234.13 342.014 232.962 341.341 231.658 340.544 230.457 339.784L71.9623 251.295 64.1911 246.955C48.6868 234.895 52.7137 220.395 71.6091 208.135 91.4718 195.256 119.399 196.688 142.577 206.854 177.819 191.008 228.788 191.497 263.384 209.344 264.699 210.028 265.976 210.717 267.209 211.427z" fill="#e9f0f4"/><g opacity=".3"><g opacity=".14"><path opacity=".14" d="M268.937 61.3873C287.197 71.9115 296.599 85.799 296.783 99.7409 316.347 100.452 335.645 104.786 351.399 112.934 352.665 113.585 353.888 114.252 355.073 114.936 388.804 134.378 390.842 165.848 358.844 186.576 326.656 207.44 279.42 212.865 242.608 195.478L241.401 194.898C240.766 194.572 240.119 194.279 239.488 193.954 238.249 193.314 237.043 192.647 235.869 191.974 234.695 191.301 233.396 190.515 232.201 189.755L73.6904 101.249 65.9192 96.9091C50.4149 84.8714 54.4255 70.3274 73.3372 58.089 93.1999 45.2213 121.133 46.6534 144.305 56.8196 179.547 40.9736 230.495 41.4456 265.112 59.3096 266.427 59.9859 267.702 60.6784 268.937 61.3873z" fill="#fcfdfd"/></g><g opacity=".29"><path opacity=".29" d="M268.937 83C287.197 93.5241 296.599 107.412 296.783 121.354 316.347 122.064 335.645 126.399 351.399 134.547 352.665 135.198 353.888 135.865 355.073 136.549 388.804 155.991 390.842 187.461 358.844 208.194 326.656 229.053 279.42 234.478 242.608 217.096L241.401 216.516C240.766 216.191 240.119 215.898 239.488 215.572 238.249 214.937 237.043 214.27 235.869 213.592 234.695 212.914 233.396 212.133 232.201 211.373L73.6904 122.889 65.9192 118.549C50.4149 106.511 54.4255 91.9672 73.3372 79.7288 93.1999 66.8502 121.133 68.2878 144.305 78.4539 179.547 62.608 230.495 63.08 265.112 80.9385 266.427 81.622 267.702 82.3092 268.937 83z" fill="#f9fbfc"/></g><g opacity=".43"><path opacity=".43" d="M268.937 104.661C287.197 115.185 296.599 129.073 296.783 143.015 316.347 143.725 335.645 148.06 351.399 156.203 352.665 156.854 353.888 157.521 355.073 158.204 388.804 177.647 390.842 209.116 358.844 229.85 326.656 250.709 279.42 256.133 242.608 238.747L241.407 238.15C240.771 237.825 240.124 237.532 239.494 237.206 238.255 236.572 237.048 235.904 235.875 235.226 234.701 234.548 233.402 233.761 232.206 233.002L73.6904 144.523 65.9192 140.183C50.4149 128.151 54.4255 113.601 73.3372 101.363 93.1999 88.4843 121.133 89.9219 144.305 100.083 179.547 84.2367 230.495 84.7086 265.112 102.567 266.427 103.265 267.702 103.963 268.937 104.661z" fill="#f6f9fa"/></g><g opacity=".57"><path opacity=".57" d="M268.937 126.296C287.197 136.82 296.599 150.707 296.783 164.649 316.347 165.36 335.645 169.694 351.399 177.837 352.665 178.488 353.888 179.155 355.073 179.839 388.804 199.287 390.842 230.751 358.844 251.484 326.662 272.327 279.426 277.752 242.613 260.392L241.407 259.812C240.771 259.486 240.124 259.193 239.494 258.868 238.255 258.233 237.048 257.566 235.875 256.893 234.701 256.22 233.402 255.428 232.206 254.669L73.6904 166.163 65.9192 161.823C50.4149 149.791 54.4255 135.241 73.3372 123.003 93.1999 110.124 121.133 111.562 144.305 121.722 179.547 105.871 230.495 106.348 265.112 124.207 266.427 124.891 267.702 125.587 268.937 126.296z" fill="#f2f6f9"/></g><g opacity=".71"><path opacity=".71" d="M268.937 147.93C287.197 158.449 296.599 172.342 296.783 186.283 316.347 186.994 335.645 191.328 351.399 199.471 352.665 200.122 353.888 200.795 355.073 201.468 388.804 220.916 390.842 252.385 358.844 273.113 326.656 293.972 279.42 299.397 242.608 282.01L241.401 281.43C240.766 281.11 240.119 280.811 239.488 280.486 238.249 279.851 237.043 279.184 235.869 278.511 234.695 277.838 233.396 277.046 232.201 276.287L73.6904 187.797 65.9192 183.457C50.4149 171.425 54.4255 156.875 73.3372 144.642 93.1999 131.764 121.133 133.201 144.305 143.362 179.547 127.511 230.495 127.988 265.112 145.847 266.427 146.527 267.702 147.221 268.937 147.93z" fill="#eff4f7"/></g><g opacity=".86"><path opacity=".86" d="M268.937 169.564C287.197 180.083 296.599 193.976 296.783 207.923 316.347 208.634 335.645 212.968 351.399 221.111 352.667 221.762 353.892 222.427 355.073 223.107 388.847 242.479 390.842 274.025 358.844 294.758 326.656 315.617 279.42 321.042 242.608 303.655L241.401 303.075C240.766 302.755 240.119 302.456 239.488 302.131 238.249 301.496 237.043 300.829 235.869 300.156 234.695 299.483 233.397 298.686 232.201 297.932L73.6904 209.431 65.9193 205.091C50.4149 193.059 54.4255 178.51 73.3372 166.277 93.1999 153.398 121.133 154.836 144.305 164.996 179.547 149.145 230.495 149.622 265.112 167.481 266.427 168.161 267.702 168.855 268.937 169.564z" fill="#ecf2f6"/></g><path opacity=".3" d="M268.937 191.204C287.197 201.722 296.599 215.615 296.783 229.563 316.347 230.273 335.645 234.608 351.399 242.75 352.665 243.401 353.888 244.074 355.073 244.747 388.804 264.189 390.842 295.653 358.85 316.393 326.662 337.246 279.426 342.676 242.613 325.289L241.407 324.709C240.771 324.389 240.124 324.09 239.494 323.765 238.255 323.13 237.048 322.463 235.875 321.79 234.701 321.118 233.402 320.32 232.206 319.566L73.6904 231.071 65.9192 226.731C50.4149 214.699 54.4255 200.149 73.3372 187.916 93.1999 175.032 121.133 176.47 144.305 186.614 179.547 170.763 230.495 171.24 265.112 189.099 266.427 189.79 267.702 190.491 268.937 191.204z" fill="#e9f0f4"/></g><path d="M322.309 295.811 333.053 289.583 231.5 231.049 220.756 237.272 322.309 295.811z" fill="#bfd4db"/><path d="M322.26 308.575 322.292 295.811 333.036 289.583 332.998 302.348C332.998 304.962 332.074 306.807 330.574 307.669L319.836 313.903C321.347 313.013 322.26 311.196 322.26 308.575z" fill="#c0c0f6"/><path d="M322.26 308.576 322.292 295.811 220.756 237.271 220.724 250.047C220.724 255.325 224.419 261.743 229.016 264.396L313.913 313.317C318.516 315.975 322.26 313.849 322.26 308.576z" fill="#e3e3fc"/><path d="M322.309 295.811 333.052 289.583 333.541 117.871 322.798 124.109 322.309 295.811z" fill="#c0c0f6"/><path d="M322.798 124.11 333.542 117.871 231.989 59.3533 221.245 65.581 322.798 124.11z" fill="#35c2da"/><path d="M221.245 65.5808 220.756 237.271 322.309 295.811 322.798 124.109 221.245 65.5808z" fill="url(#paint0_linear)"/><path d="M251.134 77.4125 261.873 71.1902C261.628 71.0354 261.402 70.8534 261.199 70.6477L250.466 76.8808C250.662 77.0922 250.887 77.2749 251.134 77.4233V77.4125z" fill="#b2c5cc"/><path d="M250.466 76.8918 261.199 70.6586C261.122 70.5827 261.05 70.5031 260.981 70.4199L250.238 76.6531C250.314 76.7344 250.384 76.8104 250.466 76.8863V76.8918z" fill="#adc0c7"/><path d="M250.238 76.6585 260.982 70.4253C260.922 70.3602 260.867 70.2897 260.813 70.2246L250.08 76.4632 250.243 76.6585H250.238z" fill="#a9bbc2"/><path d="M250.075 76.4632 260.808 70.2247C260.759 70.1704 260.726 70.1053 260.677 70.0457L249.939 76.2788C249.977 76.3439 250.026 76.3981 250.075 76.4632z" fill="#a4b6bd"/><path d="M249.944 76.2788 260.683 70.0457C260.645 69.9806 260.601 69.9372 260.568 69.8721L249.83 76.1052C249.862 76.1667 249.9 76.2249 249.944 76.2788z" fill="#a0b1b8"/><path d="M249.83 76.1052 260.569 69.872C260.529 69.8185 260.492 69.7623 260.46 69.7039L249.716 75.9478C249.75 76.0065 249.788 76.0627 249.83 76.116V76.1052z" fill="#9bacb3"/><path d="M249.716 75.9479 260.454 69.7148 260.357 69.5466 249.624 75.7743 249.716 75.9479z" fill="#97a7ad"/><path d="M249.624 75.758 260.357 69.5303C260.333 69.471 260.305 69.413 260.275 69.3567L249.531 75.5844 249.624 75.7526V75.758z" fill="#93a2a8"/><path d="M249.531 75.5898 260.275 69.3621C260.248 69.3078 260.215 69.2427 260.194 69.1885L249.439 75.4053 249.52 75.5789 249.531 75.5898z" fill="#8e9da3"/><path d="M249.439 75.4053 260.183 69.1776 260.107 68.9985 249.368 75.2262C249.368 75.2913 249.423 75.351 249.439 75.4107V75.4053z" fill="#8a999e"/><path d="M249.379 75.2318 260.117 69.0041 260.052 68.8088 249.314 75.042C249.314 75.1016 249.357 75.1722 249.379 75.2318z" fill="#859499"/><path d="M249.314 75.0474 260.052 68.8142C260.052 68.7491 260.009 68.6786 259.982 68.6135L249.243 74.8412C249.243 74.9118 249.287 74.9823 249.314 75.0528V75.0474z" fill="#818f94"/><path d="M249.249 74.8357 259.987 68.608C259.965 68.5313 259.947 68.4534 259.933 68.3748L249.194 74.5971C249.194 74.6784 249.227 74.7598 249.249 74.8357z" fill="#7c8a8f"/><path d="M249.194 74.597 259.933 68.353C259.933 68.2499 259.889 68.1631 259.884 68.0601L249.145 74.3203C249.156 74.4152 249.173 74.5094 249.194 74.6024V74.597z" fill="#78858a"/><path d="M249.145 74.3204 259.884 68.0873C259.867 67.9559 259.858 67.8237 259.857 67.6913 259.833 67.4431 259.876 67.1932 259.98 66.9666 260.084 66.7399 260.245 66.5446 260.449 66.4001L249.711 72.6224C249.506 72.7656 249.344 72.9608 249.24 73.1879 249.137 73.415 249.097 73.6656 249.124 73.9135 249.115 74.0472 249.115 74.1813 249.124 74.315L249.145 74.3204z" fill="#738085"/><path d="M251.151 72.7581 261.895 66.5304C261.801 66.4799 261.705 66.4346 261.607 66.3948L250.868 72.6225C250.966 72.6591 251.061 72.7045 251.151 72.7581z" fill="#32b5ca"/><path d="M250.863 72.6224 261.601 66.3947C261.523 66.3608 261.443 66.3318 261.362 66.3079L250.624 72.5356 250.863 72.6224z" fill="#30b0c5"/><path d="M250.624 72.5357 261.362 66.308C261.303 66.2921 261.243 66.2794 261.183 66.27L250.439 72.5031 250.618 72.5411 250.624 72.5357z" fill="#2facc0"/><path d="M250.444 72.4975 261.188 66.2644H261.041L250.297 72.4921H250.444V72.4975z" fill="#2ea7bb"/><path d="M250.298 72.4814 261.041 66.2537H260.9L250.167 72.4868 250.298 72.4814z" fill="#2da3b6"/><path d="M250.161 72.4868 260.894 66.2537H260.78L250.036 72.4977h.125V72.4868z" fill="#2b9eb1"/><path d="M250.036 72.4975 260.78 66.2644H260.66L249.917 72.4975H250.031 250.036z" fill="#2a9aac"/><path d="M249.923 72.5247 260.666 66.2915C260.628 66.3004 260.591 66.315 260.558 66.3349L249.819 72.5626 249.923 72.5247z" fill="#2995a7"/><path d="M249.819 72.5629 260.552 66.3352 260.454 66.3786 249.716 72.6117 249.819 72.5629z" fill="#2891a2"/><path d="M249.716 72.6116 260.454 66.3784 249.711 72.6224 249.716 72.6116z" fill="#268c9d"/><path d="M294.908 102.643 305.652 96.4103 261.873 71.1902 251.134 77.4125 294.908 102.643z" fill="#bfd4db"/><path d="M296.365 102.79 307.098 96.5623 296.359 102.79H296.365z" fill="#8a999e"/><path d="M296.349 102.795 307.087 96.5623 306.984 96.6111 296.245 102.844 296.349 102.795z" fill="#8e9da3"/><path d="M296.245 102.844 306.984 96.6108C306.952 96.6288 306.917 96.6416 306.881 96.6488L296.137 102.877 296.245 102.844z" fill="#93a2a8"/><path d="M296.137 102.877 306.88 96.6489H306.766L296.023 102.909 296.131 102.882 296.137 102.877z" fill="#97a7ad"/><path d="M296.023 102.909 306.761 96.676h-.125L295.898 102.909h.125z" fill="#9bacb3"/><path d="M295.898 102.92 306.636 96.687H306.5L295.767 102.92C295.808 102.928 295.851 102.928 295.892 102.92H295.898z" fill="#a0b1b8"/><path d="M295.773 102.92 306.5 96.687H306.353L295.631 102.909H295.783L295.773 102.92z" fill="#a4b6bd"/><path d="M295.631 102.909 306.375 96.6761 306.19 96.6436 295.452 102.871 295.631 102.909z" fill="#a9bbc2"/><path d="M295.44 102.871 306.179 96.6431C306.103 96.62 306.029 96.5929 305.956 96.5618L295.196 102.784C295.273 102.819 295.353 102.848 295.435 102.871H295.44z" fill="#adc0c7"/><path d="M295.197 102.784 305.957 96.5622C305.858 96.5211 305.762 96.474 305.669 96.4211L294.925 102.649C295.019 102.702 295.117 102.75 295.218 102.79L295.197 102.784z" fill="#b2c5cc"/><path d="M294.919 97.9943 305.663 91.7612 261.889 66.5303 251.145 72.758 294.919 97.9943z" fill="#35c2da"/><path d="M296.365 102.79 307.098 96.562C307.302 96.4153 307.464 96.2168 307.566 95.987 307.668 95.7573 307.707 95.5045 307.679 95.2547 307.687 95.1228 307.687 94.9905 307.679 94.8586L296.941 101.086C296.948 101.22 296.948 101.354 296.941 101.488 296.966 101.737 296.926 101.988 296.824 102.216 296.722 102.445 296.562 102.642 296.359 102.79H296.365z" fill="#207684"/><path d="M296.925 101.086l10.738-6.2273C307.653 94.7655 307.636 94.6731 307.614 94.582L296.876 100.804C296.897 100.897 296.914 100.992 296.925 101.086z" fill="#217a89"/><path d="M296.876 100.799 307.587 94.5765C307.587 94.4952 307.554 94.4192 307.527 94.3433L296.816 100.576C296.816 100.658 296.854 100.734 296.87 100.804L296.876 100.799z" fill="#237f8e"/><path d="M296.816 100.577 307.549 94.3435C307.549 94.2784 307.511 94.2079 307.484 94.1428L296.756 100.36 296.816 100.571V100.577z" fill="#248393"/><path d="M296.756 100.359 307.489 94.1371C307.472 94.0715 307.449 94.0079 307.418 93.9473L296.68 100.175C296.68 100.235 296.729 100.305 296.751 100.359H296.756z" fill="#258898"/><path d="M296.685 100.18 307.424 93.9527C307.424 93.8876 307.38 93.8334 307.353 93.7737L296.609 100.001C296.639 100.059 296.664 100.119 296.685 100.18z" fill="#268c9d"/><path d="M296.609 100.001 307.353 93.7737C307.353 93.7194 307.299 93.6543 307.272 93.6001L296.533 99.817C296.564 99.8723 296.59 99.9304 296.609 99.9906V100.001z" fill="#2891a2"/><path d="M296.533 99.8171 307.272 93.5894C307.245 93.5351 307.212 93.4809 307.179 93.4158L296.446 99.6489 296.533 99.8279V99.8171z" fill="#2995a7"/><path d="M296.446 99.6489 307.179 93.4212C307.152 93.3669 307.12 93.3127 307.087 93.2476L296.349 99.4861 296.446 99.6489z" fill="#2a9aac"/><path d="M296.348 99.4861 307.087 93.2475 306.984 93.0793 296.245 99.3071C296.278 99.3613 296.321 99.4156 296.348 99.4807V99.4861z" fill="#2b9eb1"/><path d="M296.245 99.3127 306.984 93.085C306.946 93.0253 306.902 92.9765 306.864 92.9114L296.131 99.1337 296.245 99.3127z" fill="#2da3b6"/><path d="M296.131 99.1335 306.864 92.9112C306.821 92.8515 306.783 92.7864 306.734 92.7322L295.99 98.9599C296.039 99.0087 296.077 99.0684 296.131 99.1281V99.1335z" fill="#2ea7bb"/><path d="M295.995 98.9545 306.739 92.7322 306.565 92.5315 295.832 98.7321C295.89 98.7958 295.945 98.8628 295.995 98.9328V98.9545z" fill="#2facc0"/><path d="M295.832 98.7321 306.571 92.5044C306.503 92.4185 306.431 92.337 306.353 92.2603L295.631 98.5205C295.712 98.5955 295.788 98.6752 295.859 98.7592L295.832 98.7321z" fill="#30b0c5"/><path d="M295.631 98.5205 306.375 92.2874C306.17 92.0785 305.94 91.8962 305.69 91.7449L294.952 97.978C295.204 98.1263 295.435 98.3089 295.637 98.5205H295.631z" fill="#32b5ca"/><path d="M251.151 72.7578C250.031 72.1177 249.129 72.6331 249.124 73.9133 249.157 74.6145 249.357 75.2977 249.708 75.9063 250.058 76.5148 250.549 77.0311 251.14 77.4123l43.774 25.2307C296.044 103.289 296.952 102.784 296.952 101.488 296.917 100.786 296.716 100.103 296.363 99.4955 296.01 98.8878 295.517 98.373 294.925 97.9942L251.151 72.7578z" fill="#c0c0f6"/><path d="M314.51 102.318C319.108 104.971 322.841 111.405 322.82 116.683V124.099L221.245 65.581V58.1544C221.245 52.8815 225 50.7441 229.603 53.4023L314.51 102.318zM251.134 77.4126 294.908 102.643C296.039 103.289 296.946 102.785 296.946 101.488 296.912 100.787 296.71 100.103 296.357 99.4957 296.005 98.888 295.512 98.3732 294.919 97.9944L251.145 72.7581C250.026 72.1179 249.124 72.6333 249.118 73.9136 249.151 74.6148 249.352 75.298 249.702 75.9065 250.053 76.515 250.544 77.0313 251.134 77.4126z" fill="#e3e3fc"/><path d="M228.245 52.735C228.054 52.659 227.853 52.5939 227.658 52.5343L227.294 52.4312C227.174 52.4312 227.06 52.3769 226.946 52.3607L226.511 52.2956 226.267 52.2684C226.086 52.2567 225.904 52.2567 225.723 52.2684H225.604C225.399 52.2814 225.196 52.3067 224.995 52.3444L224.837 52.3769C224.684 52.4101 224.533 52.4536 224.386 52.5071L224.245 52.556C224.057 52.6269 223.875 52.714 223.702 52.8164L234.44 46.5832 234.483 46.5561C234.619 46.4807 234.758 46.4137 234.902 46.3554 234.929 46.3505 234.956 46.3505 234.983 46.3554L235.136 46.3065C235.203 46.27 235.274 46.2409 235.347 46.2198L235.587 46.1655C235.63 46.1655 235.679 46.1384 235.739 46.1275H235.815C235.982 46.0947 236.15 46.0729 236.32 46.0624H236.483C236.612 46.0531 236.741 46.0531 236.869 46.0624H237.005h.25C237.335 46.0666 237.414 46.0666 237.494 46.0624L237.701 46.1113 238.032 46.1818 238.217 46.2198C238.282 46.2198 238.342 46.2686 238.407 46.2849 238.597 46.3499 238.793 46.415 238.994 46.491L239.195 46.5615C239.238 46.5615 239.271 46.6049 239.315 46.6158 239.662 46.7677 240.005 46.9304 240.369 47.1582L325.254 96.0903C325.705 96.3563 326.139 96.6498 326.553 96.9691L326.765 97.1264C327.172 97.4465 327.564 97.7937 327.944 98.1571 327.972 98.191 328.005 98.2203 328.042 98.2439 328.096 98.2982 328.156 98.3687 328.21 98.4338 328.401 98.6237 328.596 98.8244 328.754 99.0251 328.814 99.0848 328.868 99.1499 328.928 99.2041 328.988 99.2584 329.015 99.3235 329.064 99.3777 329.113 99.432 329.281 99.649 329.395 99.7792 329.509 99.9094 329.536 99.9473 329.602 100.04 329.667 100.132 329.716 100.186 329.765 100.257 329.814 100.327 329.917 100.468 329.993 100.56 330.069 100.653 330.102 100.718 330.151 100.788 330.199 100.859 330.33 101.049 330.417 101.173 330.504 101.298 330.52 101.325 330.569 101.407L330.64 101.515C330.786 101.732 330.928 101.971 331.069 102.215 331.078 102.234 331.089 102.252 331.102 102.269 331.102 102.307 331.145 102.345 331.167 102.389 331.27 102.562 331.362 102.747 331.46 102.931 331.509 103.012 331.547 103.094 331.591 103.181 331.634 103.267 331.672 103.338 331.71 103.414 331.748 103.49 331.792 103.566 331.824 103.631 331.917 103.826 332.004 104.021 332.085 104.217L332.145 104.336C332.142 104.347 332.142 104.358 332.145 104.369 332.254 104.613 332.351 104.862 332.449 105.112 332.449 105.161 332.487 105.209 332.498 105.247 332.509 105.285 332.569 105.426 332.596 105.524 332.623 105.622 332.688 105.768 332.732 105.898L332.824 106.186C332.851 106.305 332.895 106.419 332.933 106.528 332.971 106.636 332.976 106.674 332.998 106.739 333.02 106.804 333.063 106.989 333.091 107.114 333.118 107.238 333.167 107.406 333.199 107.548 333.199 107.596 333.199 107.651 333.237 107.689 333.275 107.727 333.264 107.889 333.286 107.987 333.33 108.22 333.368 108.443 333.395 108.66 333.395 108.725 333.427 108.784 333.433 108.849 333.438 108.915 333.433 108.958 333.433 109.023 333.494 109.505 333.525 109.991 333.525 110.477V117.887L322.803 124.099V116.683C322.799 116.197 322.768 115.712 322.711 115.229 322.711 115.115 322.678 114.996 322.662 114.876 322.629 114.654 322.586 114.432 322.548 114.204 322.51 113.976 322.488 113.905 322.461 113.759 322.434 113.612 322.379 113.466 322.352 113.32 322.325 113.173 322.249 112.934 322.195 112.739 322.14 112.544 322.118 112.5 322.08 112.381 322.01 112.153 321.945 111.947 321.863 111.725 321.83 111.638 321.798 111.54 321.765 111.453 321.651 111.15 321.526 110.846 321.396 110.537 321.396 110.493 321.352 110.45 321.33 110.406 321.216 110.146 321.091 109.891 320.977 109.636 320.928 109.549 320.879 109.457 320.836 109.365 320.706 109.126 320.581 108.887 320.45 108.654 320.418 108.6 320.385 108.529 320.347 108.475 320.178 108.188 320.005 107.906 319.803 107.634 319.749 107.548 319.695 107.466 319.635 107.385 319.505 107.184 319.369 106.994 319.233 106.804 319.097 106.614 319.081 106.587 318.994 106.484 318.907 106.381 318.744 106.164 318.619 106.001 318.494 105.839 318.407 105.741 318.293 105.616 318.179 105.492 318.081 105.372 317.972 105.253 317.863 105.133 317.608 104.851 317.429 104.662 317.331 104.564 317.238 104.477 317.151 104.379 316.779 104.018 316.389 103.676 315.983 103.354L315.755 103.186C315.342 102.868 314.91 102.577 314.461 102.313L229.62 53.3968C229.283 53.1925 228.932 53.0112 228.571 52.8543L228.245 52.735z" fill="#c0c0f6"/><path opacity=".1" d="M104.177 224.426C88.0807 233.707 87.9937 248.756 103.993 258.059 119.991 267.363 146.001 267.341 162.103 258.059 178.205 248.778 178.286 233.724 162.287 224.469 146.289 215.214 120.269 215.154 104.177 224.426z" fill="#000"/><path d="M159.135 152.243C159.135 152.243 160.603 148.809 165.113 148.765 165.135 148.765 164.005 153.035 159.135 152.243z" fill="#131c24"/><path d="M163.526 147.013C163.526 147.013 167.303 151.803 167.646 153.067 167.988 154.331 169.575 159.685 166.939 163.342 165.51 165.316 164.7 162.571 164.298 159.002 164.119 157.374 164.331 156.132 162.173 154.402 160.559 152.939 159.212 151.208 158.19 149.286 157.532 147.919 163.526 147.013 163.526 147.013z" fill="#efb185"/><path d="M158.271 149.53C158.94 150.854 160.853 153.149 161.163 155.118 161.538 157.483 164.119 157.353 164.298 158.97 164.613 161.763 165.244 164.085 166.13 164.015 165.727 161.91 168.184 160.293 165.505 155.416 164.537 153.642 161.315 149.959 159.5 148.44 158.429 148.961 158.021 149.004 158.271 149.53z" fill="#e6a376"/><path d="M159.771 148.407C159.771 148.407 160.586 155.232 161.135 157.255 161.684 159.279 162.918 160.472 163.162 160.027 163.407 159.582 162.124 153.479 164.342 153.626 165.51 153.702 160.103 149.362 159.771 148.407z" fill="#efb185"/><path d="M143.202 93.3994C143.202 93.3994 150.06 91.8099 152.908 105.399 155.755 118.988 155.761 124.326 157.766 128.986 159.771 133.646 165.135 148.76 165.135 148.76 165.135 148.76 160.788 148.988 159.157 152.237 159.157 152.237 147.908 133.559 145.685 125.33 143.463 117.101 136.066 97.1697 143.202 93.3994z" fill="#5fb9e6"/><path d="M157.766 128.986C155.761 124.321 155.761 119.01 152.908 105.399 151.359 98.0212 148.625 95.0918 146.446 94.0068 139.974 98.2762 147.109 117.632 149.288 125.704 150.951 131.861 157.44 144.425 160.657 150.42 161.949 149.434 163.511 148.867 165.135 148.792 165.135 148.792 159.771 133.646 157.766 128.986z" fill="#77d2ff"/><path d="M136.344 224.99C136.344 224.99 134.518 229.243 136.344 230.322 138.17 231.402 138.409 232.628 141.327 232.4 144.245 232.172 143.827 233.127 144.827 234.212 145.827 235.297 156.152 239.778 158.103 237.608 160.054 235.438 154.581 232.867 152.636 231.597 150.69 230.328 146.066 225.234 145.946 223.775 145.827 222.315 136.344 224.99 136.344 224.99z" fill="#111114"/><path d="M136.344 230.328C138.17 231.413 138.409 232.633 141.327 232.405 144.245 232.178 143.827 233.132 144.827 234.217 145.827 235.302 156.152 239.778 158.103 237.608 158.771 236.854 158.565 236.073 157.934 235.308 157.217 235.427 156.217 235.612 154.907 235.85 151.87 236.393 147.957 232.877 146.446 231.581 144.935 230.284 143.028 230.778 140.414 230.36 137.8 229.943 138.17 225.934 138.17 225.934L136.235 225.266C135.86 226.216 134.8 229.406 136.344 230.328z" fill="#0a0a0a"/><path d="M117.926 238.78C117.926 238.78 117.155 243.803 119.089 246.51 121.024 249.217 125.268 253.931 127.105 253.714 128.942 253.497 129.23 252.678 129.23 252.678 129.651 249.957 129.455 247.176 128.654 244.541 127.29 240.467 127.197 238.796 127.197 238.796L117.926 238.78z" fill="#111114"/><path d="M119.084 246.51C120.785 248.897 124.279 252.814 126.339 253.562 123.622 250.063 127.703 250.79 124.622 249.125 120.41 246.83 123.105 244.921 121.22 244.394 119.334 243.868 120.714 239.214 120.714 239.214L119.698 238.747H117.926C117.926 238.747 117.155 243.803 119.084 246.51z" fill="#0a0a0a"/><path d="M140.273 157.119C140.273 157.119 148.968 156.186 151.848 149.774 152.268 159.974 151.946 170.19 150.886 180.343 149.125 196.748 147.674 225.613 147.674 225.613 147.674 225.613 142.061 230.903 136.262 225.613 136.262 225.613 134.632 206.556 136.262 195.999 136.262 195.999 135.175 177.511 136.979 168.262 138.784 159.013 140.273 157.119 140.273 157.119z" fill="#ea49bd"/><path d="M147.68 225.614C147.68 225.614 149.131 196.743 150.891 180.343 151.961 169.476 152.348 158.553 152.049 147.637 149.93 152.34 144.506 156.246 141.87 156.859 142.071 163.125 142.658 181.586 142.566 187.721 142.479 193.569 141.327 217.753 140.843 227.914 144.713 228.386 147.68 225.614 147.68 225.614z" fill="#ff61cb"/><path d="M119.872 156.143C119.872 156.143 119.04 165.734 118.861 180.647 118.682 195.56 117.595 201.18 117.231 203.469 116.867 205.759 115.601 230.718 116.318 238.004 116.318 238.004 121.04 245.273 128.475 238.004 128.475 238.004 129.741 212.41 131.012 206.589 132.284 200.768 139.387 172.472 142.251 162.317 143.512 157.847 143.816 156.138 143.816 156.138 143.816 156.138 131.306 165.121 119.872 156.143z" fill="#ea49bd"/><path d="M128.475 238.015C128.475 238.015 129.741 212.42 131.012 206.599 132.284 200.779 139.387 172.483 142.251 162.327 143.132 159.443 144.556 156.753 146.446 154.402 146.446 154.402 138.224 160.147 131.116 160.136 130.801 162.306 127.784 183.208 127.078 192.348 126.388 201.397 120.176 233.252 121.845 241.242 123.676 241.291 125.91 240.51 128.475 238.015z" fill="#ff61cb"/><path d="M128.051 96.562C128.051 96.562 115.269 104.254 115.008 105.301 114.747 106.348 111.476 109.039 117.225 120.317 117.225 120.317 124.703 132.485 122.296 145.337 120.899 152.801 119.464 156.729 119.464 156.729 119.464 156.729 125.986 165.029 142.077 157.814 145.338 156.355 150.62 151.413 152.049 147.631 150.604 139.908 150.224 132.023 150.919 124.196 152.087 111.431 152.092 94.9834 144.778 93.318 144.772 93.3071 142.783 91.2457 128.051 96.562z" fill="#77d2ff"/><path d="M129.132 85.4846C129.132 85.4846 132.208 92.2006 128.388 95.7918 126.257 97.8153 129.589 103.929 136.816 104.575 136.816 104.575 140.131 104.282 139.99 103.083 139.659 100.343 140.941 99.025 142.392 97.1806 143.843 95.3361 129.132 85.4846 129.132 85.4846z" fill="#efb185"/><path d="M128.388 95.8134C128.126 96.0502 127.937 96.3571 127.844 96.6977 130.947 94.3921 136.121 94.978 136.121 94.978L130.491 86.4339 129.882 85.9836 129.578 86.6183C130.252 88.6906 131.235 93.1064 128.388 95.8134z" fill="#dd9569"/><path d="M128.176 81.8336C128.176 81.8336 128.676 90.1662 133.659 94.6742 138.077 98.6778 143.479 101.689 145.446 95.9925 147 91.4573 151.136 79.935 147.381 76.9242 142.533 73.0291 141.18 68.9334 134.686 70.2462 134.686 70.2516 127.165 72.3944 128.176 81.8336z" fill="#efb185"/><path d="M128.176 81.8335C128.184 84.2425 128.669 86.6262 129.601 88.8481 130.534 91.0701 131.896 93.0867 133.61 94.7826 134.912 96.0038 136.346 97.0755 137.887 97.9778 135.599 95.6722 135.42 95.0429 133.773 92.3956 132.127 89.7483 136.985 91.4246 134.496 84.9311 133.643 82.7177 138.93 86.2222 140.218 86.3958 147.826 87.3614 147.924 82.9564 148.37 81.1391 148.348 80.3524 148.252 79.5695 148.082 78.801l-.5-1.4756L147.381 76.924C146.778 75.8487 146.097 74.8189 145.343 73.8427 142.082 73.4087 132.844 72.1827 132.648 72.2152 132.453 72.2478 130.599 74.1302 128.801 75.9421 128.128 77.8287 127.914 79.848 128.176 81.8335z" fill="#e6a376"/><path d="M130.295 90.1554C130.295 90.1554 125.029 83.5859 128.415 75.8447 129.148 73.9614 130.463 72.3601 132.169 71.2726 133.875 70.1851 135.883 69.6679 137.903 69.796 141.419 69.9153 147.392 71.3909 148.946 78.747 149.424 81.0471 148.767 85.4575 140.572 81.9368 139.409 81.3943 136.224 80.4938 134.925 81.3563 133.626 82.2189 133.192 84.1338 133.49 85.8643 133.746 87.3833 132.442 87.3399 132.317 87.009 132.192 86.6781 131.23 82.3002 129.398 83.6781 127.774 84.9096 130.186 89.8516 130.295 90.1554z" fill="#341c09"/><path d="M130.295 90.1554C130.186 89.8517 127.774 84.9096 129.393 83.6782 131.197 82.3057 132.197 86.6727 132.311 87.009 132.425 87.3454 133.74 87.3834 133.485 85.8644 133.186 84.1339 133.605 82.2189 134.92 81.3564 136.104 80.5752 138.876 81.492 140.566 81.9368 139.3 80.8139 136.523 80.0544 135.887 77.5481 135.034 74.1902 133.366 72.4325 131.665 71.5808 130.206 72.6668 129.077 74.1352 128.404 75.823 125.024 83.586 130.295 90.1554 130.295 90.1554z" fill="#221101"/><path d="M153.044 77.8735C153.044 77.8735 149.614 86.4665 140.153 82.1212 140.153 82.1212 135.414 80.0435 134.132 75.1611 133.855 74.1141 132.958 72.3131 131.311 71.9062 131.311 71.9062 134.529 68.5862 141.267 70.116 144.441 70.8429 147.278 74.4559 148.022 75.096 148.767 75.7361 150.424 78.1176 153.044 77.8735z" fill="#341c09"/><path d="M115.014 105.323C114.747 106.365 111.481 109.061 117.231 120.339 117.231 120.339 124.709 132.507 122.301 145.359 120.904 152.823 119.47 156.751 119.47 156.751 119.47 156.751 122.73 160.846 130.235 160.754 132.056 149.726 129.882 130.196 128.85 116.764 128.159 108.112 123.959 103.549 120.573 101.233 117.731 103.072 115.128 104.857 115.014 105.323z" fill="#5fb9e6"/><path d="M142.495 107.645C142.495 107.645 142.18 102.291 141.207 101.309 140.235 100.327 141.289 98.6778 142.327 99.9472 143.011 100.861 143.487 101.912 143.723 103.028 143.723 103.028 144.713 96.8387 142.941 96.101 141.169 95.3632 147.87 95.9599 148.837 98.8785 149.805 101.797 151.391 104.819 146.12 110.526 145.339 110.345 144.609 109.993 143.982 109.494 143.354 108.996 142.847 108.364 142.495 107.645z" fill="#e6a376"/><path d="M121.421 104.867C117.883 102.844 110.97 104.45 114.579 113.276 118.187 122.102 133.827 142.407 138.675 141.925 143.522 141.442 141.751 131.785 137.909 126.155 134.067 120.524 124.736 106.772 121.421 104.867z" fill="#5fb9e6"/><path d="M140.066 141.648C140.066 141.648 149.082 130.348 148.033 108.497 148.033 108.497 145.419 109.831 142.224 107.222 142.224 107.206 128.464 145.223 140.066 141.648z" fill="#5fb9e6"/><path d="M321.776 40.6158V43.1546L319.195 41.6682V38.9558C319.195 36.4224 318.32 34.3935 316.331 33.2434 314.342 32.0934 313.467 33.1241 313.467 35.6575V50.5541C313.467 53.0875 314.374 55.1381 316.331 56.2664 318.287 57.3948 319.195 56.3858 319.195 53.8524V50.1906L321.776 51.677V55.1761C321.776 59.44 320.032 61.2519 316.26 59.0765 312.489 56.9012 310.782 53.1092 310.782 48.8236V34.2796C310.782 30.0157 312.527 28.2038 316.26 30.3574 319.994 32.5111 321.776 36.3465 321.776 40.6158z" fill="url(#paint1_linear)"/><path d="M334.84 48.1021V48.867L332.259 47.3806V46.453C332.259 43.9196 331.422 41.9449 329.466 40.8166 327.509 39.6882 326.672 40.6972 326.672 43.1926 326.672 49.5071 334.873 54.8398 334.873 62.7654 334.873 67.0294 333.09 68.7816 329.357 66.6279 325.624 64.4743 323.89 60.6986 323.89 56.4184V54.7909L326.439 56.2611V58.0458C326.439 60.5847 327.346 62.5919 329.303 63.7202 331.259 64.8486 332.167 63.883 332.167 61.3496 332.167 55.073 324.015 49.7567 324.015 41.8202 324.015 37.4803 325.759 35.7823 329.449 37.8926 333.139 40.0028 334.84 43.8382 334.84 48.1021z" fill="url(#paint2_linear)"/><path d="M347.829 55.5936V56.3531L345.247 54.8667V53.9391C345.247 51.4057 344.41 49.4365 342.454 48.3027 340.497 47.1689 339.65 48.1887 339.65 50.6842 339.65 56.9987 347.85 62.3313 347.85 70.257 347.85 74.5209 346.068 76.2731 342.334 74.1195 338.601 71.9658 336.856 68.1793 336.856 63.9208V62.2933L339.405 63.7634V65.5374C339.405 68.0708 340.313 70.0834 342.269 71.2117 344.226 72.3401 345.133 71.3745 345.133 68.8411 345.133 62.5591 336.981 57.2482 336.981 49.3117 336.981 44.9718 338.726 43.2793 342.416 45.3895 346.106 47.4998 347.829 51.3243 347.829 55.5936z" fill="url(#paint3_linear)"/><path d="M104.77 22.8765C105.221 23.1749 105.71 23.457 106.134 23.7011 107.911 24.6071 108.992 24.2436 108.998 21.4064V0L111.682 1.54608V22.7518C111.682 28.0193 109.411 28.3665 106.482 26.7553 105.894 26.445 105.325 26.1027 104.775 25.73L104.77 22.8765z" fill="url(#paint4_linear)"/><path d="M117.128 27.1785 116.187 32.3104 113.677 30.862 118.356 5.36523 122.274 7.66536 126.969 38.5164 124.252 36.9486 123.307 30.7426 117.128 27.1785zM117.475 24.6831 122.91 27.8241 120.165 9.98177 117.475 24.6831z" fill="url(#paint5_linear)"/><path d="M130.301 12.2765 134.279 39.0589 138.224 16.8171 140.751 18.2926 136.175 43.8219 132.159 41.5109 127.54 10.687 130.301 12.2765z" fill="url(#paint6_linear)"/><path d="M144.718 43.0841 143.778 48.2105 141.267 46.7621 145.941 21.2654 149.886 23.5384 154.565 54.4003 151.848 52.8325 150.897 46.6536 144.718 43.0841zM145.066 40.5886 150.5 43.7296 147.761 25.8819 145.066 40.5886z" fill="url(#paint7_linear)"/><path d="M172.048 89.6778V99.768L169.874 98.5203V76.0886L172.048 77.3418V87.432L176.83 90.1932V80.0976L179.004 81.3507V103.777L176.83 102.529V92.4337L172.048 89.6778z" fill="url(#paint8_linear)"/><path d="M184.063 106.696V86.5369L180.476 84.4755V82.197L189.813 87.5839V89.8569L186.226 87.7955V107.954L184.063 106.696z" fill="url(#paint9_linear)"/><path d="M198.497 115.007 196.41 113.802 193.182 94.0938V111.996L191.291 110.911V88.4248L194.323 90.1716 197.519 109.929 200.605 93.7954 203.632 95.5422V117.968L201.578 116.786V98.732L198.497 115.007z" fill="url(#paint10_linear)"/><path d="M205.871 119.265V96.8333L208.045 98.081V118.261L213.572 121.44V123.713L205.871 119.265z" fill="url(#paint11_linear)"/><path d="M84.0539 158.893 73.234 147.556V145.304L84.0539 146.433V148.727L75.7827 147.903 84.0539 156.615V158.893z" fill="url(#paint12_linear)"/><path d="M98.0202 146.622 88.3905 169.255 86.0156 167.882 95.6454 145.255 98.0202 146.622z" fill="url(#paint13_linear)"/><path d="M99.9929 165.778 108.27 166.608 99.9929 157.895V155.601L110.813 166.944V169.201L99.9929 168.072V165.778z" fill="url(#paint14_linear)"/><path d="M368.333 144.143V146.677L365.735 145.19V142.478C365.735 139.944 364.86 137.91 362.871 136.76 360.882 135.61 360.012 136.641 360.012 139.174V154.065C360.012 156.604 360.92 158.655 362.871 159.783 364.822 160.911 365.735 159.902 365.735 157.369V153.707L368.316 155.194V158.693C368.316 162.962 366.572 164.769 362.8 162.599 359.029 160.429 357.323 156.631 357.323 152.357V137.791C357.323 133.527 359.067 131.715 362.8 133.863 366.534 136.011 368.333 139.879 368.333 144.143z" fill="url(#paint15_linear)"/><path d="M380.837 153.724 380.103 161.552 382.06 162.68 381.848 164.812 379.891 163.684 379.125 171.729 376.892 170.443 377.658 162.393 374.484 160.575 373.68 168.604 371.446 167.318 372.256 159.273 370.229 158.107 370.436 155.975 372.425 157.125 373.191 149.313 371.131 148.131 371.338 145.999 373.365 147.165 373.995 140.606 376.229 141.892 375.598 148.451 378.81 150.301 379.44 143.758 381.674 145.044 381.044 151.608 382.995 152.736 382.788 154.868 380.837 153.724zM378.604 152.438 375.424 150.604 374.658 158.405 377.87 160.255 378.604 152.438z" fill="url(#paint16_linear)"/><path d="M314.054 228.098V218.333L302.587 211.72V195.761L285.306 185.79 270.09 159.555V149.791L285.349 158.584V146.758L270.09 137.959V128.872L289.257 139.917C293.294 142.25 296.566 140.362 296.566 135.708 296.566 131.053 293.305 125.4 289.257 123.073L249.482 100.142C245.445 97.8152 242.173 99.6976 242.173 104.352 242.173 109.007 245.434 114.659 249.482 116.987L268.334 127.836V136.923L253.39 128.314V140.161L268.334 148.771V158.893L253.862 167.237C252.352 166.363 250.504 165.322 248.211 164.047 243.95 161.687 239.706 159.403 237.885 158.432V126.339L248.124 132.241V134.281L252.738 133.874 248.124 128.14V130.196L236.108 123.274V159.555L237.032 160.043C242.651 163.027 248.673 166.32 253.096 168.853L268.34 195.213V207.934L253.395 199.325V211.173L268.34 219.782V235.064L252.58 225.988V238.839L286.175 258.2V245.333L270.09 236.073V228.32L273.97 233.143V231.098L289.316 239.94V243.803L314.038 258.049V248.284L302.571 241.676V221.496L314.054 228.098zM300.805 240.64 289.333 234.027V237.89L273.986 229.047V227.002L270.106 227.349V220.791L285.366 229.59V217.742L270.09 208.948V196.591L285.306 187.846 300.827 196.786v13.893L289.355 204.071V213.836L300.827 220.449 300.805 240.64z" fill="#ff61cb"/><path d="M246.178 127.229C246.178 127.229 246.858 121.05 247.515 119.878 248.173 118.706 250.835 113.694 255.373 112.918 257.83 112.484 256.46 115.088 254.178 117.963 253.14 119.276 252.091 120.03 252.422 122.845 252.553 125.065 252.292 127.291 251.651 129.42 251.183 130.825 246.178 127.229 246.178 127.229z" fill="#efb185"/><path d="M251.792 129.111C252.259 127.673 252.498 124.641 253.688 122.986 255.107 120.996 253.145 119.26 254.172 117.941 255.933 115.69 257.145 113.547 256.444 112.972 255.237 114.789 252.286 114.214 250.738 119.661 250.194 121.657 249.879 126.637 250.118 129.024 251.281 129.437 251.613 129.692 251.792 129.111z" fill="#e6a376"/><path d="M249.906 128.883C249.906 128.883 254.199 123.35 255.254 121.478 256.308 119.607 256.27 117.871 255.754 118.023 255.237 118.175 251.83 123.523 250.319 121.82 249.52 120.93 250.341 127.95 249.906 128.883z" fill="#efb185"/><path d="M207.447 154.939C207.447 154.939 207.991 162.691 217.773 159.995 227.554 157.299 245.243 150.122 247.504 145.407 249.765 140.693 252.069 127.994 252.069 127.994 252.069 127.994 247.292 129.578 245.51 125.699L237.744 141.431C237.744 141.431 206.958 149.536 207.447 154.939z" fill="#5fb9e6"/><path d="M207.447 154.939C206.958 149.514 237.76 141.415 237.76 141.415L245.526 125.683C245.778 126.276 246.164 126.803 246.653 127.223 247.142 127.643 247.722 127.946 248.346 128.108 247.531 132.133 245.934 139.348 244.347 142.646 242.091 147.366 224.424 154.548 214.615 157.244 211.762 158.025 209.724 157.912 208.213 157.385 207.808 156.624 207.548 155.795 207.447 154.939z" fill="#77d2ff"/><g opacity=".1"><path opacity=".1" d="M198.616 280.54C183.297 289.366 183.226 303.682 198.448 312.508 213.67 321.335 238.402 321.329 253.721 312.508 269.041 303.688 269.106 289.366 253.895 280.551 238.684 271.735 213.931 271.714 198.616 280.54z" fill="#000"/></g><path d="M223.43 281.256C223.43 281.256 227.12 281.798 226.223 283.93 225.326 286.062 221.088 289.285 220.533 290.63 219.979 291.975 216.512 296.755 215.398 296.304 214.284 295.854 211.371 296.527 211.708 291.064 212.045 285.601 218.517 281.039 223.43 281.256z" fill="#111114"/><path d="M230.462 301.312C230.462 301.312 228.674 306.547 233.141 307.778 237.608 309.01 236.271 306.216 245.977 308.662 255.683 311.109 256.802 306.107 256.585 304.984 256.368 303.861 249.895 301.865 247.765 301.306 245.635 300.747 241.63 299.744 241.63 299.744H230.114L230.462 301.312z" fill="#111114"/><path d="M212.115 209.355C212.115 209.355 212.056 240.993 212.056 244.552 212.056 248.11 208.067 276.184 210.463 288.449 210.463 288.449 217.376 295.366 223.506 288.449 223.506 288.449 225.457 253.313 227.228 245.376 229 237.44 228.38 213.196 228.38 213.196L212.115 209.355z" fill="#31282e"/><path d="M224.234 213.852C224.234 213.852 225.81 234.277 227.435 254.539 227.435 254.539 228.451 294.742 229.408 300.525 229.408 300.525 242.396 303.747 243.684 297.639 243.684 297.639 243.358 262.253 243.684 254.864 244.01 247.476 244.771 226.839 241.852 214.937 238.934 203.035 224.234 213.852 224.234 213.852z" fill="#31282e"/><path d="M229.408 300.536C228.451 294.753 227.435 254.55 227.435 254.55 226.348 240.912 225.261 227.208 224.718 219.7L232.739 221.664C232.739 221.664 238.516 236.821 237.63 259.551 236.94 277.144 236.657 294.444 236.543 301.388 234.14 301.367 231.747 301.081 229.408 300.536z" fill="#231d21"/><path d="M210.463 288.449C208.067 276.184 212.056 248.121 212.056 244.551 212.056 241.156 212.104 212.312 212.115 209.583L219.088 214.932C219.088 214.932 221.305 237.553 219.088 250.437 217.071 262.155 218.365 284.977 217.392 291.52 213.528 291.52 210.463 288.449 210.463 288.449z" fill="#231d21"/><path d="M210.175 151.895C210.175 151.895 203.475 155.232 207.279 166.602 211.083 177.973 213.746 185.318 213.528 189.555 213.311 193.791 211.751 208.048 210.849 210.95 210.849 210.95 209.762 220.313 231.163 225.885 231.163 225.885 248.803 227.664 245.906 216.077 243.01 204.489 241.88 185.774 242.331 181.309 242.782 176.844 245.461 167.937 234.299 161.921 223.136 155.904 217.316 151.461 210.175 151.895z" fill="#77d2ff"/><path d="M242.314 181.314C241.869 185.774 242.988 204.495 245.89 216.082 247.896 224.116 240.043 225.722 235.021 225.95 233.391 220.78 236.108 211.547 232.407 200.263 227.81 186.311 228.457 177.088 230.918 169.662 232.511 164.839 235.418 164.709 237.478 164.031 244.874 169.868 242.717 177.354 242.314 181.314z" fill="#5fb9e6"/><path d="M218.099 146.292C218.099 146.292 218.811 152.226 216.767 155.942 214.914 159.317 228.929 162.387 229.266 159.268 229.299 158.937 226.614 153.843 230 147.762 231.761 144.588 218.099 146.292 218.099 146.292z" fill="#efb185"/><path d="M216.832 156.149C218.349 153.393 218.349 149.395 218.24 147.534L228.473 152.606C228.103 152.693 221.191 154.445 219.696 159.409 217.593 158.568 216.169 157.38 216.832 156.149z" fill="#dd9569"/><path d="M232.864 130.511C232.864 130.511 235.038 135.935 234.603 140.547 234.146 145.548 234.886 146.557 234.57 148.771 234.44 149.72 234.369 151.158 233.435 152.026 231.886 153.512 228.701 154.065 224.386 152.492 219.164 150.583 213.664 143.416 215.898 136.977 218.131 130.538 224.984 125.265 232.864 130.511z" fill="#efb185"/><path d="M216.137 143.97C218.229 138.171 223.424 131.221 223.376 130.858 223.343 130.63 225.066 129.55 227.027 128.4 229.127 128.571 231.142 129.3 232.864 130.511 233.299 131.646 233.662 132.807 233.951 133.988 232.706 135.371 230.147 136.955 229.788 138.138 228.897 140.905 229.402 145.12 230.223 146.97 231.043 148.819 227.701 151.548 228.408 153.197 228.43 153.27 228.43 153.347 228.408 153.42 227.026 153.313 225.666 153.01 224.37 152.519 221.05 151.293 217.61 147.924 216.137 143.97z" fill="#e6a376"/><path d="M233.614 128.883C235.32 129.849 235.163 132.925 230.598 135.154 227.881 136.489 228.098 140.905 228.234 141.724 228.37 142.543 229.169 146.264 228.832 146.736 228.19 147.653 226.049 144.789 225.027 144.99 222.435 145.489 223.446 147.903 225.805 150.442 228.315 153.127 221.712 154.239 218.658 152.004 217.028 150.832 216.441 150.127 214.311 145.896 211.208 139.733 211.05 132.333 218.354 128.373 225.658 124.413 229.364 126.48 233.614 128.883z" fill="#131c24"/><path d="M218.658 152.009C217.028 150.838 216.441 150.133 214.311 145.901 211.208 139.739 210.143 132.339 217.447 128.401 224.75 124.462 227.728 125.471 231.956 127.858 232.364 128.091 234.521 129.068 234.358 130.142 232.043 130.516 225.712 131.769 224.082 134.482 222.071 137.829 219.838 136.744 220.012 140.905 220.169 144.914 219.137 150.16 225.881 152.416 223.354 154.234 219.843 152.872 218.658 152.009z" fill="#1d2833"/><path d="M228.473 157.423 233.043 161.259C233.043 161.259 218.838 165.322 214.67 158.367 214.083 157.38 214.789 154.082 217.273 153.485 217.273 153.463 217.751 159.127 228.473 157.423z" fill="#def0f9"/><path d="M278.002 161.66C278.002 161.66 281.23 157.396 281.002 156.029 280.774 154.662 282.599 153.93 282.714 155.563 282.732 156.709 282.506 157.846 282.051 158.899 282.051 158.899 284.904 154.624 285.458 152.78 286.442 149.525 289.577 155.541 288.653 158.481 287.73 161.421 287.273 164.828 279.632 166.423 279.638 166.429 277.491 164.275 278.002 161.66z" fill="#f1b287"/><path d="M230.761 166.461C230.761 166.461 227.256 173.394 237.065 176.074 246.874 178.754 265.742 181.58 270.09 178.672 274.437 175.765 282.926 166 282.926 166 282.926 166 278.007 164.915 278.459 160.684L263.742 170.248C263.742 170.248 233.103 161.562 230.761 166.461z" fill="#5fb9e6"/><path d="M230.761 166.461C233.103 161.579 263.737 170.259 263.737 170.259L278.453 160.695C278.367 161.333 278.429 161.982 278.635 162.593 278.84 163.203 279.183 163.758 279.638 164.215 276.877 167.264 271.818 172.651 268.769 174.674 264.421 177.588 245.553 174.761 235.733 172.076 232.88 171.295 231.185 170.156 230.158 168.935 230.203 168.08 230.408 167.241 230.761 166.461z" fill="#77d2ff"/><defs><linearGradient id="paint0_linear" x1="271.774" y1="53.1851" x2="271.774" y2="256.161" gradientUnits="userSpaceOnUse"><stop stop-color="#fff2c9"/><stop offset="1" stop-color="#ffb7bb"/></linearGradient><linearGradient id="paint1_linear" x1="6597.9" y1="2548.57" x2="6820.31" y2="2548.57" gradientUnits="userSpaceOnUse"><stop stop-color="#fff2c9"/><stop offset="1" stop-color="#ffb7bb"/></linearGradient><linearGradient id="paint2_linear" x1="6869.5" y1="2982.47" x2="7091.69" y2="2982.47" gradientUnits="userSpaceOnUse"><stop stop-color="#fff2c9"/><stop offset="1" stop-color="#ffb7bb"/></linearGradient><linearGradient id="paint3_linear" x1="7151.83" y1="3411.54" x2="7374.23" y2="3411.54" gradientUnits="userSpaceOnUse"><stop stop-color="#fff2c9"/><stop offset="1" stop-color="#ffb7bb"/></linearGradient><linearGradient id="paint4_linear" x1="1437.44" y1="702.249" x2="1525.3" y2="702.249" gradientUnits="userSpaceOnUse"><stop stop-color="#fff2c9"/><stop offset="1" stop-color="#ffb7bb"/></linearGradient><linearGradient id="paint5_linear" x1="2894.08" y1="1347.32" x2="3219.35" y2="1347.32" gradientUnits="userSpaceOnUse"><stop stop-color="#fff2c9"/><stop offset="1" stop-color="#ffb7bb"/></linearGradient><linearGradient id="paint6_linear" x1="3228.03" y1="1675.38" x2="3548.8" y2="1675.38" gradientUnits="userSpaceOnUse"><stop stop-color="#fff2c9"/><stop offset="1" stop-color="#ffb7bb"/></linearGradient><linearGradient id="paint7_linear" x1="3598.08" y1="2334.08" x2="3923.48" y2="2334.08" gradientUnits="userSpaceOnUse"><stop stop-color="#fff2c9"/><stop offset="1" stop-color="#ffb7bb"/></linearGradient><linearGradient id="paint8_linear" x1="3023.85" y1="4666.27" x2="3177.04" y2="4666.27" gradientUnits="userSpaceOnUse"><stop stop-color="#fff2c9"/><stop offset="1" stop-color="#ffb7bb"/></linearGradient><linearGradient id="paint9_linear" x1="3281.05" y1="4596.13" x2="3441.45" y2="4596.13" gradientUnits="userSpaceOnUse"><stop stop-color="#fff2c9"/><stop offset="1" stop-color="#ffb7bb"/></linearGradient><linearGradient id="paint10_linear" x1="4535.64" y1="5709.11" x2="4815.92" y2="5709.11" gradientUnits="userSpaceOnUse"><stop stop-color="#fff2c9"/><stop offset="1" stop-color="#ffb7bb"/></linearGradient><linearGradient id="paint11_linear" x1="3123.06" y1="5561.01" x2="3232.56" y2="5561.01" gradientUnits="userSpaceOnUse"><stop stop-color="#fff2c9"/><stop offset="1" stop-color="#ffb7bb"/></linearGradient><linearGradient id="paint12_linear" x1="1531.32" y1="3955.17" x2="1746.75" y2="3955.17" gradientUnits="userSpaceOnUse"><stop stop-color="#fff2c9"/><stop offset="1" stop-color="#ffb7bb"/></linearGradient><linearGradient id="paint13_linear" x1="1986.1" y1="7101.74" x2="2251.28" y2="7101.74" gradientUnits="userSpaceOnUse"><stop stop-color="#fff2c9"/><stop offset="1" stop-color="#ffb7bb"/></linearGradient><linearGradient id="paint14_linear" x1="2090.75" y1="4227.05" x2="2306.17" y2="4227.05" gradientUnits="userSpaceOnUse"><stop stop-color="#fff2c9"/><stop offset="1" stop-color="#ffb7bb"/></linearGradient><linearGradient id="paint15_linear" x1="7596.97" y1="8485.68" x2="7819.71" y2="8485.68" gradientUnits="userSpaceOnUse"><stop stop-color="#fff2c9"/><stop offset="1" stop-color="#ffb7bb"/></linearGradient><linearGradient id="paint16_linear" x1="9066.77" y1="9099.77" x2="9366.89" y2="9099.77" gradientUnits="userSpaceOnUse"><stop stop-color="#fff2c9"/><stop offset="1" stop-color="#ffb7bb"/></linearGradient></defs></svg>