<svg width="336" height="310" viewBox="0 0 336 310" fill="none" xmlns="http://www.w3.org/2000/svg">
<path d="M98.9053 170.418C90.3312 151.668 125.298 134.767 161.782 122.37C198.266 109.974 119.388 35.0493 48.8368 35C-21.7144 34.9507 -73 101.465 -73 101.465C-73 101.465 -53.3447 272.912 -36.2896 219.47C-19.2346 166.027 37.4047 288.257 93.1892 262.345C148.974 236.434 107.479 189.168 98.9053 170.418Z" stroke="black" stroke-opacity="0.1"/>
<path d="M110.7 176.556C101.388 156.264 139.365 137.973 178.989 124.557C218.612 111.141 132.946 30.0534 56.3228 30C-20.3005 29.9467 -76 101.932 -76 101.932C-76 101.932 -54.653 287.481 -36.1301 229.642C-17.6073 171.804 43.9067 304.088 104.492 276.045C165.078 248.002 120.012 196.848 110.7 176.556Z" stroke="black" stroke-opacity="0.1"/>
<path d="M89.883 163.59C82.2576 147.031 113.355 132.106 145.802 121.158C178.249 110.211 108.099 44.0436 45.3549 44C-17.3895 43.9565 -63 102.696 -63 102.696C-63 102.696 -45.5196 254.104 -30.3519 206.908C-15.1841 159.712 35.1878 267.656 84.7994 244.773C134.411 221.89 97.5083 180.148 89.883 163.59Z" stroke="black" stroke-opacity="0.1"/>
<path d="M126.768 191.488C116.156 168.435 159.435 147.657 204.591 132.416C249.747 117.176 152.12 25.0607 64.798 25C-22.5236 24.9394 -86 106.715 -86 106.715C-86 106.715 -61.6725 317.498 -40.5634 251.794C-19.4543 186.09 50.6484 336.364 119.693 304.507C188.738 272.65 137.38 214.54 126.768 191.488Z" stroke="black" stroke-opacity="0.1"/>
<g filter="url(#filter0_d)">
<circle r="30.0615" transform="matrix(-1 0 0 1 -1.5874 32.0615)" fill="url(#paint0_linear)"/>
</g>
<circle cx="287.33" cy="284.558" r="3.1493" fill="#9BCA7F"/>
<circle r="5.1534" transform="matrix(-1 0 0 1 326.152 266.153)" stroke="url(#paint1_linear)" stroke-width="9"/>
<defs>
<filter id="filter0_d" x="-42.6489" y="0" width="132.123" height="132.123" filterUnits="userSpaceOnUse" color-interpolation-filters="sRGB">
<feFlood flood-opacity="0" result="BackgroundImageFix"/>
<feColorMatrix in="SourceAlpha" type="matrix" values="0 0 0 0 0 0 0 0 0 0 0 0 0 0 0 0 0 0 127 0"/>
<feMorphology radius="20" operator="erode" in="SourceAlpha" result="effect1_dropShadow"/>
<feOffset dx="25" dy="34"/>
<feGaussianBlur stdDeviation="28"/>
<feColorMatrix type="matrix" values="0 0 0 0 0.172549 0 0 0 0 0.494118 0 0 0 0 0.705882 0 0 0 0.58 0"/>
<feBlend mode="normal" in2="BackgroundImageFix" result="effect1_dropShadow"/>
<feBlend mode="normal" in="SourceGraphic" in2="effect1_dropShadow" result="shape"/>
</filter>
<linearGradient id="paint0_linear" x1="4.60402" y1="16.3849" x2="57.5886" y2="11.3547" gradientUnits="userSpaceOnUse">
<stop stop-color="#2C7EB4"/>
<stop offset="1" stop-color="#3F5083"/>
</linearGradient>
<linearGradient id="paint1_linear" x1="-1.58566" y1="1.27683e-07" x2="8.85328" y2="9.2497" gradientUnits="userSpaceOnUse">
<stop stop-color="#FFB8BB"/>
<stop offset="1" stop-color="#FFF0C9"/>
</linearGradient>
</defs>
</svg>
