<svg width="22" height="22" viewBox="0 0 22 22" fill="none" xmlns="http://www.w3.org/2000/svg"><path d="M18.6055 22C18.1308 22 17.7461 21.6153 17.7461 21.1406 17.7461 17.7762 15.0089 15.0391 11.6445 15.0391H10.3555C6.99106 15.0391 4.25391 17.7762 4.25391 21.1406 4.25391 21.6153 3.86916 22 3.39453 22 2.9199 22 2.53516 21.6153 2.53516 21.1406 2.53516 16.8285 6.04334 13.3203 10.3555 13.3203H11.6445C15.9567 13.3203 19.4648 16.8285 19.4648 21.1406 19.4648 21.6153 19.0801 22 18.6055 22z" fill="url(#paint0_linear)"/><path d="M10.9141 11.6016C7.71551 11.6016 5.11328 8.99933 5.11328 5.80078 5.11328 2.60223 7.71551.0 10.9141.0 14.1126.0 16.7148 2.60223 16.7148 5.80078 16.7148 8.99933 14.1126 11.6016 10.9141 11.6016zm0-9.88285C8.66323 1.71875 6.83203 3.54995 6.83203 5.80078 6.83203 8.05161 8.66323 9.88281 10.9141 9.88281 13.1649 9.88281 14.9961 8.05161 14.9961 5.80078 14.9961 3.54995 13.1649 1.71875 10.9141 1.71875z" fill="url(#paint1_linear)"/><defs><linearGradient id="paint0_linear" x1="11" y1="13.3203" x2="11" y2="22" gradientUnits="userSpaceOnUse"><stop stop-color="#65a361"/><stop offset="1" stop-color="#8ac74f"/></linearGradient><linearGradient id="paint1_linear" x1="10.9141" y1="0" x2="10.9141" y2="11.6016" gradientUnits="userSpaceOnUse"><stop stop-color="#65a361"/><stop offset="1" stop-color="#8ac74f"/></linearGradient></defs></svg>