<svg width="17" height="17" viewBox="0 0 17 17" fill="none" xmlns="http://www.w3.org/2000/svg"><path d="M14.5104 2.48957C12.905.884166 10.7704.0 8.5.0 6.22954.0 4.09501.884166 2.48957 2.48957.884166 4.09501.0 6.22957.0 8.5.0 10.7704.884166 12.905 2.48957 14.5104 4.09501 16.1158 6.22957 17 8.5 17 10.7704 17 12.905 16.1158 14.5104 14.5104 16.1158 12.905 17 10.7704 17 8.5 17 6.22957 16.1158 4.09504 14.5104 2.48957zM12.5609 6.47703 7.81074 11.2273C7.71348 11.3245 7.58602 11.3731 7.45858 11.3731 7.33112 11.3731 7.20365 11.3245 7.1064 11.2273L4.43906 8.55997C4.24455 8.36549 4.24455 8.05016 4.43906 7.85563 4.63353 7.66112 4.94889 7.66112 5.1434 7.85563L7.45858 10.1708 11.8566 5.7727C12.0511 5.57819 12.3664 5.57819 12.5609 5.7727 12.7554 5.9672 12.7554 6.28253 12.5609 6.47703z" fill="#fff"/></svg>