<svg width="17" height="17" viewBox="0 0 17 17" fill="none" xmlns="http://www.w3.org/2000/svg">
<path d="M17 8.5C17 3.80508 13.1949 0 8.5 0C3.80508 0 0 3.80508 0 8.5C0 13.1949 3.80508 17 8.5 17C8.5498 17 8.59961 17 8.64941 16.9967V10.3826H6.82324V8.2543H8.64941V6.68711C8.64941 4.8709 9.7584 3.88145 11.3787 3.88145C12.1557 3.88145 12.823 3.93789 13.0156 3.96445V5.86367H11.9C11.0201 5.86367 10.8475 6.28203 10.8475 6.89629V8.25098H12.9559L12.6803 10.3793H10.8475V16.6713C14.4002 15.652 17 12.3814 17 8.5Z" fill="black" fill-opacity="0.32"/>
</svg>
