<svg width="20" height="20" viewBox="0 0 20 20" fill="none" xmlns="http://www.w3.org/2000/svg">
<g clip-path="url(#clip0)">
<path d="M11.9139 10C11.9139 11.0571 11.057 11.9141 9.99988 11.9141C8.94275 11.9141 8.08582 11.0571 8.08582 10C8.08582 8.94287 8.94275 8.08594 9.99988 8.08594C11.057 8.08594 11.9139 8.94287 11.9139 10Z" fill="white"/>
<path d="M14.4762 6.61343C14.3842 6.36411 14.2374 6.13843 14.0467 5.95319C13.8614 5.76245 13.6359 5.61566 13.3864 5.52365C13.1841 5.44507 12.8801 5.35153 12.3203 5.32605C11.7147 5.29843 11.5331 5.29248 9.99988 5.29248C8.46652 5.29248 8.28494 5.29828 7.67947 5.3259C7.11963 5.35153 6.81552 5.44507 6.61334 5.52365C6.36386 5.61566 6.13818 5.76245 5.95309 5.95319C5.76236 6.13843 5.61557 6.36395 5.52341 6.61343C5.44482 6.81577 5.35129 7.11987 5.32581 7.67972C5.29819 8.28519 5.29224 8.46677 5.29224 10.0001C5.29224 11.5333 5.29819 11.7149 5.32581 12.3205C5.35129 12.8804 5.44482 13.1843 5.52341 13.3867C5.61557 13.6361 5.76221 13.8617 5.95294 14.0469C6.13818 14.2376 6.36371 14.3844 6.61319 14.4764C6.81552 14.5552 7.11963 14.6487 7.67947 14.6742C8.28494 14.7018 8.46637 14.7076 9.99972 14.7076C11.5332 14.7076 11.7148 14.7018 12.3201 14.6742C12.88 14.6487 13.1841 14.5552 13.3864 14.4764C13.8872 14.2833 14.283 13.8875 14.4762 13.3867C14.5548 13.1843 14.6483 12.8804 14.6739 12.3205C14.7016 11.7149 14.7074 11.5333 14.7074 10.0001C14.7074 8.46677 14.7016 8.28519 14.6739 7.67972C14.6485 7.11987 14.5549 6.81577 14.4762 6.61343ZM9.99988 12.9486C8.37131 12.9486 7.05112 11.6285 7.05112 9.99997C7.05112 8.3714 8.37131 7.05136 9.99988 7.05136C11.6283 7.05136 12.9485 8.3714 12.9485 9.99997C12.9485 11.6285 11.6283 12.9486 9.99988 12.9486ZM13.0651 7.62387C12.6845 7.62387 12.376 7.31534 12.376 6.93478C12.376 6.55423 12.6845 6.2457 13.0651 6.2457C13.4456 6.2457 13.7541 6.55423 13.7541 6.93478C13.754 7.31534 13.4456 7.62387 13.0651 7.62387Z" fill="white"/>
<path d="M9.99988 0C4.47787 0 -0.00012207 4.478 -0.00012207 10C-0.00012207 15.522 4.47787 20 9.99988 20C15.5219 20 19.9999 15.522 19.9999 10C19.9999 4.478 15.5219 0 9.99988 0ZM15.7074 12.3674C15.6797 12.9787 15.5825 13.396 15.4406 13.7613C15.1422 14.5326 14.5325 15.1424 13.7612 15.4407C13.396 15.5826 12.9785 15.6796 12.3674 15.7076C11.7551 15.7355 11.5595 15.7422 10 15.7422C8.44043 15.7422 8.24496 15.7355 7.63248 15.7076C7.02136 15.6796 6.60388 15.5826 6.23874 15.4407C5.85544 15.2965 5.50845 15.0705 5.22159 14.7783C4.92953 14.4916 4.70355 14.1444 4.55936 13.7613C4.41745 13.3961 4.32025 12.9787 4.29248 12.3676C4.26425 11.7551 4.25769 11.5594 4.25769 10C4.25769 8.44055 4.26425 8.24493 4.29233 7.6326C4.3201 7.02133 4.41714 6.604 4.55905 6.23871C4.70325 5.85556 4.92938 5.50842 5.22159 5.22171C5.5083 4.9295 5.85544 4.70352 6.23859 4.55933C6.60388 4.41742 7.02121 4.32037 7.63248 4.29245C8.24481 4.26453 8.44043 4.25781 9.99988 4.25781C11.5593 4.25781 11.7549 4.26453 12.3673 4.2926C12.9785 4.32037 13.3959 4.41742 13.7612 4.55917C14.1443 4.70337 14.4915 4.9295 14.7783 5.22171C15.0704 5.50858 15.2965 5.85556 15.4406 6.23871C15.5826 6.604 15.6797 7.02133 15.7076 7.6326C15.7355 8.24493 15.7421 8.44055 15.7421 10C15.7421 11.5594 15.7355 11.7551 15.7074 12.3674Z" fill="white"/>
</g>
<defs>
<clipPath id="clip0">
<rect width="20" height="20" fill="white" transform="translate(-0.00012207)"/>
</clipPath>
</defs>
</svg>
