<svg width="479" height="394" viewBox="0 0 479 394" fill="none" xmlns="http://www.w3.org/2000/svg">
<g clip-path="url(#clip0)">
<path d="M49.5148 123.179C53.6602 120.778 55.3051 124.102 55.3152 128.975C55.3152 134.49 53.4055 139.369 49.4588 141.653C45.5121 143.936 43.6686 140.857 43.638 135.826C43.6228 130.688 45.5019 125.493 49.5148 123.179ZM49.5148 138.472C50.9255 137.651 51.6741 135.209 51.6639 131.126C51.6639 127.201 50.9153 125.519 49.4588 126.37C48.1195 127.145 47.2079 129.622 47.2639 133.741C47.2385 137.855 48.1042 139.298 49.5148 138.477V138.472Z" fill="#FFD2CD"/>
<path d="M62.7504 115.527C66.8957 113.132 68.5304 116.455 68.5457 121.329C68.5457 126.839 66.6411 131.712 62.6893 134.001C58.7374 136.29 56.899 133.201 56.8736 128.18C56.8583 123.041 58.7374 117.847 62.7504 115.527ZM62.7504 130.82C64.1661 130 64.9096 127.548 64.8994 123.475C64.8994 119.549 64.1508 117.867 62.7045 118.708C61.3601 119.488 60.4536 121.971 60.5046 126.08C60.474 130.193 61.3346 131.636 62.7504 130.82Z" fill="#FFD2CD"/>
<path d="M78.4507 106.765L78.4914 124.576L74.9928 126.61L74.9521 112.494L74.8961 112.525L71.9577 115.833L71.3313 113.06L75.4461 108.503L78.4507 106.765Z" fill="#FFD2CD"/>
<path d="M91.6811 99.1182L91.7321 116.929L88.2284 118.953L88.1927 104.843L88.1367 104.878L85.183 108.182L84.5668 105.404L88.6816 100.856L91.6811 99.1182Z" fill="#FFD2CD"/>
<path d="M102.442 92.5882C106.597 90.1872 108.237 93.5058 108.252 98.3842C108.252 103.89 106.348 108.778 102.396 111.052C98.444 113.325 96.6056 110.257 96.5751 105.235C96.5649 100.087 98.444 94.9025 102.442 92.5882ZM102.472 107.881C103.888 107.065 104.631 104.613 104.616 100.54C104.616 96.6102 103.868 94.9331 102.426 95.7742C101.082 96.549 100.175 99.0316 100.221 103.15C100.267 107.269 101.067 108.702 102.477 107.886L102.472 107.881Z" fill="#FFD2CD"/>
<path d="M115.687 84.9314C119.833 82.5406 121.473 85.8591 121.488 90.7325C121.488 96.2379 119.573 101.126 115.626 103.415C111.68 105.704 109.836 102.615 109.806 97.5785C109.795 92.4503 111.669 87.2508 115.687 84.9314ZM115.687 100.224C117.108 99.4086 117.847 96.9617 117.831 92.8836C117.831 88.9534 117.093 87.2763 115.637 88.1225C114.297 88.8973 113.386 91.3748 113.442 95.4936C113.416 99.6125 114.277 101.05 115.687 100.229V100.224Z" fill="#FFD2CD"/>
<path d="M128.918 77.2851C133.063 74.8892 134.713 78.2128 134.718 83.0811C134.718 88.5967 132.814 93.4751 128.862 95.7588C124.91 98.0426 123.072 94.9636 123.041 89.9373C123.031 84.7939 124.915 79.5994 128.918 77.2851ZM128.918 92.5779C130.334 91.7572 131.082 89.3052 131.067 85.2374C131.067 81.302 130.323 79.63 128.867 80.4711C127.533 81.2459 126.621 83.7285 126.667 87.8422C126.713 91.956 127.507 93.3986 128.918 92.583V92.5779Z" fill="#FFD2CD"/>
<path d="M144.603 68.5376L144.654 86.3436L141.17 88.3673L141.13 74.252L141.074 74.2826L138.12 77.591L137.514 74.8128L141.624 70.2555L144.603 68.5376Z" fill="#FFD2CD"/>
<path d="M155.384 61.987C159.539 59.5962 161.179 62.9148 161.2 67.7881C161.2 73.3037 159.29 78.1822 155.338 80.4608C151.386 82.7394 149.548 79.6707 149.517 74.6291C149.497 69.4958 151.386 64.3064 155.384 61.987ZM155.414 77.2799C156.83 76.4592 157.574 74.0123 157.563 69.9342C157.563 66.0141 156.815 64.3268 155.363 65.1781C154.024 65.953 153.113 68.4304 153.169 72.5442C153.138 76.6631 154.004 78.1057 155.414 77.285V77.2799Z" fill="#FFD2CD"/>
<path d="M168.63 54.3405C172.775 51.9447 174.42 55.2683 174.43 60.1314C174.43 65.642 172.52 70.5357 168.568 72.8143C164.617 75.0929 162.778 72.014 162.753 66.9826C162.732 61.8391 164.612 56.6498 168.63 54.3405ZM168.63 69.6334C170.05 68.8127 170.794 66.3709 170.779 62.2877C170.779 58.3575 170.035 56.6804 168.584 57.5215C167.239 58.2963 166.338 60.7737 166.389 64.8926C166.44 69.0115 167.224 70.449 168.635 69.6334H168.63Z" fill="#FFD2CD"/>
<path d="M184.315 45.583L184.36 63.3941L180.877 65.4229L180.831 51.2974L180.78 51.3382L177.837 54.6466L177.216 51.8684L181.32 47.3111L184.315 45.583Z" fill="#FFD2CD"/>
<path d="M195.096 39.0478C199.236 36.6417 200.891 39.9603 200.896 44.8336C200.896 50.3492 198.986 55.2327 195.04 57.5165C191.093 59.8002 189.249 56.7162 189.219 51.6848C189.203 46.5515 191.088 41.357 195.096 39.0478ZM195.096 54.3407C196.501 53.5301 197.26 51.0782 197.239 47.0052C197.239 43.0647 196.501 41.3978 195.04 42.2389C193.7 43.0086 192.799 45.5014 192.845 49.605C192.89 53.7086 193.68 55.1665 195.096 54.3458V54.3407Z" fill="#FFD2CD"/>
<path d="M208.331 31.4064C212.471 28.9952 214.116 32.3189 214.131 37.1871C214.131 42.7027 212.232 47.5862 208.27 49.8649C204.308 52.1435 202.485 49.0696 202.454 44.0383C202.434 38.8948 204.328 33.7105 208.331 31.4064ZM208.331 46.6687C209.747 45.8581 210.495 43.4113 210.48 39.3332C210.48 35.4029 209.731 33.7258 208.275 34.572C206.936 35.3417 206.034 37.8294 206.08 41.9432C206.126 46.0569 206.925 47.4945 208.331 46.6737V46.6687Z" fill="#FFD2CD"/>
<path d="M221.562 23.7499C225.712 21.354 227.352 24.6674 227.367 29.5408C227.367 35.0513 225.462 39.9348 221.505 42.2134C217.549 44.4921 215.715 41.4182 215.69 36.3869C215.675 31.2485 217.559 26.0591 221.562 23.7499ZM221.562 39.0427C222.972 38.2322 223.721 35.77 223.705 31.7021C223.705 27.7719 222.962 26.0948 221.511 26.941C220.166 27.7107 219.27 30.1933 219.311 34.307C219.351 38.4208 220.146 39.8685 221.562 39.0478V39.0427Z" fill="#FFD2CD"/>
<path d="M237.252 14.9922L237.297 32.8033L233.814 34.8168L233.763 20.7066L233.717 20.7372L230.774 24.0507L230.158 21.2776L234.257 16.7254L237.252 14.9922Z" fill="#FFD2CD"/>
<path d="M250.482 7.35083L250.533 25.1568L247.045 27.1653L247.004 13.0653L246.953 13.0907L244.004 16.3991L243.388 13.626L247.498 9.06873L250.482 7.35083Z" fill="#FFD2CD"/>
<path d="M261.248 0.79526C265.398 -1.60062 267.038 1.72303 267.048 6.59635C267.048 12.112 265.154 16.9853 261.197 19.2741C257.24 21.563 255.412 18.4789 255.371 13.4475C255.376 8.30405 257.265 3.11468 261.248 0.79526ZM261.248 16.0881C262.648 15.2878 263.412 12.8154 263.402 8.74245C263.402 4.81728 262.648 3.13507 261.202 3.98637C259.868 4.75611 258.956 7.23865 258.997 11.3575C259.037 15.4764 259.842 16.9139 261.248 16.0932V16.0881Z" fill="#FFD2CD"/>
<path d="M49.6065 156.099C53.7569 153.693 55.3916 157.007 55.4069 161.885C55.4069 167.401 53.5023 172.284 49.5555 174.573C45.6088 176.862 43.7653 173.762 43.7246 168.731C43.7093 163.598 45.5986 158.414 49.6065 156.099ZM49.637 171.392C51.0426 170.571 51.7861 168.13 51.781 164.046C51.781 160.116 51.0222 158.439 49.5708 159.285C48.2315 160.06 47.3301 162.543 47.3708 166.661C47.4116 170.78 48.2111 172.213 49.6319 171.397L49.637 171.392Z" fill="#FFD2CD"/>
<path d="M62.842 148.443C66.9925 146.047 68.6272 149.365 68.6424 154.244C68.6424 159.754 66.7429 164.633 62.7911 166.916C58.8393 169.2 56.9958 166.121 56.9652 161.09C56.95 155.951 58.8342 150.762 62.842 148.443ZM62.842 163.735C64.2578 162.92 65.0013 160.468 64.986 156.4C64.986 152.465 64.2374 150.793 62.7911 151.629C61.4467 152.409 60.5453 154.891 60.586 159.005C60.6268 163.119 61.4314 164.556 62.842 163.741V163.735Z" fill="#FFD2CD"/>
<path d="M76.0724 140.796C80.2229 138.395 81.8627 141.724 81.8779 146.592C81.8779 152.108 79.9733 156.986 76.0266 159.27C72.0799 161.554 70.2364 158.48 70.2058 153.443C70.1804 148.3 72.0748 143.105 76.0724 140.796ZM76.103 156.089C77.5085 155.268 78.2571 152.821 78.2469 148.754C78.2469 144.818 77.4983 143.146 76.0419 143.987C74.7025 144.757 73.7961 147.24 73.8419 151.353C73.8877 155.467 74.6924 156.915 76.103 156.094V156.089Z" fill="#FFD2CD"/>
<path d="M91.7728 132.033L91.8339 149.855L88.3201 151.873L88.2793 137.758L88.2284 137.789L85.2798 141.102L84.6687 138.324L88.7733 133.762L91.7728 132.033Z" fill="#FFD2CD"/>
<path d="M102.544 125.498C106.694 123.102 108.329 126.416 108.344 131.289C108.344 136.8 106.444 141.683 102.498 143.972C98.551 146.261 96.7075 143.172 96.6667 138.145C96.6464 133.012 98.5408 127.818 102.544 125.498ZM102.544 140.791C103.954 139.976 104.708 137.529 104.698 133.451C104.698 129.525 103.944 127.843 102.488 128.684C101.153 129.469 100.242 131.937 100.282 136.066C100.323 140.195 101.133 141.612 102.538 140.791H102.544Z" fill="#FFD2CD"/>
<path d="M115.774 117.857C119.929 115.451 121.564 118.77 121.574 123.648C121.574 129.158 119.68 134.042 115.723 136.321C111.766 138.599 109.938 135.525 109.902 130.499C109.887 125.361 111.771 120.161 115.774 117.857ZM115.805 133.15C117.215 132.329 117.954 129.887 117.948 125.809C117.948 121.884 117.195 120.202 115.754 121.043C114.399 121.813 113.498 124.295 113.549 128.419C113.599 132.543 114.389 133.966 115.799 133.15H115.805Z" fill="#FFD2CD"/>
<path d="M129.01 110.205C133.16 107.805 134.8 111.123 134.815 115.991C134.815 121.512 132.916 126.39 128.959 128.674C125.002 130.958 123.173 127.874 123.138 122.853C123.123 117.704 125.012 112.515 129.01 110.205ZM129.045 125.498C130.451 124.683 131.194 122.236 131.184 118.158C131.184 114.228 130.43 112.55 128.984 113.392C127.645 114.166 126.738 116.649 126.779 120.768C126.82 124.887 127.624 126.319 129.045 125.503V125.498Z" fill="#FFD2CD"/>
<path d="M144.695 101.443L144.751 119.264L141.262 121.283L141.227 107.167L141.165 107.193L138.217 110.501L137.601 107.723L141.71 103.171L144.695 101.443Z" fill="#FFD2CD"/>
<path d="M157.95 93.7859L158.001 111.602L154.498 113.626L154.457 99.5105L154.401 99.5462L151.463 102.855L150.836 100.087L154.946 95.5191L157.95 93.7859Z" fill="#FFD2CD"/>
<path d="M171.181 86.1345L171.242 103.956L167.733 105.974L167.698 91.8642L167.636 91.8999L164.688 95.2032L164.072 92.4403L168.186 87.883L171.181 86.1345Z" fill="#FFD2CD"/>
<path d="M181.952 79.6096C186.102 77.2137 187.742 80.5272 187.752 85.4005C187.752 90.9161 185.847 95.7945 181.901 98.0783C177.954 100.362 176.11 97.283 176.075 92.2517C176.06 87.1184 177.949 81.9188 181.952 79.6096ZM181.977 94.9025C183.393 94.0817 184.136 91.6349 184.126 87.5568C184.126 83.6367 183.372 81.9494 181.921 82.8007C180.587 83.5755 179.67 86.053 179.716 90.177C179.762 94.3009 180.561 95.7283 181.972 94.9075L181.977 94.9025Z" fill="#FFD2CD"/>
<path d="M195.192 71.9581C199.338 69.5622 200.977 72.8859 200.982 77.7592C200.982 83.2697 199.083 88.1532 195.131 90.4319C191.179 92.7105 189.341 89.6417 189.321 84.6206C189.3 79.4567 191.184 74.2724 195.192 71.9581ZM195.192 87.2509C196.583 86.4404 197.341 83.9885 197.336 79.9104C197.336 75.975 196.583 74.303 195.141 75.1441C193.797 75.9139 192.885 78.4015 192.941 82.5153C192.911 86.6239 193.777 88.0666 195.192 87.256V87.2509Z" fill="#FFD2CD"/>
<path d="M208.418 64.3117C212.563 61.9158 214.213 65.2293 214.223 70.1077C214.223 75.6131 212.318 80.5017 208.367 82.7855C204.415 85.0692 202.581 81.9851 202.551 76.9742C202.531 71.8103 204.42 66.6209 208.418 64.3117ZM208.448 79.6045C209.859 78.7889 210.612 76.3421 210.592 72.264C210.592 68.3388 209.843 66.6566 208.392 67.4977C207.053 68.2725 206.146 70.75 206.187 74.8689C206.228 78.9877 207.032 80.4202 208.443 79.6045H208.448Z" fill="#FFD2CD"/>
<path d="M224.113 55.554L224.159 73.3701L220.67 75.3837L220.635 61.2684L220.579 61.3041L217.625 64.6124L217.009 61.8291L221.118 57.282L224.113 55.554Z" fill="#FFD2CD"/>
<path d="M234.894 49.0135C239.039 46.6075 240.679 49.9362 240.684 54.8044C240.715 60.315 238.784 65.1985 234.838 67.4873C230.891 69.7761 229.047 66.687 229.017 61.6658C229.002 56.5223 230.881 51.333 234.894 49.0135ZM234.894 64.3064C236.294 63.501 237.058 61.0388 237.048 56.9658C237.048 53.0407 236.294 51.3584 234.843 52.1995C233.503 52.9795 232.592 55.4569 232.633 59.5758C232.673 63.6947 233.483 65.1271 234.894 64.3115V64.3064Z" fill="#FFD2CD"/>
<path d="M248.129 41.3672C252.28 38.9713 253.909 42.2847 253.925 47.1581C253.925 52.6737 252.02 57.5521 248.068 59.8409C244.116 62.1298 242.278 59.0406 242.252 54.0347C242.242 48.8658 244.116 43.6764 248.129 41.3672ZM248.129 56.66C249.53 55.8495 250.289 53.3975 250.278 49.3195C250.278 45.3892 249.53 43.7121 248.058 44.5634C246.744 45.328 245.833 47.8055 245.883 51.9243C245.853 56.0432 246.714 57.4807 248.129 56.66Z" fill="#FFD2CD"/>
<path d="M261.36 33.7209C265.5 31.3199 267.145 34.6384 267.165 39.5067C267.165 45.0223 265.261 49.9058 261.304 52.1844C257.347 54.4631 255.508 51.3892 255.483 46.3528C255.468 41.2195 257.357 36.0301 261.36 33.7209ZM261.36 49.0137C262.76 48.2032 263.524 45.7513 263.514 41.6681C263.514 37.7378 262.76 36.0607 261.309 36.9069C259.975 37.6817 259.058 40.1643 259.114 44.278C259.089 48.3918 259.949 49.8344 261.36 49.0188V49.0137Z" fill="#FFD2CD"/>
<path d="M49.6981 189.01C53.8435 186.614 55.4884 189.907 55.5036 194.795C55.5036 200.316 53.5939 205.195 49.6421 207.478C45.6903 209.762 43.8519 206.688 43.8264 201.652C43.7959 196.518 45.6903 191.324 49.6981 189.01ZM49.6981 204.302C51.1088 203.487 51.8574 201.04 51.8421 196.962C51.8421 193.032 51.0935 191.355 49.6472 192.206C48.3028 192.965 47.3963 195.458 47.4472 199.572C47.4981 203.686 48.2875 205.123 49.6981 204.308V204.302Z" fill="#FFD2CD"/>
<path d="M62.9337 181.363C67.079 178.962 68.7239 182.26 68.7392 187.164C68.7392 192.67 66.8295 197.553 62.8776 199.832C58.9258 202.11 57.0874 199.047 57.0365 194.005C57.0365 188.862 58.9207 183.672 62.9337 181.363ZM62.9337 196.656C64.3494 195.835 65.0929 193.393 65.0725 189.32C65.0725 185.39 64.3341 183.713 62.8827 184.554C61.5383 185.329 60.6318 187.817 60.6828 191.925C60.7337 196.034 61.523 197.482 62.9337 196.661V196.656Z" fill="#FFD2CD"/>
<path d="M76.1692 173.717C80.3146 171.316 81.9544 174.609 81.9696 179.507C81.9696 185.018 80.0599 189.902 76.1132 192.19C72.1665 194.479 70.323 191.38 70.2873 186.359C70.2771 181.215 72.1614 176.031 76.1692 173.717ZM76.1692 189.009C77.585 188.199 78.3285 185.747 78.3132 181.669C78.3132 177.734 77.5646 176.061 76.1183 176.903C74.784 177.683 73.8674 180.155 73.9183 184.269C73.8929 188.393 74.7535 189.825 76.1692 189.009Z" fill="#FFD2CD"/>
<path d="M91.8747 164.944L91.9154 182.765L88.4117 184.784L88.371 170.673L88.3201 170.704L85.3715 174.017L84.7604 171.244L88.8701 166.682L91.8747 164.944Z" fill="#FFD2CD"/>
<path d="M102.63 158.414C106.791 156.018 108.425 159.316 108.436 164.215C108.436 169.72 106.536 174.609 102.584 176.887C98.6325 179.166 96.789 176.097 96.7635 171.061C96.7584 165.922 98.6325 160.733 102.63 158.414ZM102.661 173.706C104.071 172.886 104.82 170.434 104.805 166.371C104.805 162.441 104.056 160.764 102.605 161.605C101.265 162.38 100.364 164.867 100.41 168.981C100.379 173.095 101.25 174.532 102.661 173.712V173.706Z" fill="#FFD2CD"/>
<path d="M115.871 150.772C120.016 148.371 121.661 151.67 121.681 156.563C121.681 162.074 119.767 166.957 115.815 169.236C111.863 171.515 110.024 168.446 109.999 163.414C109.999 158.271 111.858 153.076 115.871 150.772ZM115.871 166.04C117.292 165.224 118.03 162.777 118.015 158.709C118.015 154.774 117.271 153.102 115.815 153.938C114.475 154.713 113.569 157.2 113.63 161.309C113.605 165.423 114.465 166.86 115.876 166.045L115.871 166.04Z" fill="#FFD2CD"/>
<path d="M129.106 143.116C133.257 140.72 134.896 144.018 134.907 148.917C134.907 154.422 132.997 159.306 129.055 161.59C125.114 163.873 123.24 160.789 123.24 155.763C123.214 150.619 125.098 145.43 129.106 143.116ZM129.106 158.409C130.527 157.593 131.276 155.146 131.255 151.073C131.255 147.138 130.512 145.466 129.055 146.302C127.716 147.077 126.81 149.564 126.86 153.673C126.911 157.782 127.696 159.229 129.106 158.409Z" fill="#FFD2CD"/>
<path d="M142.342 135.469C146.482 133.068 148.127 136.356 148.147 141.26C148.147 146.771 146.238 151.654 142.281 153.933C138.324 156.211 136.48 153.143 136.48 148.111C136.45 142.978 138.334 137.789 142.342 135.469ZM142.342 150.762C143.752 149.946 144.501 147.494 144.481 143.427C144.481 139.486 143.737 137.819 142.286 138.66C140.941 139.43 140.045 141.913 140.091 146.026C140.137 150.14 140.926 151.583 142.342 150.767V150.762Z" fill="#FFD2CD"/>
<path d="M155.572 127.818C159.718 125.422 161.362 128.725 161.378 133.609C161.378 139.129 159.473 144.008 155.521 146.296C151.57 148.585 149.721 145.501 149.721 140.465C149.675 135.326 151.569 130.132 155.572 127.818ZM155.598 143.11C157.008 142.295 157.757 139.838 157.742 135.78C157.742 131.85 156.993 130.173 155.542 131.004C154.202 131.784 153.296 134.256 153.347 138.38C153.321 142.494 154.182 143.931 155.598 143.116V143.11Z" fill="#FFD2CD"/>
<path d="M168.813 120.171C172.958 117.77 174.603 121.068 174.613 125.962C174.613 131.478 172.709 136.356 168.757 138.64C164.805 140.924 162.962 137.855 162.962 132.818C162.916 127.68 164.805 122.491 168.813 120.171ZM168.813 135.464C170.229 134.649 170.972 132.202 170.952 128.129C170.952 124.198 170.208 122.521 168.757 123.362C167.418 124.142 166.516 126.61 166.557 130.728C166.598 134.847 167.397 136.285 168.813 135.464Z" fill="#FFD2CD"/>
<path d="M184.498 111.419L184.549 129.225L181.06 131.243L181.015 117.138L180.969 117.159L178.02 120.472L177.404 117.704L181.509 113.142L184.498 111.419Z" fill="#FFD2CD"/>
<path d="M197.733 103.762L197.784 121.583L194.291 123.602L194.25 109.487L194.199 109.517L191.256 112.82L190.64 110.047L194.744 105.49L197.733 103.762Z" fill="#FFD2CD"/>
<path d="M210.959 96.1106L211.015 113.932L207.526 115.951L207.481 101.83L207.435 101.866L204.486 105.169L203.875 102.396L207.98 97.8336L210.959 96.1106Z" fill="#FFD2CD"/>
<path d="M221.75 89.5753C225.895 87.1743 227.535 90.4827 227.555 95.3662C227.555 100.887 225.656 105.765 221.689 108.049C217.722 110.333 215.909 107.249 215.873 102.228C215.858 97.0841 217.747 91.8947 221.75 89.5753ZM221.775 104.868C223.191 104.047 223.93 101.596 223.924 97.5327C223.924 93.6024 223.171 91.9253 221.719 92.7562C220.38 93.5311 219.479 96.0136 219.519 100.132C219.56 104.251 220.36 105.679 221.775 104.868Z" fill="#FFD2CD"/>
<path d="M234.98 81.9189C239.136 79.523 240.771 82.8313 240.786 87.7251C240.786 93.2407 238.881 98.1242 234.935 100.403C230.988 102.681 229.139 99.6127 229.109 94.5763C229.088 89.4379 230.983 84.2383 234.98 81.9189ZM235.011 97.2117C236.406 96.4063 237.165 93.9493 237.16 89.8814C237.16 85.946 236.406 84.274 234.96 85.1049C233.616 85.8848 232.714 88.3674 232.755 92.476C232.796 96.5847 233.6 98.0324 235.011 97.2117Z" fill="#FFD2CD"/>
<path d="M248.221 74.2824C252.361 71.8764 254.011 75.1796 254.021 80.0784C254.021 85.5839 252.117 90.4725 248.165 92.746C244.213 95.0195 242.38 91.9559 242.349 86.9194C242.329 81.7861 244.213 76.5917 248.221 74.2824ZM248.246 89.5753C249.642 88.7648 250.401 86.3128 250.39 82.2398C250.39 78.2994 249.637 76.6324 248.17 77.4787C246.846 78.2433 245.945 80.736 245.99 84.8396C246.036 88.9432 246.836 90.4011 248.246 89.5804V89.5753Z" fill="#FFD2CD"/>
<path d="M261.446 66.6309C265.602 64.2351 267.231 67.523 267.252 72.4269C267.252 77.9375 265.352 82.821 261.401 85.0996C257.449 87.3782 255.61 84.3044 255.58 79.2781C255.554 74.1397 257.449 68.9453 261.446 66.6309ZM261.477 81.9238C262.872 81.1184 263.641 78.6613 263.621 74.5832C263.621 70.653 262.872 68.9759 261.426 69.817C260.082 70.5918 259.175 73.0794 259.216 77.1932C259.257 81.307 260.061 82.7445 261.472 81.9289L261.477 81.9238Z" fill="#FFD2CD"/>
<path d="M49.7898 221.93C53.9402 219.524 55.58 222.837 55.5902 227.721C55.5902 233.226 53.6958 238.125 49.7389 240.419C45.782 242.713 43.9487 239.588 43.9079 234.567C43.8927 229.434 45.782 224.234 49.7898 221.93ZM49.8204 237.192C51.231 236.382 51.9745 233.93 51.9643 229.862C51.9643 225.926 51.2055 224.254 49.7593 225.085C48.4199 225.865 47.5134 228.348 47.5593 232.462C47.6051 236.575 48.3945 238.013 49.8153 237.192H49.8204Z" fill="#FFD2CD"/>
<path d="M63.0202 214.278C67.1758 211.883 68.8054 215.196 68.8257 220.074C68.8257 225.58 66.9262 230.479 62.9693 232.768C59.0124 235.056 57.1791 231.952 57.1485 226.921C57.1384 221.777 59.0175 216.583 63.0202 214.278ZM63.0508 229.571C64.4614 228.756 65.205 226.309 65.1948 222.231C65.1948 218.295 64.4411 216.623 62.9999 217.464C61.6554 218.239 60.7439 220.727 60.7948 224.836C60.8457 228.944 61.6402 230.392 63.0559 229.576L63.0508 229.571Z" fill="#FFD2CD"/>
<path d="M78.7308 205.51L78.7817 223.322L75.2729 225.35L75.2322 211.235L75.1813 211.271L72.2327 214.579L71.6216 211.806L75.7262 207.249L78.7308 205.51Z" fill="#FFD2CD"/>
<path d="M89.4913 198.975C93.6417 196.58 95.2816 199.903 95.2968 204.771C95.2968 210.287 93.3871 215.191 89.4353 217.47C85.4835 219.748 83.6502 216.649 83.6196 211.628C83.6094 206.484 85.4835 201.295 89.4913 198.975ZM89.527 214.268C90.9376 213.453 91.676 210.991 91.6658 206.918C91.6658 202.998 90.9172 201.31 89.4659 202.156C88.1214 202.931 87.2149 205.419 87.271 209.533C87.2404 213.646 88.1112 215.084 89.527 214.268Z" fill="#FFD2CD"/>
<path d="M102.732 191.334C106.877 188.928 108.517 192.252 108.527 197.125C108.527 202.641 106.623 207.534 102.676 209.828C98.7292 212.122 96.8857 209.007 96.8501 203.981C96.8348 198.833 98.7241 193.643 102.732 191.334ZM102.732 206.627C104.143 205.806 104.891 203.364 104.881 199.286C104.881 195.361 104.127 193.679 102.681 194.525C101.342 195.3 100.425 197.777 100.476 201.901C100.527 206.025 101.316 207.448 102.732 206.632V206.627Z" fill="#FFD2CD"/>
<path d="M115.962 183.677C120.118 181.287 121.758 184.595 121.768 189.479C121.768 194.989 119.863 199.893 115.906 202.177C111.949 204.46 110.126 201.361 110.096 196.325C110.075 191.161 111.96 185.997 115.962 183.677ZM115.993 198.97C117.404 198.145 118.147 195.698 118.137 191.63C118.137 187.694 117.383 186.022 115.937 186.869C114.587 187.638 113.681 190.121 113.732 194.235C113.783 198.348 114.577 199.786 115.988 198.975L115.993 198.97Z" fill="#FFD2CD"/>
<path d="M131.668 174.92L131.719 192.731L128.215 194.754L128.174 180.639L128.113 180.67L125.175 183.988L124.559 181.205L128.668 176.653L131.668 174.92Z" fill="#FFD2CD"/>
<path d="M142.439 168.39C146.589 165.984 148.224 169.302 148.244 174.17C148.244 179.691 146.324 184.595 142.383 186.874C138.441 189.152 136.592 186.053 136.567 181.032C136.546 175.868 138.426 170.704 142.439 168.39ZM142.439 183.682C143.854 182.862 144.603 180.41 144.582 176.347C144.582 172.417 143.834 170.74 142.388 171.576C141.043 172.351 140.132 174.838 140.183 178.947C140.233 183.056 141.028 184.498 142.439 183.688V183.682Z" fill="#FFD2CD"/>
<path d="M155.664 160.733C159.814 158.327 161.454 161.651 161.469 166.534C161.469 172.04 159.565 176.938 155.613 179.227C151.661 181.516 149.828 178.406 149.797 173.375C149.777 168.221 151.661 163.058 155.664 160.733ZM155.694 176.026C157.11 175.21 157.854 172.763 157.844 168.696C157.844 164.765 157.09 163.088 155.644 163.924C154.299 164.704 153.393 167.187 153.438 171.3C153.484 175.414 154.284 176.852 155.694 176.031V176.026Z" fill="#FFD2CD"/>
<path d="M168.905 153.087C173.05 150.681 174.695 154.004 174.705 158.883C174.705 164.388 172.8 169.292 168.848 171.576C164.897 173.859 163.058 170.765 163.033 165.729C163.018 160.575 164.897 155.396 168.905 153.087ZM168.905 168.379C170.315 167.564 171.064 165.117 171.048 161.044C171.048 157.114 170.3 155.437 168.848 156.278C167.545 157.007 166.623 159.51 166.679 163.634C166.648 167.747 167.514 169.19 168.93 168.374L168.905 168.379Z" fill="#FFD2CD"/>
<path d="M184.59 144.329L184.646 162.15L181.152 164.159L181.111 150.048L181.06 150.079L178.112 153.387L177.491 150.619L181.605 146.062L184.59 144.329Z" fill="#FFD2CD"/>
<path d="M195.376 137.789C199.526 135.388 201.166 138.706 201.181 143.58C201.181 149.095 199.266 153.994 195.314 156.283C191.363 158.572 189.524 155.467 189.504 150.431C189.489 145.282 191.373 140.098 195.376 137.789ZM195.376 153.082C196.776 152.281 197.535 149.819 197.52 145.746C197.52 141.811 196.776 140.139 195.325 140.98C193.98 141.755 193.069 144.242 193.125 148.351C193.181 152.46 193.965 153.907 195.376 153.087V153.082Z" fill="#FFD2CD"/>
<path d="M208.611 130.142C212.762 127.741 214.396 131.06 214.417 135.933C214.417 141.444 212.507 146.342 208.555 148.626C204.603 150.91 202.76 147.831 202.734 142.789C202.719 137.636 204.598 132.451 208.611 130.142ZM208.611 145.435C210.027 144.614 210.77 142.162 210.755 138.094C210.755 134.159 210.006 132.487 208.565 133.323C207.221 134.098 206.309 136.575 206.36 140.694C206.33 144.813 207.195 146.251 208.611 145.435Z" fill="#FFD2CD"/>
<path d="M221.847 122.491C225.987 120.1 227.637 123.408 227.652 128.287C227.652 133.802 225.732 138.696 221.786 140.985C217.839 143.274 215.995 140.185 215.975 135.138C215.955 129.989 217.839 124.805 221.847 122.491ZM221.847 137.784C223.262 136.968 224.006 134.516 223.991 130.448C223.991 126.528 223.247 124.841 221.791 125.682C220.451 126.452 219.54 128.944 219.596 133.058C219.596 137.172 220.436 138.609 221.847 137.789V137.784Z" fill="#FFD2CD"/>
<path d="M237.532 113.738L237.583 131.554L234.094 133.563L234.053 119.447L234.003 119.483L231.054 122.791L230.428 120.018L234.542 115.451L237.532 113.738Z" fill="#FFD2CD"/>
<path d="M248.313 107.193C252.463 104.797 254.098 108.11 254.113 112.989C254.113 118.499 252.208 123.403 248.252 125.687C244.295 127.971 242.466 124.871 242.441 119.84C242.405 114.696 244.305 109.507 248.313 107.193ZM248.313 122.486C249.708 121.69 250.472 119.218 250.457 115.155C250.457 111.215 249.708 109.548 248.241 110.384C246.917 111.154 246.006 113.636 246.062 117.75C246.062 121.864 246.897 123.301 248.313 122.486Z" fill="#FFD2CD"/>
<path d="M261.538 99.5412C265.699 97.1505 267.328 100.459 267.349 105.342C267.349 110.848 265.444 115.752 261.497 118.03C257.551 120.309 255.702 117.215 255.666 112.183C255.646 107.05 257.54 101.856 261.538 99.5412ZM261.569 114.834C262.964 114.024 263.723 111.561 263.718 107.483C263.718 103.558 262.959 101.876 261.523 102.722C260.173 103.497 259.267 105.98 259.313 110.098C259.358 114.217 260.158 115.66 261.569 114.839V114.834Z" fill="#FFD2CD"/>
<path d="M49.8815 254.84C54.037 252.434 55.6768 255.763 55.687 260.636C55.687 266.142 53.7823 271.03 49.8305 273.304C45.8787 275.577 44.0403 272.514 44.0097 267.482C43.9894 262.344 45.8787 257.144 49.8815 254.84ZM49.8815 270.133C51.2921 269.322 52.0407 266.871 52.0254 262.798C52.0254 258.857 51.2819 257.19 49.8305 258.036C48.4912 258.811 47.5847 261.294 47.6305 265.408C47.6764 269.521 48.4708 270.954 49.8815 270.138V270.133Z" fill="#FFD2CD"/>
<path d="M65.592 246.072L65.6378 263.888L62.1342 265.912L62.0883 251.807L62.0425 251.833L59.0939 255.136L58.493 252.358L62.5823 247.811L65.592 246.072Z" fill="#FFD2CD"/>
<path d="M76.3526 239.537C80.503 237.136 82.1428 240.455 82.1581 245.328C82.1581 250.843 80.2484 255.722 76.3067 258.016C72.3651 260.31 70.5114 257.221 70.4707 252.179C70.4554 247.051 72.3498 241.856 76.3526 239.537ZM76.3526 254.83C77.7683 254.014 78.5169 251.562 78.5016 247.489C78.5016 243.564 77.753 241.882 76.3016 242.723C74.9623 243.503 74.0558 245.98 74.1068 250.094C74.1577 254.208 74.9419 255.661 76.3577 254.835L76.3526 254.83Z" fill="#FFD2CD"/>
<path d="M92.0631 230.769L92.1089 248.596L88.6052 250.609L88.5645 236.504L88.5085 236.535L85.5599 239.848L84.9488 237.07L89.0534 232.508L92.0631 230.769Z" fill="#FFD2CD"/>
<path d="M105.288 223.123L105.339 240.944L101.841 242.968L101.8 228.853L101.744 228.893L98.7954 232.191L98.1843 229.423L102.289 224.866L105.288 223.123Z" fill="#FFD2CD"/>
<path d="M116.059 216.593C120.199 214.197 121.849 217.515 121.86 222.394C121.86 227.899 119.955 232.783 115.998 235.067C112.041 237.35 110.218 234.266 110.182 229.235C110.162 224.096 112.036 218.902 116.059 216.593ZM116.09 231.886C117.5 231.07 118.244 228.618 118.229 224.545C118.229 220.61 117.485 218.938 116.029 219.774C114.684 220.549 113.783 223.036 113.834 227.15C113.885 231.264 114.674 232.701 116.09 231.886Z" fill="#FFD2CD"/>
<path d="M131.759 207.83L131.815 225.646L128.307 227.665L128.271 213.56L128.215 213.58L125.266 216.904L124.65 214.12L128.755 209.568L131.759 207.83Z" fill="#FFD2CD"/>
<path d="M144.98 200.184L145.026 218.005L141.542 220.018L141.502 205.908L141.451 205.949L138.502 209.247L137.886 206.479L141.99 201.917L144.98 200.184Z" fill="#FFD2CD"/>
<path d="M155.761 193.648C159.911 191.242 161.546 194.566 161.561 199.444C161.561 204.95 159.662 209.833 155.705 212.122C151.748 214.411 149.92 211.327 149.879 206.29C149.869 201.157 151.758 195.968 155.761 193.648ZM155.761 208.941C157.176 208.131 157.925 205.679 157.91 201.606C157.91 197.675 157.156 195.998 155.715 196.834C154.365 197.619 153.464 200.087 153.505 204.211C153.545 208.335 154.35 209.762 155.761 208.941Z" fill="#FFD2CD"/>
<path d="M171.471 184.885L171.512 202.697L168.013 204.72L167.967 190.61L167.917 190.636L164.968 193.949L164.357 191.181L168.461 186.624L171.471 184.885Z" fill="#FFD2CD"/>
<path d="M184.676 177.249L184.732 195.06L181.244 197.079L181.213 182.964L181.152 183.004L178.203 186.303L177.587 183.53L181.697 178.972L184.676 177.249Z" fill="#FFD2CD"/>
<path d="M195.467 170.704C199.618 168.303 201.257 171.621 201.273 176.5C201.273 182.005 199.368 186.894 195.416 189.167C191.465 191.441 189.631 188.377 189.596 183.351C189.58 178.208 191.48 173.013 195.467 170.704ZM195.493 185.997C196.893 185.181 197.647 182.724 197.642 178.646C197.642 174.721 196.893 173.039 195.442 173.88C194.092 174.66 193.191 177.137 193.242 181.251C193.216 185.375 194.087 186.807 195.493 186.002V185.997Z" fill="#FFD2CD"/>
<path d="M211.147 161.951L211.203 179.757L207.71 181.776L207.679 167.666L207.628 167.702L204.675 171.01L204.058 168.232L208.163 163.674L211.147 161.951Z" fill="#FFD2CD"/>
<path d="M224.383 154.3L224.434 172.106L220.95 174.124L220.91 160.019L220.854 160.05L217.905 163.358L217.299 160.585L221.399 156.023L224.383 154.3Z" fill="#FFD2CD"/>
<path d="M237.618 146.648L237.669 164.469L234.186 166.478L234.145 152.363L234.094 152.393L231.141 155.702L230.529 152.934L234.639 148.366L237.618 146.648Z" fill="#FFD2CD"/>
<path d="M248.404 140.103C252.56 137.712 254.194 141.021 254.21 145.904C254.21 151.415 252.31 156.293 248.348 158.577C244.386 160.861 242.568 157.782 242.543 152.75C242.517 147.617 244.402 142.422 248.404 140.103ZM248.44 155.396C249.825 154.59 250.589 152.123 250.584 148.05C250.584 144.12 249.835 142.443 248.358 143.294C247.039 144.054 246.133 146.546 246.174 150.66C246.214 154.774 247.024 156.211 248.44 155.401V155.396Z" fill="#FFD2CD"/>
<path d="M261.64 132.462C265.79 130.066 267.43 133.379 267.445 138.253C267.445 143.763 265.541 148.647 261.584 150.935C257.627 153.224 255.794 150.14 255.768 145.104C255.748 139.965 257.632 134.776 261.64 132.462ZM261.665 147.755C263.056 146.939 263.825 144.487 263.809 140.404C263.809 136.473 263.061 134.796 261.614 135.648C260.27 136.417 259.358 138.9 259.414 143.024C259.384 147.133 260.25 148.575 261.665 147.76V147.755Z" fill="#FFD2CD"/>
<g style="mix-blend-mode:multiply" opacity="0.2">
<path d="M72.5535 279.35C158.032 229.627 282.336 215.92 389.504 238.242L374.781 262.165C283.09 243.09 176.778 254.784 103.649 297.339C101.612 298.522 99.707 299.75 97.7565 300.953L65.6124 283.575C67.8938 282.118 70.1753 280.726 72.5535 279.35Z" fill="black"/>
</g>
<g style="mix-blend-mode:multiply" opacity="0.2">
<path d="M126.967 310.787C190.823 273.64 283.655 263.419 363.72 280.104L348.621 304.613C284.454 291.247 210.042 299.449 158.862 329.225C157.431 330.056 156.097 330.897 154.722 331.738L121.824 313.942C123.52 312.882 125.185 311.816 126.967 310.787Z" fill="black"/>
</g>
<g style="mix-blend-mode:multiply" opacity="0.2">
<path d="M189.005 346.638C228.217 323.836 285.193 317.582 334.361 327.777L322.032 347.8C285.875 340.271 243.913 344.895 215.089 361.681C214.279 362.145 213.505 362.629 212.751 363.108L185.868 348.56C186.896 347.928 187.915 347.28 189.005 346.638Z" fill="black"/>
</g>
<g opacity="0.1">
<path opacity="0.1" d="M463.04 271.622C484.22 283.856 484.337 303.737 463.284 315.971C442.232 328.205 408.03 328.205 386.83 315.971C365.63 303.737 365.543 283.856 386.591 271.622C407.638 259.387 441.86 259.392 463.04 271.622Z" fill="black"/>
</g>
<path d="M389.504 206.199L389.427 231.101L374.705 255.024L374.776 230.127L389.504 206.199Z" fill="url(#paint0_linear)"/>
<path d="M131.846 275.96C133.802 275.113 135.823 274.349 137.809 273.538C140.824 272.305 143.834 271.046 146.925 269.888C149.11 269.078 151.356 268.359 153.581 267.569C156.637 266.504 159.692 265.423 162.783 264.434C163.985 264.057 165.207 263.705 166.409 263.333C170.212 262.181 174.05 261.083 177.923 260.04C179.319 259.663 180.714 259.28 182.13 258.918C187.085 257.654 192.091 256.446 197.148 255.35C197.509 255.268 197.876 255.207 198.232 255.136C202.816 254.172 207.44 253.316 212.079 252.506C214.666 252.057 217.268 251.664 219.866 251.262C222.957 250.788 226.043 250.319 229.149 249.911C231.782 249.569 234.42 249.263 237.058 248.968C240.378 248.596 243.678 248.239 247.034 247.948C248.964 247.775 250.884 247.622 252.809 247.464C256.613 247.179 260.423 246.954 264.237 246.761C265.963 246.674 267.685 246.567 269.406 246.501C274.712 246.297 280.029 246.169 285.351 246.154C286.283 246.154 287.215 246.185 288.162 246.185C292.674 246.185 297.186 246.268 301.698 246.434C303.256 246.485 304.804 246.546 306.363 246.618C310.776 246.812 315.2 247.07 319.634 247.393C320.617 247.469 321.599 247.515 322.577 247.597C327.819 248.021 333.048 248.543 338.262 249.162C339.642 249.32 341.022 249.503 342.397 249.671C346.441 250.184 350.461 250.754 354.457 251.379C355.984 251.608 357.512 251.843 359.04 252.093C364.301 252.98 369.541 253.923 374.71 254.998L374.781 230.102L374.394 230.025C369.337 228.97 364.209 228.057 359.081 227.186C357.594 226.944 356.101 226.713 354.604 226.492C352.654 226.187 350.724 225.845 348.758 225.565C346.64 225.264 344.49 225.024 342.352 224.749C341.043 224.586 339.739 224.407 338.435 224.239C333.496 223.658 328.525 223.138 323.545 222.71C323.214 222.71 322.883 222.674 322.552 222.644C321.717 222.577 320.871 222.537 320.036 222.475C315.477 222.136 310.914 221.867 306.347 221.67C304.855 221.609 303.363 221.543 301.866 221.502C300.572 221.451 299.279 221.374 297.995 221.349C294.675 221.262 291.375 221.257 288.034 221.242C287.174 221.242 286.334 221.211 285.488 221.242C280.786 221.242 276.094 221.323 271.412 221.487C270.745 221.517 270.099 221.563 269.436 221.588C267.776 221.655 266.116 221.757 264.446 221.843C260.57 222.037 256.7 222.266 252.845 222.562C250.93 222.705 249.036 222.868 247.131 223.036C245.644 223.164 244.152 223.255 242.68 223.408C240.811 223.592 238.978 223.862 237.119 224.071C234.497 224.367 231.884 224.662 229.277 225.004C226.114 225.417 222.977 225.896 219.835 226.38C217.289 226.773 214.743 227.16 212.196 227.604C211.269 227.762 210.332 227.884 209.411 228.047C205.606 228.735 201.843 229.485 198.085 230.275L197.265 230.438C192.172 231.524 187.131 232.737 182.135 234.006C180.77 234.353 179.426 234.725 178.061 235.082C174.14 236.135 170.257 237.248 166.414 238.421C165.233 238.778 164.046 239.124 162.849 239.491C162.264 239.675 161.673 239.838 161.093 240.001C158.546 240.817 156.087 241.75 153.591 242.626C151.371 243.396 149.13 244.125 146.971 244.936C143.915 246.083 140.936 247.326 137.937 248.545C135.925 249.371 133.863 250.15 131.877 251.012C128.617 252.424 125.455 253.963 122.287 255.477C120.663 256.252 119.003 256.971 117.419 257.771C112.7 260.15 108.101 262.635 103.623 265.224L102.029 266.177C100.578 267.059 99.157 267.962 97.7311 268.843L97.6547 293.745C99.6051 292.537 101.525 291.309 103.557 290.126C108.028 287.521 112.642 285.028 117.358 282.673C118.885 281.904 120.485 281.21 122.033 280.466C125.277 278.967 128.51 277.407 131.846 275.96Z" fill="url(#paint1_linear)"/>
<path d="M97.7514 268.894L97.6802 293.796L65.536 276.408L65.6073 251.511L97.7514 268.894Z" fill="url(#paint2_linear)"/>
<path d="M72.5535 247.311C158.032 197.589 282.336 183.881 389.504 206.199L374.781 230.127C283.085 211.041 176.773 222.766 103.644 265.28C101.607 266.463 99.7019 267.696 97.7515 268.894L65.6073 251.511C67.8939 250.089 70.1753 248.692 72.5535 247.311Z" fill="#C0C0F6"/>
<path d="M72.5535 247.311C158.032 197.589 282.336 183.881 389.504 206.199L374.781 230.127C283.085 211.041 176.773 222.766 103.644 265.28C101.607 266.463 99.7019 267.696 97.7515 268.894L65.6073 251.511C67.8939 250.089 70.1753 248.692 72.5535 247.311Z" fill="url(#paint3_linear)"/>
<path d="M363.725 248.071L363.654 272.978L348.554 297.487L348.621 272.585L363.725 248.071Z" fill="url(#paint4_linear)"/>
<path d="M126.967 278.758C190.823 241.627 283.655 231.391 363.72 248.071L348.621 272.585C284.454 259.219 210.042 267.416 158.862 297.191C157.431 298.027 156.097 298.868 154.722 299.71L121.824 281.898C123.52 280.853 125.185 279.793 126.967 278.758Z" fill="#C0C0F6"/>
<path d="M126.967 278.758C190.823 241.627 283.655 231.391 363.72 248.071L348.621 272.585C284.454 259.219 210.042 267.416 158.862 297.191C157.431 298.027 156.097 298.868 154.722 299.71L121.824 281.898C123.52 280.853 125.185 279.793 126.967 278.758Z" fill="url(#paint5_linear)"/>
<path d="M178.565 312.143C179.986 311.521 181.463 310.965 182.919 310.374C184.956 309.533 186.993 308.671 189.127 307.891C190.696 307.3 192.31 306.78 193.909 306.224C196.007 305.49 198.1 304.741 200.229 304.068C201.084 303.798 201.935 303.558 202.775 303.298C205.44 302.486 208.131 301.716 210.847 300.989C211.814 300.729 212.777 300.479 213.75 300.214C217.238 299.322 220.757 298.471 224.317 297.721L224.826 297.614C228.111 296.931 231.446 296.309 234.756 295.733C236.528 295.422 238.321 295.152 240.109 294.877C242.303 294.535 244.493 294.204 246.729 293.919C248.557 293.679 250.406 293.465 252.254 293.261C254.556 293.001 256.838 292.751 259.175 292.542C260.54 292.42 261.905 292.303 263.28 292.211C265.931 292.007 268.589 291.837 271.255 291.701C272.456 291.64 273.663 291.563 274.865 291.518C278.588 291.375 282.305 291.283 286.069 291.278C286.69 291.278 287.311 291.278 287.938 291.278C291.143 291.278 294.344 291.336 297.542 291.451C298.602 291.487 299.661 291.533 300.72 291.579C303.872 291.721 307.025 291.9 310.167 292.134C310.798 292.185 311.435 292.211 312.061 292.257C315.758 292.556 319.44 292.923 323.107 293.358C324.059 293.475 325.012 293.603 325.964 293.725C328.79 294.077 331.611 294.484 334.412 294.918C335.482 295.086 336.551 295.239 337.621 295.427C341.308 296.044 344.969 296.712 348.595 297.466L348.661 272.565L348.346 272.503C344.811 271.769 341.216 271.122 337.651 270.526C336.633 270.352 335.614 270.199 334.596 270.016C333.211 269.802 331.83 269.562 330.445 269.363C328.968 269.154 327.481 268.991 325.999 268.803C325.078 268.68 324.151 268.558 323.219 268.451C319.766 268.043 316.293 267.681 312.805 267.396C312.591 267.396 312.377 267.396 312.163 267.35C311.542 267.299 310.926 267.268 310.294 267.222C307.13 266.981 303.956 266.792 300.771 266.656C299.752 266.611 298.703 266.57 297.665 266.534C296.758 266.504 295.852 266.453 294.945 266.427C292.643 266.371 290.362 266.371 288.04 266.361C287.418 266.361 286.792 266.361 286.176 266.361C282.896 266.361 279.622 266.417 276.352 266.534C275.904 266.534 275.446 266.58 274.987 266.6C273.806 266.651 272.63 266.718 271.448 266.774C268.732 266.91 266.028 267.08 263.336 267.284C262.017 267.38 260.713 267.493 259.399 267.605C258.35 267.696 257.301 267.763 256.252 267.865C254.928 267.997 253.624 268.186 252.295 268.334C250.482 268.543 248.679 268.747 246.861 268.986C244.656 269.277 242.451 269.608 240.241 269.944C238.453 270.22 236.676 270.495 234.894 270.801C234.252 270.913 233.6 271 232.959 271.107C230.265 271.616 227.596 272.126 224.943 272.697L224.434 272.799C220.869 273.554 217.34 274.4 213.851 275.292C212.889 275.537 211.937 275.802 210.979 276.056C208.229 276.794 205.513 277.574 202.831 278.396C202.021 278.646 201.201 278.881 200.402 279.13C200.005 279.258 199.587 279.375 199.185 279.497C197.362 280.084 195.62 280.751 193.797 281.378C192.295 281.888 190.772 282.398 189.285 282.954C187.065 283.784 184.895 284.682 182.736 285.569C181.397 286.119 180.032 286.629 178.723 287.2C176.36 288.219 174.073 289.331 171.792 290.432C170.723 290.942 169.623 291.416 168.579 291.961C165.275 293.626 162.05 295.366 158.903 297.181C158.45 297.441 158.001 297.691 157.569 297.976C156.621 298.547 155.7 299.123 154.763 299.699L154.691 324.601C156.066 323.76 157.395 322.919 158.826 322.083C161.963 320.265 165.178 318.528 168.472 316.873C169.633 316.287 170.845 315.767 172.036 315.201C174.165 314.166 176.324 313.111 178.565 312.143Z" fill="url(#paint6_linear)"/>
<path d="M154.722 299.709L154.65 324.611L121.753 306.81L121.824 281.914L154.722 299.709Z" fill="url(#paint7_linear)"/>
<path d="M334.361 295.769L334.29 320.671L321.951 340.699L322.032 315.798L334.361 295.769Z" fill="url(#paint8_linear)"/>
<path d="M226.135 348.973C226.96 348.616 227.81 348.29 228.645 347.953C229.786 347.489 230.916 347.01 232.078 346.582C232.999 346.235 233.946 345.924 234.878 345.603C235.958 345.231 237.012 344.854 238.112 344.507C240.816 343.641 243.592 342.856 246.393 342.142C247.065 341.979 247.747 341.831 248.43 341.668C250.711 341.127 253.013 340.648 255.35 340.189C256.191 340.026 257.016 339.853 257.856 339.705C258.875 339.537 259.847 339.389 260.85 339.231C262.078 339.037 263.305 338.854 264.542 338.691C265.607 338.553 266.666 338.431 267.736 338.314C268.805 338.196 269.773 338.089 270.791 337.992C274.081 337.687 277.411 337.452 280.716 337.33C281.282 337.33 281.852 337.33 282.417 337.299C285.052 337.221 287.69 337.207 290.331 337.258C291.064 337.258 291.803 337.258 292.541 337.299C295.536 337.396 298.53 337.539 301.514 337.783C301.891 337.814 302.263 337.86 302.635 337.896C305.257 338.12 307.865 338.405 310.457 338.767C311.246 338.874 312.041 338.986 312.83 339.104C315.729 339.528 318.597 340.028 321.431 340.602C321.61 340.633 321.793 340.658 321.941 340.699L322.017 315.797L321.849 315.767C321.767 315.767 321.696 315.767 321.625 315.731C318.743 315.135 315.814 314.64 312.861 314.202C312.489 314.146 312.122 314.059 311.735 314.008C311.348 313.957 310.915 313.921 310.518 313.876C307.941 313.536 305.352 313.243 302.752 312.999C302.436 312.999 302.12 312.922 301.8 312.887C301.713 312.891 301.626 312.891 301.54 312.887C298.581 312.647 295.607 312.499 292.628 312.413C292.327 312.413 292.032 312.367 291.727 312.362C291.268 312.362 290.805 312.362 290.341 312.362C287.744 312.316 285.137 312.321 282.534 312.397C282.102 312.397 281.679 312.397 281.251 312.397C281.083 312.397 280.92 312.397 280.742 312.428C277.435 312.554 274.144 312.773 270.867 313.085C270.547 313.116 270.226 313.116 269.91 313.147C269.172 313.223 268.459 313.325 267.72 313.412C266.702 313.529 265.627 313.641 264.588 313.779C263.371 313.942 262.164 314.125 260.962 314.288C259.908 314.452 258.859 314.61 257.831 314.798C257.489 314.854 257.138 314.905 256.812 314.966C256.369 315.043 255.946 315.165 255.498 315.242C253.135 315.695 250.788 316.195 248.47 316.771C247.793 316.929 247.121 317.082 246.433 317.245C243.648 317.959 240.893 318.734 238.189 319.59C238.036 319.641 237.883 319.672 237.73 319.723C236.742 320.039 235.78 320.401 234.807 320.742C233.916 321.053 233.015 321.349 232.128 321.68C230.972 322.113 229.842 322.587 228.711 323.051C227.871 323.393 227.016 323.719 226.165 324.071C224.917 324.606 223.71 325.197 222.504 325.773C221.821 326.1 221.129 326.4 220.467 326.732C218.613 327.665 216.8 328.638 215.028 329.668C214.681 329.872 214.34 330.071 214.009 330.275C213.561 330.545 213.123 330.815 212.69 331.095L212.619 355.997C213.373 355.487 214.147 355.039 214.961 354.565C216.72 353.545 218.53 352.566 220.39 351.629C221.078 351.287 221.796 350.971 222.498 350.64C223.721 350.084 224.912 349.503 226.135 348.973Z" fill="url(#paint9_linear)"/>
<path d="M212.726 331.106L212.655 356.008L185.776 341.454L185.842 316.557L212.726 331.106Z" fill="url(#paint10_linear)"/>
<path d="M189.005 314.61C228.217 291.808 285.193 285.553 334.361 295.748L322.027 315.797C285.87 308.268 243.908 312.892 215.084 329.678C214.274 330.142 213.5 330.626 212.746 331.105L185.842 316.562C186.897 315.899 187.915 315.252 189.005 314.61Z" fill="#FFC3BE"/>
<path d="M189.005 314.61C228.217 291.808 285.193 285.553 334.361 295.748L322.027 315.797C285.87 308.268 243.908 312.892 215.084 329.678C214.274 330.142 213.5 330.626 212.746 331.105L185.842 316.562C186.897 315.899 187.915 315.252 189.005 314.61Z" fill="url(#paint11_linear)"/>
<path d="M416.341 171.586C416.341 171.586 423.252 169.511 426.954 171.586C430.656 173.661 433.279 174.135 435.235 176.505C437.19 178.876 435.927 180.44 433.508 180.639C431.089 180.838 426.888 180.13 422.743 178.463C418.597 176.796 418.159 177.387 416.932 177.351C415.705 177.316 413.408 174.17 416.341 171.586Z" fill="#EFB185"/>
<path d="M372.148 122.771C375.55 121.935 381.62 123.092 383.571 131.988C385.521 140.883 390.634 165.79 390.634 165.79C390.634 165.79 416.367 169.48 419.31 170.327C419.31 170.327 414.875 173.039 417.273 177.708C417.273 177.708 389.554 181.868 383.016 176.143C376.477 170.418 358.2 126.186 372.148 122.771Z" fill="#5FB9E6"/>
<path d="M408.285 287.169C408.478 282.719 408.886 278.111 409.415 273.446L395.9 273.033C396.709 275.975 397.529 278.891 398.201 281.613C398.68 288.495 393.552 290.376 396.847 297.528C397.453 298.919 399.439 300.132 400.06 300.403C403.055 301.422 404.017 303.461 404.929 305.414C405.451 306.723 406.228 307.915 407.215 308.921C411.188 312.489 420.456 312.168 422.422 309.079C425.268 304.725 412.466 295.59 408.555 287.699C408.468 287.567 408.387 287.363 408.285 287.169Z" fill="#171716"/>
<path d="M444.961 256.492C445.847 255.982 445.868 255.034 447.161 253.943C448.022 255.6 450.614 257.272 451.475 258.862C451.689 258.995 451.882 259.122 452.03 259.199C459.918 264.158 476.535 265.316 476.362 270.811C476.286 274.705 468.112 280.109 462.546 279.095C461.101 278.736 459.743 278.089 458.553 277.193C456.654 275.97 454.673 274.644 451.388 275.353C450.675 275.465 448.205 275.475 446.896 274.553C440.108 270 443.413 265.56 439.558 259.8C441.432 258.658 443.245 257.481 444.961 256.492Z" fill="#171716"/>
<path d="M409.441 233.981C410.299 225.351 408.651 216.656 404.695 208.941C399.465 199.006 377.704 189.973 377.47 189.968C377.236 189.963 358.627 198.425 360.028 201.58C360.822 203.364 389.274 231.722 389.835 233.048C390.812 235.367 391.067 236.693 390.532 239.297C388.449 249.421 390.761 279.089 394.55 287.725C397.341 294.051 407.684 292.899 409.563 289.438C409.869 288.841 409.66 240.842 409.436 233.991C409.441 233.981 409.65 240.842 409.441 233.981Z" fill="#FE61CA"/>
<g style="mix-blend-mode:multiply" opacity="0.3">
<path d="M411.182 234.526C411.182 234.343 411.182 234.2 411.182 234.057C411.335 239.761 411.218 235.933 411.182 234.526Z" fill="#123F5D"/>
</g>
<g style="mix-blend-mode:multiply" opacity="0.3">
<path d="M411.182 234.526C411.182 234.236 411.182 234.057 411.182 234.057C411.172 234.195 411.172 234.343 411.182 234.526Z" fill="#123F5D"/>
</g>
<g style="mix-blend-mode:multiply" opacity="0.3">
<path d="M375.229 189.275C375.428 189.275 399.449 199.021 404.679 208.951C411.3 221.517 408.244 230.841 408.244 230.841C409.578 232.518 409.548 241.255 409.66 246.791C402.821 241.372 402.642 224.535 392.956 230.412C391.199 230.948 392.447 266.835 395.503 280.792C396.093 283.514 397.85 288.908 399.184 291.278C397.621 291.13 396.083 290.615 394.515 287.71C392.478 280.476 387.619 256.176 390.497 239.282C390.94 236.672 390.777 235.347 389.799 233.033C389.239 231.707 360.771 203.349 359.992 201.565C358.597 198.435 374.99 189.275 375.229 189.275Z" fill="#123F5D"/>
</g>
<path d="M366.022 227.425C384.604 226.049 400.962 223.169 400.962 223.169C407.205 244.156 437.185 262.629 440.785 265.331C442.914 265.051 448.373 259.296 450.064 256.732C444.345 247.362 417.757 210.654 409.13 204.838C403.707 201.208 356.631 199.954 356.621 197.635C356.621 196.697 345.366 195.438 344.562 195.422C335.212 195.377 333.17 229.821 366.022 227.425Z" fill="#FF61CB"/>
<g style="mix-blend-mode:multiply" opacity="0.2">
<path d="M344.562 195.427C345.366 195.427 356.611 196.702 356.621 197.64C356.631 198.578 364.576 198.919 374.409 199.251C373.859 200.271 373.185 201.219 372.403 202.075C365.844 209.39 350.052 202.783 344.557 210.914C340.992 216.144 348.183 220.441 351.625 221.706C367.646 226.803 389.595 226.859 402.041 216.241C407.485 237.411 425.818 252.082 443.8 263.914C442.527 264.709 441.432 265.254 440.821 265.331C437.226 262.629 407.241 244.15 400.997 223.169C400.997 223.169 384.645 226.049 366.057 227.425C333.17 229.821 335.212 195.376 344.562 195.427Z" fill="#1A4B6C"/>
</g>
<path d="M370.315 202.125L370.188 203.578L391.352 218.683L391.479 217.22L370.315 202.125Z" fill="#B4B9BC"/>
<path d="M391.479 217.22L391.352 218.683L430.881 200.499L431.008 199.042L391.479 217.22Z" fill="#7D8183"/>
<path d="M370.315 202.126L391.48 217.22L431.008 199.041L409.848 183.932L370.315 202.126Z" fill="#E3E5E5"/>
<path d="M397.825 192.129L396.251 190.671L389.656 217.138L391.23 218.601L397.825 192.129Z" fill="#BDBBBB"/>
<path d="M439.151 173.13L437.572 171.667L396.251 190.671L397.825 192.129L439.151 173.13Z" fill="#D2D0D0"/>
<path d="M397.825 192.129L391.23 218.601L432.546 199.592L439.151 173.131L397.825 192.129Z" fill="#D5DFE6"/>
<path d="M397.825 192.129L432.546 199.592L439.151 173.131L397.825 192.129Z" fill="#E9F0F4"/>
<path d="M337.055 139.486C337.055 139.486 345.356 126.033 376.884 122.465C376.884 122.465 381.977 120.518 381.019 136.764C380.882 139.109 383.199 143.207 384.778 145.364C386.356 147.52 390.491 155.809 380.642 165.28C380.642 165.28 376.517 179.671 380.642 189.167C384.345 197.665 363.44 205.23 345.927 203.007C343.762 202.737 338.996 201.172 341.114 193.684C343.233 186.196 348.091 173.105 344.964 159.086C341.837 145.068 334.494 146.49 337.055 139.486Z" fill="#77D2FF"/>
<path d="M337.055 139.486C334.509 146.49 341.847 145.068 344.979 159.092C348.111 173.115 343.238 186.186 341.129 193.71C339.021 201.234 343.777 202.763 345.942 203.033C348.865 203.394 351.814 203.507 354.757 203.37C348.997 189.682 357.604 165.387 358.398 151.884C359.223 137.554 346.41 131.575 346.41 131.575C339.418 135.653 337.055 139.486 337.055 139.486Z" fill="#5FB9E6"/>
<path d="M372 97.0637C372 97.0637 369.485 113.269 368.054 128.725C367.84 130.948 370.091 134.949 374.267 133.996C374.267 133.996 386.545 115.976 377.684 97.4716C374.868 91.6093 364.367 83.1727 351.875 91.3238L372 97.0637Z" fill="#301806"/>
<path d="M374.715 118.474C374.715 118.474 368.909 124.892 371.288 132.028C371.924 133.991 373.452 142.025 361.495 138.36C361.495 138.36 349.14 131.6 353.036 127.925C355.613 125.478 358.179 121.905 354.915 108.804L374.715 118.474Z" fill="#E8A476"/>
<path d="M353.036 127.95C352.666 128.269 352.425 128.711 352.359 129.194C363.822 131.876 372.016 124.01 372.016 124.01L357.471 110.246C357.471 110.246 356.713 110.72 355.531 111.551C357.787 122.43 355.434 125.672 353.036 127.95Z" fill="#DB9669"/>
<path d="M373.457 95.3764C373.457 95.3764 376.68 96.61 376.472 106.255C376.446 107.325 378.106 108.804 378.473 111.449C378.84 114.095 379.079 124.907 372.815 125.84C368.303 126.508 357.252 123.291 353.881 112.372C350.51 101.453 360.176 87.781 373.457 95.3764Z" fill="#F1B287"/>
<path d="M372.724 99.2404C372.724 99.2404 344.765 108.513 364.448 144.772C364.448 144.772 349.99 145.731 343.951 133.109C341.058 127.058 342.637 115.038 343.9 103.578C343.9 103.578 347.638 86.0019 362.34 89.091C362.345 89.091 372.005 93.1334 372.724 99.2404Z" fill="#231202"/>
<path d="M372.724 99.2405C372.724 99.2405 377.587 98.4759 379.67 107.443C379.67 107.443 379.67 82.2757 355.638 89.1523C355.643 89.1472 369.79 90.2789 372.724 99.2405Z" fill="#301806"/>
<path d="M359.32 114.38C359.32 114.38 357.792 108.992 354.665 110.522C353.688 111.031 352.593 112.097 353.978 114.875C355.363 117.653 358.322 120.273 360.746 120.039L359.32 114.38Z" fill="#F1B287"/>
<path d="M377.129 185.686C377.129 185.686 384.034 186.109 386.356 189.142C388.678 192.175 391.866 195.346 392.574 198.119C393.282 200.892 392.671 201.84 390.502 201.228C388.332 200.617 382.629 196.717 379.756 193.883C376.884 191.048 376.237 191.431 375.173 190.977C374.109 190.523 373.472 187.016 377.129 185.686Z" fill="#EFB185"/>
<path d="M375.168 190.977C376.227 191.431 376.854 191.054 379.751 193.883C382.649 196.712 388.322 200.617 390.496 201.229C390.768 201.313 391.048 201.366 391.332 201.387C389.661 199.526 386.804 196.345 384.258 193.633C381.085 190.233 376.049 188.846 374.44 188.459C374.19 189.631 374.613 190.743 375.168 190.977Z" fill="#DB9669"/>
<path d="M340.691 136.616C343.951 135.948 349.451 137.315 350.067 146.123C350.683 154.932 352.165 179.574 352.165 179.574C352.165 179.574 375.514 184.203 378.137 185.181C378.137 185.181 373.711 186.813 375.326 191.477C375.326 191.477 349.104 195.326 343.783 189.438C338.461 183.55 327.334 139.42 340.691 136.616Z" fill="#8DDFFF"/>
<g opacity="0.1">
<path opacity="0.1" d="M124.396 351.022C141.405 360.86 141.491 376.801 124.589 386.634C107.687 396.467 80.2127 396.457 63.1985 386.634C46.1843 376.811 46.113 360.86 63.005 351.037C79.897 341.214 107.387 341.204 124.396 351.022Z" fill="black"/>
</g>
<path d="M89.4047 346.776C89.4047 346.776 88.8955 353.137 86.1964 356.594C83.4974 360.05 70.7864 368.048 71.754 371.535C72.7216 375.022 81.8881 375.205 87.5409 369.322C93.1936 363.44 94.7417 362.527 97.2167 361.956C99.6917 361.385 103.099 358.271 100.486 352.934C100.471 352.934 92.6385 350.828 89.4047 346.776Z" fill="black"/>
<path d="M106.775 357.312C106.775 357.312 105.757 364.398 102.498 368.048C99.2385 371.698 84.4955 379.727 85.3103 383.688C86.1251 387.648 96.3459 388.505 103.088 382.357C109.831 376.209 111.618 375.302 114.379 374.838C117.139 374.374 121.203 371.137 118.687 364.99C118.687 364.99 110.086 362.084 106.775 357.312Z" fill="black"/>
<path d="M142.408 255.844C142.408 255.844 93.6265 283.214 90.683 291.849C86.4358 304.221 87.2251 312.627 89.2672 343.335L89.1196 350.548C89.1196 350.548 95.363 355.646 102.213 352.179C104.326 351.088 102.151 330.902 105.558 319.667C105.558 319.667 106.618 306.316 105.558 302.773C105.558 302.773 144.934 289.091 154.131 280.649C163.328 272.208 142.408 255.844 142.408 255.844Z" fill="#2B3C4B"/>
<path d="M183.917 264.465C183.917 264.465 191.673 282.026 171.023 292.71C149.1 304.032 125.898 317.73 125.898 317.73C125.898 317.73 126.499 331.59 124.767 340.011C122.45 351.338 119.018 366.111 119.018 366.111C119.018 366.111 109.617 369.919 104.321 364.735C104.321 364.735 103.812 310.333 110.203 304.206C116.594 298.078 148.55 273.742 148.55 273.742L142.408 255.844L183.917 264.465Z" fill="#314656"/>
<path d="M171.023 292.71C149.1 304.032 125.898 317.729 125.898 317.729C125.898 317.729 126.499 331.59 124.767 340.011C122.45 351.338 120.79 365.576 120.79 365.576C120.79 365.576 117.358 366.656 115.066 366.769C118.33 352.159 119.782 319.641 121.264 313.667C123.097 306.255 146.217 298.318 162.661 289.626C179.105 280.935 179.854 263.628 179.854 263.628L183.928 264.48C183.928 264.48 191.668 282.026 171.023 292.71Z" fill="#2B3C4B"/>
<path d="M87.5918 342.325C85.5548 311.622 86.4205 304.221 90.6473 291.859C93.5908 283.224 142.372 255.854 142.372 255.854C144.386 257.452 146.3 259.169 148.107 260.998C134.952 267.513 103.379 283.902 97.5121 294.979C90.7695 307.672 95.8163 343.029 95.144 353.183C92.0885 352.944 88.0145 351.399 88.0145 351.399L87.5918 342.325Z" fill="#314656"/>
<path d="M108.649 238.64C108.649 238.64 101.062 238.273 98.2505 241.444C95.4394 244.614 91.6658 247.826 90.6473 250.884C89.6288 253.943 90.2196 255.095 92.6843 254.672C95.1491 254.249 101.688 250.492 105.075 247.637C108.461 244.783 109.149 245.262 110.33 244.869C111.511 244.477 112.545 240.608 108.649 238.64Z" fill="#EFB185"/>
<path d="M111.272 245.675C110.091 246.047 108.492 244.757 105.09 247.637C101.688 250.517 95.1135 254.264 92.6997 254.672C92.3902 254.725 92.0765 254.749 91.7626 254.743C93.7487 252.806 97.1455 249.559 100.145 246.806C103.929 243.325 109.581 242.336 111.349 242.111C111.527 243.483 111.909 245.476 111.272 245.675Z" fill="#DB9669"/>
<path d="M152.725 187.307C149.196 186.14 143.085 187.042 141.629 196.992C140.172 206.943 136.536 234.715 136.536 234.715C136.536 234.715 111.608 237.906 108.665 238.671C108.665 238.671 112.352 240.327 110.193 245.425C110.193 245.425 138.64 252.934 144.949 246.908C151.259 240.883 167.148 192.088 152.725 187.307Z" fill="#DB9669"/>
<path d="M108.649 238.64C111.593 237.87 136.521 234.684 136.521 234.684C136.521 234.684 140.223 206.892 141.614 196.962C143.004 187.032 149.176 186.134 152.71 187.276C153.627 187.582 154.464 188.088 155.16 188.76L155.333 189.178C155.333 189.178 146.446 192.43 144.348 210.618C142.25 228.807 148.422 240.184 133.613 240.582C124.783 240.817 116.161 242.04 110.534 242.198C110.108 240.915 109.471 239.713 108.649 238.64Z" fill="#EFB185"/>
<path d="M156.677 220.294C156.677 220.294 143.437 221.92 137.957 216.613C137.957 216.613 136.429 184.748 150.663 185.518C150.658 185.502 166.017 187.343 156.677 220.294Z" fill="#EA49BD"/>
<path d="M190.278 204.114C190.278 204.114 182.089 189.932 149.538 185.288C149.538 185.288 144.328 183.112 144.827 199.969C144.898 202.406 142.382 206.555 140.676 208.758C138.97 210.96 134.448 219.396 144.363 229.5C144.363 229.5 148.198 244.523 143.615 254.228C139.541 262.894 160.93 271.387 179.146 269.623C181.386 269.399 186.352 267.926 184.406 260.106C182.461 252.286 177.786 238.589 181.483 224.168C185.18 209.747 192.712 211.449 190.278 204.114Z" fill="#FF61CB"/>
<path d="M190.278 204.114C192.712 211.449 185.15 209.721 181.493 224.173C177.837 238.625 182.456 252.281 184.416 260.111C186.377 267.941 181.397 269.404 179.156 269.628C176.107 269.901 173.042 269.926 169.989 269.705C176.365 255.707 168.197 230.295 167.779 216.267C167.361 201.402 180.806 195.601 180.806 195.601C187.915 200.077 190.278 204.114 190.278 204.114Z" fill="#EA49BD"/>
<path d="M159.565 274.721L159.692 276.215L137.952 291.732L137.83 290.228L159.565 274.721Z" fill="#B4B9BC"/>
<path d="M137.83 290.228L137.952 291.732L97.3491 273.044L97.2167 271.55L137.83 290.228Z" fill="#7D8183"/>
<path d="M159.565 274.721L137.83 290.228L97.2167 271.55L118.952 256.038L159.565 274.721Z" fill="#E3E5E5"/>
<path d="M131.301 264.454L132.921 262.95L139.689 290.146L138.079 291.645L131.301 264.454Z" fill="#BDBBBB"/>
<path d="M88.8547 244.93L90.4742 243.432L132.921 262.95L131.301 264.454L88.8547 244.93Z" fill="#D2D0D0"/>
<path d="M131.301 264.454L138.079 291.645L95.6278 272.121L88.8547 244.93L131.301 264.454Z" fill="#D5DFE6"/>
<path d="M131.301 264.454L95.6278 272.121L88.8547 244.93L131.301 264.454Z" fill="#E9F0F4"/>
<path d="M153.403 254.759C153.403 254.759 146.431 256.354 144.583 259.856C142.734 263.358 139.999 267.125 139.76 270.051C139.521 272.977 140.269 273.885 142.398 272.881C144.526 271.876 149.68 266.927 152.135 263.547C154.589 260.167 155.313 260.437 156.295 259.805C157.278 259.173 157.36 255.498 153.403 254.759Z" fill="#EFB185"/>
<path d="M157.319 260.305C156.3 260.932 154.6 260.198 152.13 263.577C149.66 266.957 144.516 271.927 142.393 272.911C142.13 273.033 141.857 273.134 141.578 273.212C142.963 271.02 145.331 267.289 147.455 264.108C150.133 260.08 155.053 257.792 156.621 257.139C157.08 258.296 157.869 259.979 157.319 260.305Z" fill="#DB9669"/>
<path d="M182.272 198.41C178.825 198.262 173.447 200.607 174.308 209.716C175.168 218.825 177.872 244.247 177.872 244.247C177.872 244.247 155.929 253.341 153.428 254.753C153.428 254.753 157.141 255.299 156.285 260.32C156.285 260.32 183.729 259.785 188.154 252.872C192.58 245.96 196.42 199.001 182.272 198.41Z" fill="#DB9669"/>
<path d="M153.403 254.759C155.949 253.341 177.847 244.252 177.847 244.252C177.847 244.252 175.158 218.82 174.282 209.721C173.406 200.622 178.799 198.267 182.247 198.415C183.136 198.451 184.006 198.686 184.793 199.103L185.043 199.429C185.043 199.429 177.684 204.527 179.736 221.094C181.789 237.661 189.876 246.118 176.503 250.212C168.563 252.638 160.996 255.9 155.913 257.455C155.242 256.415 154.392 255.502 153.403 254.759Z" fill="#EFB185"/>
<path d="M193.008 226.492C193.008 226.492 181.295 231.269 175.209 227.965C175.209 227.965 166.918 200.265 179.996 197.344C180.022 197.344 194.362 195.091 193.008 226.492Z" fill="#FF61CB"/>
<path d="M149.395 186.369C148.55 188.408 147.394 190.264 148.504 192.512C149.217 193.99 150.541 194.933 151.982 195.641C153.111 196.17 154.271 196.632 155.455 197.023C157.529 197.324 159.626 197.423 161.719 197.319H161.749C161.877 195.356 178.046 190.452 178.071 188.479C178.163 183.942 161.724 182.245 159.84 178.121C158.124 174.425 155.256 171.173 154.656 167.146C154.37 165.311 154.803 163.659 154.966 161.854C155.063 160.764 154.605 160.254 153.438 160.325C150.76 160.509 149.176 164.571 148.585 166.733C148.109 168.458 148.003 170.265 148.275 172.034C148.881 175.939 151.244 179.768 150.22 183.55C150.055 184.518 149.778 185.464 149.395 186.369Z" fill="#131C24"/>
<path d="M153.337 180.456C153.337 180.456 158.612 186.614 156.183 193.235C155.531 195.065 153.876 202.549 165.187 199.449C165.187 199.449 176.941 193.455 173.386 189.902C171.013 187.546 168.742 184.136 172.143 171.948L153.337 180.456Z" fill="#E8A476"/>
<path d="M173.386 189.927C173.719 190.238 173.928 190.661 173.972 191.115C163.18 193.307 155.735 185.721 155.735 185.721L169.704 173.253C169.704 173.253 170.412 173.732 171.492 174.522C169.073 184.656 171.191 187.735 173.386 189.927Z" fill="#DB9669"/>
<path d="M155.155 158.898C155.155 158.898 152.099 159.963 152.038 168.991C152.007 170.011 150.434 171.311 150.001 173.798C149.568 176.286 149.074 186.374 154.895 187.424C159.122 188.174 169.536 185.477 172.999 175.333C176.462 165.188 167.779 152.154 155.155 158.898Z" fill="#F1B287"/>
<path d="M162.641 167.334C159.412 166.315 154.966 165.367 153.321 161.992C152.989 161.312 152.751 160.59 152.613 159.846C154.269 156.145 155.888 156.166 161.653 153.673C165.549 152.001 168.823 150.517 171.278 155.345C171.705 156.186 172.897 156.711 172.189 156.844C167.423 164.21 178.224 172.488 170.789 174.848C170.493 171.142 165.773 168.323 162.641 167.334Z" fill="#131C24"/>
<path d="M179.92 194.668C179.273 192.659 178.631 191.416 179.303 189.387C179.93 187.46 179.976 185.951 180.953 184.202C182.094 182.189 182.481 179.819 182.726 177.509C183.362 171.688 185.735 163.012 175.627 155.671C170.208 151.715 164.102 156.956 165.895 161.482C166.913 164.072 167.351 167.248 167.423 170.796C167.382 170.879 167.332 170.958 167.275 171.03C165.859 173.931 164.953 177.045 165.798 180.298C166.643 183.55 170.096 185.655 169.638 189.254C169.46 190.717 168.665 191.91 167.896 193.108C167.835 193.215 167.764 193.327 167.687 193.434C167.071 195.473 167.03 197.477 168.894 199.353C171.593 202.1 174.155 205.174 177.129 202.967C179.879 200.928 183.301 198.134 183.423 197.839C183.5 196.605 180.307 195.861 179.92 194.668Z" fill="#131C24"/>
<path d="M165.35 179.008C165.35 179.008 167.662 174.318 170.28 176.245C171.099 176.872 171.909 178.039 170.152 180.369C168.395 182.699 165.253 184.6 163.023 183.963L165.35 179.008Z" fill="#F1B287"/>
<g opacity="0.5">
<g opacity="0.14">
<path opacity="0.14" d="M432.357 78.9467L421.785 85.0944C421.457 85.2846 421.085 85.3848 420.706 85.3848C420.326 85.3848 419.954 85.2846 419.626 85.0944L408.962 78.9314C408.635 78.7419 408.364 78.4699 408.176 78.1424C407.987 77.8149 407.888 77.4436 407.888 77.0657C407.888 76.6878 407.987 76.3165 408.176 75.989C408.364 75.6615 408.635 75.3895 408.962 75.2L419.534 69.0471C419.863 68.8574 420.235 68.7576 420.614 68.7576C420.993 68.7576 421.365 68.8574 421.693 69.0471L432.388 75.2102C432.714 75.402 432.984 75.6765 433.171 76.006C433.358 76.3355 433.454 76.7085 433.451 77.0873C433.448 77.4661 433.345 77.8374 433.153 78.1638C432.961 78.4903 432.687 78.7603 432.357 78.9467Z" fill="#FFDF75"/>
</g>
<g opacity="0.29">
<path opacity="0.29" d="M432.357 69.7609L421.785 75.9087C421.457 76.0984 421.085 76.1982 420.706 76.1982C420.327 76.1982 419.954 76.0984 419.626 75.9087L408.962 69.7456C408.635 69.5562 408.364 69.2841 408.176 68.9566C407.987 68.6291 407.888 68.2578 407.888 67.8799C407.888 67.502 407.987 67.1307 408.176 66.8032C408.364 66.4758 408.635 66.2037 408.962 66.0142L419.534 59.8613C419.863 59.6716 420.235 59.5718 420.614 59.5718C420.993 59.5718 421.365 59.6716 421.693 59.8613L432.388 66.0244C432.714 66.2162 432.984 66.4907 433.171 66.8202C433.358 67.1497 433.454 67.5227 433.451 67.9015C433.448 68.2803 433.345 68.6516 433.153 68.978C432.961 69.3045 432.687 69.5745 432.357 69.7609Z" fill="#FFDF75"/>
</g>
<g opacity="0.43">
<path opacity="0.43" d="M432.357 60.5749L421.785 66.7226C421.457 66.9123 421.085 67.0122 420.706 67.0122C420.327 67.0122 419.954 66.9123 419.626 66.7226L408.962 60.5596C408.635 60.3701 408.364 60.098 408.176 59.7706C407.987 59.4431 407.888 59.0718 407.888 58.6939C407.888 58.3159 407.987 57.9446 408.176 57.6172C408.364 57.2897 408.635 57.0176 408.962 56.8281L419.534 50.6753C419.863 50.4856 420.235 50.3857 420.614 50.3857C420.993 50.3857 421.365 50.4856 421.693 50.6753L432.388 56.8383C432.714 57.0301 432.984 57.3046 433.171 57.6342C433.358 57.9637 433.454 58.3366 433.451 58.7154C433.448 59.0943 433.345 59.4656 433.153 59.792C432.961 60.1184 432.687 60.3885 432.357 60.5749Z" fill="#FFDF75"/>
</g>
<g opacity="0.57">
<path opacity="0.57" d="M432.357 51.3891L421.785 57.5369C421.457 57.7266 421.085 57.8264 420.706 57.8264C420.327 57.8264 419.954 57.7266 419.626 57.5369L408.962 51.3738C408.635 51.1844 408.364 50.9123 408.176 50.5848C407.987 50.2573 407.888 49.886 407.888 49.5081C407.888 49.1302 407.987 48.7589 408.176 48.4314C408.364 48.104 408.635 47.8319 408.962 47.6424L419.539 41.4947C419.868 41.3049 420.24 41.2051 420.619 41.2051C420.998 41.2051 421.37 41.3049 421.699 41.4947L432.393 47.6577C432.718 47.8503 432.986 48.1249 433.172 48.4542C433.357 48.7835 433.453 49.1557 433.449 49.5337C433.446 49.9116 433.343 50.282 433.151 50.6076C432.96 50.9333 432.686 51.2028 432.357 51.3891Z" fill="#FFDF75"/>
</g>
<g opacity="0.71">
<path opacity="0.71" d="M432.357 42.2031L421.801 48.3508C421.472 48.5405 421.1 48.6404 420.721 48.6404C420.342 48.6404 419.97 48.5405 419.641 48.3508L408.972 42.1929C408.646 42.0034 408.374 41.7313 408.186 41.4039C407.997 41.0764 407.898 40.7051 407.898 40.3272C407.898 39.9493 407.997 39.5779 408.186 39.2505C408.374 38.923 408.646 38.6509 408.972 38.4615L419.545 32.3137C419.873 32.124 420.245 32.0242 420.624 32.0242C421.003 32.0242 421.375 32.124 421.704 32.3137L432.398 38.4768C432.722 38.6701 432.989 38.945 433.173 39.274C433.357 39.603 433.452 39.9746 433.448 40.3517C433.444 40.7287 433.341 41.0982 433.149 41.423C432.958 41.7479 432.685 42.0169 432.357 42.2031Z" fill="#FFDF75"/>
</g>
<g opacity="0.86">
<path opacity="0.86" d="M432.357 33.0122L421.8 39.165C421.472 39.3547 421.1 39.4546 420.721 39.4546C420.342 39.4546 419.969 39.3547 419.641 39.165L408.972 33.002C408.646 32.8125 408.374 32.5404 408.186 32.213C407.997 31.8855 407.898 31.5142 407.898 31.1363C407.898 30.7583 407.997 30.387 408.186 30.0596C408.374 29.7321 408.646 29.46 408.972 29.2706L419.539 23.1228C419.868 22.9331 420.24 22.8333 420.619 22.8333C420.998 22.8333 421.37 22.9331 421.699 23.1228L432.393 29.2858C432.717 29.4788 432.984 29.7533 433.169 30.082C433.353 30.4107 433.449 30.7822 433.445 31.1593C433.441 31.5364 433.339 31.9059 433.148 32.2311C432.957 32.5562 432.685 32.8255 432.357 33.0122Z" fill="#FFDF75"/>
</g>
<path opacity="0.5" d="M432.358 23.8263L421.801 29.9791C421.472 30.1683 421.1 30.2679 420.721 30.2679C420.342 30.2679 419.97 30.1683 419.641 29.9791L408.972 23.8161C408.646 23.6266 408.375 23.3545 408.186 23.0271C407.998 22.6996 407.898 22.3283 407.898 21.9504C407.898 21.5724 407.998 21.2011 408.186 20.8737C408.375 20.5462 408.646 20.2741 408.972 20.0846L419.54 13.9369C419.868 13.7472 420.24 13.6473 420.619 13.6473C420.998 13.6473 421.371 13.7472 421.699 13.9369L432.393 20.0999C432.717 20.2928 432.984 20.5674 433.169 20.8961C433.354 21.2248 433.449 21.5963 433.445 21.9734C433.442 22.3505 433.339 22.72 433.148 23.0451C432.958 23.3703 432.685 23.6396 432.358 23.8263Z" fill="#FFDF75"/>
</g>
<path d="M432.357 23.8364L421.795 29.9842C421.468 30.1744 421.097 30.2746 420.718 30.2746C420.34 30.2746 419.968 30.1744 419.641 29.9842L408.972 23.8262C408.646 23.6368 408.374 23.3647 408.186 23.0372C407.997 22.7098 407.898 22.3385 407.898 21.9605C407.898 21.5826 407.997 21.2113 408.186 20.8838C408.374 20.5564 408.646 20.2843 408.972 20.0948L419.55 13.942C419.877 13.7517 420.248 13.6515 420.627 13.6515C421.005 13.6515 421.377 13.7517 421.704 13.942L432.398 20.105C432.723 20.298 432.991 20.5731 433.176 20.9026C433.361 21.2321 433.456 21.6045 433.452 21.9825C433.448 22.3604 433.345 22.7307 433.152 23.056C432.96 23.3814 432.686 23.6506 432.357 23.8364Z" fill="#F5E981"/>
<g opacity="0.7">
<g opacity="0.14">
<path opacity="0.14" d="M319.013 149.141L310.971 153.984C310.722 154.134 310.437 154.216 310.145 154.222C309.854 154.227 309.566 154.156 309.311 154.014L301.061 149.427C300.807 149.286 300.594 149.081 300.444 148.833C300.294 148.584 300.212 148.299 300.207 148.009C300.202 147.718 300.273 147.431 300.415 147.177C300.556 146.923 300.761 146.711 301.01 146.562L309.052 141.719C309.3 141.568 309.584 141.485 309.875 141.48C310.166 141.475 310.453 141.547 310.707 141.688L318.962 146.276C319.215 146.417 319.426 146.623 319.576 146.871C319.725 147.12 319.806 147.404 319.811 147.694C319.816 147.984 319.745 148.27 319.605 148.524C319.465 148.778 319.261 148.991 319.013 149.141Z" fill="#A8FEFD"/>
</g>
<g opacity="0.29">
<path opacity="0.29" d="M318.855 135.714L310.814 140.557C310.564 140.707 310.279 140.789 309.988 140.795C309.696 140.8 309.408 140.728 309.153 140.587L300.903 135.999C300.649 135.859 300.436 135.654 300.286 135.405C300.136 135.156 300.054 134.872 300.049 134.582C300.044 134.291 300.115 134.004 300.257 133.75C300.398 133.496 300.603 133.284 300.853 133.134L308.894 128.292C309.142 128.141 309.426 128.058 309.717 128.053C310.008 128.047 310.295 128.119 310.549 128.261L318.804 132.849C319.057 132.99 319.269 133.195 319.418 133.444C319.567 133.693 319.648 133.977 319.653 134.267C319.658 134.557 319.587 134.843 319.447 135.097C319.307 135.351 319.103 135.564 318.855 135.714Z" fill="#A7FDFC"/>
</g>
<g opacity="0.43">
<path opacity="0.43" d="M318.692 122.287L310.646 127.129C310.395 127.279 310.11 127.36 309.819 127.365C309.527 127.369 309.24 127.297 308.985 127.155L300.735 122.567C300.481 122.427 300.268 122.222 300.118 121.973C299.968 121.724 299.886 121.44 299.881 121.149C299.876 120.859 299.947 120.572 300.089 120.318C300.23 120.064 300.435 119.851 300.685 119.702L308.726 114.86C308.974 114.708 309.258 114.626 309.549 114.621C309.84 114.615 310.127 114.687 310.381 114.829L318.636 119.417C318.89 119.557 319.104 119.762 319.254 120.011C319.404 120.26 319.486 120.545 319.492 120.836C319.498 121.127 319.427 121.414 319.286 121.669C319.146 121.923 318.941 122.137 318.692 122.287Z" fill="#A6FCFB"/>
</g>
<g opacity="0.57">
<path opacity="0.57" d="M318.534 108.86L310.493 113.677C310.243 113.827 309.958 113.908 309.666 113.912C309.375 113.917 309.087 113.844 308.833 113.702L300.583 109.114C300.329 108.973 300.118 108.768 299.969 108.519C299.82 108.27 299.739 107.987 299.733 107.697C299.728 107.407 299.799 107.12 299.939 106.866C300.079 106.612 300.284 106.4 300.532 106.25L308.573 101.407C308.821 101.256 309.106 101.173 309.396 101.168C309.687 101.163 309.974 101.235 310.228 101.376L318.483 105.964C318.743 106.103 318.962 106.309 319.116 106.561C319.27 106.813 319.354 107.102 319.359 107.397C319.364 107.692 319.29 107.984 319.145 108.241C319 108.498 318.789 108.712 318.534 108.86Z" fill="#A4FAF9"/>
</g>
<g opacity="0.71">
<path opacity="0.71" d="M318.376 95.4274L310.335 100.27C310.085 100.42 309.8 100.501 309.508 100.506C309.217 100.51 308.929 100.438 308.675 100.296L300.425 95.7077C300.172 95.5665 299.96 95.3613 299.811 95.1125C299.662 94.8637 299.581 94.58 299.576 94.29C299.57 93.9999 299.641 93.7136 299.782 93.4596C299.922 93.2057 300.126 92.993 300.374 92.8429L308.415 88.0002C308.664 87.8491 308.948 87.7666 309.238 87.7613C309.529 87.7559 309.816 87.8278 310.07 87.9696L318.325 92.5574C318.581 92.6972 318.795 92.9022 318.946 93.1516C319.097 93.4011 319.179 93.686 319.184 93.9776C319.189 94.2691 319.117 94.5568 318.975 94.8115C318.833 95.0661 318.627 95.2786 318.376 95.4274Z" fill="#A3F9F8"/>
</g>
<g opacity="0.86">
<path opacity="0.86" d="M318.218 82.0001L310.177 86.8429C309.927 86.9926 309.642 87.0738 309.35 87.0783C309.059 87.0828 308.771 87.0104 308.517 86.8684L300.267 82.2805C300.014 82.1393 299.802 81.934 299.653 81.6852C299.504 81.4364 299.423 81.1528 299.418 80.8628C299.412 80.5727 299.484 80.2864 299.624 80.0324C299.764 79.7785 299.968 79.5658 300.216 79.4156L308.257 74.5729C308.506 74.4218 308.79 74.3394 309.08 74.334C309.371 74.3286 309.658 74.4005 309.912 74.5423L318.167 79.1302C318.423 79.2699 318.637 79.475 318.788 79.7244C318.939 79.9739 319.021 80.2588 319.026 80.5503C319.031 80.8419 318.959 81.1296 318.817 81.3842C318.675 81.6389 318.469 81.8514 318.218 82.0001Z" fill="#A2F8F7"/>
</g>
<path opacity="0.7" d="M318.055 68.5731L310.014 73.4056C309.764 73.5554 309.479 73.6365 309.187 73.641C308.896 73.6455 308.608 73.5731 308.354 73.4311L300.104 68.8432C299.851 68.702 299.639 68.4968 299.49 68.248C299.341 67.9992 299.26 67.7155 299.255 67.4255C299.25 67.1354 299.321 66.8491 299.461 66.5951C299.601 66.3412 299.805 66.1285 300.053 65.9784L308.094 61.1356C308.343 60.9846 308.627 60.9021 308.918 60.8968C309.208 60.8914 309.495 60.9633 309.749 61.1051L318.004 65.6929C318.262 65.8319 318.479 66.0372 318.631 66.2877C318.784 66.5382 318.867 66.8248 318.872 67.1181C318.877 67.4114 318.804 67.7007 318.661 67.9564C318.517 68.2122 318.308 68.425 318.055 68.5731Z" fill="#A1F7F6"/>
</g>
<g opacity="0.8">
<path opacity="0.8" d="M318.04 68.5731L309.999 73.4056C309.749 73.5559 309.463 73.6373 309.172 73.6418C308.88 73.6463 308.593 73.5736 308.338 73.4311L300.088 68.8432C299.834 68.7031 299.621 68.4982 299.471 68.2493C299.321 68.0004 299.239 67.7162 299.234 67.4256C299.229 67.1349 299.301 66.848 299.442 66.5939C299.583 66.3398 299.788 66.1275 300.038 65.9784L308.079 61.1356C308.327 60.9846 308.611 60.9021 308.902 60.8968C309.193 60.8914 309.48 60.9633 309.734 61.1051L317.989 65.6929C318.247 65.8319 318.463 66.0372 318.616 66.2877C318.768 66.5382 318.851 66.8248 318.857 67.1181C318.862 67.4114 318.789 67.7007 318.645 67.9565C318.502 68.2122 318.293 68.425 318.04 68.5731Z" fill="#A2F8F7"/>
</g>
<g opacity="0.7">
<g opacity="0.14">
<path opacity="0.14" d="M19.7692 158.46L11.7128 163.302C11.4629 163.453 11.1777 163.534 10.8862 163.539C10.5946 163.543 10.3071 163.47 10.0526 163.328L1.80272 158.74C1.54973 158.599 1.33826 158.394 1.18953 158.145C1.0408 157.897 0.960057 157.613 0.955413 157.323C0.950768 157.034 1.02238 156.748 1.16307 156.494C1.30375 156.241 1.50855 156.029 1.75689 155.88L9.79802 151.037C10.0468 150.887 10.3308 150.805 10.6215 150.799C10.9121 150.794 11.199 150.866 11.4531 151.007L19.7081 155.595C19.9618 155.735 20.1743 155.94 20.3242 156.188C20.4742 156.436 20.5564 156.719 20.5626 157.01C20.5687 157.3 20.4987 157.586 20.3595 157.841C20.2203 158.095 20.0167 158.309 19.7692 158.46Z" fill="#A8FEFD"/>
</g>
<g opacity="0.29">
<path opacity="0.29" d="M19.6114 145.032L11.5703 149.87C11.3201 150.02 11.035 150.101 10.7436 150.106C10.4522 150.11 10.1647 150.038 9.9101 149.896L1.66017 145.308C1.40599 145.167 1.19339 144.962 1.04384 144.713C0.894291 144.464 0.813089 144.179 0.808439 143.889C0.803789 143.598 0.875856 143.311 1.01736 143.057C1.15886 142.804 1.36479 142.592 1.61434 142.443L9.67584 137.59C9.92457 137.439 10.2086 137.357 10.4993 137.352C10.7899 137.346 11.0768 137.418 11.3309 137.559L19.5859 142.147C19.8425 142.289 20.0569 142.497 20.2069 142.749C20.357 143.001 20.4374 143.289 20.44 143.582C20.4426 143.876 20.3673 144.165 20.2217 144.42C20.0761 144.674 19.8655 144.886 19.6114 145.032Z" fill="#A7FDFC"/>
</g>
<g opacity="0.43">
<path opacity="0.43" d="M19.4535 131.605L11.4124 136.448C11.1622 136.598 10.8771 136.679 10.5857 136.683C10.2943 136.688 10.0068 136.615 9.7522 136.473L1.50227 131.886C1.2481 131.745 1.0355 131.54 0.885944 131.291C0.736393 131.041 0.655191 130.757 0.650541 130.467C0.645891 130.176 0.717958 129.889 0.859462 129.635C1.00096 129.381 1.20689 129.169 1.45644 129.021L9.49757 124.178C9.74631 124.027 10.0304 123.945 10.321 123.94C10.6116 123.935 10.8985 124.006 11.1527 124.147L19.4077 128.735C19.663 128.876 19.8768 129.081 20.0272 129.331C20.1775 129.58 20.2592 129.865 20.2639 130.157C20.2685 130.448 20.196 130.736 20.0537 130.99C19.9113 131.245 19.7043 131.457 19.4535 131.605Z" fill="#A6FCFB"/>
</g>
<g opacity="0.57">
<path opacity="0.57" d="M19.2957 118.173L11.2545 123.016C11.0044 123.166 10.7193 123.247 10.4279 123.251C10.1364 123.256 9.84897 123.183 9.59436 123.041L1.34443 118.454C1.09026 118.313 0.877658 118.108 0.728107 117.859C0.578556 117.609 0.497354 117.325 0.492704 117.034C0.488054 116.744 0.560121 116.457 0.701625 116.203C0.843128 115.949 1.04905 115.737 1.2986 115.589L9.33973 110.746C9.58847 110.595 9.87253 110.513 10.1632 110.508C10.4538 110.502 10.7407 110.574 10.9948 110.715L19.2498 115.303C19.5052 115.443 19.7189 115.649 19.8693 115.899C20.0197 116.148 20.1014 116.433 20.106 116.725C20.1107 117.016 20.0381 117.304 19.8958 117.558C19.7535 117.813 19.5464 118.025 19.2957 118.173Z" fill="#A4FAF9"/>
</g>
<g opacity="0.71">
<path opacity="0.71" d="M19.1327 104.746L11.0915 109.599C10.8414 109.749 10.5563 109.83 10.2649 109.834C9.97345 109.839 9.68598 109.766 9.43137 109.624L1.18144 105.036C0.928548 104.895 0.717244 104.689 0.568667 104.44C0.420089 104.191 0.339447 103.907 0.334807 103.617C0.330167 103.327 0.401691 103.041 0.542225 102.787C0.682759 102.534 0.887376 102.321 1.13561 102.172L9.16656 97.3034C9.41511 97.1523 9.69923 97.0699 9.98998 97.0645C10.2807 97.0591 10.5677 97.131 10.8216 97.2728L19.0767 101.861C19.3362 101.999 19.5541 102.204 19.708 102.455C19.8618 102.705 19.9459 102.993 19.9516 103.287C19.9573 103.581 19.8844 103.871 19.7404 104.128C19.5965 104.384 19.3866 104.598 19.1327 104.746Z" fill="#A3F9F8"/>
</g>
<g opacity="0.86">
<path opacity="0.86" d="M18.9748 91.3188L10.9337 96.1615C10.6835 96.3113 10.3984 96.3925 10.107 96.397C9.81558 96.4014 9.52811 96.329 9.27351 96.187L1.02358 91.5992C0.76226 91.4601 0.542961 91.2535 0.388521 91.0008C0.234082 90.7481 0.150151 90.4586 0.145471 90.1624C0.14079 89.8662 0.215532 89.5742 0.36191 89.3167C0.508289 89.0593 0.72095 88.8458 0.977744 88.6986L9.01888 83.8559C9.26743 83.7048 9.55155 83.6224 9.84229 83.617C10.133 83.6116 10.42 83.6835 10.674 83.8253L18.929 88.4131C19.1929 88.5506 19.4148 88.7569 19.5712 89.0102C19.7275 89.2636 19.8126 89.5545 19.8173 89.8523C19.822 90.1501 19.7462 90.4435 19.5979 90.7017C19.4495 90.9599 19.2343 91.1731 18.9748 91.3188Z" fill="#A2F8F7"/>
</g>
<path opacity="0.7" d="M18.8169 77.8917L10.7758 82.7345C10.5257 82.8842 10.2406 82.9654 9.94913 82.9699C9.65771 82.9744 9.37024 82.902 9.11564 82.76L0.865709 78.1721C0.612813 78.0305 0.401509 77.8248 0.252932 77.5757C0.104354 77.3267 0.0237124 77.0429 0.0190721 76.7529C0.0144318 76.4628 0.0859557 76.1766 0.22649 75.9229C0.367024 75.6692 0.571642 75.4569 0.819876 75.3072L8.86101 70.4645C9.10956 70.3134 9.39368 70.231 9.68442 70.2256C9.97517 70.2202 10.2621 70.2921 10.5161 70.4339L18.7711 75.0218C19.0265 75.162 19.2402 75.3674 19.3906 75.6171C19.541 75.8668 19.6226 76.1519 19.6273 76.4434C19.6319 76.735 19.5594 77.0225 19.4171 77.2769C19.2748 77.5313 19.0677 77.7434 18.8169 77.8917Z" fill="#A1F7F6"/>
</g>
<g opacity="0.8">
<path opacity="0.8" d="M18.8017 77.8917L10.7605 82.7345C10.5104 82.8842 10.2253 82.9654 9.93386 82.9699C9.64244 82.9744 9.35497 82.902 9.10037 82.76L0.850437 78.1721C0.595993 78.032 0.383008 77.8271 0.233 77.5782C0.0829928 77.3292 0.00127754 77.0451 -0.00388919 76.7544C-0.00905591 76.4638 0.0625089 76.1769 0.203575 75.9228C0.344641 75.6687 0.55021 75.4564 0.799512 75.3072L8.84065 70.4645C9.0892 70.3134 9.37332 70.231 9.66406 70.2256C9.9548 70.2202 10.2418 70.2921 10.4957 70.4339L18.7507 75.0218C19.0064 75.1615 19.2205 75.3666 19.3713 75.616C19.5222 75.8654 19.6044 76.1504 19.6095 76.4419C19.6147 76.7335 19.5427 77.0212 19.4008 77.2758C19.2589 77.5305 19.0522 77.743 18.8017 77.8917Z" fill="#A2F8F7"/>
</g>
</g>
<defs>
<linearGradient id="paint0_linear" x1="381.987" y1="228.955" x2="383.824" y2="255.35" gradientUnits="userSpaceOnUse">
<stop stop-color="#FAC180"/>
<stop offset="0.44" stop-color="#E58797"/>
<stop offset="1" stop-color="#C936B8"/>
</linearGradient>
<linearGradient id="paint1_linear" x1="229.531" y1="214.447" x2="237.603" y2="271.625" gradientUnits="userSpaceOnUse">
<stop stop-color="#FADD8D"/>
<stop offset="0.39" stop-color="#F4A3A8"/>
<stop offset="1" stop-color="#EA3FD6"/>
</linearGradient>
<linearGradient id="paint2_linear" x1="5162.02" y1="19969.3" x2="5361.69" y2="24892.1" gradientUnits="userSpaceOnUse">
<stop stop-color="#FAC180"/>
<stop offset="0.44" stop-color="#E58797"/>
<stop offset="1" stop-color="#C936B8"/>
</linearGradient>
<linearGradient id="paint3_linear" x1="65.6073" y1="232.36" x2="389.504" y2="232.36" gradientUnits="userSpaceOnUse">
<stop stop-color="#FFF2C9"/>
<stop offset="1" stop-color="#FFB7BB"/>
</linearGradient>
<linearGradient id="paint4_linear" x1="10942.7" y1="25475.1" x2="11397.5" y2="28903.4" gradientUnits="userSpaceOnUse">
<stop stop-color="#FAC180"/>
<stop offset="0.44" stop-color="#E58797"/>
<stop offset="1" stop-color="#C936B8"/>
</linearGradient>
<linearGradient id="paint5_linear" x1="57988.2" y1="31698.9" x2="172889" y2="31698.9" gradientUnits="userSpaceOnUse">
<stop stop-color="#FFF2C9"/>
<stop offset="1" stop-color="#FFB7BB"/>
</linearGradient>
<linearGradient id="paint6_linear" x1="92878.2" y1="29765.1" x2="93217.3" y2="35325.9" gradientUnits="userSpaceOnUse">
<stop stop-color="#FADD8D"/>
<stop offset="0.39" stop-color="#F4A3A8"/>
<stop offset="1" stop-color="#EA3FD6"/>
</linearGradient>
<linearGradient id="paint7_linear" x1="9115.41" y1="24540.1" x2="8877.48" y2="28218.3" gradientUnits="userSpaceOnUse">
<stop stop-color="#FAC180"/>
<stop offset="0.44" stop-color="#E58797"/>
<stop offset="1" stop-color="#C936B8"/>
</linearGradient>
<linearGradient id="paint8_linear" x1="8258" y1="26455.1" x2="9564.76" y2="29536.5" gradientUnits="userSpaceOnUse">
<stop stop-color="#FAC180"/>
<stop offset="0.44" stop-color="#E58797"/>
<stop offset="1" stop-color="#C936B8"/>
</linearGradient>
<linearGradient id="paint9_linear" x1="57243" y1="26572.4" x2="57330.9" y2="30038" gradientUnits="userSpaceOnUse">
<stop stop-color="#FADD8D"/>
<stop offset="0.39" stop-color="#F4A3A8"/>
<stop offset="1" stop-color="#EA3FD6"/>
</linearGradient>
<linearGradient id="paint10_linear" x1="10742.5" y1="25306.9" x2="10659.4" y2="28539.9" gradientUnits="userSpaceOnUse">
<stop stop-color="#FAC180"/>
<stop offset="0.44" stop-color="#E58797"/>
<stop offset="1" stop-color="#C936B8"/>
</linearGradient>
<linearGradient id="paint11_linear" x1="54384.9" y1="24755.9" x2="97699" y2="24755.9" gradientUnits="userSpaceOnUse">
<stop stop-color="#FFF2C9"/>
<stop offset="1" stop-color="#FFB7BB"/>
</linearGradient>
<clipPath id="clip0">
<rect width="479" height="394" fill="white"/>
</clipPath>
</defs>
</svg>
