<svg width="594" height="300" viewBox="0 0 594 300" fill="none" xmlns="http://www.w3.org/2000/svg">
<g filter="url(#filter0_d)">
<path d="M31.2096 69.7517C31.8555 57.9059 41.7206 49 53.5841 49H541.008C553.566 49 563.792 59.0605 563.888 71.6176C564.203 112.579 564.191 197.235 559.126 223.496C552.357 258.593 502.986 310.871 357.831 255.173C212.676 199.475 156.322 259.693 114.632 276.364C25.45 312.025 27.8041 132.213 31.2096 69.7517Z" fill="url(#paint0_linear)"/>
</g>
<path d="M31.2822 69.9119C31.9042 58.0066 41.8015 49 53.7231 49H541.71C553.986 49 563.972 58.6312 563.336 70.8916C561.852 99.4901 555.454 151.201 530 196C492.5 262 391.655 274.906 246.5 215C101.345 155.094 156.322 275.611 114.632 293.541C24.8188 332.168 27.8421 135.75 31.2822 69.9119Z" stroke="white" stroke-opacity="0.18"/>
<path d="M31.2769 69.8675C31.8942 57.9752 41.7831 49 53.6914 49H536.713C550.85 49 561.513 61.6015 558.397 75.3902C551.473 106.025 537.462 155.923 515 184C481 226.5 371.155 260.406 226 200.5C80.8449 140.594 156.691 266.57 115 284.5C25.473 323.004 27.937 134.221 31.2769 69.8675Z" stroke="white" stroke-opacity="0.18"/>
<defs>
<filter id="filter0_d" x="0.00012207" y="0" width="594" height="292" filterUnits="userSpaceOnUse" color-interpolation-filters="sRGB">
<feFlood flood-opacity="0" result="BackgroundImageFix"/>
<feColorMatrix in="SourceAlpha" type="matrix" values="0 0 0 0 0 0 0 0 0 0 0 0 0 0 0 0 0 0 127 0"/>
<feOffset dy="-19"/>
<feGaussianBlur stdDeviation="15"/>
<feColorMatrix type="matrix" values="0 0 0 0 0.133333 0 0 0 0 0.45098 0 0 0 0 0.666667 0 0 0 0.56 0"/>
<feBlend mode="normal" in2="BackgroundImageFix" result="effect1_dropShadow"/>
<feBlend mode="normal" in="SourceGraphic" in2="effect1_dropShadow" result="shape"/>
</filter>
<linearGradient id="paint0_linear" x1="-46.8486" y1="173.323" x2="85.5618" y2="450.577" gradientUnits="userSpaceOnUse">
<stop stop-color="#203269"/>
<stop offset="1" stop-color="#2275AB"/>
</linearGradient>
</defs>
</svg>
