<svg width="535" height="252" viewBox="0 0 535 252" fill="none" xmlns="http://www.w3.org/2000/svg">
<path d="M2.20947 21.7517C2.85534 9.90588 12.7205 1 24.5839 1H512.008C524.566 1 534.792 11.0605 534.888 23.6176C535.203 64.5789 535.191 149.235 530.126 175.496C523.357 210.593 473.986 262.871 328.831 207.173C183.676 151.475 127.322 211.693 85.6314 228.364C-3.55016 264.025 -1.19605 84.2129 2.20947 21.7517Z" fill="url(#paint0_linear)"/>
<path d="M2.28205 21.9119C2.90411 10.0066 12.8014 1 24.723 1H512.709C524.986 1 534.972 10.6312 534.336 22.8916C532.852 51.4901 526.454 103.201 501 148C463.5 214 362.655 226.906 217.5 167C72.3449 107.094 127.322 227.611 85.6315 245.541C-4.18136 284.168 -1.15802 87.7498 2.28205 21.9119Z" stroke="white" stroke-opacity="0.18"/>
<path d="M2.27682 21.8675C2.89404 9.97524 12.7829 1 24.6912 1H507.713C521.849 1 532.513 13.6015 529.397 27.3902C522.473 58.0245 508.461 107.923 486 136C452 178.5 342.155 212.406 197 152.5C51.8448 92.5944 127.691 218.57 86 236.5C-3.52715 275.004 -1.06315 86.2207 2.27682 21.8675Z" stroke="white" stroke-opacity="0.18"/>
<defs>
<linearGradient id="paint0_linear" x1="-75.8487" y1="125.323" x2="56.5616" y2="402.577" gradientUnits="userSpaceOnUse">
<stop stop-color="#203269"/>
<stop offset="1" stop-color="#2275AB"/>
</linearGradient>
</defs>
</svg>
