<svg width="47" height="47" viewBox="0 0 47 47" fill="none" xmlns="http://www.w3.org/2000/svg">
<path d="M9.89003 10.255H5.43577C3.41036 10.255 1.82044 11.9115 1.99834 13.8364L2.74796 21.9474H9.89012V10.255H9.89003Z" fill="#D77F4A"/>
<path d="M18.8243 33.0023C18.2176 33.0023 4.54927 33.0023 3.93827 33.0023H3.83821C2.09315 33.0023 0.678467 34.417 0.678467 36.1621V42.7023H22.1087V36.1621C22.1086 34.5298 20.8499 33.0023 18.8243 33.0023Z" fill="#0AB69F"/>
<path d="M8.09656 33.0023C8.11822 34.8051 9.5856 36.26 11.3935 36.26C13.2015 36.26 14.6688 34.8051 14.6905 33.0023H8.09656Z" fill="#82AEE3"/>
<path d="M11.3935 34.0306L8.09553 31.8187L6.0995 32.7804C5.87744 32.8873 5.83191 33.1838 6.01155 33.3526L8.71103 35.8879C8.84092 36.0099 9.04159 36.0152 9.17781 35.9003L11.3935 34.0306Z" fill="#C0D6F2"/>
<path d="M11.3936 34.0306L14.6915 31.8187L16.6876 32.7804C16.9096 32.8873 16.9552 33.1838 16.7755 33.3526L14.076 35.8879C13.9462 36.0099 13.7455 36.0152 13.6093 35.9003L11.3936 34.0306Z" fill="#C0D6F2"/>
<path d="M14.6916 25.0663H8.09558V31.8187L11.3936 34.0304L14.6916 31.8187V25.0663Z" fill="#FFB09E"/>
<path d="M18.8243 33.0023C18.6645 33.0023 17.5973 33.0023 16.1017 33.0023C18.1273 33.0023 19.386 34.5298 19.386 36.1621V42.7023H22.1086V36.1621C22.1086 34.5298 20.8499 33.0023 18.8243 33.0023Z" fill="#01998D"/>
<path d="M16.6875 32.7803L14.6914 31.8186L13.6567 32.5126L14.2124 32.7803C14.4344 32.8872 14.4799 33.1837 14.3003 33.3524L12.5443 35.0017L13.6091 35.9003C13.7453 36.0152 13.946 36.0099 14.0759 35.8879L16.7753 33.3525C16.9551 33.1838 16.9095 32.8873 16.6875 32.7803Z" fill="#B2CAEC"/>
<path d="M8.09558 31.254C9.08286 31.6975 10.1775 31.9444 11.33 31.9444H11.4335C12.5951 31.9444 13.6981 31.6936 14.6915 31.2434V24.8188H8.09558V31.254Z" fill="#FFA78F"/>
<path d="M7.49611 24.0696H3.41877C1.92762 24.0696 0.71875 22.8607 0.71875 21.3696C0.71875 19.8784 1.92762 18.6696 3.41877 18.6696H7.49611V24.0696Z" fill="#FFB09E"/>
<path d="M15.2666 18.6696H19.3391C20.8302 18.6696 22.0391 19.8784 22.0391 21.3696C22.0391 22.8607 20.8302 24.0696 19.3391 24.0696H15.2666V18.6696Z" fill="#FFA78F"/>
<path d="M11.4335 30.7069H11.33C6.96632 30.7069 3.42883 27.1694 3.42883 22.8058V19.9334C3.42883 15.5697 6.96632 12.0322 11.33 12.0322H11.4335C15.7972 12.0322 19.3347 15.5697 19.3347 19.9334V22.8058C19.3347 27.1694 15.7972 30.7069 11.4335 30.7069Z" fill="#FFCEBF"/>
<path d="M11.4335 12.0322H11.33C11.0125 12.0322 10.6994 12.0515 10.3917 12.0879C14.3131 12.552 17.3546 15.8872 17.3546 19.9334V22.8058C17.3546 26.8519 14.3131 30.1872 10.3917 30.6512C10.6994 30.6876 11.0125 30.7069 11.33 30.7069H11.4335C15.7972 30.7069 19.3347 27.1694 19.3347 22.8058V19.9334C19.3347 15.5696 15.7972 12.0322 11.4335 12.0322Z" fill="#FFB09E"/>
<path d="M17.154 25.5925H15.7746C15.413 25.5925 15.1198 25.2994 15.1198 24.9376C15.1198 24.5758 15.413 24.2827 15.7746 24.2827H17.154C17.5157 24.2827 17.8089 24.5758 17.8089 24.9376C17.8089 25.2994 17.5157 25.5925 17.154 25.5925Z" fill="#FE8F83"/>
<path d="M7.01249 25.5925H5.63315C5.27147 25.5925 4.97827 25.2994 4.97827 24.9376C4.97827 24.5758 5.27147 24.2827 5.63315 24.2827H7.01249C7.37417 24.2827 7.66737 24.5758 7.66737 24.9376C7.66737 25.2994 7.37417 25.5925 7.01249 25.5925Z" fill="#FE8F83"/>
<path d="M19.0258 10.4401C18.393 8.89407 16.8743 7.80444 15.1005 7.80444H8.67247C6.05782 7.80444 3.93823 9.92403 3.93823 12.5387C3.93823 15.8646 6.58712 18.57 9.89006 18.665V18.6695H20.8329L21.2809 13.8224C21.4221 12.2933 20.4475 10.9347 19.0258 10.4401Z" fill="#D77F4A"/>
<path d="M19.0259 10.4401C18.3931 8.89407 16.8744 7.80444 15.1005 7.80444H12.3779C14.1518 7.80444 15.6705 8.89407 16.3033 10.4401C17.725 10.9347 18.6996 12.2934 18.5583 13.8224L18.1104 18.6695H20.833L21.2809 13.8224C21.4222 12.2933 20.4476 10.9347 19.0259 10.4401Z" fill="#C86D36"/>
<path d="M7.42649 23.3352C7.06481 23.3352 6.77161 23.0421 6.77161 22.6803V21.2146C6.77161 20.8529 7.06481 20.5597 7.42649 20.5597C7.78816 20.5597 8.08136 20.8528 8.08136 21.2146V22.6803C8.08136 23.042 7.78816 23.3352 7.42649 23.3352Z" fill="#5A5A5A"/>
<path d="M15.1969 23.3352C14.8352 23.3352 14.542 23.0421 14.542 22.6803V21.2146C14.542 20.8529 14.8352 20.5597 15.1969 20.5597C15.5585 20.5597 15.8517 20.8528 15.8517 21.2146V22.6803C15.8517 23.042 15.5585 23.3352 15.1969 23.3352Z" fill="#5A5A5A"/>
<path d="M13.7963 25.0199C13.7963 26.3534 12.7152 27.4345 11.3817 27.4345C10.0481 27.4345 8.96704 26.3534 8.96704 25.0199H13.7963Z" fill="#FFB09E"/>
<path d="M46.092 42.7023H24.4889V36.132C24.4889 34.2557 26.0099 32.7347 27.8861 32.7347H38.7662L40.5847 33.0525L42.6946 32.7347C44.5708 32.7347 46.0918 34.2557 46.0918 36.132V42.7023H46.092Z" fill="#C0D6F2"/>
<path d="M40.0236 33.5736C37.4575 33.5736 35.3773 31.4934 35.3773 28.9273C35.3773 26.3612 37.4575 24.281 40.0236 24.281C42.5897 24.281 44.6699 26.3612 44.6699 28.9273C44.6699 31.4934 42.5897 33.5736 40.0236 33.5736Z" fill="#5A5A5A"/>
<path d="M40.0238 24.281C39.5961 24.281 39.1824 24.3399 38.7892 24.4482C40.7557 24.989 42.2009 26.7889 42.2009 28.9273C42.2009 31.0657 40.7557 32.8656 38.7892 33.4064C39.1824 33.5146 39.5962 33.5736 40.0238 33.5736C42.5898 33.5736 44.6701 31.4934 44.6701 28.9273C44.6701 26.3612 42.5898 24.281 40.0238 24.281Z" fill="#444444"/>
<path d="M42.6947 32.7346H40.4724C42.3487 32.7346 43.8696 34.2556 43.8696 36.1318V42.7022H46.0919V36.1318C46.0919 34.2557 44.571 32.7346 42.6947 32.7346Z" fill="#B2CAEC"/>
<path d="M27.9351 32.7346H42.646V42.7023H27.9351V32.7346Z" fill="#528FD8"/>
<path d="M35.3774 36.1244C33.5057 36.1244 31.9884 34.6071 31.9884 32.7354V24.5797H38.7663V32.7354C38.7663 34.6071 37.249 36.1244 35.3774 36.1244Z" fill="#FFB09E"/>
<path d="M31.9884 32.3224C33.0182 32.7911 34.1623 33.0524 35.3675 33.0524C36.5804 33.0524 37.7314 32.7876 38.7663 32.3132V24.5797H31.9884V32.3224Z" fill="#FFA78F"/>
<path d="M31.3725 24.5063H27.1841C25.651 24.5063 24.4082 23.2635 24.4082 21.7304C24.4082 20.1973 25.651 18.9545 27.1841 18.9545H31.3725V24.5063Z" fill="#FFB09E"/>
<path d="M39.3572 18.9545H43.5455C45.0786 18.9545 46.3214 20.1973 46.3214 21.7304C46.3214 23.2635 45.0786 24.5063 43.5455 24.5063H39.3572V18.9545Z" fill="#FFA78F"/>
<path d="M35.3676 31.3239C30.8573 31.3239 27.201 27.6676 27.201 23.1575V20.3068C27.201 15.7966 30.8573 12.1404 35.3675 12.1404C39.8777 12.1404 43.5339 15.7966 43.5339 20.3068V23.1575C43.5341 27.6676 39.8778 31.3239 35.3676 31.3239Z" fill="#FFCEBF"/>
<path d="M35.3676 12.1404C34.9905 12.1404 34.6198 12.1665 34.2563 12.2159C38.2409 12.7581 41.3117 16.1736 41.3117 20.3069V23.1575C41.3117 27.2907 38.2409 30.7063 34.2563 31.2484C34.6198 31.2978 34.9905 31.3239 35.3675 31.3239C39.8777 31.3239 43.5339 27.6676 43.5339 23.1574V20.3068C43.5341 15.7966 39.8778 12.1404 35.3676 12.1404Z" fill="#FFB09E"/>
<path d="M35.3676 31.3239C30.8573 31.3239 27.201 27.6676 27.201 23.1575V20.3068C27.201 15.7966 30.8573 12.1404 35.3675 12.1404C39.8777 12.1404 43.5339 15.7966 43.5339 20.3068V23.1575C43.5341 27.6676 39.8778 31.3239 35.3676 31.3239Z" fill="#FFCEBF"/>
<path d="M39.3572 23.7292C38.9963 23.7292 38.7039 23.4368 38.7039 23.0759V21.5697C38.7039 21.2088 38.9963 20.9164 39.3572 20.9164H40.0047C40.3656 20.9164 40.658 21.2088 40.658 21.5697C40.658 21.9286 40.3686 22.2199 40.0105 22.223V23.0759C40.0105 23.4368 39.718 23.7292 39.3572 23.7292Z" fill="#5A5A5A"/>
<path d="M31.3725 23.7292C31.0117 23.7292 30.7192 23.4368 30.7192 23.0759V22.223C30.361 22.2199 30.0717 21.9286 30.0717 21.5697C30.0717 21.2088 30.3641 20.9164 30.725 20.9164H31.3725C31.7334 20.9164 32.0258 21.2088 32.0258 21.5697V23.0759C32.0258 23.4368 31.7333 23.7292 31.3725 23.7292Z" fill="#5A5A5A"/>
<path d="M35.3675 12.1404C35.0331 12.1404 34.7036 12.1609 34.3798 12.2C38.4241 12.6876 41.5586 16.131 41.5586 20.3068V23.1574C41.5586 27.3332 38.4241 30.7766 34.3798 31.2642C34.7036 31.3032 35.0331 31.3239 35.3674 31.3239C39.8777 31.3239 43.5338 27.6676 43.5338 23.1574V20.3068C43.534 15.7966 39.8778 12.1404 35.3675 12.1404Z" fill="#FFB09E"/>
<path d="M27.9505 18.9545H25.7448V17.3921C25.7448 12.6659 29.5761 8.83459 34.3022 8.83459H34.3259C35.2018 8.83459 35.912 9.54464 35.912 10.4207V10.9931C35.912 15.39 32.3475 18.9545 27.9505 18.9545Z" fill="#5A5A5A"/>
<path d="M44.67 18.9544H35.6217C32.3719 18.9544 29.7373 16.32 29.7373 13.0701C29.7373 10.7308 31.6336 8.83447 33.9729 8.83447H36.5036C41.0138 8.83447 44.6701 12.4907 44.6701 17.001V18.9544H44.67Z" fill="#5A5A5A"/>
<path d="M36.5035 8.83447H34.0343C38.5446 8.83447 42.2008 12.4907 42.2008 17.001V18.9544H44.6701V17.001C44.67 12.4907 41.0137 8.83447 36.5035 8.83447Z" fill="#444444"/>
<path d="M41.0417 25.6326H39.6655C39.3047 25.6326 39.0122 25.3401 39.0122 24.9792C39.0122 24.6184 39.3047 24.3259 39.6655 24.3259H41.0417C41.4025 24.3259 41.695 24.6184 41.695 24.9792C41.695 25.3401 41.4024 25.6326 41.0417 25.6326Z" fill="#FE8F83"/>
<path d="M30.924 25.6326H29.5478C29.187 25.6326 28.8945 25.3401 28.8945 24.9792C28.8945 24.6184 29.187 24.3259 29.5478 24.3259H30.924C31.2848 24.3259 31.5773 24.6184 31.5773 24.9792C31.5773 25.3401 31.2847 25.6326 30.924 25.6326Z" fill="#FE8F83"/>
<path d="M37.7752 25.6326C37.7752 26.9661 36.6941 28.0472 35.3606 28.0472C34.027 28.0472 32.9459 26.9661 32.9459 25.6326H37.7752Z" fill="#FFB09E"/>
<path d="M23.0773 9.97673C23.3759 10.217 23.8016 10.2169 24.1001 9.97636L27.7713 7.01848C28.7062 6.26529 29.392 5.24753 29.7391 4.09833C30.0397 3.10307 29.8346 2.02372 29.19 1.2081C28.2976 0.0788198 26.7577 -0.30994 25.4362 0.260486C24.7167 0.559285 24.1334 0.949513 23.586 1.44283C23.0408 0.951441 22.4575 0.560203 21.7358 0.260486C20.4143 -0.30994 18.8744 0.0788198 17.982 1.2081C17.3374 2.02381 17.1323 3.10316 17.433 4.09833C17.78 5.24753 18.4658 6.26529 19.4007 7.01848L23.0773 9.97673Z" fill="#EB5569"/>
<path d="M29.19 1.2081C28.2976 0.0788198 26.7577 -0.30994 25.4362 0.260486C25.408 0.272144 25.3814 0.284996 25.3536 0.296929C25.7938 0.501361 26.1915 0.807962 26.5076 1.2081C27.1522 2.02381 27.3573 3.10316 27.0567 4.09833C26.7096 5.24753 26.0238 6.26529 25.0889 7.01848L22.2467 9.30844L23.0773 9.97673C23.3759 10.217 23.8016 10.2169 24.1001 9.97636L27.7713 7.01848C28.7062 6.26529 29.392 5.24753 29.7391 4.09833C30.0397 3.10316 29.8347 2.02381 29.19 1.2081Z" fill="#E53950"/>
<path d="M19.4599 39.4827H19.1702C17.5968 39.4827 16.3213 40.7582 16.3213 42.3316V47.0001H30.8507V42.3316C30.8507 40.7582 29.5752 39.4827 28.0018 39.4827H19.4599Z" fill="#F07281"/>
<path d="M28.0018 39.4827H25.6685C27.2419 39.4827 28.5174 40.7582 28.5174 42.3316V47.0001H30.8508V42.3316C30.8508 40.7582 29.5752 39.4827 28.0018 39.4827Z" fill="#EB5569"/>
<path d="M23.5765 42.4831C22.2061 42.4831 21.0951 41.3721 21.0951 40.0016V34.03H26.0579V40.0017C26.0579 41.3721 24.947 42.4831 23.5765 42.4831Z" fill="#FFB09E"/>
<path d="M21.0951 39.6483C21.8507 39.9889 22.6898 40.1801 23.5745 40.1801C24.4608 40.1801 25.3013 39.9882 26.0579 39.6465V34.03H21.0951V39.6483Z" fill="#FFA78F"/>
<path d="M32.4111 40.2439H33.6512V36.8293C33.6512 34.8351 32.0346 33.2185 30.0404 33.2185H28.8003V36.6331C28.8003 38.6273 30.4169 40.2439 32.4111 40.2439Z" fill="#5A5A5A"/>
<path d="M30.0404 33.2183H28.8003V33.3221C30.3792 33.708 31.5513 35.1313 31.5513 36.8291V40.1398C31.8269 40.2072 32.1147 40.2437 32.4112 40.2437H33.6513V36.8291C33.6513 34.8349 32.0347 33.2183 30.0404 33.2183Z" fill="#444444"/>
<path d="M14.7236 40.2439H13.4835V36.8293C13.4835 34.8351 15.1002 33.2185 17.0943 33.2185H18.3344V36.6331C18.3344 38.6273 16.7178 40.2439 14.7236 40.2439Z" fill="#5A5A5A"/>
<path d="M20.6535 34.0301H17.5779C16.4551 34.0301 15.5448 33.1198 15.5448 31.997C15.5448 30.8741 16.4551 29.9639 17.5779 29.9639H20.6535V34.0301Z" fill="#FFB09E"/>
<path d="M26.4812 29.9637H29.5568C30.6796 29.9637 31.5899 30.874 31.5899 31.9969C31.5899 33.1197 30.6796 34.03 29.5568 34.03H26.4812V29.9637Z" fill="#FFA78F"/>
<path d="M23.5745 24.9747C20.2719 24.9747 17.5946 27.619 17.5946 30.8809V31.2802V33.1167C17.5946 36.3787 20.272 39.023 23.5745 39.023C26.8772 39.023 29.5545 36.3787 29.5545 33.1167V30.8809C29.5545 27.619 26.8772 24.9747 23.5745 24.9747Z" fill="#FFCEBF"/>
<path d="M23.5746 24.9747C23.2597 24.9747 22.9505 24.9991 22.6487 25.0455C25.5115 25.4851 27.7027 27.9301 27.7027 30.8809V33.1167C27.7027 36.0676 25.5116 38.5126 22.6487 38.9522C22.9505 38.9985 23.2596 39.023 23.5746 39.023C26.8773 39.023 29.5546 36.3787 29.5546 33.1168V30.881C29.5546 27.619 26.8772 24.9747 23.5746 24.9747Z" fill="#FFB09E"/>
<path d="M20.4357 35.25H19.4113C19.1045 35.25 18.8558 35.0013 18.8558 34.6945C18.8558 34.3877 19.1045 34.139 19.4113 34.139H20.4357C20.7425 34.139 20.9912 34.3877 20.9912 34.6945C20.9912 35.0013 20.7425 35.25 20.4357 35.25Z" fill="#FE8F83"/>
<path d="M27.7608 35.25H26.7364C26.4296 35.25 26.1809 35.0013 26.1809 34.6945C26.1809 34.3877 26.4296 34.139 26.7364 34.139H27.7608C28.0676 34.139 28.3163 34.3877 28.3163 34.6945C28.3163 35.0013 28.0676 35.25 27.7608 35.25Z" fill="#FE8F83"/>
<path d="M24.2014 21.5262C23.8513 21.5262 23.5675 21.8101 23.5675 22.1602C23.5675 21.8101 23.2836 21.5262 22.9335 21.5262C19.1551 21.5262 16.0922 24.5892 16.0922 28.3676V29.9638H20.0843C22.008 29.9638 23.5675 28.4044 23.5675 26.4808C23.5676 28.4045 25.1271 29.9638 27.0508 29.9638H31.0429V28.3676C31.0428 24.5892 27.9798 21.5262 24.2014 21.5262Z" fill="#5A5A5A"/>
<path d="M24.2014 21.5262C24.0197 21.5262 23.8564 21.603 23.7408 21.7254C26.7272 22.4602 28.9427 25.1545 28.9427 28.3676V29.9638H31.0427V28.3676C31.0427 24.5892 27.9798 21.5262 24.2014 21.5262Z" fill="#444444"/>
<path d="M23.5861 37.2247C22.3914 37.2247 21.4196 36.2251 21.4196 34.9965C21.4196 34.6044 21.7374 34.2866 22.1294 34.2866C22.5215 34.2866 22.8393 34.6044 22.8393 34.9965C22.8393 35.4423 23.1743 35.8049 23.586 35.8049C23.9977 35.8049 24.3326 35.4423 24.3326 34.9965C24.3326 34.6044 24.6504 34.2866 25.0425 34.2866C25.4346 34.2866 25.7524 34.6044 25.7524 34.9965C25.7526 36.2251 24.7807 37.2247 23.5861 37.2247Z" fill="#FFA799"/>
<path d="M26.3877 33.7123C25.9957 33.7123 25.6779 33.3945 25.6779 33.0024V32.1294C25.6779 31.7374 25.9957 31.4196 26.3877 31.4196H26.8558C27.2479 31.4196 27.5657 31.7374 27.5657 32.1294C27.5657 32.4366 27.3706 32.6982 27.0976 32.7971V33.0023C27.0977 33.3945 26.7799 33.7123 26.3877 33.7123Z" fill="#5A5A5A"/>
<path d="M20.7844 33.7123C20.3923 33.7123 20.0745 33.3945 20.0745 33.0024V32.7972C19.8014 32.6983 19.6064 32.4367 19.6064 32.1295C19.6064 31.7375 19.9242 31.4197 20.3163 31.4197H20.7844C21.1764 31.4197 21.4942 31.7375 21.4942 32.1295V33.0025C21.4942 33.3945 21.1764 33.7123 20.7844 33.7123Z" fill="#5A5A5A"/>
<path d="M38.461 34.3322L35.1492 35.1552L35.3408 34.6646C35.4479 34.3906 35.3606 34.0789 35.127 33.9003C34.8151 33.6617 34.3651 33.7466 34.1616 34.0825L32.882 36.1939C32.7775 36.3424 32.6929 36.5066 32.634 36.6836L29.2019 47.0001H33.4417L34.9945 39.0473L38.8666 35.0351C38.9425 34.9565 38.985 34.8514 38.985 34.742C38.985 34.4676 38.7273 34.2661 38.461 34.3322Z" fill="#FFCEBF"/>
<path d="M38.4609 34.3321L37.3532 34.6074C37.3673 34.6495 37.3754 34.6944 37.3754 34.7418C37.3754 34.8511 37.333 34.9563 37.257 35.0349L33.3849 39.0471L31.8323 47H33.4417L34.9945 39.0472L38.8666 35.035C38.9425 34.9563 38.985 34.8512 38.985 34.7419C38.9849 34.4674 38.7272 34.2659 38.4609 34.3321Z" fill="#FFB09E"/>
<path d="M13.9691 36.1939L12.6896 34.0825C12.486 33.7466 12.0361 33.6617 11.7241 33.9003C11.4905 34.079 11.4033 34.3906 11.5102 34.6646L11.7018 35.1552L8.39007 34.3322C8.12376 34.2661 7.86609 34.4676 7.86609 34.7419C7.86609 34.8513 7.9085 34.9564 7.98451 35.035L11.8566 39.0472L13.4093 47.0001H17.6492L14.2171 36.6836C14.1582 36.5066 14.0737 36.3424 13.9691 36.1939Z" fill="#FFCEBF"/>
</svg>
