<svg width="47" height="47" viewBox="0 0 47 47" fill="none" xmlns="http://www.w3.org/2000/svg">
<path d="M47 41.4976H6.03241V31.0514C6.03241 24.6256 11.2415 19.4165 17.6673 19.4165H35.3655C41.7912 19.4165 47 24.6256 47 31.0514V41.4976Z" fill="#D2FFFF"/>
<path d="M35.1997 19.4167H29.7048C36.2217 19.4167 41.5047 24.6997 41.5047 31.217V41.4975H46.9999V31.217C46.9999 24.6997 41.717 19.4167 35.1997 19.4167Z" fill="#9AF1FF"/>
<path d="M38.493 45.2967H14.5394C14.0323 45.2967 13.6214 44.8858 13.6214 44.3788V30.9639C13.6214 30.4568 14.0323 30.0459 14.5394 30.0459H38.493C39 30.0459 39.4109 30.4568 39.4109 30.9639V44.3788C39.4109 44.8858 39 45.2967 38.493 45.2967Z" fill="#1DC2FF"/>
<path d="M38.4797 30.0459H35.1356V42.5037C35.1356 43.018 34.7189 43.4346 34.2047 43.4346H13.6214V44.3655C13.6214 44.8801 14.0384 45.2967 14.5526 45.2967H38.4797C38.9939 45.2967 39.4109 44.8797 39.4109 44.3655V30.9771C39.4109 30.4626 38.9939 30.0459 38.4797 30.0459Z" fill="#00A2FF"/>
<path d="M36.1561 14.0632C36.1561 12.7985 35.4691 11.7604 34.5913 11.6453V8.35638C34.5913 4.65403 31.5899 1.65234 27.8872 1.65234H24.2469C20.5442 1.65234 17.5429 4.65403 17.5429 8.35638V11.6453C16.6654 11.7604 15.978 12.7985 15.978 14.0632C15.978 15.3534 16.6934 16.408 17.5967 16.4865C17.8495 18.5114 19.0041 20.2548 20.6471 21.303C20.7665 23.1486 22.3005 24.6091 24.1766 24.6091H27.9575C29.8336 24.6091 31.3676 23.1486 31.487 21.303C33.1301 20.2548 34.2861 18.5114 34.5389 16.4865C35.4415 16.4069 36.1561 15.3527 36.1561 14.0632Z" fill="#F7C6BA"/>
<path d="M26.0796 18.9407C27.8822 18.9407 29.3431 17.4798 29.3431 15.6776H22.8165C22.8165 17.4798 24.2774 18.9407 26.0796 18.9407Z" fill="white"/>
<path d="M10.5452 34.5582H4.12548C3.62562 34.5582 3.22078 34.9631 3.22078 35.4629V36.6728H3.16018C1.41747 36.6724 0 38.0903 0 39.833V40.0101C0 41.7528 1.41747 43.1703 3.16018 43.1703H3.22078V44.3959C3.22078 44.8958 3.62562 45.301 4.12548 45.301H10.5452C11.045 45.301 11.4499 44.8958 11.4499 44.3959V35.4629C11.4499 34.9634 11.045 34.5582 10.5452 34.5582ZM3.16018 41.813C2.16583 41.813 1.35723 41.0041 1.35723 40.0101V39.8326C1.35723 38.8383 2.16583 38.0297 3.16018 38.0297H3.22078V41.813H3.16018Z" fill="#FF6914"/>
<path d="M36.1561 14.0633C36.1561 12.7986 35.4691 11.7605 34.5912 11.6454V8.35614C34.5912 5.50829 32.8145 3.07674 30.3098 2.10535C31.6258 3.32954 32.4498 5.07512 32.4498 7.01397V14.3075C32.4498 18.0099 29.4488 21.0108 25.7465 21.0108H22.1047C21.2502 21.0108 20.4341 20.8495 19.6829 20.5579C20.8794 21.671 22.483 22.353 24.2462 22.353H27.8879C27.9417 22.353 27.9951 22.3501 28.0486 22.3487C27.402 23.6432 26.0882 24.5457 24.5574 24.6053C24.6112 24.6074 24.6646 24.6092 24.7184 24.6092H27.9575C29.8332 24.6092 31.3672 23.1491 31.487 21.3034C33.13 20.2553 34.285 18.5119 34.5375 16.4866C35.4404 16.4081 36.1561 15.3535 36.1561 14.0633Z" fill="#F4ADA5"/>
<path d="M25.2143 6.30315H26.9198C30.294 6.30315 33.21 8.26423 34.5912 11.1085V8.35567C34.5912 4.65367 31.5899 1.65234 27.8879 1.65234H24.2462C20.5438 1.65234 17.5428 4.65367 17.5428 8.35567V11.1085C18.9241 8.26423 21.8397 6.30315 25.2143 6.30315Z" fill="#005CA0"/>
<path d="M34.5607 7.72755C34.3926 5.91922 33.4735 4.23138 32.0485 3.1022C32.0388 3.09431 32.0292 3.08678 32.0191 3.0789C31.7667 2.88096 31.4995 2.70059 31.2195 2.53995C31.2155 2.5378 31.2116 2.53529 31.2076 2.53313C30.9211 2.36962 30.6214 2.22619 30.3105 2.10571C30.3101 2.10571 30.3101 2.10535 30.3098 2.10535C31.6257 3.32954 32.4498 5.07512 32.4498 7.01397V8.34144C33.3412 9.10235 34.0738 10.0436 34.5912 11.1086V8.35578C34.5912 8.14745 34.5801 7.93552 34.5607 7.72755Z" fill="#005182"/>
<path d="M10.519 34.5582H9.40163V43.0996C9.40163 43.6138 8.98496 44.0305 8.47076 44.0305H3.22076V44.3697C3.22076 44.8839 3.63744 45.3006 4.15164 45.3006H10.519C11.0328 45.3006 11.4499 44.8839 11.4499 44.3697V35.4891C11.4499 34.9749 11.0332 34.5582 10.519 34.5582Z" fill="#ED500A"/>
<path d="M23.268 12.2431C23.268 12.9323 22.7093 13.491 22.0201 13.491C21.3309 13.491 20.7723 12.9323 20.7723 12.2431C20.7723 11.5543 21.3309 10.9956 22.0201 10.9956C22.7093 10.9956 23.268 11.5543 23.268 12.2431Z" fill="#005182"/>
<path d="M31.069 12.2431C31.069 12.9323 30.5103 13.491 29.8211 13.491C29.1319 13.491 28.5732 12.9323 28.5732 12.2431C28.5732 11.5543 29.1319 10.9956 29.8211 10.9956C30.5103 10.9956 31.069 11.5543 31.069 12.2431Z" fill="#005182"/>
</svg>
