<svg width="1329" height="252" viewBox="0 0 1329 252" fill="none" xmlns="http://www.w3.org/2000/svg">
<path d="M4.55044 19.2026C6.02327 8.49456 15.3119 1 26.1208 1H1307.67C1319.32 1 1328.89 9.80156 1327.53 21.3772C1324.21 49.6353 1308.88 102.398 1244.45 148C1151.19 214 900.397 226.906 539.412 167C178.427 107.094 315.149 227.611 211.469 245.541C-15.0389 284.713 -4.10862 82.157 4.55044 19.2026Z" stroke="#2275AB" stroke-opacity="0.8"/>
<path d="M4.53467 19.1722C5.99848 8.49425 15.2758 1 26.0537 1H1294.33C1310.55 1 1321.08 17.0815 1312.94 31.1095C1295.06 61.934 1260.79 109.033 1207.14 136C1122.59 178.5 849.416 212.406 488.431 152.5C127.446 92.5944 316.067 218.57 212.386 236.5C-13.4562 275.557 -3.90684 80.7499 4.53467 19.1722Z" stroke="#2275AB"/>
</svg>
