<svg width="535" height="202" viewBox="0 0 535 202" fill="none" xmlns="http://www.w3.org/2000/svg">
<path d="M1.97059 21.3429C2.67809 9.7046 12.4424 1 24.1021 1H512.099C524.62 1 534.829 11.0054 534.926 23.5266C535.193 57.6778 534.974 120.713 530.126 140.861C523.357 168.992 473.986 210.893 328.831 166.251C183.676 121.608 127.322 169.874 85.6314 183.236C-1.43897 211.142 -1.25621 74.4231 1.97059 21.3429Z" fill="url(#paint0_linear)"/>
<path d="M2.04979 21.5062C2.73858 9.79483 12.5396 1 24.2712 1H512.966C525.139 1 535.047 10.493 534.033 22.6229C532.064 46.1543 525.01 84.9528 501 118.823C463.5 171.723 362.655 182.067 217.5 134.051C72.3448 86.0363 127.322 182.632 85.6314 197.004C-2.14638 227.262 -1.24749 77.5691 2.04979 21.5062Z" stroke="white" stroke-opacity="0.18"/>
<path d="M2.04514 21.5048C2.72262 9.80916 12.5175 1 24.2327 1H506.654C521.145 1 531.839 14.1917 527.674 28.0715C520.27 52.7497 506.735 88.4299 486 109.204C452 143.269 342.155 170.445 197 122.429C51.8449 74.4143 127.691 175.385 86.0001 189.757C-1.43322 219.896 -1.12802 76.2838 2.04514 21.5048Z" stroke="white" stroke-opacity="0.18"/>
<defs>
<linearGradient id="paint0_linear" x1="-75.8487" y1="100.647" x2="15.266" y2="338.677" gradientUnits="userSpaceOnUse">
<stop stop-color="#203269"/>
<stop offset="1" stop-color="#2275AB"/>
</linearGradient>
</defs>
</svg>
