<svg width="375" height="1145" viewBox="0 0 375 1145" fill="none" xmlns="http://www.w3.org/2000/svg">
<path d="M-162.491 -8.05383C-162.491 -8.05383 -360.251 1072.26 -242.671 1042.5C-125.091 1012.73 -164.796 841.831 46.7965 797.181C258.389 752.531 528.644 1331.44 691.31 1082.53C853.975 833.619 855 -8.05383 855 -8.05383H-162.491Z" fill="#F8FBFF"/>
<path d="M28.4643 440.872C16.4236 414.626 65.5283 390.969 116.763 373.616C167.998 356.264 57.2286 251.386 -41.8476 251.317C-140.924 251.248 -212.945 344.354 -212.945 344.354C-212.945 344.354 -185.343 584.341 -161.392 509.534C-137.441 434.726 -57.9019 605.821 20.4371 569.55C98.7762 533.28 40.505 467.118 28.4643 440.872Z" stroke="black" stroke-opacity="0.08"/>
<path d="M44.7967 449.482C31.7481 421.049 84.9634 395.421 140.487 376.622C196.01 357.824 75.9689 244.206 -31.401 244.132C-138.771 244.057 -216.821 344.921 -216.821 344.921C-216.821 344.921 -186.908 604.907 -160.952 523.866C-134.997 442.825 -48.7992 628.177 36.0976 588.884C120.994 549.591 57.8454 477.916 44.7967 449.482Z" stroke="black" stroke-opacity="0.08"/>
<path d="M15.885 430.96C5.20633 407.703 48.7562 386.74 94.195 371.364C139.634 355.988 41.3954 263.055 -46.4731 262.994C-134.342 262.933 -198.215 345.434 -198.215 345.434C-198.215 345.434 -173.736 558.09 -152.494 491.802C-131.253 425.514 -60.7113 577.123 8.76588 544.983C78.243 512.844 26.5636 454.217 15.885 430.96Z" stroke="black" stroke-opacity="0.08"/>
<path d="M67.1189 469.677C52.2996 437.453 112.736 408.407 175.794 387.102C238.852 365.798 102.521 237.031 -19.4188 236.946C-141.359 236.861 -230 351.174 -230 351.174C-230 351.174 -196.028 645.825 -166.55 553.978C-137.073 462.132 -39.1779 672.198 57.2393 627.665C153.657 583.133 81.9383 501.901 67.1189 469.677Z" stroke="black" stroke-opacity="0.08"/>
<path d="M259.271 126.092C198.6 119.973 157.934 151.292 103.993 124.477C50.0525 97.6622 52.6596 -57.104 144.385 -95.2885C236.11 -133.473 422.474 35.6673 422.474 35.6673L513.834 250.415C513.834 250.415 431.384 294.82 366.102 248.879C300.821 202.938 319.942 132.21 259.271 126.092Z" fill="url(#paint0_linear)" fill-opacity="0.1"/>
<path d="M285.492 120.092C224.821 113.973 184.155 145.292 130.215 118.477C76.2739 91.6622 78.881 -63.104 170.606 -101.289C262.331 -139.473 448.695 29.6673 448.695 29.6673L540.056 244.415C540.056 244.415 457.605 288.82 392.324 242.879C327.042 196.938 346.164 126.21 285.492 120.092Z" fill="url(#paint1_linear)"/>
<defs>
<linearGradient id="paint0_linear" x1="3.35695" y1="94.4654" x2="268.832" y2="394.538" gradientUnits="userSpaceOnUse">
<stop stop-color="#203269"/>
<stop offset="1" stop-color="#2275AB"/>
</linearGradient>
<linearGradient id="paint1_linear" x1="29.5784" y1="88.4654" x2="295.053" y2="388.538" gradientUnits="userSpaceOnUse">
<stop stop-color="#203269"/>
<stop offset="1" stop-color="#2275AB"/>
</linearGradient>
</defs>
</svg>
