<svg width="22" height="22" viewBox="0 0 22 22" fill="none" xmlns="http://www.w3.org/2000/svg">
<g clip-path="url(#clip0)">
<path d="M8.54413 15.7753V19.8676C8.54413 20.1535 8.72766 20.4068 8.99942 20.4968C9.06736 20.5188 9.13707 20.5294 9.20589 20.5294C9.41236 20.5294 9.61178 20.4323 9.73883 20.2594L12.1327 17.0018L8.54413 15.7753Z" fill="white"/>
<path d="M21.7217 0.357238C21.5187 0.213414 21.2523 0.194002 21.0317 0.309591L1.17875 10.6772C0.944042 10.7999 0.805512 11.0505 0.824924 11.3143C0.845218 11.579 1.02081 11.8049 1.27051 11.8905L6.78963 13.7769L18.5435 3.72694L9.44816 14.6849L18.6979 17.8464C18.7667 17.8693 18.839 17.8816 18.9114 17.8816C19.0314 17.8816 19.1505 17.849 19.2555 17.7855C19.4232 17.6831 19.537 17.5111 19.5661 17.3178L21.9926 0.994296C22.0287 0.747238 21.9246 0.501943 21.7217 0.357238Z" fill="white"/>
</g>
<defs>
<clipPath id="clip0">
<rect width="21.1765" height="21.1765" fill="white" transform="translate(0.823547 0.235291)"/>
</clipPath>
</defs>
</svg>
