<svg width="188" height="185" viewBox="0 0 188 185" fill="none" xmlns="http://www.w3.org/2000/svg">
<g clip-path="url(#clip0)">
<g opacity="0.1">
<path opacity="0.1" d="M134.988 143.909C151.341 153.31 151.415 168.556 135.183 177.952C118.952 187.348 92.515 187.363 76.1659 177.952C59.8169 168.54 59.7278 153.301 75.9704 143.896C92.213 134.491 118.639 134.498 134.988 143.909Z" fill="black"/>
</g>
<g opacity="0.1">
<path opacity="0.1" d="M134.988 143.909C151.341 153.31 151.415 168.556 135.183 177.952C118.952 187.348 92.515 187.363 76.1659 177.952C59.8169 168.54 59.7278 153.301 75.9704 143.896C92.213 134.491 118.639 134.498 134.988 143.909Z" fill="black"/>
</g>
<path d="M134.92 142.04C150.048 150.739 150.118 164.844 135.094 173.542C120.071 182.239 95.6175 182.248 80.4895 173.542C65.3615 164.836 65.2811 150.733 80.3092 142.033C95.3373 133.334 119.79 133.34 134.92 142.04Z" fill="url(#paint0_linear)"/>
<path d="M134.92 132.178C150.048 140.878 150.118 154.987 135.094 163.68C120.071 172.373 95.6175 172.384 80.4895 163.68C65.3615 154.977 65.2811 140.867 80.3092 132.167C95.3373 123.468 119.79 123.477 134.92 132.178Z" fill="#1899E5"/>
<g opacity="0.8">
<path opacity="0.8" d="M128.648 135.742C140.265 142.141 140.317 152.516 128.783 158.913C117.248 165.31 98.468 165.314 86.851 158.913C75.2339 152.511 75.1752 142.137 86.7163 135.742C98.2573 129.347 117.031 129.345 128.648 135.742Z" fill="#00E7FF"/>
</g>
<path d="M21.3222 76.1749C22.7975 75.3288 23.3797 76.493 23.3841 78.2264C23.3841 80.1741 22.7062 81.9053 21.3027 82.7125C19.8992 83.5197 19.2452 82.4312 19.2322 80.6523C19.2256 78.8259 19.897 76.9908 21.3222 76.1749ZM21.3222 81.585C21.8219 81.2972 22.087 80.4294 22.087 78.9882C22.087 77.5967 21.8198 77.0037 21.3049 77.3002C20.829 77.575 20.5053 78.4537 20.5184 79.9101C20.5314 81.3665 20.8182 81.8707 21.3222 81.5829V81.585Z" fill="#FFD2CD"/>
<path d="M26.0259 73.4674C27.499 72.6191 28.0834 73.7811 28.0899 75.5167C28.0899 77.4643 27.4121 79.1956 26.0042 80.0006C24.5964 80.8056 23.9489 79.7193 23.9359 77.9404C23.9315 76.1205 24.6007 74.2832 26.0259 73.4674ZM26.0259 78.8775C26.53 78.5875 26.7972 77.7219 26.7907 76.2806C26.7907 74.8913 26.5235 74.2984 26.0107 74.5927C25.5328 74.8675 25.2134 75.7483 25.2264 77.2003C25.2395 78.6524 25.5262 79.1653 26.0259 78.8753V78.8775Z" fill="#FFD2CD"/>
<path d="M30.7319 70.7647C32.2049 69.9163 32.7894 71.0828 32.7937 72.8162C32.7937 74.7638 32.1159 76.4951 30.7124 77.3022C29.3088 78.1094 28.6549 77.0209 28.644 75.2399C28.6353 73.4156 29.3067 71.5783 30.7319 70.7647ZM30.7319 76.1748C31.2338 75.8848 31.4967 75.0192 31.4923 73.5779C31.4923 72.1864 31.2251 71.5935 30.7145 71.8921C30.204 72.1908 29.9128 73.0434 29.928 74.489C29.9432 75.9346 30.2279 76.4561 30.7319 76.1661V76.1748Z" fill="#FFD2CD"/>
<path d="M36.3156 67.6572L36.3308 73.9611L35.088 74.6795L35.0728 69.6871L35.0533 69.6957L34.0061 70.8665L33.7866 69.8862L35.2488 68.2696L36.3156 67.6572Z" fill="#FFD2CD"/>
<path d="M40.1459 65.3545C41.619 64.5062 42.2012 65.6726 42.2077 67.4039C42.2077 69.3515 41.5299 71.0828 40.1264 71.8921C38.7228 72.7015 38.0689 71.6086 38.0537 69.8298C38.0493 68.0033 38.7163 66.1682 40.1459 65.3545ZM40.1459 70.7646C40.65 70.4747 40.915 69.609 40.9107 68.1678C40.9107 66.7785 40.6435 66.1855 40.1285 66.4798C39.6527 66.7568 39.329 67.6333 39.342 69.0897C39.3551 70.5461 39.6419 71.0525 40.1459 70.7646Z" fill="#FFD2CD"/>
<path d="M44.8475 62.6407C46.3249 61.7924 46.905 62.9588 46.9115 64.69C46.9115 66.6377 46.2336 68.3689 44.8258 69.1761C43.4179 69.9833 42.7705 68.8948 42.7596 67.1116C42.7487 65.3284 43.4222 63.4608 44.8475 62.6407ZM44.8475 68.0508C45.3494 67.7608 45.6166 66.8973 45.6079 65.4539C45.6079 64.0646 45.3428 63.4717 44.8301 63.7681C44.35 64.043 44.0306 64.9216 44.0436 66.378C44.0567 67.8344 44.3456 68.3408 44.8453 68.0508H44.8475Z" fill="#FFD2CD"/>
<path d="M49.5556 59.9444C51.0286 59.0983 51.6131 60.2626 51.6196 61.996C51.6196 63.9436 50.9417 65.6748 49.5339 66.4799C48.126 67.2849 47.4764 66.1985 47.4655 64.4197C47.459 62.5911 48.1303 60.7538 49.5556 59.9444ZM49.5556 65.3546C50.0553 65.0667 50.3247 64.2011 50.316 62.7577C50.316 61.3684 50.0488 60.7754 49.5382 61.0741C49.0276 61.3727 48.7343 62.2232 48.7517 63.6709C48.7691 65.1187 49.0515 65.6337 49.5556 65.3437V65.3546Z" fill="#FFD2CD"/>
<path d="M54.2615 57.2285C55.7345 56.3802 56.3189 57.5466 56.3233 59.28C56.3233 61.2277 55.6498 62.9589 54.2419 63.7661C52.834 64.5733 52.1844 63.4848 52.1692 61.7038C52.1649 59.8838 52.8362 58.0487 54.2615 57.2285ZM54.2615 62.6386C54.7655 62.3486 55.0284 61.483 55.0241 60.0418C55.0241 58.6525 54.7568 58.0573 54.2419 58.3538C53.7661 58.6287 53.4424 59.5073 53.4598 60.9637C53.4771 62.4201 53.7596 62.9286 54.2615 62.6365V62.6386Z" fill="#FFD2CD"/>
<path d="M58.9674 54.5232C60.4404 53.6749 61.0227 54.8392 61.0292 56.5747C61.0292 58.5224 60.3514 60.2536 58.9478 61.0608C57.5443 61.868 56.8904 60.7795 56.8751 58.9985C56.8708 57.1785 57.5421 55.3412 58.9674 54.5232ZM58.9674 59.9333C59.4671 59.6455 59.7365 58.7777 59.7322 57.3365C59.7322 55.945 59.4649 55.352 58.95 55.6485C58.4742 55.9212 58.1505 56.7998 58.1635 58.2454C58.1765 59.691 58.4655 60.2082 58.9674 59.9182V59.9333Z" fill="#FFD2CD"/>
<path d="M63.6733 51.8163C65.1485 50.9659 65.7286 52.1345 65.7373 53.8657C65.7373 55.8133 65.0616 57.5446 63.6559 58.3496C62.2502 59.1546 61.5984 58.0683 61.5832 56.2873C61.5789 54.4716 62.2459 52.6344 63.6733 51.8163ZM63.6733 57.2265C64.1752 56.9365 64.4424 56.0709 64.4337 54.6296C64.4337 53.2403 64.1665 52.6473 63.6516 52.946C63.1758 53.2186 62.8564 54.0973 62.8694 55.5428C62.8824 56.9884 63.1692 57.5056 63.6733 57.2178V57.2265Z" fill="#FFD2CD"/>
<path d="M69.2461 48.7173L69.2678 55.019L68.0273 55.7331L68.0121 50.7428L67.9947 50.7515L66.9453 51.9244L66.728 50.9398L68.1859 49.3275L69.2461 48.7173Z" fill="#FFD2CD"/>
<path d="M73.9564 46.0103L73.9738 52.3163L72.7354 53.0282L72.7202 48.0358L72.6984 48.0466L71.6534 49.2174L71.434 48.2371L72.894 46.6227L73.9564 46.0103Z" fill="#FFD2CD"/>
<path d="M78.6601 43.3071L78.6797 49.6067L77.4391 50.3208L77.4217 45.3284L77.4065 45.3392L76.3593 46.5099L76.1399 45.5296L77.5999 43.9152L78.6601 43.3071Z" fill="#FFD2CD"/>
<path d="M82.497 40.9917C83.9679 40.1434 84.5502 41.3098 84.5589 43.0432C84.5589 44.9909 83.881 46.7221 82.4732 47.5293C81.0653 48.3365 80.42 47.2458 80.4048 45.467C80.4005 43.647 81.0696 41.8097 82.497 40.9917ZM82.497 46.4018C83.0011 46.114 83.2662 45.2462 83.2618 43.805C83.2618 42.4156 82.9946 41.8249 82.4753 42.1192C81.9995 42.394 81.6801 43.2726 81.6932 44.729C81.7062 46.1854 81.993 46.694 82.497 46.4018Z" fill="#FFD2CD"/>
<path d="M87.2008 38.2845C88.6782 37.4384 89.2583 38.6048 89.2648 40.336C89.2648 42.2837 88.5891 44.0149 87.1834 44.8243C85.7777 45.6336 85.1216 44.5408 85.1107 42.7598C85.1042 40.942 85.7755 39.1047 87.2008 38.2845ZM87.2008 43.6946C87.694 43.409 87.9699 42.539 87.9634 41.0978C87.9634 39.7063 87.6983 39.1133 87.1791 39.412C86.7032 39.6846 86.3795 40.5632 86.3969 42.0088C86.4143 43.4544 86.6967 43.9716 87.2008 43.6838V43.6946Z" fill="#FFD2CD"/>
<path d="M91.9023 35.5793C93.3753 34.7289 93.9598 35.8953 93.9641 37.6265C93.9641 39.5742 93.2906 41.3054 91.8827 42.1147C90.4749 42.9241 89.8253 41.8334 89.8144 40.0546C89.8122 38.2368 90.4814 36.3995 91.9023 35.5793ZM91.9023 40.9894C92.3998 40.7016 92.6714 39.8317 92.6671 38.3926C92.6671 37.0033 92.3998 36.4082 91.8784 36.709C91.4113 36.9795 91.0854 37.8581 91.1028 39.3058C91.1201 40.7536 91.4004 41.2708 91.9023 40.9808V40.9894Z" fill="#FFD2CD"/>
<path d="M96.6104 32.8741C98.0878 32.0258 98.6723 33.1922 98.6744 34.9234C98.6744 36.8711 97.9966 38.6023 96.5931 39.4073C95.1895 40.2123 94.5378 39.126 94.5247 37.3493C94.5095 35.5293 95.1896 33.6942 96.6104 32.8741ZM96.6104 38.2842C97.108 37.9985 97.3796 37.1286 97.3752 35.6873C97.3752 34.2958 97.108 33.7051 96.5931 33.9994C96.1173 34.2764 95.7935 35.1528 95.8109 36.6092C95.8283 38.0656 96.1064 38.572 96.6104 38.2842Z" fill="#FFD2CD"/>
<path d="M21.3526 87.8173C22.83 86.969 23.4101 88.1441 23.4144 89.8688C23.4144 91.8165 22.7387 93.5477 21.333 94.3614C19.9273 95.1751 19.2756 94.0714 19.2647 92.2926C19.2582 90.4726 19.9273 88.6353 21.3526 87.8173ZM21.3526 93.2274C21.8566 92.9375 22.1217 92.074 22.1174 90.6306C22.1174 89.2413 21.8523 88.6483 21.3374 88.9426C20.8594 89.2175 20.5357 90.0961 20.5531 91.5525C20.5704 93.0089 20.8529 93.5153 21.3526 93.2274Z" fill="#FFD2CD"/>
<path d="M26.0608 85.1101C27.5338 84.2618 28.1182 85.4347 28.1226 87.1594C28.1226 89.1071 27.4447 90.8383 26.0412 91.6541C24.6377 92.47 23.9837 91.3642 23.9729 89.5832C23.9642 87.7654 24.6355 85.9281 26.0608 85.1101ZM26.0608 90.5202C26.5648 90.2324 26.8299 89.3646 26.8255 87.9233C26.8255 86.534 26.5583 85.9389 26.0434 86.2375C25.5676 86.5102 25.2438 87.391 25.2612 88.8344C25.2786 90.2778 25.5611 90.7993 26.0608 90.5094V90.5202Z" fill="#FFD2CD"/>
<path d="M31.6422 82.0088L31.6596 88.3127L30.4147 89.0268L30.4016 84.0343L30.3821 84.0473L29.3349 85.2181L29.1111 84.2356L30.5733 82.6234L31.6422 82.0088Z" fill="#FFD2CD"/>
<path d="M35.4704 79.698C36.9456 78.8497 37.53 80.0226 37.5344 81.7473C37.5344 83.695 36.8565 85.4262 35.4487 86.2421C34.0408 87.0579 33.3934 85.9542 33.3803 84.1732C33.3781 82.3554 34.0451 80.5181 35.4704 79.698ZM35.4704 85.1081C35.9701 84.8181 36.2352 83.9525 36.2308 82.5112C36.2308 81.1219 35.9658 80.529 35.4487 80.8254C34.9729 81.0981 34.6491 81.9789 34.6665 83.4331C34.6839 84.8874 34.9663 85.3959 35.4704 85.1081Z" fill="#FFD2CD"/>
<path d="M40.1763 76.9928C41.6493 76.1423 42.2338 77.3174 42.2381 79.0443C42.2381 80.9919 41.5603 82.7232 40.1568 83.5368C38.7532 84.3505 38.0993 83.2469 38.0906 81.468C38.0797 79.6372 38.7511 77.8108 40.1763 76.9928ZM40.1763 82.4029C40.6804 82.1151 40.9454 81.2473 40.9411 79.806C40.9411 78.4167 40.6738 77.8238 40.1589 78.1202C39.6831 78.3929 39.3637 79.2737 39.3768 80.7171C39.3898 82.1605 39.6744 82.6821 40.1763 82.3921V82.4029Z" fill="#FFD2CD"/>
<path d="M44.8823 74.2854C46.3553 73.4393 46.9397 74.6101 46.9463 76.337C46.9463 78.2846 46.2641 80.0158 44.8605 80.8295C43.457 81.6432 42.8031 80.5395 42.7922 78.7607C42.7879 76.9429 43.4527 75.1035 44.8823 74.2854ZM44.8823 79.6955C45.3863 79.4056 45.6514 78.5399 45.647 77.0987C45.647 75.7094 45.3798 75.1164 44.8671 75.4129C44.3891 75.6877 44.0654 76.5642 44.0827 78.0098C44.1001 79.4553 44.3826 79.9747 44.8823 79.6869V79.6955Z" fill="#FFD2CD"/>
<path d="M50.4659 71.1846L50.4833 77.4884L49.2383 78.2026L49.2253 73.2101L49.2036 73.2231L48.1585 74.3939L47.9348 73.4114L49.3948 71.7992L50.4659 71.1846Z" fill="#FFD2CD"/>
<path d="M54.2919 68.871C55.7693 68.0227 56.3494 69.1978 56.3559 70.9247C56.3559 72.8723 55.678 74.6035 54.2702 75.4151C52.8623 76.2266 52.2149 75.1273 52.2062 73.3484C52.1996 71.5284 52.871 69.6933 54.2919 68.871ZM54.2919 74.2811C54.7916 73.9933 55.061 73.1255 55.0523 71.6843C55.0523 70.2928 54.7872 69.6998 54.2702 69.9941C53.7965 70.2668 53.4706 71.1476 53.488 72.604C53.5054 74.0604 53.7878 74.5689 54.2919 74.2789V74.2811Z" fill="#FFD2CD"/>
<path d="M59 66.1681C60.473 65.3176 61.0553 66.4927 61.064 68.2175C61.064 70.1651 60.3861 71.8963 58.9782 72.7122C57.5704 73.528 56.9208 72.4222 56.9099 70.6433C56.9034 68.8169 57.5747 66.9861 59 66.1681ZM59 71.5782C59.504 71.2882 59.7691 70.4226 59.7647 68.9814C59.7647 67.5899 59.4975 66.9969 58.9869 67.2956C58.4764 67.5942 58.1852 68.4468 58.2004 69.8924C58.2157 71.338 58.5003 71.8574 59 71.5674V71.5782Z" fill="#FFD2CD"/>
<path d="M63.7059 63.4611C65.179 62.6128 65.7634 63.7857 65.7677 65.5127C65.7677 67.4603 65.0899 69.1915 63.6864 70.0052C62.2829 70.8189 61.6289 69.7152 61.618 67.9364C61.6115 66.1164 62.2807 64.2727 63.7059 63.4611ZM63.7059 68.8713C64.2056 68.5834 64.475 67.7157 64.4707 66.2744C64.4707 64.8851 64.2035 64.29 63.6885 64.5886C63.2127 64.8634 62.889 65.742 62.9064 67.1984C62.9238 68.6548 63.2062 69.1591 63.7059 68.8713Z" fill="#FFD2CD"/>
<path d="M69.2809 60.3662L69.2983 66.6657L68.0577 67.3799L68.0468 62.3874L68.0273 62.3982L66.9757 63.5668L66.7606 62.5887L68.2206 60.9743L69.2809 60.3662Z" fill="#FFD2CD"/>
<path d="M73.1156 58.0486C74.593 57.2003 75.1774 58.3732 75.1818 60.0979C75.1818 62.0456 74.5017 63.7768 73.0982 64.5926C71.6947 65.4085 71.0407 64.3048 71.0255 62.5238C71.0233 60.7039 71.6969 58.8622 73.1156 58.0486ZM73.1286 63.4587C73.624 63.173 73.8912 62.3031 73.889 60.8618C73.889 59.4725 73.624 58.8796 73.1112 59.176C72.6311 59.4487 72.3074 60.3273 72.3248 61.7729C72.3421 63.2185 72.6246 63.7378 73.1286 63.4479V63.4587Z" fill="#FFD2CD"/>
<path d="M77.8215 55.3456C79.2967 54.4952 79.879 55.6681 79.8855 57.3928C79.8855 59.3405 79.2077 61.0717 77.8041 61.8875C76.4006 62.7034 75.7423 61.5976 75.7315 59.8187C75.7293 57.9966 76.3963 56.1615 77.8215 55.3456ZM77.8215 60.7557C78.3212 60.4679 78.5906 59.6023 78.5819 58.1589C78.5819 56.7696 78.3147 56.1788 77.7998 56.4753C77.324 56.7458 77.0003 57.6265 77.0176 59.0721C77.035 60.5177 77.3175 61.0349 77.8215 60.7449V60.7557Z" fill="#FFD2CD"/>
<path d="M82.5296 52.6365C84.0027 51.7881 84.5871 52.9611 84.5936 54.6858C84.5936 56.6334 83.9158 58.3647 82.5079 59.1784C81.1 59.992 80.4504 58.8905 80.4396 57.1095C80.433 55.2917 81.1044 53.4523 82.5296 52.6365ZM82.5296 58.0466C83.0337 57.7566 83.2988 56.891 83.2966 55.4497C83.2966 54.0626 83.0272 53.4696 82.5166 53.7639C82.006 54.0582 81.7127 54.9174 81.7301 56.3738C81.7475 57.8302 82.0299 58.3366 82.5296 58.0487V58.0466Z" fill="#FFD2CD"/>
<path d="M88.1089 49.5396L88.1219 55.8413L86.8835 56.5532L86.8705 51.5629L86.8488 51.5738L85.8037 52.7445L85.58 51.762L87.0443 50.1498L88.1089 49.5396Z" fill="#FFD2CD"/>
<path d="M91.9392 47.2263C93.4166 46.378 94.001 47.5509 94.0032 49.2757C94.0032 51.2233 93.3254 52.9545 91.9218 53.7704C90.5183 54.5862 89.8644 53.4804 89.8491 51.6994C89.8448 49.8794 90.5161 48.0421 91.9392 47.2263ZM91.9392 52.6364C92.4368 52.3508 92.7083 51.483 92.704 50.0396C92.704 48.6481 92.4368 48.0551 91.9175 48.3559C91.446 48.6286 91.1223 49.5029 91.1397 50.9528C91.1571 52.4027 91.4373 52.9156 91.9414 52.6256L91.9392 52.6364Z" fill="#FFD2CD"/>
<path d="M96.6452 44.5188C98.1226 43.6704 98.7027 44.8434 98.7092 46.5703C98.7092 48.5179 98.0313 50.2491 96.6278 51.0628C95.2243 51.8765 94.566 50.7728 94.5551 48.9962C94.5529 47.1762 95.2199 45.3389 96.6452 44.5188ZM96.6452 49.9289C97.1384 49.6454 97.41 48.7711 97.4056 47.332C97.4056 45.9405 97.1406 45.3476 96.6278 45.6462C96.1477 45.9189 95.8239 46.7997 95.8413 48.2431C95.8587 49.6865 96.1411 50.208 96.6452 49.9202V49.9289Z" fill="#FFD2CD"/>
<path d="M72.3204 13.4214L72.3378 19.7253L71.095 20.4372L71.0776 15.4448L71.0602 15.4556L70.0152 16.6263L69.7958 15.646L71.2558 14.0316L72.3204 13.4214Z" fill="#FFD2CD"/>
<path d="M77.0219 10.7168L77.0393 17.0185L75.8031 17.7326L75.7857 12.7402L75.7683 12.751L74.7211 13.9217L74.4995 12.9414L75.9617 11.3271L77.0219 10.7168Z" fill="#FFD2CD"/>
<path d="M80.861 8.40335C82.3318 7.55505 82.9163 8.72147 82.9228 10.4527C82.9228 12.4003 82.2449 14.1316 80.8371 14.9409C79.4292 15.7503 78.7818 14.6574 78.7688 12.8764C78.7644 11.0586 79.4314 9.22136 80.861 8.40335ZM80.861 13.8135C81.3607 13.5257 81.6301 12.66 81.6258 11.2166C81.6258 9.82513 81.3585 9.23435 80.8393 9.53082C80.3635 9.80349 80.0441 10.6821 80.0571 12.1277C80.0702 13.5733 80.3569 14.0905 80.861 13.8005V13.8135Z" fill="#FFD2CD"/>
<path d="M85.5626 5.69388C87.0399 4.84557 87.62 6.012 87.6266 7.74323C87.6266 9.69088 86.9487 11.4221 85.5452 12.2293C84.1417 13.0365 83.4834 11.948 83.4725 10.1691C83.4681 8.35133 84.1395 6.51622 85.5626 5.69388ZM85.5626 11.104C86.0601 10.8205 86.3317 9.9484 86.3273 8.50714C86.3273 7.11782 86.0623 6.52488 85.5452 6.82135C85.0694 7.09618 84.7457 7.97479 84.763 9.42903C84.7804 10.8833 85.0629 11.3897 85.5626 11.104Z" fill="#FFD2CD"/>
<path d="M90.2707 2.99093C91.7437 2.14046 92.3281 3.30688 92.3325 5.04028C92.3325 6.98792 91.6546 8.71916 90.2511 9.52635C88.8476 10.3335 88.1936 9.24286 88.1828 7.46185C88.1741 5.64621 88.8454 3.80894 90.2707 2.99093ZM90.2707 8.40104C90.7682 8.11755 91.0398 7.24761 91.0354 5.80419C91.0354 4.41487 90.7682 3.82192 90.2468 4.12056C89.7775 4.39323 89.4537 5.26751 89.4733 6.71742C89.4929 8.16733 89.7709 8.68237 90.2707 8.39022V8.40104Z" fill="#FFD2CD"/>
<path d="M94.9722 0.283699C96.4496 -0.564608 97.0341 0.601813 97.0362 2.33521C97.0362 4.28286 96.3584 6.01409 94.9549 6.82128C93.5513 7.62847 92.8974 6.53779 92.8865 4.76111C92.88 2.93898 93.5513 1.10387 94.9722 0.283699ZM94.9722 5.69381C95.4698 5.40816 95.7414 4.53821 95.737 3.09696C95.737 1.70764 95.4698 1.11253 94.9549 1.409C94.4791 1.68384 94.151 2.56244 94.1727 4.01884C94.1944 5.47525 94.4682 5.98163 94.9722 5.69381Z" fill="#FFD2CD"/>
<path d="M62.0677 30.8727C63.5407 30.0222 64.1252 31.1973 64.1295 32.922C64.1295 34.8697 63.4517 36.6009 62.0482 37.4168C60.6446 38.2326 59.9907 37.1268 59.9755 35.3458C59.9646 33.528 60.6425 31.6929 62.0677 30.8727ZM62.0677 36.2828C62.5718 35.9928 62.8368 35.1272 62.8325 33.6859C62.8325 32.2945 62.5652 31.7015 62.0503 31.9958C61.5745 32.2728 61.2508 33.1493 61.2704 34.6057C61.2899 36.0621 61.568 36.5685 62.0677 36.2806V36.2828Z" fill="#FFD2CD"/>
<path d="M67.6449 27.7734L67.6623 34.0751L66.4217 34.7914L66.4065 29.7968L66.3891 29.8055L65.3419 30.9784L65.1246 29.9959L66.5846 28.3837L67.6449 27.7734Z" fill="#FFD2CD"/>
<path d="M71.4796 25.4602C72.957 24.6118 73.5415 25.7848 73.5436 27.5117C73.5436 29.4593 72.8614 31.1906 71.4601 32.0021C70.0587 32.8136 69.4004 31.7143 69.3895 29.9354C69.3852 28.1133 70.0544 26.2782 71.4796 25.4602ZM71.4796 30.8703C71.9772 30.5825 72.2444 29.7125 72.24 28.2734C72.24 26.8841 71.975 26.2933 71.4579 26.5876C70.9821 26.8646 70.6584 27.7411 70.6757 29.1845C70.6931 30.6279 70.9756 31.1516 71.4796 30.8638V30.8703Z" fill="#FFD2CD"/>
<path d="M76.1855 22.7532C77.6586 21.9048 78.2452 23.0778 78.2495 24.8025C78.2495 26.7501 77.5673 28.4814 76.1638 29.2972C74.7603 30.1131 74.1063 29.0072 74.0955 27.2262C74.0868 25.4084 74.7603 23.5733 76.1855 22.7532ZM76.1855 28.1633C76.6853 27.8733 76.9547 27.0077 76.946 25.5664C76.946 24.1749 76.6787 23.5841 76.1638 23.8806C75.688 24.1533 75.3643 25.0341 75.3817 26.4775C75.3991 27.9209 75.6815 28.4403 76.1855 28.1525V28.1633Z" fill="#FFD2CD"/>
<path d="M80.8914 20.048C82.3644 19.1975 82.9489 20.3726 82.9532 22.0973C82.9532 24.045 82.2797 25.7762 80.8718 26.5899C79.464 27.4036 78.8144 26.3021 78.8035 24.5232C78.7948 22.7011 79.4683 20.866 80.8914 20.048ZM80.8914 25.4581C81.3954 25.1681 81.6605 24.3025 81.6562 22.8612C81.6562 21.4719 81.3889 20.879 80.874 21.1754C80.3982 21.4481 80.0745 22.3289 80.0919 23.7723C80.1092 25.2157 80.3917 25.7394 80.8914 25.4473V25.4581Z" fill="#FFD2CD"/>
<path d="M86.4664 16.9512L86.4838 23.2529L85.2475 23.9648L85.2302 18.9724L85.2128 18.9832L84.1656 20.1561L83.944 19.1736L85.4062 17.5593L86.4664 16.9512Z" fill="#FFD2CD"/>
<path d="M90.3011 14.636C91.7785 13.7877 92.3629 14.9606 92.3651 16.6853C92.3651 18.633 91.6872 20.3642 90.2793 21.18C88.8715 21.9959 88.2219 20.8901 88.211 19.1112C88.2088 17.2912 88.8758 15.4561 90.3011 14.636ZM90.3011 20.0461C90.7986 19.7604 91.0702 18.8905 91.0615 17.4492C91.0615 16.0577 90.7964 15.4648 90.275 15.7656C89.8014 16.0361 89.482 16.9125 89.4972 18.3624C89.5124 19.8124 89.797 20.3252 90.3011 20.0374V20.0461Z" fill="#FFD2CD"/>
<path d="M95.007 11.9265C96.4844 11.0804 97.0645 12.2554 97.0688 13.9802C97.0688 15.9278 96.3953 17.6591 94.9875 18.4706C93.5796 19.2821 92.93 18.1828 92.9191 16.4039C92.9126 14.5839 93.5818 12.7467 95.007 11.9265ZM95.007 17.3366C95.5002 17.0531 95.7761 16.1788 95.7674 14.7398C95.7674 13.3504 95.5024 12.7553 94.9853 13.0518C94.5095 13.3245 94.1858 14.2052 94.2031 15.6616C94.2205 17.118 94.5008 17.6244 95.0048 17.3344L95.007 17.3366Z" fill="#FFD2CD"/>
<path d="M57.3922 45.2287C58.8696 44.3804 59.4497 45.5533 59.4562 47.2781C59.4562 49.2257 58.7784 50.957 57.3748 51.7642C55.9713 52.5713 55.3174 51.4828 55.3065 49.704C55.3 47.8775 55.967 46.0424 57.3922 45.2287ZM57.3922 50.6389C57.8919 50.3489 58.1613 49.4833 58.1527 48.042C58.1527 46.6505 57.8876 46.0576 57.3748 46.354C56.8947 46.6289 56.571 47.5053 56.5884 48.9509C56.6057 50.3965 56.8904 50.9159 57.3922 50.6259V50.6389Z" fill="#FFD2CD"/>
<path d="M62.9803 42.1235L62.9955 48.4231L61.7484 49.1437L61.7354 44.1491L61.7136 44.1599L60.6686 45.3307L60.4492 44.3482L61.9092 42.736L62.9803 42.1235Z" fill="#FFD2CD"/>
<path d="M67.6796 39.4204L67.697 45.7221L66.4564 46.4363L66.4412 41.4438L66.4217 41.4546L65.3745 42.6254L65.155 41.6407L66.6172 40.0307L67.6796 39.4204Z" fill="#FFD2CD"/>
<path d="M71.5122 37.1052C72.9852 36.2569 73.5718 37.4298 73.5762 39.1546C73.5762 41.1022 72.8939 42.8334 71.4904 43.6428C70.0869 44.4521 69.4329 43.3593 69.4221 41.5783C69.4177 39.7605 70.0869 37.9232 71.5122 37.1052ZM71.5122 42.5153C72.0097 42.2275 72.2813 41.3597 72.2769 39.9185C72.2769 38.527 72.0097 37.934 71.4948 38.2283C71.019 38.5053 70.6952 39.3818 70.7126 40.8382C70.73 42.2946 71.0124 42.801 71.5122 42.5132V42.5153Z" fill="#FFD2CD"/>
<path d="M77.0894 34.0059L77.1067 40.3119L75.8683 41.0217L75.8553 36.0314L75.8336 36.0422L74.7885 37.213L74.5691 36.2327L76.0291 34.6161L77.0894 34.0059Z" fill="#FFD2CD"/>
<path d="M81.7952 31.3008L81.8126 37.6025L80.5721 38.3166L80.5568 33.322L80.5373 33.335L79.4901 34.5057L79.2728 33.5254L80.7307 31.911L81.7952 31.3008Z" fill="#FFD2CD"/>
<path d="M86.5012 28.5938L86.5185 34.8976L85.278 35.6118L85.265 30.6171L85.2476 30.6301L84.1982 31.7987L83.9788 30.8184L85.4388 29.2062L86.5012 28.5938Z" fill="#FFD2CD"/>
<path d="M90.3358 26.2806C91.8089 25.4344 92.3933 26.6052 92.3998 28.3321C92.3998 30.2797 91.7176 32.011 90.3141 32.816C88.9106 33.621 88.2566 32.5347 88.2458 30.7558C88.2393 28.9358 88.9106 27.0986 90.3358 26.2806ZM90.3358 31.6907C90.8334 31.4072 91.105 30.5372 91.1006 29.0938C91.1006 27.7045 90.8334 27.1137 90.3119 27.4124C89.8427 27.6807 89.5189 28.5593 89.5363 30.0092C89.5537 31.4591 89.834 31.972 90.3358 31.6842V31.6907Z" fill="#FFD2CD"/>
<path d="M95.0418 23.5754C96.5148 22.7271 97.0993 23.9 97.1036 25.6269C97.1036 27.5745 96.4279 29.3058 95.0222 30.113C93.6165 30.9202 92.9647 29.8295 92.9495 28.0506C92.9474 26.2307 93.6165 24.3956 95.0418 23.5754ZM95.0418 28.9855C95.5393 28.6999 95.8109 27.8299 95.8065 26.3887C95.8065 24.9972 95.5393 24.4042 95.0244 24.7029C94.5486 24.9755 94.2249 25.852 94.2422 27.2997C94.2596 28.7475 94.5421 29.2625 95.0418 28.9747V28.9855Z" fill="#FFD2CD"/>
<g opacity="0.1">
<path opacity="0.1" d="M129.439 112.353C125.528 114.606 125.504 118.257 129.393 120.507C133.282 122.758 139.605 122.762 143.515 120.507C147.426 118.253 147.45 114.606 143.561 112.353C139.672 110.101 133.35 110.103 129.439 112.353Z" fill="black"/>
</g>
<g opacity="0.1">
<path opacity="0.1" d="M153.388 125.117C149.859 127.147 149.846 130.43 153.347 132.457C156.847 134.485 162.543 134.485 166.069 132.457C169.596 130.43 169.611 127.147 166.111 125.117C162.611 123.087 156.914 123.091 153.388 125.117Z" fill="black"/>
</g>
<g opacity="0.1">
<path opacity="0.1" d="M174.404 135.519C171.271 137.318 171.258 140.233 174.365 142.029C177.471 143.825 182.516 143.827 185.645 142.029C188.774 140.23 188.787 137.315 185.686 135.519C182.586 133.723 177.524 133.721 174.404 135.519Z" fill="black"/>
</g>
<g opacity="0.14">
<path opacity="0.14" d="M129.471 104.935C125.561 107.188 125.537 110.839 129.426 113.091C133.315 115.344 139.637 115.342 143.563 113.091C147.489 110.841 147.5 107.186 143.609 104.935C139.718 102.684 133.4 102.684 129.471 104.935Z" fill="#FDCDE7"/>
</g>
<g opacity="0.29">
<path opacity="0.29" d="M129.471 97.5727C125.561 99.8255 125.537 103.476 129.426 105.729C133.315 107.982 139.637 107.98 143.563 105.729C147.489 103.478 147.5 99.8233 143.609 97.5727C139.718 95.3221 133.4 95.3221 129.471 97.5727Z" fill="#FDCDE7"/>
</g>
<g opacity="0.43">
<path opacity="0.43" d="M129.471 90.2104C125.561 92.4632 125.537 96.1161 129.426 98.3667C133.315 100.617 139.637 100.617 143.563 98.3667C147.489 96.1161 147.5 92.461 143.609 90.2104C139.718 87.9598 133.4 87.9598 129.471 90.2104Z" fill="#FDCDE7"/>
</g>
<g opacity="0.57">
<path opacity="0.57" d="M129.471 82.8466C125.561 85.0994 125.537 88.7523 129.426 91.0029C133.315 93.2535 139.637 93.2535 143.563 91.0029C147.489 88.7523 147.5 85.0972 143.609 82.8466C139.718 80.596 133.4 80.596 129.471 82.8466Z" fill="#FDCDE7"/>
</g>
<g opacity="0.71">
<path opacity="0.71" d="M129.471 75.4842C125.561 77.737 125.537 81.3899 129.426 83.6405C133.315 85.8911 139.637 85.8932 143.563 83.6405C147.489 81.3877 147.5 77.737 143.609 75.4842C139.718 73.2314 133.4 73.2336 129.471 75.4842Z" fill="#FDCDE7"/>
</g>
<g opacity="0.86">
<path opacity="0.86" d="M129.471 68.1199C125.561 70.3727 125.537 74.0256 129.426 76.2762C133.315 78.5268 139.637 78.529 143.563 76.2762C147.489 74.0234 147.5 70.3727 143.609 68.1199C139.718 65.8671 133.4 65.8693 129.471 68.1199Z" fill="#FDCDE7"/>
</g>
<path d="M129.471 60.7581C125.561 63.0109 125.537 66.6638 129.426 68.9144C133.315 71.165 139.637 71.1672 143.563 68.9144C147.489 66.6616 147.5 63.0109 143.609 60.7581C139.718 58.5053 133.4 58.5075 129.471 60.7581Z" fill="#FDCDE7"/>
<path d="M129.489 60.7752C125.578 63.0193 125.578 66.6571 129.448 68.899C133.317 71.141 139.622 71.1453 143.526 68.899C147.431 66.6528 147.437 63.0172 143.572 60.7752C139.707 58.5333 133.4 58.5333 129.489 60.7752Z" fill="#F7BADF"/>
<g opacity="0.14">
<path opacity="0.14" d="M174.406 132.183C171.282 133.981 171.266 136.894 174.371 138.692C177.476 140.49 182.518 140.49 185.647 138.692C188.776 136.894 188.786 133.981 185.686 132.183C182.586 130.384 177.532 130.389 174.406 132.183Z" fill="#FFDF75"/>
</g>
<g opacity="0.29">
<path opacity="0.29" d="M174.406 128.845C171.282 130.641 171.266 133.556 174.371 135.353C177.476 137.149 182.518 137.151 185.647 135.353C188.776 133.554 188.786 130.641 185.686 128.845C182.586 127.049 177.532 127.051 174.406 128.845Z" fill="#FFDF75"/>
</g>
<g opacity="0.43">
<path opacity="0.43" d="M174.406 125.515C171.282 127.311 171.266 130.224 174.371 132.022C177.476 133.821 182.518 133.821 185.647 132.022C188.776 130.224 188.786 127.313 185.686 125.515C182.586 123.717 177.532 123.715 174.406 125.515Z" fill="#FFDF75"/>
</g>
<g opacity="0.57">
<path opacity="0.57" d="M174.406 122.171C171.282 123.968 171.266 126.88 174.371 128.676C177.476 130.473 182.518 130.475 185.647 128.676C188.776 126.878 188.786 123.968 185.686 122.171C182.586 120.375 177.532 120.375 174.406 122.171Z" fill="#FFDF75"/>
</g>
<g opacity="0.71">
<path opacity="0.71" d="M174.406 118.834C171.282 120.628 171.266 123.543 174.371 125.34C177.476 127.136 182.518 127.138 185.647 125.34C188.776 123.541 188.786 120.631 185.686 118.834C182.586 117.038 177.532 117.038 174.406 118.834Z" fill="#FFDF75"/>
</g>
<g opacity="0.86">
<path opacity="0.86" d="M174.406 115.498C171.282 117.292 171.266 120.207 174.371 122.001C177.476 123.795 182.518 123.801 185.647 122.001C188.776 120.2 188.786 117.292 185.686 115.498C182.586 113.704 177.532 113.702 174.406 115.498Z" fill="#FFDF75"/>
</g>
<path d="M174.406 112.16C171.282 113.954 171.266 116.869 174.371 118.652C177.476 120.436 182.518 120.453 185.647 118.652C188.776 116.852 188.786 113.943 185.686 112.16C182.586 110.377 177.532 110.366 174.406 112.16Z" fill="#FFDF75"/>
<path d="M174.406 112.16C171.282 113.954 171.266 116.869 174.371 118.652C177.476 120.436 182.518 120.453 185.647 118.652C188.776 116.852 188.786 113.943 185.686 112.16C182.586 110.377 177.532 110.366 174.406 112.16Z" fill="#F5E981"/>
<g opacity="0.14">
<path opacity="0.14" d="M153.412 120.347C149.888 122.375 149.873 125.656 153.37 127.681C156.868 129.707 162.554 129.709 166.078 127.681C169.602 125.654 169.615 122.373 166.119 120.347C162.624 118.322 156.929 118.324 153.412 120.347Z" fill="#A2F8F7"/>
</g>
<g opacity="0.29">
<path opacity="0.29" d="M153.412 115.009C149.888 117.036 149.873 120.317 153.37 122.343C156.868 124.368 162.554 124.37 166.078 122.343C169.602 120.315 169.615 117.034 166.119 115.009C162.624 112.983 156.929 112.985 153.412 115.009Z" fill="#A2F8F7"/>
</g>
<g opacity="0.43">
<path opacity="0.43" d="M153.412 109.67C149.888 111.697 149.873 114.978 153.37 117.003C156.868 119.029 162.554 119.029 166.078 117.003C169.602 114.978 169.615 111.695 166.119 109.67C162.624 107.644 156.929 107.644 153.412 109.67Z" fill="#A2F8F7"/>
</g>
<g opacity="0.57">
<path opacity="0.57" d="M153.412 104.329C149.888 106.357 149.873 109.637 153.37 111.663C156.868 113.688 162.554 113.688 166.078 111.663C169.602 109.637 169.615 106.354 166.119 104.329C162.624 102.303 156.929 102.306 153.412 104.329Z" fill="#A2F8F7"/>
</g>
<g opacity="0.71">
<path opacity="0.71" d="M153.412 98.9904C149.888 101.018 149.873 104.299 153.37 106.324C156.868 108.35 162.554 108.35 166.078 106.324C169.602 104.299 169.615 101.016 166.119 98.9904C162.624 96.9648 156.929 96.9648 153.412 98.9904Z" fill="#A2F8F7"/>
</g>
<g opacity="0.86">
<path opacity="0.86" d="M153.412 93.6515C149.888 95.6792 149.873 98.9599 153.37 100.985C156.868 103.011 162.554 103.011 166.078 100.985C169.602 98.9599 169.615 95.677 166.119 93.6515C162.624 91.6259 156.929 91.6259 153.412 93.6515Z" fill="#A2F8F7"/>
</g>
<path d="M153.412 88.3107C149.888 90.3384 149.873 93.6191 153.37 95.6446C156.868 97.6702 162.554 97.6702 166.078 95.6446C169.602 93.6191 169.615 90.3362 166.119 88.3107C162.624 86.2851 156.929 86.2851 153.412 88.3107Z" fill="#A2F8F7"/>
<path d="M153.412 88.3107C149.888 90.3384 149.873 93.6191 153.37 95.6446C156.868 97.6702 162.554 97.6702 166.078 95.6446C169.602 93.6191 169.615 90.3362 166.119 88.3107C162.624 86.2851 156.929 86.2851 153.412 88.3107Z" fill="#A2F8F7"/>
<path d="M153.388 88.131C149.866 90.1565 149.851 93.4394 153.349 95.4606C156.847 97.4818 162.528 97.4883 166.054 95.4606C169.58 93.4329 169.593 90.1522 166.096 88.131C162.598 86.1098 156.914 86.1076 153.388 88.131Z" fill="#7EEDEA"/>
<path d="M7.73457 157.049L5.66839 155.851L5.52283 104.987L7.58683 106.181L7.73457 157.049Z" fill="url(#paint1_linear)"/>
<path d="M108.075 92.6776C108.057 92.6636 108.038 92.6519 108.017 92.6429C107.833 92.5397 107.643 92.4486 107.448 92.3703C107.396 92.3491 107.344 92.3311 107.291 92.3162C107.217 92.2837 107.135 92.2577 107.052 92.2296C106.97 92.2015 106.87 92.1603 106.767 92.13C106.611 92.0846 106.435 92.0521 106.268 92.0154C106.185 92.0002 106.116 91.9764 106.029 91.9591L105.929 91.9374C105.579 91.8787 105.225 91.8383 104.871 91.8163H104.808C104.667 91.8163 104.504 91.8163 104.358 91.8163C104.065 91.8163 103.789 91.7946 103.472 91.8163C103.419 91.8163 103.354 91.8314 103.304 91.8336C102.963 91.8509 102.585 91.9007 102.218 91.9439C101.983 91.9721 101.783 91.9764 101.527 92.0154L101.353 92.0456L100.94 92.1214C100.428 92.2123 99.8824 92.3378 99.311 92.4633L98.7896 92.591L98.4072 92.6819C97.9944 92.7944 97.5381 92.9481 97.0884 93.0844C96.8103 93.1688 96.5539 93.2359 96.265 93.3311C95.3959 93.6211 94.4704 93.9478 93.4818 94.3309L90.5922 95.4713L85.4779 97.5034L85.1802 97.6159C84.5284 97.8713 83.9027 98.1201 83.3009 98.3517L82.51 98.6503L81.2782 99.1134C80.9783 99.2238 80.7024 99.3298 80.4091 99.4229C80.0745 99.5462 79.7291 99.6717 79.4054 99.7821C79.1164 99.8817 78.8448 99.9704 78.5624 100.063C78.2799 100.156 77.9562 100.28 77.6629 100.36C77.3696 100.44 77.1284 100.522 76.8634 100.598C76.5983 100.674 76.2985 100.769 76.0247 100.842C75.9509 100.864 75.8705 100.881 75.7923 100.899C74.8172 101.167 73.8288 101.383 72.831 101.548L72.5138 101.589C71.8229 101.689 71.1363 101.758 70.4411 101.806C70.3694 101.806 70.2977 101.818 70.2238 101.818C69.496 101.849 68.7595 101.834 68.0056 101.795L67.6036 101.771C66.6001 101.7 65.6008 101.578 64.6097 101.405C64.3425 101.36 64.0883 101.323 63.8145 101.273C63.0954 101.137 62.4132 100.964 61.7505 100.773C61.5833 100.728 61.4247 100.682 61.2704 100.637C60.6729 100.457 60.0928 100.267 59.5323 100.063C59.4932 100.048 59.4519 100.037 59.4128 100.02C58.761 99.7821 58.1092 99.5376 57.4922 99.293C56.9317 99.0766 56.3711 98.8602 55.8193 98.6438C55.7019 98.6027 55.5803 98.5573 55.4651 98.5118C54.9002 98.2954 54.3354 98.1201 53.7683 97.947C53.6988 97.9254 53.6314 97.8994 53.551 97.8799C53.4706 97.8604 53.3946 97.8453 53.3207 97.8237C52.8406 97.6895 52.3517 97.577 51.8542 97.4817C51.7586 97.4601 51.6674 97.4298 51.5718 97.4125C51.5327 97.4125 51.4936 97.4125 51.4544 97.3995C51.1112 97.3454 50.757 97.3086 50.4072 97.2762C50.2704 97.2632 50.14 97.2372 49.9988 97.2285C49.98 97.2267 49.9611 97.2267 49.9423 97.2285C49.6946 97.2134 49.4296 97.2285 49.1688 97.2285C48.9516 97.2285 48.7343 97.2134 48.4953 97.2285H48.4497C48.2194 97.2415 47.9782 97.2761 47.7479 97.2978C47.4807 97.3238 47.2222 97.3367 46.9506 97.3779C46.9245 97.3779 46.8984 97.3908 46.8724 97.3908C46.4226 97.4623 45.9533 97.5705 45.4819 97.6873C45.3667 97.7176 45.2646 97.7284 45.1386 97.7609C45.1314 97.7618 45.1241 97.7618 45.1169 97.7609C44.3598 97.9747 43.6156 98.2312 42.8878 98.5291C42.8052 98.5616 42.7335 98.5746 42.6488 98.6092C42.362 98.7304 42.0535 98.8797 41.7558 99.016C41.5386 99.1091 41.3517 99.1935 41.141 99.2974C40.5022 99.6112 39.8374 99.9466 39.1552 100.349C38.0689 100.97 36.9347 101.699 35.7116 102.55C35.0098 103.041 34.3406 103.47 33.6932 103.848C32.9863 104.255 32.2541 104.617 31.501 104.93C30.8985 105.178 30.2792 105.384 29.6477 105.545C29.5304 105.575 29.4174 105.593 29.3023 105.619C28.8568 105.719 28.4054 105.791 27.9509 105.835C27.8488 105.835 27.7467 105.857 27.6467 105.863C27.1755 105.893 26.7027 105.887 26.2324 105.846C26.1129 105.846 25.9977 105.82 25.8761 105.807C25.5371 105.766 25.2069 105.705 24.881 105.634C24.7115 105.595 24.5421 105.56 24.3726 105.515C24.1553 105.458 23.9381 105.389 23.736 105.316C23.3601 105.197 22.9865 105.067 22.6258 104.92C22.4476 104.846 22.2695 104.777 22.0892 104.703C21.5308 104.463 20.9811 104.208 20.4249 103.948C19.8687 103.688 19.3603 103.455 18.8215 103.219C18.7281 103.18 18.6455 103.136 18.5565 103.1C18.4674 103.063 18.3783 103.041 18.2849 103.002C17.9264 102.859 17.557 102.727 17.1855 102.608C17.0573 102.567 16.9357 102.507 16.8075 102.472C16.6793 102.437 16.5902 102.427 16.4925 102.398C16.3143 102.351 16.1383 102.314 15.9558 102.273C15.8255 102.245 15.6951 102.206 15.5582 102.182C15.341 102.143 15.1237 102.126 14.8912 102.102C14.7891 102.089 14.6913 102.072 14.5871 102.063L14.4524 102.048C14.0949 102.029 13.7366 102.029 13.3791 102.048C13.2965 102.048 13.2118 102.067 13.1314 102.072C13.0162 102.072 12.8989 102.093 12.7816 102.106C12.6034 102.126 12.4275 102.13 12.245 102.158C11.969 102.202 11.6757 102.277 11.3759 102.344C11.2695 102.366 11.1717 102.383 11.0631 102.409C11.0239 102.409 10.9892 102.422 10.9457 102.435C10.3467 102.599 9.75883 102.8 9.1859 103.039C9.17514 103.044 9.16495 103.051 9.15548 103.058C8.36959 103.386 7.60608 103.764 6.86987 104.19C6.43535 104.439 5.98996 104.712 5.52936 105.017L7.59336 106.214C8.05613 105.911 8.50586 105.636 8.94256 105.383C9.67672 104.958 10.4372 104.58 11.2195 104.251C11.8419 103.989 12.4822 103.772 13.1357 103.602C13.2444 103.574 13.34 103.563 13.4443 103.539C13.9066 103.43 14.3754 103.351 14.8478 103.301C14.9629 103.288 15.0802 103.275 15.1932 103.266C15.6792 103.229 16.1673 103.229 16.6532 103.266C16.7532 103.266 16.8488 103.29 16.9487 103.303C17.3135 103.342 17.6761 103.4 18.035 103.476C18.2132 103.515 18.3892 103.554 18.563 103.599C18.7933 103.662 19.0192 103.734 19.2495 103.816C19.6276 103.937 20.0034 104.071 20.3728 104.221C20.5422 104.288 20.7139 104.355 20.879 104.426C21.4243 104.66 21.9653 104.907 22.4998 105.158C23.0343 105.409 23.5991 105.668 24.1532 105.911C24.2596 105.952 24.3574 106.006 24.4573 106.051C24.5573 106.097 24.6311 106.108 24.7094 106.14C25.0613 106.283 25.4241 106.408 25.7957 106.527C25.9325 106.573 26.0672 106.636 26.2085 106.677C26.291 106.701 26.3779 106.714 26.4583 106.733C26.6213 106.781 26.7886 106.815 26.9559 106.85C27.1231 106.885 27.2687 106.934 27.436 106.96C27.6033 106.986 27.7858 107.001 27.9618 107.025C28.0791 107.038 28.1921 107.055 28.3116 107.064L28.5115 107.09C28.8596 107.108 29.2084 107.108 29.5565 107.09C29.613 107.09 29.6716 107.077 29.7303 107.073C29.8281 107.073 29.928 107.051 30.0323 107.045C30.2322 107.025 30.4342 107.017 30.645 106.986C30.8557 106.956 31.1403 106.882 31.388 106.83C31.5032 106.804 31.6053 106.787 31.7291 106.757C31.7856 106.744 31.8378 106.737 31.8921 106.722C32.4631 106.564 33.024 106.371 33.5715 106.144H33.5846C34.3371 105.829 35.0693 105.468 35.7767 105.062C36.4198 104.69 37.0926 104.257 37.7951 103.764C39.014 102.911 40.1546 102.184 41.2344 101.563C41.9275 101.167 42.5901 100.821 43.2354 100.507C43.4244 100.416 43.6004 100.34 43.7872 100.256C44.2 100.066 44.5998 99.8925 44.9909 99.7323C45.7133 99.4394 46.4517 99.1873 47.2026 98.9771C47.3438 98.9381 47.4764 98.9208 47.6154 98.8862C48.076 98.7758 48.5257 98.6698 48.9603 98.6049C49.2644 98.5573 49.5512 98.5356 49.8489 98.5075C50.0792 98.4837 50.316 98.4491 50.5398 98.4382C50.7635 98.4274 51.0264 98.4382 51.2719 98.4382C51.5175 98.4382 51.7934 98.4382 52.0454 98.4382C52.2018 98.4382 52.3496 98.4729 52.4995 98.488C52.8515 98.5205 53.2078 98.5551 53.551 98.6135C53.6879 98.6352 53.8226 98.6698 53.9595 98.6936C54.4505 98.791 54.9372 98.91 55.4152 99.0377C55.5607 99.0788 55.7128 99.1178 55.8627 99.1632C56.4319 99.332 56.9881 99.5203 57.5487 99.7215C57.6856 99.7713 57.8246 99.8297 57.9615 99.8773C58.4677 100.07 58.9739 100.263 59.4823 100.462C60.1471 100.719 60.8185 100.983 61.5137 101.232C61.5339 101.241 61.555 101.249 61.5767 101.254C62.1547 101.47 62.7521 101.656 63.3626 101.842C63.4561 101.87 63.5408 101.905 63.6364 101.931C63.732 101.957 63.7733 101.961 63.8537 101.983C64.5054 102.169 65.1985 102.344 65.9177 102.479L66.5303 102.589C66.5955 102.589 66.6477 102.589 66.7128 102.611C67.7644 102.786 68.7551 102.909 69.7067 102.976C69.7632 102.976 69.824 102.994 69.8762 102.998C69.9283 103.002 70.0239 102.998 70.0935 102.998C70.8539 103.039 71.5991 103.054 72.3313 103.024H72.3486C72.3834 103.024 72.4225 103.024 72.4594 103.011C73.1677 102.976 73.8717 102.903 74.5778 102.794C74.6516 102.781 74.7255 102.781 74.795 102.771L74.895 102.749C75.8895 102.59 76.875 102.379 77.8476 102.117C77.8954 102.104 77.9323 102.1 77.9779 102.087L78.0996 102.05C78.3408 101.985 78.5971 101.907 78.8426 101.834C79.1403 101.743 79.4336 101.663 79.7399 101.563C79.9854 101.49 80.2396 101.401 80.4895 101.319C80.8219 101.208 81.1413 101.102 81.4889 100.985C81.7236 100.905 81.9712 100.81 82.2146 100.726C82.5969 100.587 82.9685 100.455 83.3661 100.308C83.5833 100.226 83.8288 100.128 84.0591 100.044C84.4937 99.8795 84.9282 99.7194 85.4018 99.5354C85.6191 99.4532 85.8559 99.3601 86.0775 99.2692C86.5816 99.0766 87.0813 98.8819 87.6114 98.672L87.846 98.5811C90.0904 97.6938 92.6106 96.681 95.5393 95.5363C96.5279 95.1489 97.4491 94.8243 98.3268 94.5365C98.6114 94.4412 98.8634 94.3742 99.135 94.2898C99.7216 94.1101 100.304 93.9305 100.841 93.7942L101.366 93.6687C101.953 93.5259 102.513 93.409 103.039 93.3138C103.154 93.2943 103.278 93.2683 103.389 93.2532C103.726 93.1991 104.017 93.1753 104.328 93.1385C104.68 93.0974 105.045 93.0541 105.368 93.0325C105.764 93.0108 106.127 93.0108 106.483 93.0195C106.609 93.0195 106.744 93.0195 106.865 93.0195C107.279 93.0416 107.691 93.09 108.099 93.1645C108.175 93.1774 108.245 93.1969 108.317 93.2142C108.595 93.2698 108.87 93.342 109.14 93.4306L109.357 93.5021C109.631 93.606 109.896 93.7289 110.152 93.8699L108.075 92.6776Z" fill="url(#paint2_linear)"/>
<g opacity="0.4">
<path opacity="0.4" d="M8.93606 105.35C15.2367 101.728 18.8867 103.42 22.4889 105.121C26.0912 106.822 29.6412 108.536 35.7594 105.023C36.4025 104.651 37.0753 104.218 37.7777 103.725C38.9966 102.872 40.1372 102.145 41.217 101.524C53.0513 94.7204 57.2945 100.84 65.8894 102.446C75.2687 104.218 79.4228 101.829 95.5437 95.5211C111.665 89.2129 112.184 96.5749 112.212 96.9601L7.73459 157.049L7.58685 106.183C8.04962 105.878 8.49936 105.606 8.93606 105.35Z" fill="url(#paint3_linear)"/>
</g>
<path d="M4.96448 74.6596C5.06876 74.6077 5.18174 74.5428 5.28168 74.4865C5.50242 74.3526 5.68159 74.1604 5.79933 73.9312C5.91706 73.702 5.96876 73.4448 5.94868 73.1881V68.2108L6.5744 67.8516V72.7856C6.5744 74.0148 6.04645 74.7008 5.36207 75.1119C5.23427 75.1924 5.10148 75.2647 4.96448 75.3283V74.6596Z" fill="#E9F0F4"/>
<path d="M7.84538 72.3552L7.62811 73.8029L7.0415 74.1384L8.12782 66.9581L9.04902 66.4365L10.1353 72.3638L9.50744 72.7123L9.29018 71.522L7.84538 72.3552ZM7.92577 71.68L9.19893 70.9486L8.54714 67.5337L7.92577 71.68Z" fill="#E9F0F4"/>
<path d="M10.9175 65.3545L11.8452 70.5244L12.7642 64.292L13.353 63.9565L12.2862 71.1239L11.352 71.6606L10.2657 65.7267L10.9175 65.3545Z" fill="#E9F0F4"/>
<path d="M14.2786 68.6549L14.0613 70.1026L13.4703 70.438L14.5567 63.2577L15.4779 62.7275L16.5642 68.6549L15.9276 69.0184L15.7103 67.8282L14.2786 68.6549ZM14.3611 67.9797L15.6321 67.2504L14.9912 63.8399L14.3611 67.9797Z" fill="#E9F0F4"/>
<path d="M19.5407 61.9679V62.1454L18.9367 62.4916V62.2752C18.9367 61.6866 18.7411 61.4507 18.2849 61.7147C17.8286 61.9787 17.6331 62.4354 17.6331 63.0132C17.6331 64.4804 19.545 63.5217 19.545 65.3676C19.545 66.3609 19.13 67.2439 18.2588 67.7481C17.3876 68.2523 16.9791 67.8347 16.9791 66.8435V66.4691L17.5744 66.1272V66.5406C17.5744 67.1292 17.7917 67.3542 18.2414 67.0902C18.6912 66.8262 18.9084 66.3631 18.9084 65.7702C18.9084 64.3094 17.003 65.2659 17.003 63.42C17.003 62.4094 17.4093 61.5459 18.2653 61.0547C19.1213 60.5635 19.5407 60.9746 19.5407 61.9679Z" fill="#E9F0F4"/>
<path d="M22.6214 60.2065V60.7994L22.0175 61.1456V60.5159C22.0175 59.9273 21.8132 59.6892 21.3505 59.9554C20.8877 60.2216 20.6835 60.6955 20.6835 61.2841V64.7466C20.6835 65.3352 20.9007 65.5711 21.3505 65.3071C21.8002 65.0431 22.0175 64.567 22.0175 63.9784V63.1258L22.6214 62.7795V63.5932C22.6214 64.5865 22.2152 65.4759 21.3352 65.9736C20.4553 66.4714 20.0577 66.0537 20.0577 65.0604V61.6758C20.0577 60.6825 20.464 59.7931 21.3352 59.2954C22.2065 58.7977 22.6214 59.2153 22.6214 60.2065Z" fill="#E9F0F4"/>
<path d="M24.4704 57.5637C25.3655 57.0486 25.7414 57.3472 25.7414 58.3319V58.8621C25.7568 59.1881 25.7015 59.5136 25.5793 59.8165C25.4571 60.1193 25.2708 60.3924 25.0331 60.6171C25.5545 60.4959 25.7501 60.8703 25.7501 61.5715V62.5929C25.7267 62.8389 25.7663 63.0868 25.8652 63.3135L25.2134 63.6836C25.1168 63.4503 25.0802 63.1966 25.107 62.9456V61.9177C25.107 61.1776 24.8071 61.117 24.277 61.42L23.8295 61.6797V64.4886L23.1929 64.8565V58.2908L24.4704 57.5637ZM24.3096 60.7448C24.5655 60.6248 24.7792 60.4307 24.9226 60.1879C25.066 59.945 25.1325 59.6647 25.1135 59.3836V58.756C25.1135 58.1653 24.9266 57.964 24.4617 58.2367L23.8425 58.5894V61.0261L24.3096 60.7448Z" fill="#E9F0F4"/>
<path d="M27.0449 56.0791V62.634L26.4105 63.0019V56.4448L27.0449 56.0791Z" fill="#E9F0F4"/>
<path d="M28.9416 54.9887C29.8389 54.4737 30.2213 54.8632 30.2213 55.8543V56.6442C30.2453 57.1197 30.1336 57.5922 29.899 58.007C29.6645 58.4218 29.3167 58.7619 28.896 58.9879L28.3355 59.3103V61.9072L27.701 62.2707V55.705L28.9416 54.9887ZM28.896 58.3322C29.1259 58.2093 29.3146 58.0221 29.4389 57.7937C29.5632 57.5653 29.6177 57.3056 29.5956 57.0467V56.1811C29.5956 55.5795 29.4066 55.3891 28.9438 55.6552L28.3333 56.008V58.6459L28.896 58.3322Z" fill="#E9F0F4"/>
<path d="M31.5401 60.0501V54.1596L30.4885 54.7612V54.1012L33.2173 52.5322V53.1966L32.168 53.8025V59.6909L31.5401 60.0501Z" fill="#E9F0F4"/>
<path opacity="0.5" d="M36.5328 59.187L0 80.1934V68.6742L36.5328 47.6699V59.187Z" fill="url(#paint4_linear)"/>
<path d="M38.8249 33.4306C38.9292 33.3787 39.0422 33.3138 39.1421 33.2575C39.363 33.1238 39.5423 32.9316 39.6601 32.7023C39.7778 32.4731 39.8294 32.2158 39.8091 31.9591V26.9818L40.437 26.6226V31.5566C40.437 32.7814 39.9069 33.4718 39.2247 33.8829C39.0962 33.9622 38.9635 34.0345 38.8271 34.0993L38.8249 33.4306Z" fill="#E9F0F4"/>
<path d="M41.7145 31.1192L41.4973 32.5626L40.9106 32.9024L41.997 25.7221L42.9181 25.1919L44.0045 31.1192L43.3701 31.4828L43.1528 30.2882L41.7145 31.1192ZM41.7971 30.444L43.0681 29.7148L42.4163 26.2999L41.7971 30.444Z" fill="#E9F0F4"/>
<path d="M44.7779 24.1187L45.7056 29.2886L46.6246 23.0561L47.2113 22.7207L46.1445 29.888L45.2102 30.4247L44.137 24.4909L44.7779 24.1187Z" fill="#E9F0F4"/>
<path d="M48.139 27.4166L47.9217 28.8643L47.3373 29.1998L48.4236 22.0194L49.3448 21.4893L50.4311 27.4166L49.7945 27.7801L49.5773 26.5899L48.139 27.4166ZM48.2237 26.7414L49.4925 26.0121L48.8407 22.5972L48.2237 26.7414Z" fill="#E9F0F4"/>
<path opacity="0.5" d="M54.6786 15.8496L34.8577 27.2476V38.7669L54.6786 27.3688V15.8496Z" fill="url(#paint5_linear)"/>
<path d="M12.0755 45.3757V45.9686L11.4715 46.3105V45.683C11.4715 45.09 11.2672 44.852 10.8023 45.1181C10.3374 45.3843 10.1353 45.8582 10.1353 46.4469V49.9093C10.1353 50.498 10.3526 50.7338 10.8023 50.4698C11.252 50.2058 11.4715 49.7319 11.4715 49.1411V48.2885L12.0755 47.9422V48.7559C12.0755 49.7492 11.6692 50.6386 10.7893 51.1363C9.90935 51.6341 9.50958 51.2164 9.50958 50.221V46.8515C9.50958 45.8604 9.91586 44.971 10.7893 44.4711C11.6627 43.9712 12.0755 44.3867 12.0755 45.3757Z" fill="#E9F0F4"/>
<path d="M14.1504 46.1424V47.4624L13.6876 47.7243V46.4021L12.5643 47.0513V46.5276L13.6876 45.8784V44.5799L14.1438 44.3159V45.6143L15.2693 44.9651V45.491L14.1504 46.1424Z" fill="#E9F0F4"/>
<path d="M17.3463 44.3025V45.6248L16.89 45.8844V44.5665L15.7646 45.2158V44.6877L16.89 44.0385V42.7401L17.3463 42.4761V43.7745L18.4695 43.1253V43.6512L17.3463 44.3025Z" fill="#E9F0F4"/>
<path opacity="0.5" d="M24.0858 34.5317L4.2627 45.9298V57.449L24.0858 46.051V34.5317Z" fill="url(#paint6_linear)"/>
<path d="M77.1284 75.2249C77.1284 75.2249 74.556 72.7124 72.857 72.5696C71.158 72.4268 68.6595 72.8358 69.3808 73.6235C70.1021 74.4112 72.5746 75.0128 72.4877 75.7096C72.4008 76.4065 70.9299 75.7681 71.5361 76.3589C72.1423 76.9496 73.4915 77.5166 76.5071 76.9864C76.8033 76.8137 77.0284 76.5418 77.1422 76.2192C77.256 75.8966 77.2511 75.5442 77.1284 75.2249Z" fill="#EFB185"/>
<path d="M98.8547 70.2669C98.8547 70.2669 101.562 70.585 100.208 73.2057C100.208 73.2057 98.0682 76.4712 92.6953 80.0938C92.6953 80.0938 87.5288 83.7251 86.0623 83.2836C84.5958 82.8422 75.084 77.603 75.084 77.603C75.9577 76.7709 76.5209 75.6673 76.6809 74.4738C76.6809 74.4738 85.6256 77.9211 86.5881 77.5922C87.5505 77.2633 96.7408 69.8081 98.8547 70.2669Z" fill="#FF61CB"/>
<path d="M86.0536 83.2834C84.9021 82.9329 77.6477 79.0051 75.0753 77.6028C75.315 77.413 75.5163 77.1794 75.6684 76.9147C75.6684 76.9147 85.4648 80.5935 86.4251 80.2603C87.3854 79.927 96.5865 72.4697 98.6896 72.9328C99.1664 73.0028 99.6137 73.2053 99.9801 73.5171C99.311 74.413 97.0818 77.1332 92.6866 80.0936C92.6866 80.0936 87.5201 83.7249 86.0536 83.2834Z" fill="#EA49BD"/>
<path d="M108.675 59.5117C115.866 57.7978 116.892 71.9139 111.417 76.071C110.465 76.7938 107.537 76.1338 107.328 75.0842C106.459 70.7691 112.799 66.2506 109.57 62.1562C109.336 61.9894 109.13 61.7854 108.962 61.5524C108.438 60.8275 106.928 60.1003 108.675 59.5117Z" fill="#2B0D04"/>
<g opacity="0.1">
<path opacity="0.1" d="M116.959 139.581C123.36 143.26 123.39 149.235 117.029 152.914C110.667 156.593 100.334 156.593 93.9337 152.914C87.5332 149.235 87.4962 143.26 93.8577 139.581C100.219 135.903 110.557 135.903 116.959 139.581Z" fill="black"/>
</g>
<path d="M98.1008 137.66C98.1008 137.66 97.8835 139.7 96.9776 140.785C96.0716 141.869 91.9132 144.34 92.1978 145.465C92.4824 146.591 95.4372 146.731 97.3143 144.888C99.1915 143.044 99.6912 142.767 100.484 142.607C101.277 142.447 102.42 141.473 101.62 139.735C101.618 139.735 99.1067 138.995 98.1008 137.66Z" fill="black"/>
<path d="M97.0862 91.522C97.0862 91.522 93.6622 108.228 95.5393 117.491C95.5393 117.491 96.4084 124.796 96.8125 126.796C97.2166 128.795 97.1645 139.728 97.1645 139.728C97.1645 139.728 100.247 141.04 101.799 139.605C101.799 139.605 103.793 128.352 101.612 121.191C101.612 121.191 104.184 107.499 104.243 103.039C104.285 100.264 104.492 97.4931 104.862 94.7421L97.0862 91.522Z" fill="#5FB9E6"/>
<path d="M95.5393 117.488C95.5393 117.488 96.4084 124.794 96.8125 126.794C97.2166 128.793 97.1644 139.726 97.1644 139.726C97.5623 139.879 97.9712 140.002 98.3876 140.094C98.6049 136.848 99.0242 131.165 99.198 129.884C99.4522 128.058 97.3773 118.058 97.2122 114.344C97.0471 110.631 101.179 96.7093 101.179 96.7093L100.037 92.7382L97.0884 91.5112C97.0884 91.5112 93.6622 108.228 95.5393 117.488Z" fill="#77D2FF"/>
<path d="M107.469 141.836C107.469 141.836 107.313 143.879 106.431 144.985C105.549 146.091 101.462 148.671 101.768 149.791C102.075 150.912 105.027 150.967 106.867 149.082C108.708 147.197 109.197 146.898 109.985 146.723C110.774 146.548 111.886 145.541 111.039 143.823C111.039 143.817 108.51 143.139 107.469 141.836Z" fill="black"/>
<path d="M111.035 97.0166C111.035 97.0166 114.339 101.73 112.742 111.356L112.034 122.849C112.034 122.849 114.222 126.528 112.651 137.703L111.13 144.411C111.13 144.411 109.264 145.777 107.196 142.994C107.196 142.994 107.345 126.465 106.565 123.918C105.998 122.059 103.4 114.288 102.377 106.785C102.012 104.061 97.7685 99.5334 97.9857 97.1659L111.035 97.0166Z" fill="#77D2FF"/>
<path d="M111.141 144.422L112.662 137.714C114.233 126.543 112.045 122.86 112.045 122.86L112.753 111.366C114.348 101.741 111.045 97.0273 111.045 97.0273H110.665L107.046 99.3602C107.046 99.3602 110.63 117.562 110.37 122.187C110.109 126.811 111.419 132.213 111.239 135.093C111.128 136.943 110.296 141.626 109.718 144.749C110.216 144.807 110.719 144.691 111.141 144.422Z" fill="#5FB9E6"/>
<path d="M113.24 76.6662C114.137 79.3388 111.363 78.7134 110.02 83.9742C108.677 89.2349 110.826 94.1646 111.541 97.0169C112.256 99.8691 110.509 100.546 109.687 100.631C108.586 100.737 107.254 100.871 106.135 100.787C108.477 95.6903 105.155 86.2074 105.005 81.0938C104.849 75.6837 109.77 73.5586 109.77 73.5586C112.382 75.1924 113.24 76.6662 113.24 76.6662Z" fill="#779F29"/>
<path d="M113.24 76.8586C113.24 76.8586 110.309 71.3575 98.3159 69.9942C98.3159 69.9942 96.4149 69.2022 96.5952 75.348C96.6191 76.231 95.6979 77.748 95.0744 78.5508C94.4508 79.3537 92.7909 82.4288 96.4192 86.112C96.4192 86.112 97.8271 91.587 96.1476 95.1296C94.6485 98.2913 102.492 101.382 109.168 100.737C109.989 100.659 112.258 99.871 111.543 97.0145C110.828 94.1579 108.679 89.423 110.022 84.1644C111.365 78.9057 114.137 79.5333 113.24 76.8586Z" fill="#FF61CB"/>
<path d="M99.2524 67.4447C99.2524 67.4447 101.182 70.0892 99.978 72.6774C99.6522 73.3894 98.7483 76.3433 103.413 75.4669C103.413 75.4669 108.349 73.437 107.035 71.8983C106.166 70.8726 105.349 69.427 107.126 64.6401L99.2524 67.4447Z" fill="#E8A476"/>
<path d="M107.035 71.8982C107.161 72.032 107.233 72.2078 107.237 72.3916C102.809 72.9239 100.041 69.6302 100.041 69.6302L106.092 65.0728C106.092 65.0728 106.363 65.2892 106.77 65.6441C105.473 69.6324 106.224 70.9481 107.035 71.8982Z" fill="#DB9669"/>
<path d="M100.682 58.8321C100.682 58.8321 99.4239 59.1589 99.1002 62.7901C99.0589 63.1905 98.3702 63.6709 98.1269 64.6555C97.8835 65.6402 97.3404 69.6805 99.6629 70.2821C101.345 70.7149 105.638 69.9769 107.367 66.0081C109.097 62.0392 106.007 56.5317 100.682 58.8321Z" fill="#F1B287"/>
<path d="M105.231 66.551C105.231 66.551 106.031 64.5925 107.143 65.2937C107.491 65.5101 107.852 65.9645 107.219 66.9578C106.587 67.9511 105.355 68.7995 104.451 68.6155L105.231 66.551Z" fill="#F1B287"/>
<path d="M108.675 59.5117C109.46 59.304 110.288 59.3197 111.065 59.5571C111.704 61.2667 111.25 62.5478 110.391 63.8376C110.248 63.2228 109.967 62.6481 109.57 62.1561C109.336 61.9893 109.13 61.7853 108.962 61.5524C108.438 60.8274 106.928 60.1003 108.675 59.5117Z" fill="#EFF3FC"/>
<path d="M100.962 57.172C102.7 55.6918 104.838 56.0121 106.896 56.6764C108.679 57.2521 110.413 59.1305 110.465 60.8769C110.546 63.2963 109.735 66.4298 106.857 67.8646C105.792 68.4012 107.615 65.8195 106.205 65.6875C105.755 65.6421 105.618 64.902 105.29 64.7721C105.053 64.8847 103.27 63.9195 101.34 63.2573C101.197 63.2075 101.021 62.0389 100.882 61.9957C100.697 61.9307 100.558 62.9868 100.389 62.9305C99.783 62.7188 99.2064 62.4324 98.6722 62.0779C98.2551 60.3099 99.7238 58.2129 100.962 57.172Z" fill="#2B0D04"/>
<path d="M105.835 64.9216C105.184 65.5145 104.938 66.3109 105.297 66.7004C105.655 67.0899 106.472 66.9168 107.128 66.3304C107.784 65.7439 108.019 64.941 107.663 64.5537C107.306 64.1663 106.485 64.3243 105.835 64.9216Z" fill="#F1B287"/>
<path d="M94.0902 90.8122C94.0902 90.8122 90.6444 89.7692 89.0649 90.4141C87.4854 91.0589 85.4627 92.5781 86.4708 92.9417C87.4789 93.3052 91.9023 94.5128 94.3487 92.6539C94.5309 92.3659 94.6048 92.023 94.5575 91.686C94.5102 91.3489 94.3446 91.0394 94.0902 90.8122Z" fill="#EFB185"/>
<path d="M111.078 76.4601C111.078 76.4601 113.629 75.5014 113.629 78.4467C113.629 78.4467 113.235 82.3247 110.139 88.0053C110.139 88.0053 107.23 93.5972 105.725 93.8785C104.219 94.1598 93.3536 93.8655 93.3536 93.8655C93.7451 92.7256 93.7352 91.4868 93.3254 90.3533C93.3254 90.3533 102.861 89.3167 103.563 88.5831C104.265 87.8495 108.997 77.0162 111.078 76.4601Z" fill="#EA49BD"/>
<path d="M105.733 93.8785C104.547 94.0949 96.2911 93.9326 93.3624 93.8656C93.4908 93.587 93.5646 93.2866 93.5796 92.9805C93.5796 92.9805 103.973 91.7535 104.675 91.0198C105.377 90.2862 110.107 79.453 112.18 78.9012C112.635 78.7449 113.125 78.7194 113.594 78.8276C113.414 79.9291 112.69 83.3721 110.157 88.0097C110.152 88.0053 107.239 93.5972 105.733 93.8785Z" fill="#EA49BD"/>
<path opacity="0.5" d="M53.5141 43.8698L70.4432 53.608L87.3702 63.3462C90.6769 65.2484 93.3536 69.8687 93.3536 73.6687V130.059C93.3536 133.86 90.6748 135.398 87.3702 133.5L70.4432 123.762L53.5141 114.024C50.2095 112.126 47.5306 107.506 47.5306 103.704V47.3106C47.5306 43.5084 50.2095 41.9719 53.5141 43.8698Z" fill="url(#paint7_linear)"/>
<path opacity="0.8" d="M58.522 90.1607V97.9838L54.0659 95.4194V99.2129L63.6733 104.74V103.247L69.635 106.672V107.467L71.1428 107.33V110.336L64.9008 106.748V111.725L77.9562 119.239V114.262L71.8359 110.743V104.807L77.6411 108.144V103.55L71.8359 100.213V95.2765L77.7606 91.8703C79.4792 92.8658 81.8191 94.2811 84.0026 95.6336L84.3633 95.85V81.7837L79.6921 79.1024V78.3082L77.8997 78.4684L79.6921 80.6909V79.8988L83.6702 82.1862V94.6295C82.9597 94.1967 81.3107 93.1774 79.653 92.1906C78.7622 91.6604 78.0431 91.2384 77.4586 90.8922L71.8359 81.1929V77.276L77.6411 80.613V76.0252L71.8359 72.6882V69.1608L79.1598 73.3742C80.7285 74.2766 81.9994 73.5452 81.9994 71.7425C81.9994 69.9399 80.7285 67.7455 79.1598 66.841L63.695 57.9511C62.1264 57.0486 60.8554 57.7801 60.8554 59.5827C60.8554 61.3854 62.1264 63.5776 63.695 64.48L71.145 68.7626V72.2792L65.2137 68.8708V73.4651L71.1428 76.8756V80.6519L65.2463 84.0408L58.5111 80.178V86.3672L54.0551 83.8071V87.5942L58.522 90.1607ZM59.2151 90.5589L63.6733 93.1233V89.3297L59.2151 86.7653V81.379L65.2463 84.8415L71.1428 95.0125V99.8059L65.2137 96.3953V100.99L71.1428 104.4V106.941L69.635 105.067V105.859L63.6733 102.433V100.936L59.2151 98.369V90.5589Z" fill="#E9F0F4"/>
</g>
<defs>
<linearGradient id="paint0_linear" x1="69.0897" y1="157.792" x2="146.316" y2="157.792" gradientUnits="userSpaceOnUse">
<stop stop-color="#1A6BB2"/>
<stop offset="1" stop-color="#1B4B92"/>
</linearGradient>
<linearGradient id="paint1_linear" x1="6.90462" y1="81.4095" x2="6.41963" y2="169.48" gradientUnits="userSpaceOnUse">
<stop stop-color="#FADD8D"/>
<stop offset="0.39" stop-color="#F4A3A8"/>
<stop offset="1" stop-color="#EA3FD6"/>
</linearGradient>
<linearGradient id="paint2_linear" x1="2665.05" y1="7120.58" x2="53045.2" y2="7120.58" gradientUnits="userSpaceOnUse">
<stop stop-color="#FADD8D"/>
<stop offset="0.39" stop-color="#F4A3A8"/>
<stop offset="1" stop-color="#EA3FD6"/>
</linearGradient>
<linearGradient id="paint3_linear" x1="3661.1" y1="37108.1" x2="54043.4" y2="37108.1" gradientUnits="userSpaceOnUse">
<stop stop-color="#FADD8D"/>
<stop offset="0.39" stop-color="#F4A3A8"/>
<stop offset="1" stop-color="#EA3FD6"/>
</linearGradient>
<linearGradient id="paint4_linear" x1="8.43057" y1="32.7772" x2="24.3273" y2="83.5211" gradientUnits="userSpaceOnUse">
<stop stop-color="#FFF2C9"/>
<stop offset="1" stop-color="#FFB7BB"/>
</linearGradient>
<linearGradient id="paint5_linear" x1="4988.3" y1="-718.419" x2="5267.41" y2="4902.91" gradientUnits="userSpaceOnUse">
<stop stop-color="#FFF2C9"/>
<stop offset="1" stop-color="#FFB7BB"/>
</linearGradient>
<linearGradient id="paint6_linear" x1="1818.87" y1="376.686" x2="2097.95" y2="5997.33" gradientUnits="userSpaceOnUse">
<stop stop-color="#FFF2C9"/>
<stop offset="1" stop-color="#FFB7BB"/>
</linearGradient>
<linearGradient id="paint7_linear" x1="-85180.6" y1="30045.2" x2="-98619.4" y2="67911.1" gradientUnits="userSpaceOnUse">
<stop stop-color="#FFF2C9"/>
<stop offset="1" stop-color="#FFB7BB"/>
</linearGradient>
<clipPath id="clip0">
<rect width="188" height="185" fill="white"/>
</clipPath>
</defs>
</svg>
