<svg width="383" height="412" viewBox="0 0 383 412" fill="none" xmlns="http://www.w3.org/2000/svg">
<path d="M196.774 287.468L183.422 295.209L180.384 293.462L190.954 287.316L187.133 286.529L188.959 284.875L194.166 285.959L196.774 287.468Z" fill="#FFD2CD"/>
<path d="M183.4 279.493C186.998 281.56 185.204 284.218 181.552 286.339C177.422 288.737 172.928 289.426 169.483 287.424C166.037 285.422 167.58 282.748 171.33 280.54C175.194 278.294 179.917 277.48 183.4 279.493ZM171.928 286.128C173.14 286.827 175.335 286.328 178.373 284.56C181.411 282.791 182.253 281.576 180.982 280.844C179.835 280.182 177.596 280.562 174.493 282.379C171.39 284.196 170.689 285.411 171.933 286.122L171.928 286.128Z" fill="#FFD2CD"/>
<path d="M171.917 272.869C175.515 274.947 173.732 277.605 170.086 279.732C165.95 282.124 161.44 282.802 157.994 280.817C154.549 278.831 156.098 276.124 159.858 273.954C163.728 271.703 168.466 270.873 171.917 272.869ZM160.445 279.504C161.652 280.193 163.847 279.699 166.885 277.931C169.923 276.162 170.765 274.952 169.493 274.215C168.341 273.553 166.102 273.938 163.005 275.75C159.907 277.562 159.201 278.788 160.445 279.498V279.504Z" fill="#FFD2CD"/>
<path d="M231.217 307.317L217.87 315.058L214.827 313.311L225.402 307.176L221.577 306.373L223.408 304.724L228.614 305.814L231.217 307.317Z" fill="#FFD2CD"/>
<path d="M240.804 312.579C244.401 314.651 242.613 317.304 238.956 319.42C234.826 321.817 230.31 322.501 226.886 320.505C223.462 318.508 224.984 315.828 228.728 313.621C232.592 311.385 237.331 310.572 240.804 312.579ZM229.332 319.214C230.543 319.913 232.739 319.409 235.771 317.646C238.804 315.883 239.652 314.657 238.38 313.919C237.233 313.262 234.989 313.648 231.897 315.465C228.804 317.282 228.093 318.503 229.332 319.214Z" fill="#FFD2CD"/>
<path d="M206.36 292.724C209.958 294.802 208.165 297.449 204.507 299.57C200.383 301.974 195.867 302.652 192.437 300.655C189.008 298.659 190.541 295.985 194.285 293.771C198.154 291.542 202.882 290.717 206.36 292.724ZM194.888 299.359C196.1 300.059 198.29 299.554 201.334 297.791C204.29 296.077 205.214 294.807 203.937 294.075C202.79 293.413 200.546 293.793 197.443 295.61C194.339 297.428 193.638 298.654 194.883 299.359H194.888Z" fill="#FFD2CD"/>
<path d="M217.843 299.343C221.441 301.415 219.647 304.068 215.99 306.194C211.855 308.586 207.36 309.275 203.915 307.279C200.47 305.283 202.018 302.597 205.768 300.39C209.637 298.16 214.365 297.33 217.843 299.343ZM206.377 305.961C207.583 306.661 209.779 306.151 212.816 304.399C215.854 302.646 216.691 301.409 215.425 300.683C214.273 300.015 212.034 300.4 208.936 302.218C205.839 304.035 205.132 305.256 206.377 305.961Z" fill="#FFD2CD"/>
<path d="M252.286 319.192C255.884 321.269 254.091 323.928 250.439 326.043C246.309 328.436 241.798 329.114 238.369 327.128C234.94 325.143 236.472 322.452 240.222 320.244C244.086 318.009 248.814 317.19 252.286 319.192ZM240.82 325.832C242.037 326.532 244.222 326.027 247.26 324.264C250.297 322.501 251.134 321.275 249.868 320.543C248.716 319.886 246.477 320.26 243.374 322.078C240.271 323.895 239.57 325.121 240.814 325.826L240.82 325.832Z" fill="#FFD2CD"/>
<path d="M288.626 340.409L275.274 348.144L272.236 346.398L282.806 340.262L278.986 339.465L280.822 337.81L286.018 338.895L288.626 340.409Z" fill="#FFD2CD"/>
<path d="M263.764 325.805C267.367 327.883 265.568 330.541 261.922 332.656C257.786 335.054 253.281 335.727 249.846 333.741C246.412 331.756 247.95 329.065 251.699 326.857C255.569 324.628 260.308 323.808 263.764 325.805ZM252.303 332.445C253.509 333.145 255.705 332.64 258.737 330.877C261.769 329.114 262.617 327.888 261.346 327.15C260.199 326.499 257.965 326.879 254.868 328.685C251.77 330.492 251.064 331.734 252.303 332.439V332.445Z" fill="#FFD2CD"/>
<path d="M277.143 333.779L263.791 341.531L260.759 339.774L271.334 333.644L267.508 332.846L269.34 331.192L274.54 332.277L277.143 333.779Z" fill="#FFD2CD"/>
<path d="M298.212 345.66C301.815 347.737 300.022 350.385 296.37 352.511C292.235 354.909 287.73 355.582 284.3 353.596C280.871 351.611 282.398 348.915 286.143 346.707C290.012 344.477 294.734 343.658 298.212 345.66ZM286.73 352.283C287.952 352.989 290.148 352.49 293.186 350.726C296.142 349.018 297.066 347.743 295.789 347.01C294.642 346.354 292.398 346.734 289.311 348.546C286.224 350.358 285.507 351.594 286.73 352.283Z" fill="#FFD2CD"/>
<path d="M172.113 301.773L158.766 309.519L155.717 307.762L166.293 301.626L162.472 300.829L164.304 299.174L169.504 300.27L172.113 301.773Z" fill="#FFD2CD"/>
<path d="M183.59 308.391L170.243 316.138L167.2 314.385L177.775 308.245L173.95 307.447L175.781 305.792L180.987 306.883L183.59 308.391Z" fill="#FFD2CD"/>
<path d="M195.073 315.004L181.721 322.751L178.683 320.993L189.258 314.863L185.433 314.071L187.264 312.411L192.465 313.507L195.073 315.004Z" fill="#FFD2CD"/>
<path d="M204.659 320.261C208.257 322.339 206.464 324.997 202.806 327.118C198.682 329.51 194.16 330.188 190.736 328.203C187.313 326.217 188.84 323.521 192.584 321.313C196.459 319.084 201.187 318.259 204.659 320.261ZM193.193 326.901C194.405 327.601 196.595 327.096 199.633 325.338C202.67 323.581 203.513 322.349 202.241 321.612C201.089 320.955 198.85 321.335 195.752 323.147C192.655 324.959 191.948 326.196 193.193 326.895V326.901Z" fill="#FFD2CD"/>
<path d="M250.58 346.734C254.183 348.811 252.39 351.459 248.738 353.585C244.602 355.983 240.092 356.656 236.662 354.67C233.233 352.685 234.76 349.994 238.505 347.781C242.374 345.562 247.107 344.732 250.58 346.734ZM239.113 353.374C240.325 354.074 242.521 353.569 245.548 351.806C248.575 350.043 249.428 348.817 248.162 348.085C247.01 347.434 244.771 347.813 241.673 349.625C238.575 351.437 237.869 352.674 239.113 353.379V353.374Z" fill="#FFD2CD"/>
<path d="M240.999 341.483L227.652 349.218L224.615 347.466L235.184 341.336L231.359 340.539L233.19 338.884L238.391 339.974L240.999 341.483Z" fill="#FFD2CD"/>
<path d="M227.62 333.497C231.217 335.575 229.424 338.233 225.772 340.349C221.642 342.747 217.126 343.425 213.702 341.434C210.279 339.443 211.806 336.752 215.55 334.544C219.419 332.325 224.147 331.495 227.62 333.497ZM216.153 340.137C217.365 340.842 219.561 340.338 222.593 338.58C225.625 336.823 226.473 335.591 225.201 334.859C224.055 334.197 221.81 334.577 218.718 336.405C215.626 338.233 214.914 339.443 216.153 340.143V340.137Z" fill="#FFD2CD"/>
<path d="M216.142 326.879C219.74 328.957 217.952 331.615 214.295 333.73C210.159 336.128 205.649 336.801 202.219 334.815C198.79 332.83 200.323 330.134 204.073 327.926C207.942 325.702 212.664 324.883 216.142 326.879ZM204.676 333.513C205.882 334.213 208.078 333.709 211.116 331.951C214.072 330.237 214.996 328.962 213.719 328.224C212.572 327.568 210.333 327.948 207.235 329.77C204.138 331.593 203.431 332.814 204.676 333.513Z" fill="#FFD2CD"/>
<path d="M273.551 359.97C277.149 362.048 275.361 364.706 271.709 366.822C267.573 369.214 263.063 369.892 259.634 367.907C256.205 365.921 257.732 363.225 261.476 361.017C265.345 358.793 270.09 357.969 273.551 359.97ZM262.068 366.594C263.297 367.299 265.492 366.8 268.524 365.037C271.557 363.274 272.405 362.053 271.128 361.321C269.992 360.654 267.742 361.05 264.644 362.856C261.547 364.663 260.84 365.905 262.068 366.594Z" fill="#FFD2CD"/>
<path d="M262.063 353.347C265.666 355.424 263.873 358.082 260.215 360.198C256.085 362.596 251.575 363.274 248.145 361.283C244.716 359.292 246.249 356.607 249.993 354.394C253.868 352.175 258.59 351.35 262.063 353.347ZM250.58 359.976C251.808 360.692 253.998 360.187 257.036 358.43C259.992 356.71 260.911 355.435 259.65 354.703C258.498 354.036 256.259 354.426 253.161 356.238C250.064 358.05 249.357 359.276 250.58 359.976Z" fill="#FFD2CD"/>
<path d="M225.924 361.045C229.522 363.117 227.728 365.77 224.076 367.896C219.946 370.294 215.43 370.967 212.007 368.981C208.583 366.996 210.11 364.305 213.854 362.092C217.718 359.862 222.452 359.037 225.924 361.045ZM214.452 367.679C215.664 368.368 217.859 367.874 220.892 366.111C223.924 364.348 224.772 363.122 223.5 362.39C222.354 361.734 220.109 362.113 217.012 363.925C213.914 365.737 213.208 366.963 214.447 367.679H214.452Z" fill="#FFD2CD"/>
<path d="M248.895 374.276C252.493 376.353 250.7 379.006 247.053 381.133C242.918 383.525 238.402 384.203 234.978 382.218C231.554 380.232 233.081 377.541 236.826 375.334C240.684 373.099 245.412 372.279 248.895 374.276ZM237.412 380.899C238.635 381.61 240.831 381.111 243.869 379.342C246.825 377.628 247.743 376.359 246.483 375.626C245.33 374.975 243.086 375.35 239.994 377.162C236.902 378.974 236.19 380.2 237.412 380.899Z" fill="#FFD2CD"/>
<path d="M237.407 367.657C241.005 369.735 239.211 372.382 235.554 374.503C231.429 376.907 226.913 377.585 223.479 375.588C220.044 373.592 221.588 370.912 225.332 368.704C229.201 366.485 233.924 365.634 237.407 367.657ZM225.919 374.281C227.147 374.992 229.342 374.493 232.375 372.729C235.407 370.966 236.255 369.74 234.983 369.008C233.831 368.352 231.592 368.731 228.489 370.543C225.386 372.355 224.685 373.592 225.913 374.281H225.919Z" fill="#FFD2CD"/>
<path d="M214.441 354.426C218.039 356.504 216.251 359.162 212.594 361.278C208.464 363.67 203.948 364.354 200.524 362.363C197.1 360.372 198.622 357.687 202.366 355.473C206.235 353.249 210.963 352.424 214.441 354.426ZM202.975 361.066C204.187 361.755 206.377 361.256 209.415 359.498C212.452 357.741 213.3 356.509 212.023 355.777C210.876 355.115 208.632 355.495 205.54 357.323C202.448 359.151 201.736 360.361 202.98 361.066H202.975Z" fill="#FFD2CD"/>
<path d="M204.85 349.164L191.508 356.911L188.465 355.159L199.04 349.023L195.22 348.226L197.046 346.571L202.247 347.661L204.85 349.164Z" fill="#FFD2CD"/>
<path d="M193.372 342.551L180.02 350.298L176.982 348.54L187.552 342.41L183.737 341.613L185.563 339.958L190.764 341.049L193.372 342.551Z" fill="#FFD2CD"/>
<path d="M181.889 335.933L168.542 343.674L165.505 341.922L176.074 335.786L172.249 334.994L174.08 333.34L179.286 334.436L181.889 335.933Z" fill="#FFD2CD"/>
<path d="M143.854 342.264C147.451 344.336 145.658 346.989 142.001 349.115C137.871 351.513 133.376 352.207 129.931 350.2C126.486 348.193 128.034 345.524 131.779 343.311C135.648 341.081 140.376 340.262 143.854 342.264ZM132.382 348.898C133.594 349.598 135.784 349.094 138.822 347.33C141.859 345.567 142.702 344.341 141.43 343.609C140.283 342.953 138.045 343.332 134.941 345.155C131.838 346.978 131.137 348.193 132.382 348.898Z" fill="#FFD2CD"/>
<path d="M132.371 335.645C135.969 337.723 134.181 340.381 130.518 342.497C126.393 344.889 121.877 345.567 118.454 343.582C115.03 341.596 116.552 338.906 120.296 336.692C124.165 334.468 128.893 333.627 132.371 335.645ZM120.899 342.307C122.105 343.007 124.301 342.497 127.339 340.739C130.301 339.025 131.219 337.75 129.947 337.023C128.795 336.361 126.556 336.736 123.464 338.559C120.372 340.381 119.66 341.596 120.899 342.302V342.307Z" fill="#FFD2CD"/>
<path d="M120.883 329.027C124.48 331.105 122.687 333.763 119.035 335.879C114.905 338.277 110.389 338.949 106.96 336.964C103.531 334.978 105.063 332.282 108.808 330.074C112.682 327.85 117.41 327.025 120.883 329.027ZM109.416 335.667C110.628 336.367 112.818 335.857 115.856 334.099C118.894 332.342 119.736 331.11 118.464 330.383C117.318 329.716 115.073 330.107 111.981 331.919C108.889 333.731 108.177 334.962 109.416 335.667Z" fill="#FFD2CD"/>
<path d="M111.302 323.77L97.9496 331.512L94.9117 329.759L105.482 323.629L101.656 322.832L103.493 321.177L108.693 322.268L111.302 323.77Z" fill="#FFD2CD"/>
<path d="M166.836 355.495C170.434 357.573 168.64 360.231 164.988 362.352C160.858 364.744 156.342 365.422 152.918 363.437C149.495 361.452 151.022 358.761 154.766 356.547C158.608 354.318 163.336 353.499 166.836 355.495ZM155.364 362.135C156.581 362.829 158.771 362.33 161.809 360.573C164.847 358.815 165.689 357.584 164.418 356.846C163.271 356.179 161.027 356.569 157.934 358.381C154.842 360.193 154.13 361.43 155.369 362.135H155.364Z" fill="#FFD2CD"/>
<path d="M157.228 350.243L143.881 357.985L140.838 356.227L151.408 350.097L147.582 349.3L149.419 347.65L154.619 348.741L157.228 350.243Z" fill="#FFD2CD"/>
<path d="M178.297 362.113C181.895 364.191 180.101 366.838 176.444 368.965C172.319 371.363 167.803 372.035 164.369 370.05C160.934 368.064 162.472 365.368 166.222 363.16C170.097 360.931 174.819 360.111 178.297 362.113ZM166.836 368.753C168.048 369.453 170.243 368.948 173.276 367.191C176.227 365.466 177.151 364.202 175.884 363.464C174.732 362.808 172.493 363.193 169.401 364.999C166.309 366.806 165.597 368.048 166.836 368.753Z" fill="#FFD2CD"/>
<path d="M224.223 388.586C227.821 390.659 226.028 393.317 222.37 395.438C218.24 397.836 213.729 398.519 210.3 396.523C206.871 394.527 208.404 391.847 212.148 389.639C216.023 387.404 220.751 386.579 224.223 388.586ZM212.74 395.21C213.963 395.921 216.159 395.422 219.191 393.653C222.223 391.885 223.071 390.664 221.8 389.937C220.653 389.27 218.414 389.661 215.316 391.478C212.219 393.295 211.512 394.516 212.74 395.21Z" fill="#FFD2CD"/>
<path d="M189.775 368.732C193.383 370.809 191.584 373.457 187.927 375.583C183.797 377.981 179.286 378.659 175.857 376.668C172.428 374.677 173.96 371.987 177.705 369.779C181.58 367.56 186.297 366.719 189.775 368.732ZM178.303 375.399C179.52 376.088 181.71 375.589 184.742 373.831C187.775 372.073 188.622 370.842 187.356 370.11C186.204 369.448 183.965 369.827 180.862 371.645C177.759 373.462 177.058 374.694 178.297 375.399H178.303Z" fill="#FFD2CD"/>
<path d="M203.154 376.706L189.807 384.453L186.764 382.701L197.339 376.57L193.513 375.773L195.345 374.118L200.551 375.203L203.154 376.706Z" fill="#FFD2CD"/>
<path d="M212.74 381.968C216.338 384.041 214.545 386.693 210.893 388.809C206.763 391.212 202.247 391.89 198.823 389.894C195.399 387.898 196.926 385.218 200.671 383.004C204.54 380.786 209.268 379.961 212.74 381.968ZM201.257 388.592C202.48 389.297 204.676 388.798 207.714 387.041C210.751 385.283 211.588 384.051 210.322 383.319C209.181 382.652 206.942 383.042 203.839 384.854C200.736 386.666 200.035 387.892 201.257 388.592Z" fill="#FFD2CD"/>
<path d="M15.8521 297.015C19.4497 299.087 17.6726 301.762 14.0207 303.878C9.89059 306.275 5.38004 306.948 1.93463 304.962C-1.51078 302.977 0.0325899 300.286 3.80406 298.089C7.66792 295.843 12.3741 295.019 15.8521 297.015ZM4.38554 303.655C5.59198 304.349 7.78748 303.85 10.8199 302.087C13.8523 300.324 14.7055 299.098 13.4284 298.371C12.2872 297.704 10.0428 298.095 6.94514 299.907C3.84754 301.718 3.14107 302.944 4.38554 303.661V303.655Z" fill="#FFD2CD"/>
<path d="M52.192 318.226L38.8397 325.973L35.8019 324.215L46.3718 318.08L42.5568 317.288L44.3828 315.633L49.5835 316.724L52.192 318.226Z" fill="#FFD2CD"/>
<path d="M38.8124 310.252C42.41 312.319 40.633 314.988 36.981 317.103C32.8455 319.501 28.3349 320.185 24.8895 318.188C21.4441 316.192 22.9929 313.512 26.7535 311.315C30.6282 309.075 35.3235 308.245 38.8124 310.252ZM27.3459 316.881C28.5632 317.581 30.7478 317.082 33.7856 315.313C36.8234 313.545 37.6603 312.329 36.3941 311.592C35.242 310.93 33.0031 311.32 29.9163 313.132C26.8296 314.944 26.1122 316.176 27.3513 316.881H27.3459Z" fill="#FFD2CD"/>
<path d="M29.2262 304.99L15.8739 312.736L12.8361 310.984L23.4114 304.849L19.5856 304.051L21.417 302.402L26.6177 303.487L29.2262 304.99Z" fill="#FFD2CD"/>
<path d="M63.6694 324.844L50.3225 332.591L47.2847 330.833L57.8546 324.698L54.0288 323.911L55.8656 322.257L61.0609 323.342L63.6694 324.844Z" fill="#FFD2CD"/>
<path d="M73.2611 330.107C76.8587 332.179 75.0817 334.843 71.4297 336.958C67.2996 339.356 62.789 340.04 59.3436 338.043C55.8982 336.047 57.4416 333.367 61.2076 331.164C65.0661 328.924 69.7831 328.099 73.2611 330.107ZM61.7891 336.741C63.001 337.441 65.1965 336.931 68.2289 335.173C71.2613 333.416 72.109 332.184 70.8374 331.452C69.6907 330.79 67.4463 331.17 64.3487 332.998C61.2511 334.826 60.5446 336.036 61.7837 336.741H61.7891Z" fill="#FFD2CD"/>
<path d="M86.6351 338.081L73.2883 345.828L70.245 344.07L80.8203 337.935L76.9945 337.137L78.8259 335.483L84.0266 336.578L86.6351 338.081Z" fill="#FFD2CD"/>
<path d="M98.1181 344.7L84.7712 352.446L81.7225 350.689L92.2979 344.553L88.4775 343.756L90.3143 342.101L95.5096 343.197L98.1181 344.7Z" fill="#FFD2CD"/>
<path d="M107.704 349.962C111.307 352.034 109.514 354.687 105.862 356.808C101.732 359.205 97.2214 359.878 93.7923 357.893C90.3632 355.907 91.8903 353.211 95.64 351.003C99.5039 348.779 104.226 347.949 107.704 349.962ZM96.2323 356.591C97.4497 357.29 99.6397 356.781 102.672 355.028C105.705 353.276 106.558 352.034 105.281 351.312C104.129 350.645 101.89 351.025 98.7974 352.848C95.7052 354.67 94.9933 355.885 96.2323 356.591Z" fill="#FFD2CD"/>
<path d="M142.148 369.806C145.745 371.883 143.952 374.531 140.3 376.657C136.17 379.055 131.654 379.733 128.225 377.742C124.796 375.751 126.328 373.071 130.072 370.863C133.952 368.628 138.67 367.804 142.148 369.806ZM130.676 376.451C131.887 377.14 134.083 376.641 137.121 374.878C140.077 373.169 141.001 371.889 139.724 371.162C138.577 370.505 136.333 370.885 133.235 372.697C130.138 374.509 129.431 375.746 130.67 376.451H130.676Z" fill="#FFD2CD"/>
<path d="M132.561 364.554L119.214 372.29L116.171 370.538L126.746 364.402L122.926 363.605L124.752 361.956L129.953 363.052L132.561 364.554Z" fill="#FFD2CD"/>
<path d="M121.078 357.936L107.731 365.677L104.688 363.92L115.269 357.79L111.438 356.992L113.275 355.338L118.475 356.428L121.078 357.936Z" fill="#FFD2CD"/>
<path d="M155.522 377.785L142.175 385.527L139.137 383.775L149.707 377.644L145.886 376.847L147.712 375.192L152.913 376.283L155.522 377.785Z" fill="#FFD2CD"/>
<path d="M167.004 384.398L153.658 392.145L150.62 390.393L161.195 384.257L157.369 383.46L159.201 381.811L164.401 382.896L167.004 384.398Z" fill="#FFD2CD"/>
<path d="M188.074 396.279C191.677 398.351 189.878 401.004 186.231 403.12C182.101 405.518 177.585 406.201 174.156 404.205C170.727 402.208 172.259 399.528 176.009 397.326C179.879 395.091 184.601 394.272 188.074 396.279ZM176.618 402.903C177.846 403.603 180.042 403.109 183.074 401.34C186.106 399.572 186.954 398.362 185.682 397.624C184.536 396.957 182.291 397.348 179.199 399.16C176.107 400.971 175.395 402.208 176.618 402.903Z" fill="#FFD2CD"/>
<path d="M178.493 391.017L165.14 398.764L162.097 397.011L172.672 390.876L168.847 390.084L170.683 388.429L175.884 389.514L178.493 391.017Z" fill="#FFD2CD"/>
<path d="M199.556 402.897C203.154 404.964 201.361 407.622 197.709 409.743C193.573 412.141 189.063 412.819 185.639 410.828C182.215 408.837 183.737 406.146 187.481 403.944C191.356 401.709 196.084 400.895 199.556 402.897ZM188.074 409.521C189.296 410.226 191.492 409.727 194.53 407.964C197.567 406.201 198.41 404.98 197.138 404.248C195.986 403.581 193.747 403.971 190.655 405.788C187.563 407.606 186.851 408.826 188.074 409.526V409.521Z" fill="#FFD2CD"/>
<path d="M54.6375 230.865C54.6375 236.431 57.6917 241.904 64.1912 246.949L71.9624 251.289L230.473 339.79C231.668 340.549 232.893 341.293 234.147 342.02C235.32 342.692 236.521 343.354 237.766 343.994C238.396 344.32 239.037 344.613 239.673 344.938L240.885 345.524C243.059 346.56 245.309 347.504 247.569 348.372C247.972 348.529 248.385 348.665 248.781 348.812C250.593 349.481 252.404 350.099 254.216 350.667C254.721 350.824 255.232 350.987 255.737 351.133C256.917 351.486 258.118 351.779 259.319 352.088C260.791 352.468 262.259 352.848 263.748 353.173C265.047 353.461 266.351 353.716 267.66 353.933C268.791 354.139 269.921 354.356 271.062 354.529C272.513 354.746 273.964 354.914 275.41 355.072C276.388 355.18 277.366 355.316 278.35 355.408C279.915 355.544 281.486 355.62 283.062 355.701C283.969 355.744 284.877 355.815 285.779 355.848C287.208 355.88 288.643 355.848 290.072 355.848C291.186 355.848 292.3 355.848 293.414 355.848C294.311 355.82 295.202 355.744 296.099 355.69C297.914 355.593 299.734 355.5 301.533 355.327C303.707 355.126 305.881 354.882 307.995 354.573L309.228 354.372C310.858 354.122 312.434 353.829 314.027 353.526C315.619 353.222 317.32 352.848 318.961 352.441C319.994 352.202 321.037 351.969 322.07 351.708C323.803 351.258 325.51 350.754 327.216 350.244C328.14 349.962 329.075 349.701 329.988 349.414C330.901 349.126 331.743 348.79 332.623 348.481C334.014 347.992 335.4 347.493 336.759 346.962C337.694 346.598 338.607 346.202 339.52 345.812C340.797 345.269 342.074 344.727 343.324 344.146C344.258 343.718 345.177 343.262 346.095 342.812C347.285 342.215 348.465 341.618 349.633 340.989C350.551 340.49 351.453 339.974 352.35 339.459C353.98 338.531 355.556 337.609 357.094 336.617C358.632 335.624 360.176 334.517 361.605 333.432L362.148 333.036C363.474 332.005 364.713 330.953 365.898 329.879L366.577 329.26C367.496 328.398 368.382 327.53 369.202 326.651L369.42 326.407C370.175 325.593 370.876 324.78 371.539 323.939C371.773 323.657 371.99 323.396 372.207 323.087C372.615 322.544 373.006 322.002 373.381 321.46C373.577 321.172 373.783 320.884 373.974 320.597C374.403 319.951 374.805 319.3 375.185 318.639C375.289 318.46 375.408 318.286 375.506 318.096C375.952 317.31 376.359 316.512 376.74 315.709C376.837 315.498 376.914 315.286 377.011 315.074C377.278 314.494 377.555 313.892 377.767 313.301C377.892 312.97 378.006 312.633 378.12 312.297C378.283 311.825 378.446 311.364 378.587 310.892C378.685 310.55 378.772 310.219 378.865 309.872C378.99 309.4 379.109 308.917 379.212 308.445C379.283 308.114 379.343 307.784 379.403 307.458C379.495 306.964 379.571 306.476 379.636 305.977C379.68 305.641 379.723 305.304 379.756 304.968C379.805 304.469 379.837 303.981 379.864 303.487C379.892 302.993 379.919 302.543 379.919 302.071C379.901 309.304 379.879 316.537 379.854 323.771C379.854 324.025 379.854 324.313 379.854 324.562C379.854 324.812 379.816 325.029 379.805 325.262C379.805 325.718 379.75 326.174 379.707 326.629C379.674 326.998 379.631 327.356 379.582 327.714C379.517 328.181 379.441 328.647 379.365 329.098C379.326 329.304 379.305 329.515 379.261 329.722C379.218 329.928 379.185 330.02 379.153 330.172C379.055 330.638 378.941 331.105 378.816 331.566C378.723 331.902 378.642 332.239 378.538 332.58C378.397 333.063 378.223 333.546 378.06 334.023C377.973 334.273 377.908 334.523 377.816 334.772C377.816 334.848 377.75 334.913 377.723 334.994C377.495 335.591 377.229 336.193 376.968 336.796C376.87 337.007 376.794 337.202 376.696 337.414C376.316 338.217 375.903 339.014 375.457 339.812C375.445 339.836 375.434 339.862 375.425 339.888C375.348 340.012 375.256 340.137 375.185 340.267C374.794 340.946 374.376 341.624 373.93 342.291C373.745 342.573 373.544 342.833 373.349 343.126C372.963 343.669 372.566 344.211 372.148 344.754C372.033 344.906 371.936 345.058 371.816 345.209C371.697 345.361 371.61 345.448 371.512 345.567C370.827 346.414 370.11 347.26 369.338 348.101L369.175 348.291C368.344 349.175 367.458 350.054 366.528 350.922L366.23 351.22C366.121 351.323 365.985 351.421 365.871 351.524C364.686 352.609 363.442 353.65 362.105 354.692L361.561 355.072C360.138 356.157 358.643 357.242 357.045 358.267C356.056 358.907 355.051 359.531 354.029 360.149C353.453 360.497 352.839 360.806 352.252 361.148C351.372 361.652 350.492 362.151 349.595 362.634C348.426 363.274 347.231 363.876 346.03 364.468C345.111 364.923 344.193 365.379 343.253 365.808C342.019 366.383 340.764 366.925 339.498 367.435C338.568 367.836 337.639 368.232 336.688 368.607C335.357 369.149 333.998 369.616 332.645 370.088C331.732 370.419 330.83 370.755 329.928 371.059C329.732 371.124 329.537 371.2 329.335 371.27C328.645 371.482 327.933 371.656 327.232 371.862C325.51 372.404 323.787 372.898 322.032 373.348C320.999 373.619 319.95 373.853 318.907 374.097C317.277 374.471 315.646 374.824 314.016 375.144C313.51 375.236 313.016 375.377 312.511 375.458C311.424 375.664 310.277 375.822 309.163 376.001L307.962 376.202C306.06 376.467 304.158 376.711 302.229 376.901C301.99 376.901 301.75 376.901 301.511 376.945C299.658 377.118 297.805 377.227 295.947 377.319C295.213 377.362 294.479 377.444 293.746 377.476C293.621 377.476 293.501 377.476 293.376 377.476C292.213 377.509 291.061 377.476 289.903 377.476C288.746 377.476 287.442 377.525 286.213 377.476L285.735 377.444C284.801 377.417 283.871 377.346 282.942 377.297C281.649 377.232 280.355 377.205 279.073 377.097C278.806 377.097 278.529 377.032 278.296 377.01C277.307 376.918 276.323 376.787 275.334 376.668C274.247 376.549 273.117 376.462 272.019 376.305C271.671 376.25 271.334 376.18 270.992 376.126C269.856 375.952 268.726 375.74 267.59 375.54C266.65 375.366 265.693 375.241 264.753 375.046C264.389 374.97 264.036 374.862 263.666 374.78C262.188 374.455 260.726 374.075 259.253 373.695C258.417 373.484 257.558 373.316 256.721 373.082C256.362 372.974 256.009 372.854 255.634 372.746C255.145 372.599 254.656 372.437 254.161 372.285C252.287 371.704 250.423 371.075 248.586 370.381C248.232 370.245 247.879 370.131 247.531 370.001C247.336 369.925 247.14 369.86 246.95 369.789C244.869 368.959 242.82 368.086 240.798 367.126L239.592 366.551C238.956 366.225 238.315 365.932 237.679 365.612C236.434 364.967 235.228 364.31 234.06 363.627C232.804 362.911 231.587 362.167 230.386 361.403L71.9026 273.01L64.1369 268.67C57.6156 263.636 54.5669 258.157 54.5832 252.591C54.6049 245.347 54.623 238.105 54.6375 230.865Z" fill="#C0C0F6"/>
<path d="M267.209 211.427C285.463 221.946 294.865 235.839 295.055 249.776C314.619 250.486 333.917 254.826 349.676 262.974C350.941 263.625 352.165 264.291 353.35 264.971C387.081 284.419 389.119 315.888 357.121 336.622C324.934 357.497 277.698 362.921 240.885 345.519L239.657 344.933C239.021 344.607 238.38 344.314 237.749 343.989C236.505 343.349 235.299 342.687 234.13 342.014C232.962 341.341 231.658 340.544 230.457 339.784L71.9623 251.295L64.1911 246.955C48.6868 234.895 52.7137 220.395 71.6091 208.135C91.4718 195.256 119.399 196.688 142.577 206.854C177.819 191.008 228.788 191.497 263.384 209.344C264.699 210.028 265.976 210.717 267.209 211.427Z" fill="#E9F0F4"/>
<g opacity="0.3">
<g opacity="0.14">
<path opacity="0.14" d="M268.937 61.3873C287.197 71.9115 296.599 85.799 296.783 99.7409C316.347 100.452 335.645 104.786 351.399 112.934C352.665 113.585 353.888 114.252 355.073 114.936C388.804 134.378 390.842 165.848 358.844 186.576C326.656 207.44 279.42 212.865 242.608 195.478L241.401 194.898C240.766 194.572 240.119 194.279 239.488 193.954C238.249 193.314 237.043 192.647 235.869 191.974C234.695 191.301 233.396 190.515 232.201 189.755L73.6904 101.249L65.9192 96.9091C50.4149 84.8714 54.4255 70.3274 73.3372 58.089C93.1999 45.2213 121.133 46.6534 144.305 56.8196C179.547 40.9736 230.495 41.4456 265.112 59.3096C266.427 59.9859 267.702 60.6784 268.937 61.3873Z" fill="#FCFDFD"/>
</g>
<g opacity="0.29">
<path opacity="0.29" d="M268.937 83C287.197 93.5241 296.599 107.412 296.783 121.354C316.347 122.064 335.645 126.399 351.399 134.547C352.665 135.198 353.888 135.865 355.073 136.549C388.804 155.991 390.842 187.461 358.844 208.194C326.656 229.053 279.42 234.478 242.608 217.096L241.401 216.516C240.766 216.191 240.119 215.898 239.488 215.572C238.249 214.937 237.043 214.27 235.869 213.592C234.695 212.914 233.396 212.133 232.201 211.373L73.6904 122.889L65.9192 118.549C50.4149 106.511 54.4255 91.9672 73.3372 79.7288C93.1999 66.8502 121.133 68.2878 144.305 78.4539C179.547 62.608 230.495 63.08 265.112 80.9385C266.427 81.622 267.702 82.3092 268.937 83Z" fill="#F9FBFC"/>
</g>
<g opacity="0.43">
<path opacity="0.43" d="M268.937 104.661C287.197 115.185 296.599 129.073 296.783 143.015C316.347 143.725 335.645 148.06 351.399 156.203C352.665 156.854 353.888 157.521 355.073 158.204C388.804 177.647 390.842 209.116 358.844 229.85C326.656 250.709 279.42 256.133 242.608 238.747L241.407 238.15C240.771 237.825 240.124 237.532 239.494 237.206C238.255 236.572 237.048 235.904 235.875 235.226C234.701 234.548 233.402 233.761 232.206 233.002L73.6904 144.523L65.9192 140.183C50.4149 128.151 54.4255 113.601 73.3372 101.363C93.1999 88.4843 121.133 89.9219 144.305 100.083C179.547 84.2367 230.495 84.7086 265.112 102.567C266.427 103.265 267.702 103.963 268.937 104.661Z" fill="#F6F9FA"/>
</g>
<g opacity="0.57">
<path opacity="0.57" d="M268.937 126.296C287.197 136.82 296.599 150.707 296.783 164.649C316.347 165.36 335.645 169.694 351.399 177.837C352.665 178.488 353.888 179.155 355.073 179.839C388.804 199.287 390.842 230.751 358.844 251.484C326.662 272.327 279.426 277.752 242.613 260.392L241.407 259.812C240.771 259.486 240.124 259.193 239.494 258.868C238.255 258.233 237.048 257.566 235.875 256.893C234.701 256.22 233.402 255.428 232.206 254.669L73.6904 166.163L65.9192 161.823C50.4149 149.791 54.4255 135.241 73.3372 123.003C93.1999 110.124 121.133 111.562 144.305 121.722C179.547 105.871 230.495 106.348 265.112 124.207C266.427 124.891 267.702 125.587 268.937 126.296Z" fill="#F2F6F9"/>
</g>
<g opacity="0.71">
<path opacity="0.71" d="M268.937 147.93C287.197 158.449 296.599 172.342 296.783 186.283C316.347 186.994 335.645 191.328 351.399 199.471C352.665 200.122 353.888 200.795 355.073 201.468C388.804 220.916 390.842 252.385 358.844 273.113C326.656 293.972 279.42 299.397 242.608 282.01L241.401 281.43C240.766 281.11 240.119 280.811 239.488 280.486C238.249 279.851 237.043 279.184 235.869 278.511C234.695 277.838 233.396 277.046 232.201 276.287L73.6904 187.797L65.9192 183.457C50.4149 171.425 54.4255 156.875 73.3372 144.642C93.1999 131.764 121.133 133.201 144.305 143.362C179.547 127.511 230.495 127.988 265.112 145.847C266.427 146.527 267.702 147.221 268.937 147.93Z" fill="#EFF4F7"/>
</g>
<g opacity="0.86">
<path opacity="0.86" d="M268.937 169.564C287.197 180.083 296.599 193.976 296.783 207.923C316.347 208.634 335.645 212.968 351.399 221.111C352.667 221.762 353.892 222.427 355.073 223.107C388.847 242.479 390.842 274.025 358.844 294.758C326.656 315.617 279.42 321.042 242.608 303.655L241.401 303.075C240.766 302.755 240.119 302.456 239.488 302.131C238.249 301.496 237.043 300.829 235.869 300.156C234.695 299.483 233.397 298.686 232.201 297.932L73.6904 209.431L65.9193 205.091C50.4149 193.059 54.4255 178.51 73.3372 166.277C93.1999 153.398 121.133 154.836 144.305 164.996C179.547 149.145 230.495 149.622 265.112 167.481C266.427 168.161 267.702 168.855 268.937 169.564Z" fill="#ECF2F6"/>
</g>
<path opacity="0.3" d="M268.937 191.204C287.197 201.722 296.599 215.615 296.783 229.563C316.347 230.273 335.645 234.608 351.399 242.75C352.665 243.401 353.888 244.074 355.073 244.747C388.804 264.189 390.842 295.653 358.85 316.393C326.662 337.246 279.426 342.676 242.613 325.289L241.407 324.709C240.771 324.389 240.124 324.09 239.494 323.765C238.255 323.13 237.048 322.463 235.875 321.79C234.701 321.118 233.402 320.32 232.206 319.566L73.6904 231.071L65.9192 226.731C50.4149 214.699 54.4255 200.149 73.3372 187.916C93.1999 175.032 121.133 176.47 144.305 186.614C179.547 170.763 230.495 171.24 265.112 189.099C266.427 189.79 267.702 190.491 268.937 191.204Z" fill="#E9F0F4"/>
</g>
<path d="M322.309 295.811L333.053 289.583L231.5 231.049L220.756 237.272L322.309 295.811Z" fill="#BFD4DB"/>
<path d="M322.26 308.575L322.292 295.811L333.036 289.583L332.998 302.348C332.998 304.962 332.074 306.807 330.574 307.669L319.836 313.903C321.347 313.013 322.26 311.196 322.26 308.575Z" fill="#C0C0F6"/>
<path d="M322.26 308.576L322.292 295.811L220.756 237.271L220.724 250.047C220.724 255.325 224.419 261.743 229.016 264.396L313.913 313.317C318.516 315.975 322.26 313.849 322.26 308.576Z" fill="#E3E3FC"/>
<path d="M322.309 295.811L333.052 289.583L333.541 117.871L322.798 124.109L322.309 295.811Z" fill="#C0C0F6"/>
<path d="M322.798 124.11L333.542 117.871L231.989 59.3533L221.245 65.581L322.798 124.11Z" fill="#35C2DA"/>
<path d="M221.245 65.5808L220.756 237.271L322.309 295.811L322.798 124.109L221.245 65.5808Z" fill="url(#paint0_linear)"/>
<path d="M251.134 77.4125L261.873 71.1902C261.628 71.0354 261.402 70.8534 261.199 70.6477L250.466 76.8808C250.662 77.0922 250.887 77.2749 251.134 77.4233V77.4125Z" fill="#B2C5CC"/>
<path d="M250.466 76.8918L261.199 70.6586C261.122 70.5827 261.05 70.5031 260.981 70.4199L250.238 76.6531C250.314 76.7344 250.384 76.8104 250.466 76.8863V76.8918Z" fill="#ADC0C7"/>
<path d="M250.238 76.6585L260.982 70.4253C260.922 70.3602 260.867 70.2897 260.813 70.2246L250.08 76.4632L250.243 76.6585H250.238Z" fill="#A9BBC2"/>
<path d="M250.075 76.4632L260.808 70.2247C260.759 70.1704 260.726 70.1053 260.677 70.0457L249.939 76.2788C249.977 76.3439 250.026 76.3981 250.075 76.4632Z" fill="#A4B6BD"/>
<path d="M249.944 76.2788L260.683 70.0457C260.645 69.9806 260.601 69.9372 260.568 69.8721L249.83 76.1052C249.862 76.1667 249.9 76.2249 249.944 76.2788Z" fill="#A0B1B8"/>
<path d="M249.83 76.1052L260.569 69.872C260.529 69.8185 260.492 69.7623 260.46 69.7039L249.716 75.9478C249.75 76.0065 249.788 76.0627 249.83 76.116V76.1052Z" fill="#9BACB3"/>
<path d="M249.716 75.9479L260.454 69.7148L260.357 69.5466L249.624 75.7743L249.716 75.9479Z" fill="#97A7AD"/>
<path d="M249.624 75.758L260.357 69.5303C260.333 69.471 260.305 69.413 260.275 69.3567L249.531 75.5844L249.624 75.7526V75.758Z" fill="#93A2A8"/>
<path d="M249.531 75.5898L260.275 69.3621C260.248 69.3078 260.215 69.2427 260.194 69.1885L249.439 75.4053L249.52 75.5789L249.531 75.5898Z" fill="#8E9DA3"/>
<path d="M249.439 75.4053L260.183 69.1776L260.107 68.9985L249.368 75.2262C249.368 75.2913 249.423 75.351 249.439 75.4107V75.4053Z" fill="#8A999E"/>
<path d="M249.379 75.2318L260.117 69.0041L260.052 68.8088L249.314 75.042C249.314 75.1016 249.357 75.1722 249.379 75.2318Z" fill="#859499"/>
<path d="M249.314 75.0474L260.052 68.8142C260.052 68.7491 260.009 68.6786 259.982 68.6135L249.243 74.8412C249.243 74.9118 249.287 74.9823 249.314 75.0528V75.0474Z" fill="#818F94"/>
<path d="M249.249 74.8357L259.987 68.608C259.965 68.5313 259.947 68.4534 259.933 68.3748L249.194 74.5971C249.194 74.6784 249.227 74.7598 249.249 74.8357Z" fill="#7C8A8F"/>
<path d="M249.194 74.597L259.933 68.353C259.933 68.2499 259.889 68.1631 259.884 68.0601L249.145 74.3203C249.156 74.4152 249.173 74.5094 249.194 74.6024V74.597Z" fill="#78858A"/>
<path d="M249.145 74.3204L259.884 68.0873C259.867 67.9559 259.858 67.8237 259.857 67.6913C259.833 67.4431 259.876 67.1932 259.98 66.9666C260.084 66.7399 260.245 66.5446 260.449 66.4001L249.711 72.6224C249.506 72.7656 249.344 72.9608 249.24 73.1879C249.137 73.415 249.097 73.6656 249.124 73.9135C249.115 74.0472 249.115 74.1813 249.124 74.315L249.145 74.3204Z" fill="#738085"/>
<path d="M251.151 72.7581L261.895 66.5304C261.801 66.4799 261.705 66.4346 261.607 66.3948L250.868 72.6225C250.966 72.6591 251.061 72.7045 251.151 72.7581Z" fill="#32B5CA"/>
<path d="M250.863 72.6224L261.601 66.3947C261.523 66.3608 261.443 66.3318 261.362 66.3079L250.624 72.5356L250.863 72.6224Z" fill="#30B0C5"/>
<path d="M250.624 72.5357L261.362 66.308C261.303 66.2921 261.243 66.2794 261.183 66.27L250.439 72.5031L250.618 72.5411L250.624 72.5357Z" fill="#2FACC0"/>
<path d="M250.444 72.4975L261.188 66.2644H261.041L250.297 72.4921H250.444V72.4975Z" fill="#2EA7BB"/>
<path d="M250.298 72.4814L261.041 66.2537H260.9L250.167 72.4868L250.298 72.4814Z" fill="#2DA3B6"/>
<path d="M250.161 72.4868L260.894 66.2537H260.78L250.036 72.4977H250.161V72.4868Z" fill="#2B9EB1"/>
<path d="M250.036 72.4975L260.78 66.2644H260.66L249.917 72.4975H250.031H250.036Z" fill="#2A9AAC"/>
<path d="M249.923 72.5247L260.666 66.2915C260.628 66.3004 260.591 66.315 260.558 66.3349L249.819 72.5626L249.923 72.5247Z" fill="#2995A7"/>
<path d="M249.819 72.5629L260.552 66.3352L260.454 66.3786L249.716 72.6117L249.819 72.5629Z" fill="#2891A2"/>
<path d="M249.716 72.6116L260.454 66.3784L249.711 72.6224L249.716 72.6116Z" fill="#268C9D"/>
<path d="M294.908 102.643L305.652 96.4103L261.873 71.1902L251.134 77.4125L294.908 102.643Z" fill="#BFD4DB"/>
<path d="M296.365 102.79L307.098 96.5623L296.359 102.79H296.365Z" fill="#8A999E"/>
<path d="M296.349 102.795L307.087 96.5623L306.984 96.6111L296.245 102.844L296.349 102.795Z" fill="#8E9DA3"/>
<path d="M296.245 102.844L306.984 96.6108C306.952 96.6288 306.917 96.6416 306.881 96.6488L296.137 102.877L296.245 102.844Z" fill="#93A2A8"/>
<path d="M296.137 102.877L306.88 96.6489H306.766L296.023 102.909L296.131 102.882L296.137 102.877Z" fill="#97A7AD"/>
<path d="M296.023 102.909L306.761 96.676H306.636L295.898 102.909H296.023Z" fill="#9BACB3"/>
<path d="M295.898 102.92L306.636 96.687H306.5L295.767 102.92C295.808 102.928 295.851 102.928 295.892 102.92H295.898Z" fill="#A0B1B8"/>
<path d="M295.773 102.92L306.5 96.687H306.353L295.631 102.909H295.783L295.773 102.92Z" fill="#A4B6BD"/>
<path d="M295.631 102.909L306.375 96.6761L306.19 96.6436L295.452 102.871L295.631 102.909Z" fill="#A9BBC2"/>
<path d="M295.44 102.871L306.179 96.6431C306.103 96.62 306.029 96.5929 305.956 96.5618L295.196 102.784C295.273 102.819 295.353 102.848 295.435 102.871H295.44Z" fill="#ADC0C7"/>
<path d="M295.197 102.784L305.957 96.5622C305.858 96.5211 305.762 96.474 305.669 96.4211L294.925 102.649C295.019 102.702 295.117 102.75 295.218 102.79L295.197 102.784Z" fill="#B2C5CC"/>
<path d="M294.919 97.9943L305.663 91.7612L261.889 66.5303L251.145 72.758L294.919 97.9943Z" fill="#35C2DA"/>
<path d="M296.365 102.79L307.098 96.562C307.302 96.4153 307.464 96.2168 307.566 95.987C307.668 95.7573 307.707 95.5045 307.679 95.2547C307.687 95.1228 307.687 94.9905 307.679 94.8586L296.941 101.086C296.948 101.22 296.948 101.354 296.941 101.488C296.966 101.737 296.926 101.988 296.824 102.216C296.722 102.445 296.562 102.642 296.359 102.79H296.365Z" fill="#207684"/>
<path d="M296.925 101.086L307.663 94.8587C307.653 94.7655 307.636 94.6731 307.614 94.582L296.876 100.804C296.897 100.897 296.914 100.992 296.925 101.086Z" fill="#217A89"/>
<path d="M296.876 100.799L307.587 94.5765C307.587 94.4952 307.554 94.4192 307.527 94.3433L296.816 100.576C296.816 100.658 296.854 100.734 296.87 100.804L296.876 100.799Z" fill="#237F8E"/>
<path d="M296.816 100.577L307.549 94.3435C307.549 94.2784 307.511 94.2079 307.484 94.1428L296.756 100.36L296.816 100.571V100.577Z" fill="#248393"/>
<path d="M296.756 100.359L307.489 94.1371C307.472 94.0715 307.449 94.0079 307.418 93.9473L296.68 100.175C296.68 100.235 296.729 100.305 296.751 100.359H296.756Z" fill="#258898"/>
<path d="M296.685 100.18L307.424 93.9527C307.424 93.8876 307.38 93.8334 307.353 93.7737L296.609 100.001C296.639 100.059 296.664 100.119 296.685 100.18Z" fill="#268C9D"/>
<path d="M296.609 100.001L307.353 93.7737C307.353 93.7194 307.299 93.6543 307.272 93.6001L296.533 99.817C296.564 99.8723 296.59 99.9304 296.609 99.9906V100.001Z" fill="#2891A2"/>
<path d="M296.533 99.8171L307.272 93.5894C307.245 93.5351 307.212 93.4809 307.179 93.4158L296.446 99.6489L296.533 99.8279V99.8171Z" fill="#2995A7"/>
<path d="M296.446 99.6489L307.179 93.4212C307.152 93.3669 307.12 93.3127 307.087 93.2476L296.349 99.4861L296.446 99.6489Z" fill="#2A9AAC"/>
<path d="M296.348 99.4861L307.087 93.2475L306.984 93.0793L296.245 99.3071C296.278 99.3613 296.321 99.4156 296.348 99.4807V99.4861Z" fill="#2B9EB1"/>
<path d="M296.245 99.3127L306.984 93.085C306.946 93.0253 306.902 92.9765 306.864 92.9114L296.131 99.1337L296.245 99.3127Z" fill="#2DA3B6"/>
<path d="M296.131 99.1335L306.864 92.9112C306.821 92.8515 306.783 92.7864 306.734 92.7322L295.99 98.9599C296.039 99.0087 296.077 99.0684 296.131 99.1281V99.1335Z" fill="#2EA7BB"/>
<path d="M295.995 98.9545L306.739 92.7322L306.565 92.5315L295.832 98.7321C295.89 98.7958 295.945 98.8628 295.995 98.9328V98.9545Z" fill="#2FACC0"/>
<path d="M295.832 98.7321L306.571 92.5044C306.503 92.4185 306.431 92.337 306.353 92.2603L295.631 98.5205C295.712 98.5955 295.788 98.6752 295.859 98.7592L295.832 98.7321Z" fill="#30B0C5"/>
<path d="M295.631 98.5205L306.375 92.2874C306.17 92.0785 305.94 91.8962 305.69 91.7449L294.952 97.978C295.204 98.1263 295.435 98.3089 295.637 98.5205H295.631Z" fill="#32B5CA"/>
<path d="M251.151 72.7578C250.031 72.1177 249.129 72.6331 249.124 73.9133C249.157 74.6145 249.357 75.2977 249.708 75.9063C250.058 76.5148 250.549 77.0311 251.14 77.4123L294.914 102.643C296.044 103.289 296.952 102.784 296.952 101.488C296.917 100.786 296.716 100.103 296.363 99.4955C296.01 98.8878 295.517 98.373 294.925 97.9942L251.151 72.7578Z" fill="#C0C0F6"/>
<path d="M314.51 102.318C319.108 104.971 322.841 111.405 322.82 116.683V124.099L221.245 65.581V58.1544C221.245 52.8815 225 50.7441 229.603 53.4023L314.51 102.318ZM251.134 77.4126L294.908 102.643C296.039 103.289 296.946 102.785 296.946 101.488C296.912 100.787 296.71 100.103 296.357 99.4957C296.005 98.888 295.512 98.3732 294.919 97.9944L251.145 72.7581C250.026 72.1179 249.124 72.6333 249.118 73.9136C249.151 74.6148 249.352 75.298 249.702 75.9065C250.053 76.515 250.544 77.0313 251.134 77.4126Z" fill="#E3E3FC"/>
<path d="M228.245 52.735C228.054 52.659 227.853 52.5939 227.658 52.5343L227.294 52.4312C227.174 52.4312 227.06 52.3769 226.946 52.3607L226.511 52.2956L226.267 52.2684C226.086 52.2567 225.904 52.2567 225.723 52.2684H225.604C225.399 52.2814 225.196 52.3067 224.995 52.3444L224.837 52.3769C224.684 52.4101 224.533 52.4536 224.386 52.5071L224.245 52.556C224.057 52.6269 223.875 52.714 223.702 52.8164L234.44 46.5832L234.483 46.5561C234.619 46.4807 234.758 46.4137 234.902 46.3554C234.929 46.3505 234.956 46.3505 234.983 46.3554L235.136 46.3065C235.203 46.27 235.274 46.2409 235.347 46.2198L235.587 46.1655C235.63 46.1655 235.679 46.1384 235.739 46.1275H235.815C235.982 46.0947 236.15 46.0729 236.32 46.0624H236.483C236.612 46.0531 236.741 46.0531 236.869 46.0624H237.005H237.255C237.335 46.0666 237.414 46.0666 237.494 46.0624L237.701 46.1113L238.032 46.1818L238.217 46.2198C238.282 46.2198 238.342 46.2686 238.407 46.2849C238.597 46.3499 238.793 46.415 238.994 46.491L239.195 46.5615C239.238 46.5615 239.271 46.6049 239.315 46.6158C239.662 46.7677 240.005 46.9304 240.369 47.1582L325.254 96.0903C325.705 96.3563 326.139 96.6498 326.553 96.9691L326.765 97.1264C327.172 97.4465 327.564 97.7937 327.944 98.1571C327.972 98.191 328.005 98.2203 328.042 98.2439C328.096 98.2982 328.156 98.3687 328.21 98.4338C328.401 98.6237 328.596 98.8244 328.754 99.0251C328.814 99.0848 328.868 99.1499 328.928 99.2041C328.988 99.2584 329.015 99.3235 329.064 99.3777C329.113 99.432 329.281 99.649 329.395 99.7792C329.509 99.9094 329.536 99.9473 329.602 100.04C329.667 100.132 329.716 100.186 329.765 100.257C329.814 100.327 329.917 100.468 329.993 100.56C330.069 100.653 330.102 100.718 330.151 100.788C330.199 100.859 330.33 101.049 330.417 101.173C330.504 101.298 330.52 101.325 330.569 101.407L330.64 101.515C330.786 101.732 330.928 101.971 331.069 102.215C331.078 102.234 331.089 102.252 331.102 102.269C331.102 102.307 331.145 102.345 331.167 102.389C331.27 102.562 331.362 102.747 331.46 102.931C331.509 103.012 331.547 103.094 331.591 103.181C331.634 103.267 331.672 103.338 331.71 103.414C331.748 103.49 331.792 103.566 331.824 103.631C331.917 103.826 332.004 104.021 332.085 104.217L332.145 104.336C332.142 104.347 332.142 104.358 332.145 104.369C332.254 104.613 332.351 104.862 332.449 105.112C332.449 105.161 332.487 105.209 332.498 105.247C332.509 105.285 332.569 105.426 332.596 105.524C332.623 105.622 332.688 105.768 332.732 105.898L332.824 106.186C332.851 106.305 332.895 106.419 332.933 106.528C332.971 106.636 332.976 106.674 332.998 106.739C333.02 106.804 333.063 106.989 333.091 107.114C333.118 107.238 333.167 107.406 333.199 107.548C333.199 107.596 333.199 107.651 333.237 107.689C333.275 107.727 333.264 107.889 333.286 107.987C333.33 108.22 333.368 108.443 333.395 108.66C333.395 108.725 333.427 108.784 333.433 108.849C333.438 108.915 333.433 108.958 333.433 109.023C333.494 109.505 333.525 109.991 333.525 110.477V117.887L322.803 124.099V116.683C322.799 116.197 322.768 115.712 322.711 115.229C322.711 115.115 322.678 114.996 322.662 114.876C322.629 114.654 322.586 114.432 322.548 114.204C322.51 113.976 322.488 113.905 322.461 113.759C322.434 113.612 322.379 113.466 322.352 113.32C322.325 113.173 322.249 112.934 322.195 112.739C322.14 112.544 322.118 112.5 322.08 112.381C322.01 112.153 321.945 111.947 321.863 111.725C321.83 111.638 321.798 111.54 321.765 111.453C321.651 111.15 321.526 110.846 321.396 110.537C321.396 110.493 321.352 110.45 321.33 110.406C321.216 110.146 321.091 109.891 320.977 109.636C320.928 109.549 320.879 109.457 320.836 109.365C320.706 109.126 320.581 108.887 320.45 108.654C320.418 108.6 320.385 108.529 320.347 108.475C320.178 108.188 320.005 107.906 319.803 107.634C319.749 107.548 319.695 107.466 319.635 107.385C319.505 107.184 319.369 106.994 319.233 106.804C319.097 106.614 319.081 106.587 318.994 106.484C318.907 106.381 318.744 106.164 318.619 106.001C318.494 105.839 318.407 105.741 318.293 105.616C318.179 105.492 318.081 105.372 317.972 105.253C317.863 105.133 317.608 104.851 317.429 104.662C317.331 104.564 317.238 104.477 317.151 104.379C316.779 104.018 316.389 103.676 315.983 103.354L315.755 103.186C315.342 102.868 314.91 102.577 314.461 102.313L229.62 53.3968C229.283 53.1925 228.932 53.0112 228.571 52.8543L228.245 52.735Z" fill="#C0C0F6"/>
<path opacity="0.1" d="M104.177 224.426C88.0807 233.707 87.9937 248.756 103.993 258.059C119.991 267.363 146.001 267.341 162.103 258.059C178.205 248.778 178.286 233.724 162.287 224.469C146.289 215.214 120.269 215.154 104.177 224.426Z" fill="black"/>
<path d="M159.135 152.243C159.135 152.243 160.603 148.809 165.113 148.765C165.135 148.765 164.005 153.035 159.135 152.243Z" fill="#131C24"/>
<path d="M163.526 147.013C163.526 147.013 167.303 151.803 167.646 153.067C167.988 154.331 169.575 159.685 166.939 163.342C165.51 165.316 164.7 162.571 164.298 159.002C164.119 157.374 164.331 156.132 162.173 154.402C160.559 152.939 159.212 151.208 158.19 149.286C157.532 147.919 163.526 147.013 163.526 147.013Z" fill="#EFB185"/>
<path d="M158.271 149.53C158.94 150.854 160.853 153.149 161.163 155.118C161.538 157.483 164.119 157.353 164.298 158.97C164.613 161.763 165.244 164.085 166.13 164.015C165.727 161.91 168.184 160.293 165.505 155.416C164.537 153.642 161.315 149.959 159.5 148.44C158.429 148.961 158.021 149.004 158.271 149.53Z" fill="#E6A376"/>
<path d="M159.771 148.407C159.771 148.407 160.586 155.232 161.135 157.255C161.684 159.279 162.918 160.472 163.162 160.027C163.407 159.582 162.124 153.479 164.342 153.626C165.51 153.702 160.103 149.362 159.771 148.407Z" fill="#EFB185"/>
<path d="M143.202 93.3994C143.202 93.3994 150.06 91.8099 152.908 105.399C155.755 118.988 155.761 124.326 157.766 128.986C159.771 133.646 165.135 148.76 165.135 148.76C165.135 148.76 160.788 148.988 159.157 152.237C159.157 152.237 147.908 133.559 145.685 125.33C143.463 117.101 136.066 97.1697 143.202 93.3994Z" fill="#5FB9E6"/>
<path d="M157.766 128.986C155.761 124.321 155.761 119.01 152.908 105.399C151.359 98.0212 148.625 95.0918 146.446 94.0068C139.974 98.2762 147.109 117.632 149.288 125.704C150.951 131.861 157.44 144.425 160.657 150.42C161.949 149.434 163.511 148.867 165.135 148.792C165.135 148.792 159.771 133.646 157.766 128.986Z" fill="#77D2FF"/>
<path d="M136.344 224.99C136.344 224.99 134.518 229.243 136.344 230.322C138.17 231.402 138.409 232.628 141.327 232.4C144.245 232.172 143.827 233.127 144.827 234.212C145.827 235.297 156.152 239.778 158.103 237.608C160.054 235.438 154.581 232.867 152.636 231.597C150.69 230.328 146.066 225.234 145.946 223.775C145.827 222.315 136.344 224.99 136.344 224.99Z" fill="#111114"/>
<path d="M136.344 230.328C138.17 231.413 138.409 232.633 141.327 232.405C144.245 232.178 143.827 233.132 144.827 234.217C145.827 235.302 156.152 239.778 158.103 237.608C158.771 236.854 158.565 236.073 157.934 235.308C157.217 235.427 156.217 235.612 154.907 235.85C151.87 236.393 147.957 232.877 146.446 231.581C144.935 230.284 143.028 230.778 140.414 230.36C137.8 229.943 138.17 225.934 138.17 225.934L136.235 225.266C135.86 226.216 134.8 229.406 136.344 230.328Z" fill="#0A0A0A"/>
<path d="M117.926 238.78C117.926 238.78 117.155 243.803 119.089 246.51C121.024 249.217 125.268 253.931 127.105 253.714C128.942 253.497 129.23 252.678 129.23 252.678C129.651 249.957 129.455 247.176 128.654 244.541C127.29 240.467 127.197 238.796 127.197 238.796L117.926 238.78Z" fill="#111114"/>
<path d="M119.084 246.51C120.785 248.897 124.279 252.814 126.339 253.562C123.622 250.063 127.703 250.79 124.622 249.125C120.41 246.83 123.105 244.921 121.22 244.394C119.334 243.868 120.714 239.214 120.714 239.214L119.698 238.747H117.926C117.926 238.747 117.155 243.803 119.084 246.51Z" fill="#0A0A0A"/>
<path d="M140.273 157.119C140.273 157.119 148.968 156.186 151.848 149.774C152.268 159.974 151.946 170.19 150.886 180.343C149.125 196.748 147.674 225.613 147.674 225.613C147.674 225.613 142.061 230.903 136.262 225.613C136.262 225.613 134.632 206.556 136.262 195.999C136.262 195.999 135.175 177.511 136.979 168.262C138.784 159.013 140.273 157.119 140.273 157.119Z" fill="#EA49BD"/>
<path d="M147.68 225.614C147.68 225.614 149.131 196.743 150.891 180.343C151.961 169.476 152.348 158.553 152.049 147.637C149.93 152.34 144.506 156.246 141.87 156.859C142.071 163.125 142.658 181.586 142.566 187.721C142.479 193.569 141.327 217.753 140.843 227.914C144.713 228.386 147.68 225.614 147.68 225.614Z" fill="#FF61CB"/>
<path d="M119.872 156.143C119.872 156.143 119.04 165.734 118.861 180.647C118.682 195.56 117.595 201.18 117.231 203.469C116.867 205.759 115.601 230.718 116.318 238.004C116.318 238.004 121.04 245.273 128.475 238.004C128.475 238.004 129.741 212.41 131.012 206.589C132.284 200.768 139.387 172.472 142.251 162.317C143.512 157.847 143.816 156.138 143.816 156.138C143.816 156.138 131.306 165.121 119.872 156.143Z" fill="#EA49BD"/>
<path d="M128.475 238.015C128.475 238.015 129.741 212.42 131.012 206.599C132.284 200.779 139.387 172.483 142.251 162.327C143.132 159.443 144.556 156.753 146.446 154.402C146.446 154.402 138.224 160.147 131.116 160.136C130.801 162.306 127.784 183.208 127.078 192.348C126.388 201.397 120.176 233.252 121.845 241.242C123.676 241.291 125.91 240.51 128.475 238.015Z" fill="#FF61CB"/>
<path d="M128.051 96.562C128.051 96.562 115.269 104.254 115.008 105.301C114.747 106.348 111.476 109.039 117.225 120.317C117.225 120.317 124.703 132.485 122.296 145.337C120.899 152.801 119.464 156.729 119.464 156.729C119.464 156.729 125.986 165.029 142.077 157.814C145.338 156.355 150.62 151.413 152.049 147.631C150.604 139.908 150.224 132.023 150.919 124.196C152.087 111.431 152.092 94.9834 144.778 93.318C144.772 93.3071 142.783 91.2457 128.051 96.562Z" fill="#77D2FF"/>
<path d="M129.132 85.4846C129.132 85.4846 132.208 92.2006 128.388 95.7918C126.257 97.8153 129.589 103.929 136.816 104.575C136.816 104.575 140.131 104.282 139.99 103.083C139.659 100.343 140.941 99.025 142.392 97.1806C143.843 95.3361 129.132 85.4846 129.132 85.4846Z" fill="#EFB185"/>
<path d="M128.388 95.8134C128.126 96.0502 127.937 96.3571 127.844 96.6977C130.947 94.3921 136.121 94.978 136.121 94.978L130.491 86.4339L129.882 85.9836L129.578 86.6183C130.252 88.6906 131.235 93.1064 128.388 95.8134Z" fill="#DD9569"/>
<path d="M128.176 81.8336C128.176 81.8336 128.676 90.1662 133.659 94.6742C138.077 98.6778 143.479 101.689 145.446 95.9925C147 91.4573 151.136 79.935 147.381 76.9242C142.533 73.0291 141.18 68.9334 134.686 70.2462C134.686 70.2516 127.165 72.3944 128.176 81.8336Z" fill="#EFB185"/>
<path d="M128.176 81.8335C128.184 84.2425 128.669 86.6262 129.601 88.8481C130.534 91.0701 131.896 93.0867 133.61 94.7826C134.912 96.0038 136.346 97.0755 137.887 97.9778C135.599 95.6722 135.42 95.0429 133.773 92.3956C132.127 89.7483 136.985 91.4246 134.496 84.9311C133.643 82.7177 138.93 86.2222 140.218 86.3958C147.826 87.3614 147.924 82.9564 148.37 81.1391C148.348 80.3524 148.252 79.5695 148.082 78.801L147.582 77.3254L147.381 76.924C146.778 75.8487 146.097 74.8189 145.343 73.8427C142.082 73.4087 132.844 72.1827 132.648 72.2152C132.453 72.2478 130.599 74.1302 128.801 75.9421C128.128 77.8287 127.914 79.848 128.176 81.8335Z" fill="#E6A376"/>
<path d="M130.295 90.1554C130.295 90.1554 125.029 83.5859 128.415 75.8447C129.148 73.9614 130.463 72.3601 132.169 71.2726C133.875 70.1851 135.883 69.6679 137.903 69.796C141.419 69.9153 147.392 71.3909 148.946 78.747C149.424 81.0471 148.767 85.4575 140.572 81.9368C139.409 81.3943 136.224 80.4938 134.925 81.3563C133.626 82.2189 133.192 84.1338 133.49 85.8643C133.746 87.3833 132.442 87.3399 132.317 87.009C132.192 86.6781 131.23 82.3002 129.398 83.6781C127.774 84.9096 130.186 89.8516 130.295 90.1554Z" fill="#341C09"/>
<path d="M130.295 90.1554C130.186 89.8517 127.774 84.9096 129.393 83.6782C131.197 82.3057 132.197 86.6727 132.311 87.009C132.425 87.3454 133.74 87.3834 133.485 85.8644C133.186 84.1339 133.605 82.2189 134.92 81.3564C136.104 80.5752 138.876 81.492 140.566 81.9368C139.3 80.8139 136.523 80.0544 135.887 77.5481C135.034 74.1902 133.366 72.4325 131.665 71.5808C130.206 72.6668 129.077 74.1352 128.404 75.823C125.024 83.586 130.295 90.1554 130.295 90.1554Z" fill="#221101"/>
<path d="M153.044 77.8735C153.044 77.8735 149.614 86.4665 140.153 82.1212C140.153 82.1212 135.414 80.0435 134.132 75.1611C133.855 74.1141 132.958 72.3131 131.311 71.9062C131.311 71.9062 134.529 68.5862 141.267 70.116C144.441 70.8429 147.278 74.4559 148.022 75.096C148.767 75.7361 150.424 78.1176 153.044 77.8735Z" fill="#341C09"/>
<path d="M115.014 105.323C114.747 106.365 111.481 109.061 117.231 120.339C117.231 120.339 124.709 132.507 122.301 145.359C120.904 152.823 119.47 156.751 119.47 156.751C119.47 156.751 122.73 160.846 130.235 160.754C132.056 149.726 129.882 130.196 128.85 116.764C128.159 108.112 123.959 103.549 120.573 101.233C117.731 103.072 115.128 104.857 115.014 105.323Z" fill="#5FB9E6"/>
<path d="M142.495 107.645C142.495 107.645 142.18 102.291 141.207 101.309C140.235 100.327 141.289 98.6778 142.327 99.9472C143.011 100.861 143.487 101.912 143.723 103.028C143.723 103.028 144.713 96.8387 142.941 96.101C141.169 95.3632 147.87 95.9599 148.837 98.8785C149.805 101.797 151.391 104.819 146.12 110.526C145.339 110.345 144.609 109.993 143.982 109.494C143.354 108.996 142.847 108.364 142.495 107.645Z" fill="#E6A376"/>
<path d="M121.421 104.867C117.883 102.844 110.97 104.45 114.579 113.276C118.187 122.102 133.827 142.407 138.675 141.925C143.522 141.442 141.751 131.785 137.909 126.155C134.067 120.524 124.736 106.772 121.421 104.867Z" fill="#5FB9E6"/>
<path d="M140.066 141.648C140.066 141.648 149.082 130.348 148.033 108.497C148.033 108.497 145.419 109.831 142.224 107.222C142.224 107.206 128.464 145.223 140.066 141.648Z" fill="#5FB9E6"/>
<path d="M321.776 40.6158V43.1546L319.195 41.6682V38.9558C319.195 36.4224 318.32 34.3935 316.331 33.2434C314.342 32.0934 313.467 33.1241 313.467 35.6575V50.5541C313.467 53.0875 314.374 55.1381 316.331 56.2664C318.287 57.3948 319.195 56.3858 319.195 53.8524V50.1906L321.776 51.677V55.1761C321.776 59.44 320.032 61.2519 316.26 59.0765C312.489 56.9012 310.782 53.1092 310.782 48.8236V34.2796C310.782 30.0157 312.527 28.2038 316.26 30.3574C319.994 32.5111 321.776 36.3465 321.776 40.6158Z" fill="url(#paint1_linear)"/>
<path d="M334.84 48.1021V48.867L332.259 47.3806V46.453C332.259 43.9196 331.422 41.9449 329.466 40.8166C327.509 39.6882 326.672 40.6972 326.672 43.1926C326.672 49.5071 334.873 54.8398 334.873 62.7654C334.873 67.0294 333.09 68.7816 329.357 66.6279C325.624 64.4743 323.89 60.6986 323.89 56.4184V54.7909L326.439 56.2611V58.0458C326.439 60.5847 327.346 62.5919 329.303 63.7202C331.259 64.8486 332.167 63.883 332.167 61.3496C332.167 55.073 324.015 49.7567 324.015 41.8202C324.015 37.4803 325.759 35.7823 329.449 37.8926C333.139 40.0028 334.84 43.8382 334.84 48.1021Z" fill="url(#paint2_linear)"/>
<path d="M347.829 55.5936V56.3531L345.247 54.8667V53.9391C345.247 51.4057 344.41 49.4365 342.454 48.3027C340.497 47.1689 339.65 48.1887 339.65 50.6842C339.65 56.9987 347.85 62.3313 347.85 70.257C347.85 74.5209 346.068 76.2731 342.334 74.1195C338.601 71.9658 336.856 68.1793 336.856 63.9208V62.2933L339.405 63.7634V65.5374C339.405 68.0708 340.313 70.0834 342.269 71.2117C344.226 72.3401 345.133 71.3745 345.133 68.8411C345.133 62.5591 336.981 57.2482 336.981 49.3117C336.981 44.9718 338.726 43.2793 342.416 45.3895C346.106 47.4998 347.829 51.3243 347.829 55.5936Z" fill="url(#paint3_linear)"/>
<path d="M104.77 22.8765C105.221 23.1749 105.71 23.457 106.134 23.7011C107.911 24.6071 108.992 24.2436 108.998 21.4064V0L111.682 1.54608V22.7518C111.682 28.0193 109.411 28.3665 106.482 26.7553C105.894 26.445 105.325 26.1027 104.775 25.73L104.77 22.8765Z" fill="url(#paint4_linear)"/>
<path d="M117.128 27.1785L116.187 32.3104L113.677 30.862L118.356 5.36523L122.274 7.66536L126.969 38.5164L124.252 36.9486L123.307 30.7426L117.128 27.1785ZM117.475 24.6831L122.91 27.8241L120.165 9.98177L117.475 24.6831Z" fill="url(#paint5_linear)"/>
<path d="M130.301 12.2765L134.279 39.0589L138.224 16.8171L140.751 18.2926L136.175 43.8219L132.159 41.5109L127.54 10.687L130.301 12.2765Z" fill="url(#paint6_linear)"/>
<path d="M144.718 43.0841L143.778 48.2105L141.267 46.7621L145.941 21.2654L149.886 23.5384L154.565 54.4003L151.848 52.8325L150.897 46.6536L144.718 43.0841ZM145.066 40.5886L150.5 43.7296L147.761 25.8819L145.066 40.5886Z" fill="url(#paint7_linear)"/>
<path d="M172.048 89.6778V99.768L169.874 98.5203V76.0886L172.048 77.3418V87.432L176.83 90.1932V80.0976L179.004 81.3507V103.777L176.83 102.529V92.4337L172.048 89.6778Z" fill="url(#paint8_linear)"/>
<path d="M184.063 106.696V86.5369L180.476 84.4755V82.197L189.813 87.5839V89.8569L186.226 87.7955V107.954L184.063 106.696Z" fill="url(#paint9_linear)"/>
<path d="M198.497 115.007L196.41 113.802L193.182 94.0938V111.996L191.291 110.911V88.4248L194.323 90.1716L197.519 109.929L200.605 93.7954L203.632 95.5422V117.968L201.578 116.786V98.732L198.497 115.007Z" fill="url(#paint10_linear)"/>
<path d="M205.871 119.265V96.8333L208.045 98.081V118.261L213.572 121.44V123.713L205.871 119.265Z" fill="url(#paint11_linear)"/>
<path d="M84.0539 158.893L73.234 147.556V145.304L84.0539 146.433V148.727L75.7827 147.903L84.0539 156.615V158.893Z" fill="url(#paint12_linear)"/>
<path d="M98.0202 146.622L88.3905 169.255L86.0156 167.882L95.6454 145.255L98.0202 146.622Z" fill="url(#paint13_linear)"/>
<path d="M99.9929 165.778L108.27 166.608L99.9929 157.895V155.601L110.813 166.944V169.201L99.9929 168.072V165.778Z" fill="url(#paint14_linear)"/>
<path d="M368.333 144.143V146.677L365.735 145.19V142.478C365.735 139.944 364.86 137.91 362.871 136.76C360.882 135.61 360.012 136.641 360.012 139.174V154.065C360.012 156.604 360.92 158.655 362.871 159.783C364.822 160.911 365.735 159.902 365.735 157.369V153.707L368.316 155.194V158.693C368.316 162.962 366.572 164.769 362.8 162.599C359.029 160.429 357.323 156.631 357.323 152.357V137.791C357.323 133.527 359.067 131.715 362.8 133.863C366.534 136.011 368.333 139.879 368.333 144.143Z" fill="url(#paint15_linear)"/>
<path d="M380.837 153.724L380.103 161.552L382.06 162.68L381.848 164.812L379.891 163.684L379.125 171.729L376.892 170.443L377.658 162.393L374.484 160.575L373.68 168.604L371.446 167.318L372.256 159.273L370.229 158.107L370.436 155.975L372.425 157.125L373.191 149.313L371.131 148.131L371.338 145.999L373.365 147.165L373.995 140.606L376.229 141.892L375.598 148.451L378.81 150.301L379.44 143.758L381.674 145.044L381.044 151.608L382.995 152.736L382.788 154.868L380.837 153.724ZM378.604 152.438L375.424 150.604L374.658 158.405L377.87 160.255L378.604 152.438Z" fill="url(#paint16_linear)"/>
<path d="M314.054 228.098V218.333L302.587 211.72V195.761L285.306 185.79L270.09 159.555V149.791L285.349 158.584V146.758L270.09 137.959V128.872L289.257 139.917C293.294 142.25 296.566 140.362 296.566 135.708C296.566 131.053 293.305 125.4 289.257 123.073L249.482 100.142C245.445 97.8152 242.173 99.6976 242.173 104.352C242.173 109.007 245.434 114.659 249.482 116.987L268.334 127.836V136.923L253.39 128.314V140.161L268.334 148.771V158.893L253.862 167.237C252.352 166.363 250.504 165.322 248.211 164.047C243.95 161.687 239.706 159.403 237.885 158.432V126.339L248.124 132.241V134.281L252.738 133.874L248.124 128.14V130.196L236.108 123.274V159.555L237.032 160.043C242.651 163.027 248.673 166.32 253.096 168.853L268.34 195.213V207.934L253.395 199.325V211.173L268.34 219.782V235.064L252.58 225.988V238.839L286.175 258.2V245.333L270.09 236.073V228.32L273.97 233.143V231.098L289.316 239.94V243.803L314.038 258.049V248.284L302.571 241.676V221.496L314.054 228.098ZM300.805 240.64L289.333 234.027V237.89L273.986 229.047V227.002L270.106 227.349V220.791L285.366 229.59V217.742L270.09 208.948V196.591L285.306 187.846L300.827 196.786V210.679L289.355 204.071V213.836L300.827 220.449L300.805 240.64Z" fill="#FF61CB"/>
<path d="M246.178 127.229C246.178 127.229 246.858 121.05 247.515 119.878C248.173 118.706 250.835 113.694 255.373 112.918C257.83 112.484 256.46 115.088 254.178 117.963C253.14 119.276 252.091 120.03 252.422 122.845C252.553 125.065 252.292 127.291 251.651 129.42C251.183 130.825 246.178 127.229 246.178 127.229Z" fill="#EFB185"/>
<path d="M251.792 129.111C252.259 127.673 252.498 124.641 253.688 122.986C255.107 120.996 253.145 119.26 254.172 117.941C255.933 115.69 257.145 113.547 256.444 112.972C255.237 114.789 252.286 114.214 250.738 119.661C250.194 121.657 249.879 126.637 250.118 129.024C251.281 129.437 251.613 129.692 251.792 129.111Z" fill="#E6A376"/>
<path d="M249.906 128.883C249.906 128.883 254.199 123.35 255.254 121.478C256.308 119.607 256.27 117.871 255.754 118.023C255.237 118.175 251.83 123.523 250.319 121.82C249.52 120.93 250.341 127.95 249.906 128.883Z" fill="#EFB185"/>
<path d="M207.447 154.939C207.447 154.939 207.991 162.691 217.773 159.995C227.554 157.299 245.243 150.122 247.504 145.407C249.765 140.693 252.069 127.994 252.069 127.994C252.069 127.994 247.292 129.578 245.51 125.699L237.744 141.431C237.744 141.431 206.958 149.536 207.447 154.939Z" fill="#5FB9E6"/>
<path d="M207.447 154.939C206.958 149.514 237.76 141.415 237.76 141.415L245.526 125.683C245.778 126.276 246.164 126.803 246.653 127.223C247.142 127.643 247.722 127.946 248.346 128.108C247.531 132.133 245.934 139.348 244.347 142.646C242.091 147.366 224.424 154.548 214.615 157.244C211.762 158.025 209.724 157.912 208.213 157.385C207.808 156.624 207.548 155.795 207.447 154.939Z" fill="#77D2FF"/>
<g opacity="0.1">
<path opacity="0.1" d="M198.616 280.54C183.297 289.366 183.226 303.682 198.448 312.508C213.67 321.335 238.402 321.329 253.721 312.508C269.041 303.688 269.106 289.366 253.895 280.551C238.684 271.735 213.931 271.714 198.616 280.54Z" fill="black"/>
</g>
<path d="M223.43 281.256C223.43 281.256 227.12 281.798 226.223 283.93C225.326 286.062 221.088 289.285 220.533 290.63C219.979 291.975 216.512 296.755 215.398 296.304C214.284 295.854 211.371 296.527 211.708 291.064C212.045 285.601 218.517 281.039 223.43 281.256Z" fill="#111114"/>
<path d="M230.462 301.312C230.462 301.312 228.674 306.547 233.141 307.778C237.608 309.01 236.271 306.216 245.977 308.662C255.683 311.109 256.802 306.107 256.585 304.984C256.368 303.861 249.895 301.865 247.765 301.306C245.635 300.747 241.63 299.744 241.63 299.744H230.114L230.462 301.312Z" fill="#111114"/>
<path d="M212.115 209.355C212.115 209.355 212.056 240.993 212.056 244.552C212.056 248.11 208.067 276.184 210.463 288.449C210.463 288.449 217.376 295.366 223.506 288.449C223.506 288.449 225.457 253.313 227.228 245.376C229 237.44 228.38 213.196 228.38 213.196L212.115 209.355Z" fill="#31282E"/>
<path d="M224.234 213.852C224.234 213.852 225.81 234.277 227.435 254.539C227.435 254.539 228.451 294.742 229.408 300.525C229.408 300.525 242.396 303.747 243.684 297.639C243.684 297.639 243.358 262.253 243.684 254.864C244.01 247.476 244.771 226.839 241.852 214.937C238.934 203.035 224.234 213.852 224.234 213.852Z" fill="#31282E"/>
<path d="M229.408 300.536C228.451 294.753 227.435 254.55 227.435 254.55C226.348 240.912 225.261 227.208 224.718 219.7L232.739 221.664C232.739 221.664 238.516 236.821 237.63 259.551C236.94 277.144 236.657 294.444 236.543 301.388C234.14 301.367 231.747 301.081 229.408 300.536Z" fill="#231D21"/>
<path d="M210.463 288.449C208.067 276.184 212.056 248.121 212.056 244.551C212.056 241.156 212.104 212.312 212.115 209.583L219.088 214.932C219.088 214.932 221.305 237.553 219.088 250.437C217.071 262.155 218.365 284.977 217.392 291.52C213.528 291.52 210.463 288.449 210.463 288.449Z" fill="#231D21"/>
<path d="M210.175 151.895C210.175 151.895 203.475 155.232 207.279 166.602C211.083 177.973 213.746 185.318 213.528 189.555C213.311 193.791 211.751 208.048 210.849 210.95C210.849 210.95 209.762 220.313 231.163 225.885C231.163 225.885 248.803 227.664 245.906 216.077C243.01 204.489 241.88 185.774 242.331 181.309C242.782 176.844 245.461 167.937 234.299 161.921C223.136 155.904 217.316 151.461 210.175 151.895Z" fill="#77D2FF"/>
<path d="M242.314 181.314C241.869 185.774 242.988 204.495 245.89 216.082C247.896 224.116 240.043 225.722 235.021 225.95C233.391 220.78 236.108 211.547 232.407 200.263C227.81 186.311 228.457 177.088 230.918 169.662C232.511 164.839 235.418 164.709 237.478 164.031C244.874 169.868 242.717 177.354 242.314 181.314Z" fill="#5FB9E6"/>
<path d="M218.099 146.292C218.099 146.292 218.811 152.226 216.767 155.942C214.914 159.317 228.929 162.387 229.266 159.268C229.299 158.937 226.614 153.843 230 147.762C231.761 144.588 218.099 146.292 218.099 146.292Z" fill="#EFB185"/>
<path d="M216.832 156.149C218.349 153.393 218.349 149.395 218.24 147.534L228.473 152.606C228.103 152.693 221.191 154.445 219.696 159.409C217.593 158.568 216.169 157.38 216.832 156.149Z" fill="#DD9569"/>
<path d="M232.864 130.511C232.864 130.511 235.038 135.935 234.603 140.547C234.146 145.548 234.886 146.557 234.57 148.771C234.44 149.72 234.369 151.158 233.435 152.026C231.886 153.512 228.701 154.065 224.386 152.492C219.164 150.583 213.664 143.416 215.898 136.977C218.131 130.538 224.984 125.265 232.864 130.511Z" fill="#EFB185"/>
<path d="M216.137 143.97C218.229 138.171 223.424 131.221 223.376 130.858C223.343 130.63 225.066 129.55 227.027 128.4C229.127 128.571 231.142 129.3 232.864 130.511C233.299 131.646 233.662 132.807 233.951 133.988C232.706 135.371 230.147 136.955 229.788 138.138C228.897 140.905 229.402 145.12 230.223 146.97C231.043 148.819 227.701 151.548 228.408 153.197C228.43 153.27 228.43 153.347 228.408 153.42C227.026 153.313 225.666 153.01 224.37 152.519C221.05 151.293 217.61 147.924 216.137 143.97Z" fill="#E6A376"/>
<path d="M233.614 128.883C235.32 129.849 235.163 132.925 230.598 135.154C227.881 136.489 228.098 140.905 228.234 141.724C228.37 142.543 229.169 146.264 228.832 146.736C228.19 147.653 226.049 144.789 225.027 144.99C222.435 145.489 223.446 147.903 225.805 150.442C228.315 153.127 221.712 154.239 218.658 152.004C217.028 150.832 216.441 150.127 214.311 145.896C211.208 139.733 211.05 132.333 218.354 128.373C225.658 124.413 229.364 126.48 233.614 128.883Z" fill="#131C24"/>
<path d="M218.658 152.009C217.028 150.838 216.441 150.133 214.311 145.901C211.208 139.739 210.143 132.339 217.447 128.401C224.75 124.462 227.728 125.471 231.956 127.858C232.364 128.091 234.521 129.068 234.358 130.142C232.043 130.516 225.712 131.769 224.082 134.482C222.071 137.829 219.838 136.744 220.012 140.905C220.169 144.914 219.137 150.16 225.881 152.416C223.354 154.234 219.843 152.872 218.658 152.009Z" fill="#1D2833"/>
<path d="M228.473 157.423L233.043 161.259C233.043 161.259 218.838 165.322 214.67 158.367C214.083 157.38 214.789 154.082 217.273 153.485C217.273 153.463 217.751 159.127 228.473 157.423Z" fill="#DEF0F9"/>
<path d="M278.002 161.66C278.002 161.66 281.23 157.396 281.002 156.029C280.774 154.662 282.599 153.93 282.714 155.563C282.732 156.709 282.506 157.846 282.051 158.899C282.051 158.899 284.904 154.624 285.458 152.78C286.442 149.525 289.577 155.541 288.653 158.481C287.73 161.421 287.273 164.828 279.632 166.423C279.638 166.429 277.491 164.275 278.002 161.66Z" fill="#F1B287"/>
<path d="M230.761 166.461C230.761 166.461 227.256 173.394 237.065 176.074C246.874 178.754 265.742 181.58 270.09 178.672C274.437 175.765 282.926 166 282.926 166C282.926 166 278.007 164.915 278.459 160.684L263.742 170.248C263.742 170.248 233.103 161.562 230.761 166.461Z" fill="#5FB9E6"/>
<path d="M230.761 166.461C233.103 161.579 263.737 170.259 263.737 170.259L278.453 160.695C278.367 161.333 278.429 161.982 278.635 162.593C278.84 163.203 279.183 163.758 279.638 164.215C276.877 167.264 271.818 172.651 268.769 174.674C264.421 177.588 245.553 174.761 235.733 172.076C232.88 171.295 231.185 170.156 230.158 168.935C230.203 168.08 230.408 167.241 230.761 166.461Z" fill="#77D2FF"/>
<defs>
<linearGradient id="paint0_linear" x1="271.774" y1="53.1851" x2="271.774" y2="256.161" gradientUnits="userSpaceOnUse">
<stop stop-color="#FFF2C9"/>
<stop offset="1" stop-color="#FFB7BB"/>
</linearGradient>
<linearGradient id="paint1_linear" x1="6597.9" y1="2548.57" x2="6820.31" y2="2548.57" gradientUnits="userSpaceOnUse">
<stop stop-color="#FFF2C9"/>
<stop offset="1" stop-color="#FFB7BB"/>
</linearGradient>
<linearGradient id="paint2_linear" x1="6869.5" y1="2982.47" x2="7091.69" y2="2982.47" gradientUnits="userSpaceOnUse">
<stop stop-color="#FFF2C9"/>
<stop offset="1" stop-color="#FFB7BB"/>
</linearGradient>
<linearGradient id="paint3_linear" x1="7151.83" y1="3411.54" x2="7374.23" y2="3411.54" gradientUnits="userSpaceOnUse">
<stop stop-color="#FFF2C9"/>
<stop offset="1" stop-color="#FFB7BB"/>
</linearGradient>
<linearGradient id="paint4_linear" x1="1437.44" y1="702.249" x2="1525.3" y2="702.249" gradientUnits="userSpaceOnUse">
<stop stop-color="#FFF2C9"/>
<stop offset="1" stop-color="#FFB7BB"/>
</linearGradient>
<linearGradient id="paint5_linear" x1="2894.08" y1="1347.32" x2="3219.35" y2="1347.32" gradientUnits="userSpaceOnUse">
<stop stop-color="#FFF2C9"/>
<stop offset="1" stop-color="#FFB7BB"/>
</linearGradient>
<linearGradient id="paint6_linear" x1="3228.03" y1="1675.38" x2="3548.8" y2="1675.38" gradientUnits="userSpaceOnUse">
<stop stop-color="#FFF2C9"/>
<stop offset="1" stop-color="#FFB7BB"/>
</linearGradient>
<linearGradient id="paint7_linear" x1="3598.08" y1="2334.08" x2="3923.48" y2="2334.08" gradientUnits="userSpaceOnUse">
<stop stop-color="#FFF2C9"/>
<stop offset="1" stop-color="#FFB7BB"/>
</linearGradient>
<linearGradient id="paint8_linear" x1="3023.85" y1="4666.27" x2="3177.04" y2="4666.27" gradientUnits="userSpaceOnUse">
<stop stop-color="#FFF2C9"/>
<stop offset="1" stop-color="#FFB7BB"/>
</linearGradient>
<linearGradient id="paint9_linear" x1="3281.05" y1="4596.13" x2="3441.45" y2="4596.13" gradientUnits="userSpaceOnUse">
<stop stop-color="#FFF2C9"/>
<stop offset="1" stop-color="#FFB7BB"/>
</linearGradient>
<linearGradient id="paint10_linear" x1="4535.64" y1="5709.11" x2="4815.92" y2="5709.11" gradientUnits="userSpaceOnUse">
<stop stop-color="#FFF2C9"/>
<stop offset="1" stop-color="#FFB7BB"/>
</linearGradient>
<linearGradient id="paint11_linear" x1="3123.06" y1="5561.01" x2="3232.56" y2="5561.01" gradientUnits="userSpaceOnUse">
<stop stop-color="#FFF2C9"/>
<stop offset="1" stop-color="#FFB7BB"/>
</linearGradient>
<linearGradient id="paint12_linear" x1="1531.32" y1="3955.17" x2="1746.75" y2="3955.17" gradientUnits="userSpaceOnUse">
<stop stop-color="#FFF2C9"/>
<stop offset="1" stop-color="#FFB7BB"/>
</linearGradient>
<linearGradient id="paint13_linear" x1="1986.1" y1="7101.74" x2="2251.28" y2="7101.74" gradientUnits="userSpaceOnUse">
<stop stop-color="#FFF2C9"/>
<stop offset="1" stop-color="#FFB7BB"/>
</linearGradient>
<linearGradient id="paint14_linear" x1="2090.75" y1="4227.05" x2="2306.17" y2="4227.05" gradientUnits="userSpaceOnUse">
<stop stop-color="#FFF2C9"/>
<stop offset="1" stop-color="#FFB7BB"/>
</linearGradient>
<linearGradient id="paint15_linear" x1="7596.97" y1="8485.68" x2="7819.71" y2="8485.68" gradientUnits="userSpaceOnUse">
<stop stop-color="#FFF2C9"/>
<stop offset="1" stop-color="#FFB7BB"/>
</linearGradient>
<linearGradient id="paint16_linear" x1="9066.77" y1="9099.77" x2="9366.89" y2="9099.77" gradientUnits="userSpaceOnUse">
<stop stop-color="#FFF2C9"/>
<stop offset="1" stop-color="#FFB7BB"/>
</linearGradient>
</defs>
</svg>
